<?xml version="1.0" encoding="UTF-8"?><svg id="Layer_2" xmlns="http://www.w3.org/2000/svg" xmlns:xlink="http://www.w3.org/1999/xlink" viewBox="0 0 319.12 28.43"><defs><linearGradient id="linear-gradient" x1="159.56" y1="-.43" x2="159.56" y2="33.89" gradientUnits="userSpaceOnUse"><stop offset="0" stop-color="#657f91"/><stop offset="1" stop-color="#c3d0dc"/></linearGradient></defs><g id="Layer_1-2"><path d="M319.12,28.43V6.07c-5.6.11-11.14.3-16.37,1.08-5,.75-8.56,2.45-12.44,3.78-3.1,1.06-6.35,2.01-10.79,1.82-4.53-.2-8.58-1.14-13.09-1.31-.42-.02-.84-.03-1.26-.03-.1,0-.2,0-.3,0-.4,0-.81,0-1.21,0-.05,0-.09,0-.14,0-.37,0-.73,0-1.1.01-.13,0-.26,0-.39,0-3.36.06-6.65.2-10.01-.26-3.42-.46-5.97-1.47-8.37-2.44-3.16-1.28-6.36-2.29-10.97-2.75-8.9-.88-17.95-.74-27.02-.88,0,0,0,0,0,0-1.33-.02-2.65-.05-3.98-.08-3.78-.11-7.34-.35-10.77-.98-3.06-.56-5.85-1.29-8.67-1.99-2.76-.69-5.64-1.39-8.85-1.75-3.67-.41-7.49-.36-11.1.13-.87.12-1.72.25-2.57.38-.11.02-.23.04-.34.05-.83.13-1.66.27-2.48.42-.03,0-.06.01-.1.02,0,0,.01,0,.02,0-6.74,1.19-13.12,2.7-20.32,3.48-8.85.96-18.34-.1-27.33-.2-1.72-.02-3.46-.01-5.21,0,0,0,0,0,.01,0-.88,0-1.77.02-2.66.02-.2,0-.41,0-.61,0-.33,0-.66,0-.98,0-.33,0-.67,0-1,0-.24,0-.47,0-.71,0-.56,0-1.11,0-1.67,0-.12,0-.24,0-.36,0-.45,0-.89,0-1.34,0-.2,0-.4,0-.6,0-.37,0-.74-.01-1.11-.02-.21,0-.43,0-.64-.01-.37,0-.73-.02-1.1-.03-.2,0-.4-.01-.6-.02-.44-.02-.87-.04-1.31-.06-.12,0-.24-.01-.36-.02-.55-.03-1.1-.07-1.64-.11-.14-.01-.29-.02-.43-.04-.4-.03-.8-.07-1.2-.11-.19-.02-.38-.04-.57-.06-.36-.04-.71-.08-1.07-.12-.19-.02-.39-.05-.58-.07-.37-.05-.73-.1-1.09-.16-.17-.03-.34-.05-.5-.08-.52-.08-1.04-.18-1.56-.28-4.15-.81-8.14-1.94-12.77-2.34-4.48-.39-7.78.2-11.49,1.08-8.38,1.99-17.87,3.21-27.14,4.49-3.76.52-7.45,1.07-11.34,1.43-3.42.32-6.87.58-10.35.77-.59.03-1.18.06-1.77.09-.12,0-.24.01-.36.02-.44.02-.89.04-1.33.06-.51.02-1.03.04-1.54.06-.04,0-.08,0-.12,0-.57.02-1.14.03-1.7.04,0,0,0,0,0,0-.12,0-.25,0-.37,0v19.34h319.12Z" style="fill:url(#linear-gradient); stroke-width:0px;"/></g></svg>