<?xml version="1.0" encoding="UTF-8"?><svg xmlns="http://www.w3.org/2000/svg" xmlns:xlink="http://www.w3.org/1999/xlink" viewBox="0 0 722.62 95.44"><defs><radialGradient id="_횂횁_횕_횑횑_횊_횏횂횑횣_668" cx="371.2" cy="-67.4" fx="371.2" fy="-67.4" r="5.61" gradientTransform="translate(0 147.63) scale(1 1.17)" gradientUnits="userSpaceOnUse"><stop offset=".01" stop-color="#00bd00"/><stop offset=".04" stop-color="#00af00"/><stop offset=".16" stop-color="#008100"/><stop offset=".29" stop-color="#005900"/><stop offset=".42" stop-color="#003900"/><stop offset=".55" stop-color="#001f00"/><stop offset=".69" stop-color="#000e00"/><stop offset=".83" stop-color="#000300"/><stop offset="1" stop-color="#000"/></radialGradient><radialGradient id="_횂횁_횕_횑횑_횊_횏횂횑횣_668-2" cy="-67.4" fy="-67.4" r="3.93" xlink:href="#_횂횁_횕_횑횑_횊_횏횂횑횣_668"/><radialGradient id="_횂횁_횕_횑횑_횊_횏횂횑횣_668-3" cx="448.05" cy="41.35" fx="448.05" fy="41.35" r="6.17" gradientTransform="translate(-220.3 3.36) scale(1.32 1.57)" xlink:href="#_횂횁_횕_횑횑_횊_횏횂횑횣_668"/><radialGradient id="_횂횁_횕_횑횑_횊_횏횂횑횣_668-4" cx="535.29" cy="-636.87" fx="535.29" fy="-636.87" r="2.33" gradientTransform="translate(689.27 723.94) rotate(-80.14) scale(.96 1.17)" xlink:href="#_횂횁_횕_횑횑_횊_횏횂횑횣_668"/><radialGradient id="_횂횁_횕_횑횑_횊_횏횂횑횣_668-5" cx="535.29" cy="-636.87" fx="535.29" fy="-636.87" r="1.63" gradientTransform="translate(689.27 723.94) rotate(-80.14) scale(.96 1.17)" xlink:href="#_횂횁_횕_횑횑_횊_횏횂횑횣_668"/><radialGradient id="_횂횁_횕_횑횑_횊_횏횂횑횣_668-6" cx="572.72" cy="-385.06" fx="572.72" fy="-385.06" r="2.56" gradientTransform="translate(510.77 906.83) rotate(-80.14) scale(1.26 1.57)" xlink:href="#_횂횁_횕_횑횑_횊_횏횂횑횣_668"/><radialGradient id="_횂횁_횕_횑횑_횊_횏횂횑횣_668-7" cx="649" cy="-567.47" fx="649" fy="-567.47" r="2.61" gradientTransform="translate(924.69 676.84) rotate(-92.21) scale(.96 1.55)" xlink:href="#_횂횁_횕_횑횑_횊_횏횂횑횣_668"/><radialGradient id="_횂횁_횕_횑횑_횊_횏횂횑횣_668-8" cx="649" cy="-567.47" fx="649" fy="-567.47" r="1.83" gradientTransform="translate(924.69 676.84) rotate(-92.21) scale(.96 1.55)" xlink:href="#_횂횁_횕_횑횑_횊_횏횂횑횣_668"/><radialGradient id="_횂횁_횕_횑횑_횊_횏횂횑횣_668-9" cx="658.73" cy="-333.36" fx="658.73" fy="-333.36" r="2.88" gradientTransform="translate(742.51 894.62) rotate(-92.21) scale(1.26 2.07)" xlink:href="#_횂횁_횕_횑횑_횊_횏횂횑횣_668"/><radialGradient id="_횂횁_횕_횑횑_횊_횏횂횑횣_668-10" cx="696.34" cy="-263.45" fx="696.34" fy="-263.45" r="2.75" gradientTransform="translate(860.75 768.48) rotate(-92.21) scale(1.07 1.26)" xlink:href="#_횂횁_횕_횑횑_횊_횏횂횑횣_668"/><radialGradient id="_횂횁_횕_횑횑_횊_횏횂횑횣_668-11" cx="696.34" cy="-263.45" fx="696.34" fy="-263.45" r="1.92" gradientTransform="translate(860.75 768.48) rotate(-92.21) scale(1.07 1.26)" xlink:href="#_횂횁_횕_횑횑_횊_횏횂횑횣_668"/><radialGradient id="_횂횁_횕_횑횑_횊_횏횂횑횣_668-12" cx="693.79" cy="-105.32" fx="693.79" fy="-105.32" r="3.02" gradientTransform="translate(714.81 1008.92) rotate(-92.21) scale(1.41 1.68)" xlink:href="#_횂횁_횕_횑횑_횊_횏횂횑횣_668"/><radialGradient id="_횂횁_횕_횑횑_횊_횏횂횑횣_668-13" cx="648.21" cy="-119.97" fx="648.21" fy="-119.97" r="2.41" gradientTransform="translate(860.75 768.48) rotate(-92.21) scale(1.07 1.26)" xlink:href="#_횂횁_횕_횑횑_횊_횏횂횑횣_668"/><radialGradient id="_횂횁_횕_횑횑_횊_횏횂횑횣_668-14" cx="648.21" cy="-119.97" fx="648.21" fy="-119.97" r="1.69" gradientTransform="translate(860.75 768.48) rotate(-92.21) scale(1.07 1.26)" xlink:href="#_횂횁_횕_횑횑_횊_횏횂횑횣_668"/><radialGradient id="_횂횁_횕_횑횑_횊_횏횂횑횣_668-15" cx="657.33" cy="2.22" fx="657.33" fy="2.22" r="2.65" gradientTransform="translate(714.81 1008.92) rotate(-92.21) scale(1.41 1.68)" xlink:href="#_횂횁_횕_횑횑_횊_횏횂횑횣_668"/><radialGradient id="_횂횁_횕_횑횑_횊_횏횂횑횣_668-16" cx="712.35" cy="-193.59" fx="712.35" fy="-193.59" r="2.74" gradientTransform="translate(860.75 768.48) rotate(-92.21) scale(1.07 1.26)" xlink:href="#_횂횁_횕_횑횑_횊_횏횂횑횣_668"/><radialGradient id="_횂횁_횕_횑횑_횊_횏횂횑횣_668-17" cx="712.35" cy="-193.59" fx="712.35" fy="-193.59" r="1.92" gradientTransform="translate(860.75 768.48) rotate(-92.21) scale(1.07 1.26)" xlink:href="#_횂횁_횕_횑횑_횊_횏횂횑횣_668"/><radialGradient id="_횂횁_횕_횑횑_횊_횏횂횑횣_668-18" cx="705.92" cy="-52.96" fx="705.92" fy="-52.96" r="3.02" gradientTransform="translate(714.81 1008.92) rotate(-92.21) scale(1.41 1.68)" xlink:href="#_횂횁_횕_횑횑_횊_횏횂횑횣_668"/><radialGradient id="_횂횁_횕_횑횑_횊_횏횂횑횣_668-19" cx="725.34" cy="-189.34" fx="725.34" fy="-189.34" r="1.82" gradientTransform="translate(860.75 768.48) rotate(-92.21) scale(1.07 1.26)" xlink:href="#_횂횁_횕_횑횑_횊_횏횂횑횣_668"/><radialGradient id="_횂횁_횕_횑횑_횊_횏횂횑횣_668-20" cx="725.34" cy="-189.34" fx="725.34" fy="-189.34" r="1.28" gradientTransform="translate(860.75 768.48) rotate(-92.21) scale(1.07 1.26)" xlink:href="#_횂횁_횕_횑횑_횊_횏횂횑횣_668"/><radialGradient id="_횂횁_횕_횑횑_횊_횏횂횑횣_668-21" cx="715.78" cy="-49.74" fx="715.78" fy="-49.74" r="2.01" gradientTransform="translate(714.81 1008.92) rotate(-92.21) scale(1.41 1.68)" xlink:href="#_횂횁_횕_횑횑_횊_횏횂횑횣_668"/><radialGradient id="_횂횁_횕_횑횑_횊_횏횂횑횣_668-22" cx="644.75" cy="-312.12" fx="644.75" fy="-312.12" r="2.16" gradientTransform="translate(1096.31 759.12) rotate(-92.21) scale(1.07 1.78)" xlink:href="#_횂횁_횕_횑횑_횊_횏횂횑횣_668"/><radialGradient id="_횂횁_횕_횑횑_횊_횏횂횑횣_668-23" cx="644.75" cy="-312.12" fx="644.75" fy="-312.12" r="1.51" gradientTransform="translate(1096.31 759.12) rotate(-92.21) scale(1.07 1.78)" xlink:href="#_횂횁_횕_횑횑_횊_횏횂횑횣_668"/><radialGradient id="_횂횁_횕_횑횑_횊_횏횂횑횣_668-24" cx="655.16" cy="-141.66" fx="655.16" fy="-141.66" r="2.37" gradientTransform="translate(886.39 1002.66) rotate(-92.21) scale(1.41 2.37)" xlink:href="#_횂횁_횕_횑횑_횊_횏횂횑횣_668"/><radialGradient id="_횂횁_횕_횑횑_횊_횏횂횑횣_668-25" cx="644.13" cy="-244.93" fx="644.13" fy="-244.93" r="2.16" gradientTransform="translate(883.26 766.96) rotate(-92.21) scale(1.07 1.29)" xlink:href="#_횂횁_횕_횑횑_횊_횏횂횑횣_668"/><radialGradient id="_횂횁_횕_횑횑_횊_횏횂횑횣_668-26" cx="644.13" cy="-244.93" fx="644.13" fy="-244.93" r="1.51" gradientTransform="translate(883.26 766.96) rotate(-92.21) scale(1.07 1.29)" xlink:href="#_횂횁_횕_횑횑_횊_횏횂횑횣_668"/><radialGradient id="_횂횁_횕_횑횑_횊_횏횂횑횣_668-27" cx="655.05" cy="-91.08" fx="655.05" fy="-91.08" r="2.37" gradientTransform="translate(732.57 1008.75) rotate(-92.21) scale(1.41 1.73)" xlink:href="#_횂횁_횕_횑횑_횊_횏횂횑횣_668"/><radialGradient id="_횂횁_횕_횑횑_횊_횏횂횑횣_668-28" cx="679.29" cy="-594.05" fx="679.29" fy="-594.05" r="2.14" gradientTransform="translate(857.42 679.3) rotate(-92.21) scale(.96 1.26)" xlink:href="#_횂횁_횕_횑횑_횊_횏횂횑횣_668"/><radialGradient id="_횂횁_횕_횑횑_횊_횏횂횑횣_668-29" cx="679.29" cy="-594.05" fx="679.29" fy="-594.05" r="1.5" gradientTransform="translate(857.42 679.3) rotate(-92.21) scale(.96 1.26)" xlink:href="#_횂횁_횕_횑횑_횊_횏횂횑횣_668"/><radialGradient id="_횂횁_횕_횑횑_횊_횏횂횑횣_668-30" cx="681.35" cy="-353" fx="681.35" fy="-353" r="2.36" gradientTransform="translate(710.48 895.27) rotate(-92.21) scale(1.26 1.68)" xlink:href="#_횂횁_횕_횑횑_횊_횏횂횑횣_668"/><radialGradient id="_횂횁_횕_횑횑_횊_횏횂횑횣_668-31" cx="621.81" cy="-129.21" fx="621.81" fy="-129.21" r="2.14" gradientTransform="translate(857.42 679.3) rotate(-92.21) scale(.96 1.26)" xlink:href="#_횂횁_횕_횑횑_횊_횏횂횑횣_668"/><radialGradient id="_횂횁_횕_횑횑_횊_횏횂횑횣_668-32" cx="621.81" cy="-129.21" fx="621.81" fy="-129.21" r="1.5" gradientTransform="translate(857.42 679.3) rotate(-92.21) scale(.96 1.26)" xlink:href="#_횂횁_횕_횑횑_횊_횏횂횑횣_668"/><radialGradient id="_횂횁_횕_횑횑_횊_횏횂횑횣_668-33" cx="637.78" cy="-4.65" fx="637.78" fy="-4.65" r="2.36" gradientTransform="translate(710.48 895.27) rotate(-92.21) scale(1.26 1.68)" xlink:href="#_횂횁_횕_횑횑_횊_횏횂횑횣_668"/><radialGradient id="_횂횁_횕_횑횑_횊_횏횂횑횣_668-34" cx="693.76" cy="-265.92" fx="693.76" fy="-265.92" r="1.3" gradientTransform="translate(857.42 679.3) rotate(-92.21) scale(.96 1.26)" xlink:href="#_횂횁_횕_횑횑_횊_횏횂횑횣_668"/><radialGradient id="_횂횁_횕_횑횑_횊_횏횂횑횣_668-35" cx="693.76" cy="-265.92" fx="693.76" fy="-265.92" r=".91" gradientTransform="translate(857.42 679.3) rotate(-92.21) scale(.96 1.26)" xlink:href="#_횂횁_횕_횑횑_횊_횏횂횑횣_668"/><radialGradient id="_횂횁_횕_횑횑_횊_횏횂횑횣_668-36" cx="692.31" cy="-107.05" fx="692.31" fy="-107.05" r="1.43" gradientTransform="translate(710.48 895.27) rotate(-92.21) scale(1.26 1.68)" xlink:href="#_횂횁_횕_횑횑_횊_횏횂횑횣_668"/><radialGradient id="_횂횁_횕_횑횑_횊_횏횂횑횣_668-37" cx="368.41" cy="-50.56" fx="368.41" fy="-50.56" r="3.81" xlink:href="#_횂횁_횕_횑횑_횊_횏횂횑횣_668"/><radialGradient id="_횂횁_횕_횑횑_횊_횏횂횑횣_668-38" cx="368.41" cy="-50.56" fx="368.41" fy="-50.56" r="2.67" xlink:href="#_횂횁_횕_횑횑_횊_횏횂횑횣_668"/><radialGradient id="_횂횁_횕_횑횑_횊_횏횂횑횣_668-39" cx="445.96" cy="54.06" fx="445.96" fy="54.06" r="4.2" gradientTransform="translate(-220.3 3.36) scale(1.32 1.57)" xlink:href="#_횂횁_횕_횑횑_횊_횏횂횑횣_668"/><radialGradient id="_횂횁_횕_횑횑_횊_횏횂횑횣_668-40" cx="263.29" cy="-58.6" fx="263.29" fy="-58.6" r="2.73" xlink:href="#_횂횁_횕_횑횑_횊_횏횂횑횣_668"/><radialGradient id="_횂횁_횕_횑횑_횊_횏횂횑횣_668-41" cx="263.29" cy="-58.6" fx="263.29" fy="-58.6" r="1.91" xlink:href="#_횂횁_횕_횑횑_횊_횏횂횑횣_668"/><radialGradient id="_횂횁_횕_횑횑_횊_횏횂횑횣_668-42" cx="366.34" cy="48.1" fx="366.34" fy="48.1" r="3.01" gradientTransform="translate(-220.3 3.36) scale(1.32 1.57)" xlink:href="#_횂횁_횕_횑횑_횊_횏횂횑횣_668"/><radialGradient id="_횂횁_횕_횑횑_횊_횏횂횑횣_668-43" cx="331.96" cy="-59.25" fx="331.96" fy="-59.25" r="4.42" xlink:href="#_횂횁_횕_횑횑_횊_횏횂횑횣_668"/><radialGradient id="_횂횁_횕_횑횑_횊_횏횂횑횣_668-44" cx="331.96" cy="-59.25" fx="331.96" fy="-59.25" r="3.09" xlink:href="#_횂횁_횕_횑횑_횊_횏횂횑횣_668"/><radialGradient id="_횂횁_횕_횑횑_횊_횏횂횑횣_668-45" cx="418.33" cy="47.52" fx="418.33" fy="47.52" r="4.86" gradientTransform="translate(-220.3 3.36) scale(1.32 1.57)" xlink:href="#_횂횁_횕_횑횑_횊_횏횂횑횣_668"/></defs><g style="isolation:isolate;"><g id="Layer_2"><g id="lake"><path d="M496.72,38.38c-.5.63.08,1.46.85,1.31.55-.11.91-1.17.88-1.71-.8-.32-1.84.03-2.07.9l.33-.5Z" style="fill:#ffffb1; fill-rule:evenodd; stroke-width:0px;"/><path d="M495.27,38.03c0-.63,1.01-.21,1.22.27-.42.24-2.08,1-1.55-.19l.33-.08Z" style="fill:#ffffb1; fill-rule:evenodd; stroke-width:0px;"/><path d="M513.11,36.46c-.19.12-.31.38-.32.65.56.18,1.11.2,1.72.17.03-.62.17-1.08-.48-1.24-.42-.1-.96.24-1.17.58l.25-.17Z" style="fill:#ffffb1; fill-rule:evenodd; stroke-width:0px;"/><path d="M520.6,37.38c-.08-.66,1.06-.27,1.24.23-.63.23-2.04.91-2.69.51-1.37-.84.94-1,1.45-.91v.17Z" style="fill:#ffffb1; fill-rule:evenodd; stroke-width:0px;"/><path d="M522.93,38.46c.99-.5-.29,1.72-.82.19.27-.21.6-.26.91-.1l-.08-.08Z" style="fill:#ffffb1; fill-rule:evenodd; stroke-width:0px;"/><path d="M82.88,59.39c-1.08.7.37,1.01.91,1.09.61.09,1.66.3,2.07-.3.96-1.4-2.61-1.52-3.07-.7l.08-.08Z" style="fill:#ffffb1; fill-rule:evenodd; stroke-width:0px;"/><path d="M94.41,57.65c.09-.72,2.06-.96,1.93.4-.12,1.24-2.14.82-1.93-.56v.16Z" style="fill:#ffffb1; fill-rule:evenodd; stroke-width:0px;"/><path d="M97.41,57.51c-.11.03-.12-.2-.17,0,.2.46,1.73.67,1.68,0-.05-.72-1.43-.44-1.67,0h.17Z" style="fill:#ffffb1; fill-rule:evenodd; stroke-width:0px;"/><path d="M671.03,91.2c1.06-.9,3.61.31,2.35,1.52-.64.61-3.76,1.09-3.77-.35,0-.67,1.1-1.36,1.66-1.32.05.24-.08.28-.24.4v-.25Z" style="fill:#ffffb1; fill-rule:evenodd; stroke-width:0px;"/><path d="M674.81,89.41c-1.49,1.27,1.35,1.8,1.92.77.64-1.16-1.5-1.65-2.08-.45l.16-.33Z" style="fill:#ffffb1; fill-rule:evenodd; stroke-width:0px;"/><path d="M497.06,29.47s-.01.14-.16.07c.46-.56,1.42.12.86.76-.42.48-1.53.32-1.78-.23.31-.36.7-.61,1.15-.68l-.08.08Z" style="fill:#ffffb1; fill-rule:evenodd; stroke-width:0px;"/><path d="M501.55,30.56c-.01.48.77.17.6-.27-.15-.39-.83-.33-.77.19l.17.08Z" style="fill:#ffffb1; fill-rule:evenodd; stroke-width:0px;"/><path d="M498.89,37.13c-.04,1.05.26,1.46,1.33,1.42.78-.03,1.78-.15,1.75-1.08-.06-1.58-2.78-1.45-3.16-.08l.08-.25Z" style="fill:#ffffb1; fill-rule:evenodd; stroke-width:0px;"/><path d="M503.05,38.71c.72-.8.67,1.16,0,.25v-.25Z" style="fill:#ffffb1; fill-rule:evenodd; stroke-width:0px;"/><path d="M479.47,93.69c-.85.12-1.01,1.2-.3,1.65.51.32,1.57-.25,1.95-.69-.39-.84-1.46-1.32-2.27-.81l.63-.15Z" style="fill:#ffffb1; fill-rule:evenodd; stroke-width:0px;"/><path d="M473.72,94.3c0-.67,1.08-.23,1.3.29-.45.25-2.23,1.07-1.66-.2l.36-.09Z" style="fill:#ffffb1; fill-rule:evenodd; stroke-width:0px;"/><path d="M496.95,93.02c-.21.12-.34.41-.34.7.6.19,1.18.22,1.85.18.03-.67.18-1.16-.52-1.33-.45-.11-1.03.25-1.25.63l.27-.18Z" style="fill:#ffffb1; fill-rule:evenodd; stroke-width:0px;"/><path d="M508.21,93.34c-.08-.71,1.14-.29,1.33.25-.67.24-2.19.97-2.88.55-1.46-.9,1.01-1.07,1.56-.97v.18Z" style="fill:#ffffb1; fill-rule:evenodd; stroke-width:0px;"/><path d="M512.7,93.26c1.06-.53-.31,1.85-.88.2.29-.23.65-.28.97-.11l-.09-.09Z" style="fill:#ffffb1; fill-rule:evenodd; stroke-width:0px;"/><path d="M512.97,91.31c-1.44.94.49,1.35,1.22,1.46.82.12,2.23.4,2.78-.41,1.28-1.88-3.5-2.04-4.12-.94l.11-.11Z" style="fill:#ffffb1; fill-rule:evenodd; stroke-width:0px;"/><path d="M538.93,90.82c.1-.78,2.2-1.03,2.07.43-.12,1.33-2.29.88-2.07-.6v.17Z" style="fill:#ffffb1; fill-rule:evenodd; stroke-width:0px;"/><path d="M591.28,2.62c.1-.78,2.2-1.03,2.07.43-.12,1.33-2.29.88-2.07-.6v.17Z" style="fill:#ffffb1; fill-rule:evenodd; stroke-width:0px;"/><path d="M554.55,90.67c-.11.03-.12-.21-.19,0,.21.49,1.85.71,1.8,0-.06-.77-1.54-.47-1.79,0h.18Z" style="fill:#ffffb1; fill-rule:evenodd; stroke-width:0px;"/><path d="M556.28,76.1c-.11.03-.12-.21-.19,0,.21.49,1.85.71,1.8,0-.06-.77-1.54-.47-1.79,0h.18Z" style="fill:#ffffb1; fill-rule:evenodd; stroke-width:0px;"/><path d="M99.87,41.14c-.11.03-.12-.21-.19,0,.21.49,1.85.71,1.8,0-.06-.77-1.54-.47-1.79,0h.18Z" style="fill:#ffffb1; fill-rule:evenodd; stroke-width:0px;"/><path d="M481.71,93.74c-.04,1.12.27,1.56,1.43,1.52.84-.03,1.91-.16,1.87-1.16-.06-1.69-2.98-1.56-3.39-.09l.09-.27Z" style="fill:#ffffb1; fill-rule:evenodd; stroke-width:0px;"/><path d="M500.4,93.55c.77-.86.71,1.24,0,.27v-.27Z" style="fill:#ffffb1; fill-rule:evenodd; stroke-width:0px;"/><path d="M641.5,43.77c.02.15-.05.22-.21.21.07-1.65,1.75-.93,1.67.31-.09,1.45-2.18,1.02-1.47-.52Z" style="fill:#ffffb1; fill-rule:evenodd; stroke-width:0px;"/><path d="M642.61,37.93c-.22.22-.34.54-.39.87.81,1,2.16.49,1.99-.85-.57-.23-1.48-.34-1.85.23l.25-.25Z" style="fill:#ffffb1; fill-rule:evenodd; stroke-width:0px;"/><path d="M719.97,59.49c.05-1.01,3.72-1.05,2.34.85-.8,1.11-3.48,1.12-2.72-.73l.37-.12Z" style="fill:#ffffb1; fill-rule:evenodd; stroke-width:0px;"/><path d="M440.77,64.11c.05-1.01,3.72-1.05,2.34.85-.8,1.11-3.48,1.12-2.72-.73l.37-.12Z" style="fill:#ffffb1; fill-rule:evenodd; stroke-width:0px;"/><path d="M585.83,16.92c-.23.27-.32.69-.23,1.1.93.38,4.29.45,3.55-1.48-.7-1.81-2.77-.47-3.44.38h.12Z" style="fill:#ffffb1; fill-rule:evenodd; stroke-width:0px;"/><path d="M366.12,87.43c-1.16,3.12,4.35,4.53,4.4.91.05-3.69-5.5-3.67-3.74-.58l-.66-.33Z" style="fill:#ffffb1; fill-rule:evenodd; stroke-width:0px;"/><path d="M330.36,77.43c-.65,1.76,2.32,4.54,3.4,1.74.56-1.44-1.72-4.1-3.34-4.01-.5.8-.43,1.47-.06,2.27h0Z" style="fill:#ffffb1; fill-rule:evenodd; stroke-width:0px;"/><path d="M327.22,59.28c-.24,3.71,4.02-1.62.33-.66l-.33.66Z" style="fill:#ffffb1; fill-rule:evenodd; stroke-width:0px;"/><path d="M369.64,66.68c-.82-2,.75-2.81,2.33-1.21.62.63,1.99,3.39,1.87,4.19-.65,4.49-6.54.09-4.49-3.27l.28.28Z" style="fill:#ffffb1; fill-rule:evenodd; stroke-width:0px;"/><path d="M262.26,76.52c-.63.22-.19,2.6.34,3.77,2.98.67,1.96-3.63.24-3.47l-.59-.29Z" style="fill:#ffffb1; fill-rule:evenodd; stroke-width:0px;"/><path d="M22.44,89.78c-1.43-.12-6.77,1.07-3.18,2.18.72.22,2.83.09,3.51-.18.98-.38,1.57-1.26,0-1.83l-.33-.17Z" style="fill:#ffffb1; fill-rule:evenodd; stroke-width:0px;"/><path d="M12.94,91.78c.48-.23,1.05.07,1.35.68-.71.96-2.09.65-2.67-.18.3-.2.74-.46.98-.5h.33Z" style="fill:#ffffb1; fill-rule:evenodd; stroke-width:0px;"/><path d="M36.32,92.14c.36-.04.72-.01,1.04.11.01.12.01.23,0,.35-.52.21-1.49.27-1.79-.27.26-.14.56-.26.85-.28l-.1.1Z" style="fill:#ffffb1; fill-rule:evenodd; stroke-width:0px;"/><path d="M38.62,91.89c-.09.03-.27-.3-.48.23,1.02,1.12,3.68,1.49,4.6,0-.96-1.23-3.33-1.24-4.58-.45l.45.23Z" style="fill:#ffffb1; fill-rule:evenodd; stroke-width:0px;"/><path d="M44.86,90.78c-1.14.21-1.36.91-.04,1.08,1.41.18,1.19-1.28.12-1.08h-.08Z" style="fill:#ffffb1; fill-rule:evenodd; stroke-width:0px;"/><path d="M49.03,91.69c.21-.28.48,0,.49.42-.34.3-.85.16-1.22-.01.03-.29.25-.46.57-.49l.17.08Z" style="fill:#ffffb1; fill-rule:evenodd; stroke-width:0px;"/><path d="M2.86,91.78s.34,0,.42.46c.08.51-.17.6-.58.71-.59.16-1.58-.19-2.1-.4-1.83-.72,1.09-1.66,2.02-.93l.25.17Z" style="fill:#ffffb1; fill-rule:evenodd; stroke-width:0px;"/><path d="M4.78,91.69c-.12.06-.2,0-.26.17.26.28.69.23.93-.08-.16-.29-.4-.38-.67-.25v.17Z" style="fill:#ffffb1; fill-rule:evenodd; stroke-width:0px;"/><path d="M376.81,68.55c0,3.63-2.51,6.58-5.61,6.58s-5.61-2.95-5.61-6.58,2.51-6.58,5.61-6.58,5.61,2.95,5.61,6.58Z" style="fill:url(#_횂횁_횕_횑횑_횊_횏횂횑횣_668); fill-rule:evenodd; mix-blend-mode:screen; stroke-width:0px;"/><path d="M375.13,68.55c0,2.54-1.76,4.61-3.93,4.61s-3.93-2.06-3.93-4.61,1.76-4.61,3.93-4.61,3.93,2.06,3.93,4.61Z" style="fill:url(#_횂횁_횕_횑횑_횊_횏횂횑횣_668-2); fill-rule:evenodd; mix-blend-mode:screen; stroke-width:0px;"/><ellipse cx="371.07" cy="68.1" rx="8.15" ry="9.67" style="fill:url(#_횂횁_횕_횑횑_횊_횏횂횑횣_668-3); mix-blend-mode:screen; opacity:.6; stroke-width:0px;"/><path d="M40.99,89.98c1.49.26,2.52,1.45,2.31,2.66-.21,1.21-1.59,1.98-3.07,1.72-1.49-.26-2.52-1.45-2.31-2.66.21-1.21,1.59-1.98,3.07-1.72Z" style="fill:url(#_횂횁_횕_횑횑_횊_횏횂횑횣_668-4); fill-rule:evenodd; mix-blend-mode:screen; stroke-width:0px;"/><path d="M40.88,90.63c1.04.18,1.77,1.01,1.62,1.86s-1.11,1.39-2.15,1.21c-1.04-.18-1.77-1.01-1.62-1.86.15-.85,1.11-1.39,2.15-1.21Z" style="fill:url(#_횂횁_횕_횑횑_횊_횏횂횑횣_668-5); fill-rule:evenodd; mix-blend-mode:screen; stroke-width:0px;"/><path d="M40.97,89c2.18.38,3.71,2.11,3.4,3.87-.31,1.76-2.32,2.88-4.51,2.5s-3.71-2.11-3.4-3.87c.31-1.76,2.32-2.88,4.51-2.5Z" style="fill:url(#_횂횁_횕_횑횑_횊_횏횂횑횣_668-6); fill-rule:evenodd; mix-blend-mode:screen; opacity:.6; stroke-width:0px;"/><path d="M21.08,88.75c2.24-.09,4.1.96,4.15,2.34.05,1.38-1.72,2.57-3.96,2.65-2.24.09-4.1-.96-4.15-2.34-.05-1.38,1.72-2.57,3.96-2.65Z" style="fill:url(#_횂횁_횕_횑횑_횊_횏횂횑횣_668-7); fill-rule:evenodd; mix-blend-mode:screen; stroke-width:0px;"/><path d="M21.11,89.5c1.57-.06,2.87.67,2.9,1.64s-1.2,1.8-2.77,1.86-2.87-.67-2.9-1.64,1.2-1.8,2.77-1.86Z" style="fill:url(#_횂횁_횕_횑횑_횊_횏횂횑횣_668-8); fill-rule:evenodd; mix-blend-mode:screen; stroke-width:0px;"/><path d="M20.76,87.69c3.29-.13,6.02,1.39,6.09,3.4.08,2-2.53,3.73-5.81,3.86-3.29.13-6.02-1.39-6.09-3.4s2.53-3.73,5.81-3.86Z" style="fill:url(#_횂횁_횕_횑횑_횊_횏횂횑횣_668-9); fill-rule:evenodd; mix-blend-mode:screen; opacity:.6; stroke-width:0px;"/><path d="M500.23,34.42c1.91-.07,3.51,1.18,3.57,2.8.06,1.62-1.44,3-3.35,3.07-1.91.07-3.51-1.18-3.57-2.8-.06-1.62,1.44-3,3.35-3.07Z" style="fill:url(#_횂횁_횕_횑횑_횊_횏횂횑횣_668-10); fill-rule:evenodd; mix-blend-mode:screen; stroke-width:0px;"/><path d="M500.27,35.3c1.34-.05,2.46.83,2.5,1.96.04,1.13-1,2.1-2.34,2.15-1.34.05-2.46-.83-2.5-1.96-.04-1.13,1-2.1,2.34-2.15Z" style="fill:url(#_횂횁_횕_횑횑_횊_횏횂횑횣_668-11); fill-rule:evenodd; mix-blend-mode:screen; stroke-width:0px;"/><path d="M499.95,33.17c2.81-.11,5.16,1.71,5.25,4.07s-2.11,4.35-4.92,4.46c-2.81.11-5.16-1.71-5.25-4.07-.09-2.36,2.11-4.35,4.92-4.46Z" style="fill:url(#_횂횁_횕_횑횑_횊_횏횂횑횣_668-12); fill-rule:evenodd; mix-blend-mode:screen; opacity:.6; stroke-width:0px;"/><path d="M682.88,79.23c1.68-.06,3.08,1.04,3.13,2.46.05,1.42-1.26,2.63-2.94,2.69-1.68.06-3.08-1.04-3.13-2.46s1.26-2.63,2.94-2.69Z" style="fill:url(#_횂횁_횕_횑횑_횊_횏횂횑횣_668-13); fill-rule:evenodd; mix-blend-mode:screen; stroke-width:0px;"/><path d="M682.91,80.01c1.17-.05,2.16.73,2.19,1.72.04,1-.88,1.84-2.05,1.88-1.17.05-2.16-.73-2.19-1.72-.04-1,.88-1.84,2.05-1.88Z" style="fill:url(#_횂횁_횕_횑횑_횊_횏횂횑횣_668-14); fill-rule:evenodd; mix-blend-mode:screen; stroke-width:0px;"/><path d="M682.63,78.13c2.46-.09,4.52,1.5,4.6,3.57.08,2.07-1.85,3.82-4.31,3.91-2.46.09-4.52-1.5-4.6-3.57-.08-2.07,1.85-3.82,4.31-3.91Z" style="fill:url(#_횂횁_횕_횑횑_횊_횏횂횑횣_668-15); fill-rule:evenodd; mix-blend-mode:screen; opacity:.6; stroke-width:0px;"/><path d="M587.54,13.94c1.91-.07,3.5,1.18,3.56,2.79.06,1.62-1.43,2.99-3.34,3.06-1.91.07-3.5-1.18-3.56-2.79-.06-1.62,1.43-2.99,3.34-3.06Z" style="fill:url(#_횂횁_횕_횑횑_횊_횏횂횑횣_668-16); fill-rule:evenodd; mix-blend-mode:screen; stroke-width:0px;"/><path d="M587.57,14.81c1.33-.05,2.45.82,2.49,1.96.04,1.13-1,2.09-2.34,2.14-1.33.05-2.45-.82-2.49-1.96-.04-1.13,1-2.09,2.34-2.14Z" style="fill:url(#_횂횁_횕_횑횑_횊_횏횂횑횣_668-17); fill-rule:evenodd; mix-blend-mode:screen; stroke-width:0px;"/><path d="M587.25,12.69c2.8-.11,5.14,1.71,5.23,4.06s-2.1,4.34-4.9,4.45c-2.8.11-5.14-1.71-5.23-4.06-.09-2.35,2.1-4.34,4.9-4.45Z" style="fill:url(#_횂횁_횕_횑횑_횊_횏횂횑횣_668-18); fill-rule:evenodd; mix-blend-mode:screen; opacity:.6; stroke-width:0px;"/><path d="M592.39.83c1.27-.05,2.33.78,2.37,1.86.04,1.08-.95,1.99-2.22,2.04-1.27.05-2.33-.78-2.37-1.86-.04-1.08.95-1.99,2.22-2.04Z" style="fill:url(#_횂횁_횕_횑횑_횊_횏횂횑횣_668-19); fill-rule:evenodd; mix-blend-mode:screen; stroke-width:0px;"/><path d="M592.41,1.42c.89-.03,1.63.55,1.66,1.3.03.75-.67,1.39-1.55,1.42-.89.03-1.63-.55-1.66-1.3-.03-.75.67-1.39,1.55-1.42Z" style="fill:url(#_횂횁_횕_횑횑_횊_횏횂횑횣_668-20); fill-rule:evenodd; mix-blend-mode:screen; stroke-width:0px;"/><path d="M592.2,0c1.86-.07,3.42,1.14,3.48,2.7s-1.4,2.89-3.26,2.96c-1.86.07-3.42-1.14-3.48-2.7s1.4-2.89,3.26-2.96Z" style="fill:url(#_횂횁_횕_횑횑_횊_횏횂횑횣_668-21); fill-rule:evenodd; mix-blend-mode:screen; opacity:.6; stroke-width:0px;"/><path d="M515,89.4c2.12-.08,3.87.88,3.92,2.16.05,1.27-1.63,2.37-3.75,2.45s-3.87-.88-3.92-2.16c-.05-1.27,1.63-2.37,3.75-2.45Z" style="fill:url(#_횂횁_횕_횑횑_횊_횏횂횑횣_668-22); fill-rule:evenodd; mix-blend-mode:screen; stroke-width:0px;"/><path d="M515.02,90.09c1.48-.06,2.71.62,2.75,1.51.03.89-1.14,1.66-2.62,1.72-1.48.06-2.71-.62-2.75-1.51-.03-.89,1.14-1.66,2.62-1.72Z" style="fill:url(#_횂횁_횕_횑횑_횊_횏횂횑횣_668-23); fill-rule:evenodd; mix-blend-mode:screen; stroke-width:0px;"/><path d="M514.69,88.42c3.11-.12,5.69,1.28,5.76,3.13.07,1.85-2.39,3.45-5.5,3.57-3.11.12-5.69-1.28-5.76-3.13-.07-1.85,2.39-3.45,5.5-3.57Z" style="fill:url(#_횂횁_횕_횑횑_횊_횏횂횑횣_668-24); fill-rule:evenodd; mix-blend-mode:screen; opacity:.6; stroke-width:0px;"/><path d="M539.84,88.75c1.54-.06,2.83.92,2.88,2.2.05,1.27-1.16,2.35-2.7,2.41s-2.83-.92-2.88-2.2c-.05-1.27,1.16-2.35,2.7-2.41Z" style="fill:url(#_횂횁_횕_횑횑_횊_횏횂횑횣_668-25); fill-rule:evenodd; mix-blend-mode:screen; stroke-width:0px;"/><path d="M539.87,89.44c1.08-.04,1.98.65,2.02,1.54.03.89-.81,1.65-1.89,1.69-1.08.04-1.98-.65-2.02-1.54s.81-1.65,1.89-1.69Z" style="fill:url(#_횂횁_횕_횑횑_횊_횏횂횑횣_668-26); fill-rule:evenodd; mix-blend-mode:screen; stroke-width:0px;"/><path d="M539.61,87.77c2.26-.09,4.16,1.34,4.23,3.19.07,1.85-1.71,3.42-3.97,3.51s-4.16-1.34-4.23-3.19c-.07-1.85,1.71-3.42,3.97-3.51Z" style="fill:url(#_횂횁_횕_횑횑_횊_횏횂횑횣_668-27); fill-rule:evenodd; mix-blend-mode:screen; opacity:.6; stroke-width:0px;"/><path d="M84.37,57.68c1.49-.06,2.73.81,2.77,1.94.04,1.13-1.13,2.09-2.62,2.15-1.49.06-2.73-.81-2.77-1.94-.04-1.13,1.13-2.09,2.62-2.15Z" style="fill:url(#_횂횁_횕_횑횑_횊_횏횂횑횣_668-28); fill-rule:evenodd; mix-blend-mode:screen; stroke-width:0px;"/><path d="M84.39,58.3c1.04-.04,1.91.57,1.94,1.36.03.79-.79,1.46-1.83,1.5-1.04.04-1.91-.57-1.94-1.36-.03-.79.79-1.46,1.83-1.5Z" style="fill:url(#_횂횁_횕_횑횑_횊_횏횂횑횣_668-29); fill-rule:evenodd; mix-blend-mode:screen; stroke-width:0px;"/><path d="M84.15,56.81c2.19-.08,4.01,1.18,4.07,2.81s-1.66,3.04-3.84,3.12c-2.19.08-4.01-1.18-4.07-2.81-.06-1.64,1.66-3.04,3.84-3.12Z" style="fill:url(#_횂횁_횕_횑횑_횊_횏횂횑횣_668-30); fill-rule:evenodd; mix-blend-mode:screen; opacity:.6; stroke-width:0px;"/><path d="M671.77,90c1.49-.06,2.73.81,2.77,1.94.04,1.13-1.13,2.09-2.62,2.15-1.49.06-2.73-.81-2.77-1.94-.04-1.13,1.13-2.09,2.62-2.15Z" style="fill:url(#_횂횁_횕_횑횑_횊_횏횂횑횣_668-31); fill-rule:evenodd; mix-blend-mode:screen; stroke-width:0px;"/><path d="M671.79,90.61c1.04-.04,1.91.57,1.94,1.36.03.79-.79,1.46-1.83,1.5-1.04.04-1.91-.57-1.94-1.36-.03-.79.79-1.46,1.83-1.5Z" style="fill:url(#_횂횁_횕_횑횑_횊_횏횂횑횣_668-32); fill-rule:evenodd; mix-blend-mode:screen; stroke-width:0px;"/><path d="M671.55,89.13c2.19-.08,4.01,1.18,4.07,2.81.06,1.64-1.66,3.04-3.84,3.12-2.19.08-4.01-1.18-4.07-2.81-.06-1.64,1.66-3.04,3.84-3.12Z" style="fill:url(#_횂횁_횕_횑횑_횊_횏횂횑횣_668-33); fill-rule:evenodd; mix-blend-mode:screen; opacity:.6; stroke-width:0px;"/><path d="M497.03,28.76c.9-.03,1.66.49,1.68,1.18.03.68-.68,1.27-1.59,1.3-.9.03-1.66-.49-1.68-1.18-.03-.68.68-1.27,1.59-1.3Z" style="fill:url(#_횂횁_횕_횑횑_횊_횏횂횑횣_668-34); fill-rule:evenodd; mix-blend-mode:screen; stroke-width:0px;"/><path d="M497.04,29.13c.63-.02,1.16.34,1.18.82.02.48-.48.89-1.11.91-.63.02-1.16-.34-1.18-.82-.02-.48.48-.89,1.11-.91Z" style="fill:url(#_횂횁_횕_횑횑_횊_횏횂횑횣_668-35); fill-rule:evenodd; mix-blend-mode:screen; stroke-width:0px;"/><path d="M496.89,28.23c1.33-.05,2.43.71,2.47,1.71.04.99-1.01,1.84-2.33,1.89-1.33.05-2.43-.71-2.47-1.71-.04-.99,1.01-1.84,2.33-1.89Z" style="fill:url(#_횂횁_횕_횑횑_횊_횏횂횑횣_668-36); fill-rule:evenodd; mix-blend-mode:screen; opacity:.6; stroke-width:0px;"/><path d="M372.22,88.31c0,2.47-1.71,4.47-3.81,4.47s-3.81-2-3.81-4.47,1.71-4.47,3.81-4.47,3.81,2,3.81,4.47Z" style="fill:url(#_횂횁_횕_횑횑_횊_횏횂횑횣_668-37); fill-rule:evenodd; mix-blend-mode:screen; stroke-width:0px;"/><path d="M371.07,88.31c0,1.73-1.19,3.13-2.67,3.13s-2.67-1.4-2.67-3.13,1.19-3.13,2.67-3.13,2.67,1.4,2.67,3.13Z" style="fill:url(#_횂횁_횕_횑횑_횊_횏횂횑횣_668-38); fill-rule:evenodd; mix-blend-mode:screen; stroke-width:0px;"/><path d="M373.85,88c0,3.63-2.48,6.57-5.54,6.57s-5.54-2.94-5.54-6.57,2.48-6.57,5.54-6.57,5.54,2.94,5.54,6.57Z" style="fill:url(#_횂횁_횕_횑횑_횊_횏횂횑횣_668-39); fill-rule:evenodd; mix-blend-mode:screen; opacity:.6; stroke-width:0px;"/><path d="M266.02,78.88c0,1.77-1.22,3.21-2.73,3.21s-2.73-1.44-2.73-3.21,1.22-3.21,2.73-3.21,2.73,1.44,2.73,3.21Z" style="fill:url(#_횂횁_횕_횑횑_횊_횏횂횑횣_668-40); fill-rule:evenodd; mix-blend-mode:screen; stroke-width:0px;"/><path d="M265.2,78.88c0,1.24-.86,2.24-1.91,2.24s-1.91-1-1.91-2.24.86-2.24,1.91-2.24,1.91,1,1.91,2.24Z" style="fill:url(#_횂횁_횕_횑횑_횊_횏횂횑횣_668-41); fill-rule:evenodd; mix-blend-mode:screen; stroke-width:0px;"/><path d="M267.2,78.66c0,2.6-1.78,4.71-3.97,4.71s-3.97-2.11-3.97-4.71,1.78-4.71,3.97-4.71,3.97,2.11,3.97,4.71Z" style="fill:url(#_횂횁_횕_횑횑_횊_횏횂횑횣_668-42); fill-rule:evenodd; mix-blend-mode:screen; opacity:.6; stroke-width:0px;"/><path d="M336.37,78.12c0,2.86-1.98,5.18-4.42,5.18s-4.42-2.32-4.42-5.18,1.98-5.18,4.42-5.18,4.42,2.32,4.42,5.18Z" style="fill:url(#_횂횁_횕_횑횑_횊_횏횂횑횣_668-43); fill-rule:evenodd; mix-blend-mode:screen; stroke-width:0px;"/><ellipse cx="331.96" cy="78.12" rx="3.09" ry="3.63" style="fill:url(#_횂횁_횕_횑횑_횊_횏횂횑횣_668-44); mix-blend-mode:screen; stroke-width:0px;"/><path d="M338.27,77.76c0,4.21-2.87,7.61-6.42,7.61s-6.42-3.41-6.42-7.61,2.87-7.61,6.42-7.61,6.42,3.41,6.42,7.61Z" style="fill:url(#_횂횁_횕_횑횑_횊_횏횂횑횣_668-45); fill-rule:evenodd; mix-blend-mode:screen; opacity:.6; stroke-width:0px;"/></g></g></g></svg>