<?xml version="1.0" encoding="UTF-8"?><svg xmlns="http://www.w3.org/2000/svg" viewBox="0 0 236.22 205.79"><g style="isolation:isolate;"><g id="Layer_2"><g id="lake"><path d="M132.98,102.23c-9.43,41.78,1.18,84.5,1.18,84.5l-35.27,19.06-55.97-103.56L0,97.45C31.11,55.59,148.24,8.62,174.31.49l59.91-.26.54-.23,1.46.12-83.86,59.41c-10.01,12.76-15.99,27.67-19.38,42.7Z" style="fill:#131336; fill-rule:evenodd; stroke-width:0px;"/><path d="M176.08,22.12s-94.44,68.93-77.19,183.67l-33.22-61.47s16.82-66.7,93.22-123.28l17.19,1.09Z" style="fill:#405e85; fill-rule:evenodd; mix-blend-mode:screen; opacity:.1; stroke-width:0px;"/><path d="M57.64,129.46s10.75-41.28,38.6-67.39l-18.51-2.89s-35.8,18.42-44.95,37.99l24.86,32.29Z" style="fill:#405e85; fill-rule:evenodd; mix-blend-mode:screen; opacity:.1; stroke-width:0px;"/><path d="M119.06,106.94l-6.49-2.85s-24.73,43.63-13.68,101.7l9.91-5.36s-8.19-48.42,10.26-93.49Z" style="fill:#e2c2ae; fill-rule:evenodd; mix-blend-mode:multiply; opacity:.5; stroke-width:0px;"/><polygon points="186.82 2.93 127.91 39.45 107.18 38.59 176.11 2.36 186.82 2.93" style="fill:#e2c2ae; fill-rule:evenodd; mix-blend-mode:multiply; opacity:.5; stroke-width:0px;"/><path d="M32.56,97.01s13.83-17.33,23.62-24.22l25.15,6.61s-22.58,33.93-23.69,50.07l-25.08-32.45Z" style="fill:#405e85; fill-rule:evenodd; mix-blend-mode:screen; opacity:.1; stroke-width:0px;"/><path d="M118.01,92.73l-29.56,3.19,31.59-40.53,27.14-5.48s-17.12,18.19-29.16,42.82Z" style="fill:#405e85; fill-rule:evenodd; mix-blend-mode:screen; opacity:.1; stroke-width:0px;"/><path d="M99.95,144.42l-34.28-.11,33.22,61.47s-7.08-38.44,1.06-61.37Z" style="fill:#e2c2ae; fill-rule:evenodd; mix-blend-mode:multiply; opacity:.5; stroke-width:0px;"/><path d="M95.9,86.35l-16.56-4.07s-19.53,26.81-21.7,47.17l8.03,14.85s6.11-27,30.24-57.96Z" style="fill:#e2c2ae; fill-rule:evenodd; mix-blend-mode:multiply; opacity:.5; stroke-width:0px;"/><path d="M125.48,49.79l-3.87-.13s-19.99,15.74-22.74,27.78l1.91.69,24.71-28.34Z" style="fill:#e2c2ae; fill-rule:evenodd; mix-blend-mode:multiply; opacity:.5; stroke-width:0px;"/><polygon points="152.37 59.53 75.81 47.05 157.45 7.69 210.64 14.87 152.37 59.53" style="fill:#312aff; fill-rule:evenodd; mix-blend-mode:screen; opacity:.2; stroke-width:0px;"/><path d="M129.35,133.85l-73.43-7.56,42.97,79.5,35.27-19.06s-5.32-41.41-4.81-52.88Z" style="fill:#bf866d; fill-rule:evenodd; mix-blend-mode:multiply; opacity:.5; stroke-width:0px;"/></g></g></g></svg>