<?xml version="1.0" encoding="UTF-8"?><svg id="Layer_2" xmlns="http://www.w3.org/2000/svg" viewBox="0 0 83.94 207.05"><g id="lake"><polygon points="37.06 174.32 0 200.45 3.51 159.55 41.15 104.66 4.79 147.05 5.59 140.9 38.4 98.81 12.33 129.08 32.81 44.19 45.35 32.97 35.35 38.96 44.68 0 54.38 41.57 51.72 40.01 50.8 44.32 53.79 46.08 62.26 100.23 42.89 90.73 63.54 102.71 69.22 135.42 40.27 130.66 41.04 135.72 71.35 139.6 82.47 184.28 37.06 174.32" style="fill:#0f081e; fill-rule:evenodd; stroke-width:0px;"/><polygon points="35.14 207.05 45.35 32.97 38.08 206.17 35.14 207.05" style="fill:#09000f; fill-rule:evenodd; stroke-width:0px;"/><polygon points="39.26 178.1 83.94 185.65 83.72 187.34 39.18 180.02 39.26 178.1" style="fill:#0f081e; fill-rule:evenodd; stroke-width:0px;"/><polygon points="0 200.45 1.25 185.95 38.42 151.16 37.06 174.32 0 200.45" style="fill:#0a0906; fill-rule:evenodd; stroke-width:0px;"/><polygon points="2.86 167.2 39.37 134.93 3.43 163.75 2.86 167.2" style="fill:#0a0906; fill-rule:evenodd; stroke-width:0px;"/><polygon points="4.79 147.05 41.65 98.96 41.15 104.66 4.79 147.05" style="fill:#0a0906; fill-rule:evenodd; stroke-width:0px;"/><polygon points="41.11 130.68 41.89 122.45 67.91 127.9 69.22 135.42 41.11 130.68" style="fill:#0a0906; fill-rule:evenodd; stroke-width:0px;"/><polygon points="66.97 122.45 42.49 101.05 66.45 119.5 66.97 122.45" style="fill:#0a0906; fill-rule:evenodd; stroke-width:0px;"/><polygon points="78.22 167.2 40.68 144.38 40.63 140.78 76.3 159.52 78.22 167.2" style="fill:#0a0906; fill-rule:evenodd; stroke-width:0px;"/><polygon points="27.02 68.17 44.04 55.4 44.48 47.91 30.34 54.41 27.02 68.17" style="fill:#0a0906; fill-rule:evenodd; stroke-width:0px;"/><polygon points="23.47 82.9 43.46 65.21 22.72 86.03 23.47 82.9" style="fill:#0a0906; fill-rule:evenodd; stroke-width:0px;"/><polygon points="60.97 93.36 43.33 81.18 60.82 91.04 60.97 93.36" style="fill:#0a0906; fill-rule:evenodd; stroke-width:0px;"/></g></svg>