<?xml version="1.0" encoding="UTF-8"?><svg xmlns="http://www.w3.org/2000/svg" viewBox="0 0 155.54 80.26"><g style="isolation:isolate;"><g id="Layer_2"><g id="lake"><path d="M118.31,74.58s-1.09-9.62,2.14-15.64c3.23-6.02,6.57-8.46,6.57-8.46,0,0-8.19,16.21-7.39,23.9,0,0,3.38-9.22,10.51-16.43,0,0-7.06,11.38-8.92,16.19,0,0,2.84-6.42,7.59-11.74,4.75-5.31,15.29-8.07,15.29-8.07,0,0-19.23,9.01-21.64,19.62l-4.16.62Z" style="fill:#302f78; fill-rule:evenodd; stroke-width:0px;"/><polygon points="97.88 78.16 112.58 80.26 155.54 78.95 139.45 75.35 97.88 78.16" style="fill:#6a6500; fill-rule:evenodd; mix-blend-mode:multiply; stroke-width:0px;"/><polygon points="0 13.4 3.1 9.91 8.9 8.99 19.24 13.4 0 13.4" style="fill:#141229; fill-rule:evenodd; stroke-width:0px;"/><polygon points="135.71 68.34 125.59 66.49 98.13 76.53 97.88 78.16 140.31 76.96 135.71 68.34" style="fill:#141229; fill-rule:evenodd; stroke-width:0px;"/><polygon points="135.71 68.34 129.19 73.99 107 77.52 98.13 76.53 125.59 66.49 135.71 68.34" style="fill:#4a6ab2; fill-rule:evenodd; stroke-width:0px;"/><polygon points="3.1 9.91 4.13 10.61 15.43 11.78 8.9 8.99 3.1 9.91" style="fill:#4a6ab2; fill-rule:evenodd; stroke-width:0px;"/><polygon points="4.13 10.61 5.38 13.4 19.24 13.4 15.43 11.78 4.13 10.61" style="fill:#4a6ab2; fill-rule:evenodd; mix-blend-mode:soft-light; stroke-width:0px;"/><polygon points="129.19 73.99 130.21 77.25 140.31 76.96 135.71 68.34 129.19 73.99" style="fill:#4a6ab2; fill-rule:evenodd; mix-blend-mode:soft-light; stroke-width:0px;"/><polygon points="117.65 74.15 120.25 72.44 125.59 71.12 117.65 74.15" style="fill:#7b5e6c; fill-rule:evenodd; mix-blend-mode:multiply; stroke-width:0px;"/><polygon points="116.92 75.81 119.09 74.77 123.19 74.4 116.92 75.81" style="fill:#7b5e6c; fill-rule:evenodd; mix-blend-mode:multiply; stroke-width:0px;"/><polygon points="125.59 66.49 123.19 68 124.96 68.34 129.19 67.15 125.59 66.49" style="fill:#7b5e6c; fill-rule:evenodd; mix-blend-mode:multiply; stroke-width:0px;"/><polygon points="0 13.4 13.38 14.67 32.3 14.72 19.24 13.4 0 13.4" style="fill:#6a6500; fill-rule:evenodd; mix-blend-mode:multiply; opacity:.8; stroke-width:0px;"/><polygon points="97.56 78.29 90.68 68.04 91.3 67.78 98.19 78.03 97.56 78.29" style="fill:#302f78; stroke-width:0px;"/><polygon points="98.35 78.81 94.59 68.42 95.27 68.27 99.03 78.66 98.35 78.81" style="fill:#302f78; stroke-width:0px;"/><rect x="23.67" y="7.16" width="16.57" height=".53" transform="translate(10.3 32.07) rotate(-61.77)" style="fill:#302f78; stroke-width:0px;"/><rect x="28.28" y="11.36" width="8.82" height=".53" transform="translate(1.03 25.82) rotate(-43.73)" style="fill:#302f78; stroke-width:0px;"/></g></g></g></svg>