<?xml version="1.0" encoding="UTF-8"?><svg xmlns="http://www.w3.org/2000/svg" viewBox="0 0 88.69 253.79"><g style="isolation:isolate;"><g id="Layer_2"><g id="lake"><polygon points="53.29 205.7 88.69 220.51 84.48 163.99 56.83 150.55 84.15 158.98 82.89 146.29 52.2 122.44 82.4 140.83 82.06 136.99 53.16 120 81.81 134.27 73.95 83.42 51.83 61.41 69.34 71.6 42.16 0 28.97 74.24 44.27 65 22.07 82.07 10.79 161.53 36.63 144.94 10.69 164.77 0 216.1 53.29 205.7" style="fill:#0e071c; fill-rule:evenodd; stroke-width:0px;"/><polygon points="53.06 253.79 43.98 30.82 45.06 30.72 56.29 253.5 53.06 253.79" style="fill:#09000f; fill-rule:evenodd; stroke-width:0px;"/><polygon points="10.79 161.53 48.27 136.21 47.09 113.83 12.87 146.84 10.79 161.53" style="fill:#97caf0; fill-rule:evenodd; mix-blend-mode:overlay; stroke-width:0px;"/><polygon points="1.24 209.55 49.94 181.89 0 216.1 1.24 209.55" style="fill:#97caf0; fill-rule:evenodd; mix-blend-mode:overlay; stroke-width:0px;"/><polygon points="84.15 158.98 52.47 150.06 83.76 154.98 84.15 158.98" style="fill:#97caf0; fill-rule:evenodd; mix-blend-mode:overlay; stroke-width:0px;"/><polygon points="87.27 201.45 53 173.08 52.47 160.17 86.94 190.11 87.27 201.45" style="fill:#97caf0; fill-rule:evenodd; mix-blend-mode:overlay; stroke-width:0px;"/><polygon points="78.86 115.2 49 75.15 48.27 57.44 73.95 83.42 78.86 115.2" style="fill:#97caf0; fill-rule:evenodd; mix-blend-mode:overlay; stroke-width:0px;"/><polygon points="16.94 122.97 47 105.08 46.48 101.65 16.57 120.79 16.94 122.97" style="fill:#97caf0; fill-rule:evenodd; mix-blend-mode:overlay; stroke-width:0px;"/></g></g></g></svg>