<?xml version="1.0" encoding="UTF-8"?><svg xmlns="http://www.w3.org/2000/svg" xmlns:xlink="http://www.w3.org/1999/xlink" viewBox="0 0 16.96 174.46"><defs><linearGradient id="_ÂÁ_Ï_ÌÌ_È_ËÂÌÚ_118" x1="-583.39" y1="174.46" x2="-583.39" y2="0" gradientTransform="translate(591.87)" gradientUnits="userSpaceOnUse"><stop offset="0" stop-color="#3e4677"/><stop offset=".21" stop-color="#3c3f70"/><stop offset=".51" stop-color="#362c5e"/><stop offset=".76" stop-color="#31174a"/><stop offset=".99" stop-color="#1d012e"/></linearGradient><linearGradient id="linear-gradient" x1="-583.39" y1="174.46" x2="-583.39" y2="161.1" gradientTransform="translate(591.87)" gradientUnits="userSpaceOnUse"><stop offset="0" stop-color="#7e009d"/><stop offset=".99" stop-color="#425c7f"/></linearGradient></defs><g style="isolation:isolate;"><g id="Layer_2"><g id="lake"><polygon points="0 174.46 4.85 101.12 2.51 .14 6.89 0 9.31 52.13 11.16 61.22 16.36 56.77 16.96 57.37 12.02 64.19 14.69 119.89 16.96 172 0 174.46" style="fill:url(#_ÂÁ_Ï_ÌÌ_È_ËÂÌÚ_118); fill-rule:evenodd; stroke-width:0px;"/><polygon points="16.96 172 16.49 161.1 15.66 161.48 15.34 165.1 14.78 165.43 14.78 162.87 10.93 163.2 9.63 172 8.84 171.6 8.84 168.49 8.15 168.49 8.15 170.95 7.26 170.95 7.62 165.04 5.63 164.87 5.19 167.75 4.66 167.75 4.66 166.72 3.24 166.55 2.97 170.87 2.39 170.86 2.39 168.06 .51 166.72 0 174.46 16.96 172" style="fill:url(#linear-gradient); fill-rule:evenodd; mix-blend-mode:multiply; stroke-width:0px;"/><polygon points="2.78 174.06 4.66 143.41 11.8 126.31 13.61 97.33 13.12 87.23 10.51 112.14 6.98 132.33 1.63 149.78 0 174.46 2.78 174.06" style="fill:#ccbdab; fill-rule:evenodd; mix-blend-mode:multiply; opacity:.8; stroke-width:0px;"/><polygon points="5.19 173.71 11.8 150.13 15.34 134.76 14.91 124.82 15.01 127.13 13.02 138.6 12.28 156.46 10.1 172 10.78 172.9 5.19 173.71" style="fill:#ccbdab; fill-rule:evenodd; mix-blend-mode:multiply; opacity:.8; stroke-width:0px;"/><polygon points="5.91 120.42 9.24 88.33 12.02 64.19 11.67 63.87 11.16 61.22 10.88 65.4 6.74 87.91 4.71 94.97 4.8 100.82 5.91 120.42" style="fill:#ccbdab; fill-rule:evenodd; mix-blend-mode:multiply; opacity:.8; stroke-width:0px;"/><polygon points="4.13 70.06 6.74 60.02 7.71 44.14 5.93 55.07 3.89 59.88 4.13 70.06" style="fill:#ccbdab; fill-rule:evenodd; mix-blend-mode:multiply; opacity:.8; stroke-width:0px;"/><polygon points="4.66 143.41 5.19 164.17 6.8 166.72 12.7 146.23 13.02 138.6 11.8 126.31 4.66 143.41" style="fill:#868e97; fill-rule:evenodd; mix-blend-mode:soft-light; stroke-width:0px;"/><polygon points="5.16 138.28 4.66 124.82 6.02 119.33 8.36 93.93 13.02 88.24 10.51 112.14 6.98 132.33 5.16 138.28" style="fill:#868e97; fill-rule:evenodd; mix-blend-mode:soft-light; stroke-width:0px;"/><polygon points="4.71 94.97 4.71 81.59 5.8 74.78 11.16 61.22 10.88 65.4 6.74 87.91 4.71 94.97" style="fill:#868e97; fill-rule:evenodd; mix-blend-mode:soft-light; stroke-width:0px;"/><polygon points="6.89 0 5.8 25.58 4.71 41.98 3.7 51.39 4.43 39.51 4.71 0 6.89 0" style="fill:#ccbdab; fill-rule:evenodd; mix-blend-mode:multiply; opacity:.8; stroke-width:0px;"/><polygon points="0 174.46 4.8 100.82 2.67 11.38 5.17 80.05 5.83 100.72 1.33 172.22 0 174.46" style="fill:#b3e2ff; fill-rule:evenodd; stroke-width:0px;"/></g></g></g></svg>