<?xml version="1.0" encoding="UTF-8"?><svg xmlns="http://www.w3.org/2000/svg" viewBox="0 0 796.01 133.79"><g style="isolation:isolate;"><g id="Layer_2"><g id="lake"><path d="M796.01,108.79s-89.22-91.94-268.14-92.08C328.92,16.55,0,111.58,0,111.58l796.01,10.86v-13.64Z" style="fill:#3e3d9c; fill-rule:evenodd; stroke-width:0px;"/><path d="M304.29,65.45s70.28-29.8,110.74-41.23c0,0,122.5-14.72,202.65,0,0,0-111.16,70.55-152.09,109.57l-161.3-68.34Z" style="fill:#9ac2f8; fill-rule:evenodd; mix-blend-mode:soft-light; stroke-width:0px;"/><path d="M533.19,91.57s52.41-49.67,99.72-63.4c0,0,50.39,11.96,78.71,26.23,0,0-31.99,20.23-57.03,47.81l-121.4-10.64Z" style="fill:#9ac2f8; fill-rule:evenodd; mix-blend-mode:soft-light; stroke-width:0px;"/><path d="M338.91,36.37s1.75-16.95,5.65-21.54c3.9-4.59,23.11,12.96,23.11,12.96,0,0,1.75-3.84,6.11-3.39,4.35.45,10.22,5.24,10.22,5.24,0,0-29.58,3.76-45.09,6.73Z" style="fill:#3e3d9c; fill-rule:evenodd; stroke-width:0px;"/><path d="M325.87,39.38s-10.17-32.97-14.78-32.97c-6.15,0-5.57,34.22-5.57,34.22l20.35-1.25Z" style="fill:#3e3d9c; fill-rule:evenodd; stroke-width:0px;"/><path d="M412.98,25.34s-1.33-22.9,3.54-25.2c4.87-2.31,10.25,25.87,10.25,25.87l-13.79-.67Z" style="fill:#3e3d9c; fill-rule:evenodd; stroke-width:0px;"/><path d="M370.59,100.13s125-70.99,174.71-83.42c0,0,42.7,1.92,70.92,8.16,0,0-118.94,59.15-168.96,103.59l-76.67-28.33Z" style="fill:#92b3f7; fill-rule:evenodd; mix-blend-mode:soft-light; stroke-width:0px;"/><polygon points="546.75 79.66 660.53 95.92 668.89 87.79 561.16 68.15 546.75 79.66" style="fill:#92b3f7; fill-rule:evenodd; stroke-width:0px;"/><polygon points="578.07 55.95 682.01 76.29 688.47 71.08 590.31 48.04 578.07 55.95" style="fill:#92b3f7; fill-rule:evenodd; mix-blend-mode:soft-light; stroke-width:0px;"/><polygon points="610.83 36.79 700.29 62.17 708.61 56.37 620.92 32.34 610.83 36.79" style="fill:#92b3f7; fill-rule:evenodd; mix-blend-mode:soft-light; stroke-width:0px;"/></g></g></g></svg>