<?xml version="1.0" encoding="UTF-8"?><svg xmlns="http://www.w3.org/2000/svg" viewBox="0 0 58.02 275.4"><g style="isolation:isolate;"><g id="Layer_2"><g id="lake"><polygon points="0 275.4 24.1 137.45 47.31 114.25 58.02 0 58.02 137.7 49.98 149.58 51.17 274.2 29.01 275.4 18.3 273.12 12.27 275.4 0 275.4" style="fill:#141229; fill-rule:evenodd; stroke-width:0px;"/><polygon points="51.17 274.2 50.85 238.41 48.15 244.41 42.81 256.26 38.97 254.72 38.97 246.89 29.01 262.85 23.97 250.49 25.76 241.16 21.05 249.25 16.98 250.78 15.4 249.38 14.34 258.14 5.65 264.99 7.12 248.3 4.42 250.09 0 275.4 12.27 275.4 18.3 273.12 29.01 275.4 51.17 274.2" style="fill:#ccbdab; fill-rule:evenodd; mix-blend-mode:multiply; opacity:.8; stroke-width:0px;"/><polygon points="12.27 275.4 15.92 245.01 29.01 217.56 38.07 186.1 49.98 149.58 49.98 156.49 41.06 182.68 39.12 205.14 29.83 220.02 23.97 250.49 29.01 275.4 18.3 273.12 12.27 275.4" style="fill:#ccbdab; fill-rule:evenodd; mix-blend-mode:multiply; stroke-width:0px;"/><polygon points="2.84 259.16 14.5 229.58 22.09 203.31 31.13 178.51 23.97 193.46 16.98 209.75 9.49 221.07 2.84 259.16" style="fill:#ccbdab; fill-rule:evenodd; mix-blend-mode:multiply; stroke-width:0px;"/><polygon points="35.53 274.11 41.5 259.16 50.85 238.41 50.85 250.78 44.85 267.05 45.27 274.52 35.53 274.11" style="fill:#ccbdab; fill-rule:evenodd; mix-blend-mode:multiply; stroke-width:0px;"/><polygon points="24.1 137.45 24.1 147.24 43.19 142.34 58.02 130.52 58.02 120.94 53.89 131.76 45.86 137.7 27.45 141.8 24.82 136.73 24.1 137.45" style="fill:#ccbdab; fill-rule:evenodd; mix-blend-mode:multiply; stroke-width:0px;"/><polygon points="47.31 114.25 53.78 102.2 58.02 82.13 58.02 68.14 52.66 91.19 49.98 106.81 47.72 109.78 47.31 114.25" style="fill:#ccbdab; fill-rule:evenodd; mix-blend-mode:multiply; stroke-width:0px;"/><polygon points="23.97 250.49 29.01 262.85 43.19 241.16 47.31 213.45 43.19 199.8 39.12 205.14 29.83 220.02 23.97 250.49" style="fill:#868e97; fill-rule:evenodd; mix-blend-mode:soft-light; stroke-width:0px;"/><polygon points="7.5 247.34 15.92 245.01 29.01 217.56 35.53 186.1 35.53 169.11 31.13 178.51 14.5 229.58 7.5 247.34" style="fill:#868e97; fill-rule:evenodd; mix-blend-mode:soft-light; stroke-width:0px;"/><polygon points="16.98 209.75 15.4 196.78 16.98 175.09 24.1 137.45 24.1 147.24 23.97 167.5 27 180.59 16.98 209.75" style="fill:#868e97; fill-rule:evenodd; mix-blend-mode:soft-light; stroke-width:0px;"/><polygon points="24.1 137.45 27.45 141.8 45.86 137.7 53.89 131.76 58.02 118.71 52.66 114.25 47.31 114.25 24.1 137.45" style="fill:#868e97; fill-rule:evenodd; mix-blend-mode:soft-light; stroke-width:0px;"/><polygon points="43.19 142.34 37.93 151.51 35.53 169.11 45.52 154.41 52.66 145.31 58.02 130.52 43.19 142.34" style="fill:#868e97; fill-rule:evenodd; mix-blend-mode:soft-light; stroke-width:0px;"/><polygon points="18.3 273.12 21.51 247.34 29.83 220.02 29.01 217.56 15.92 245.01 12.27 275.4 18.3 273.12" style="fill:#ccbdab; fill-rule:evenodd; mix-blend-mode:multiply; stroke-width:0px;"/></g></g></g></svg>