<?xml version="1.0" encoding="UTF-8"?><svg xmlns="http://www.w3.org/2000/svg" viewBox="0 0 57.22 163.74"><g style="isolation:isolate;"><g id="Layer_2"><g id="lake"><polygon points="22.84 132.72 0 142.27 2.72 105.8 20.55 97.13 2.93 102.57 3.74 94.39 23.54 79 4.05 90.86 4.28 88.38 22.92 77.42 4.43 86.63 9.51 53.82 23.78 39.62 12.48 46.2 30.02 0 38.53 47.9 28.66 41.93 42.98 52.95 50.26 104.21 33.59 93.51 50.32 106.3 57.22 139.42 22.84 132.72" style="fill:#251a3b; fill-rule:evenodd; stroke-width:0px;"/><polygon points="22.99 163.74 28.85 19.88 28.15 19.82 20.91 163.55 22.99 163.74" style="fill:#09000f; fill-rule:evenodd; stroke-width:0px;"/><polygon points="50.26 104.21 26.08 87.88 26.84 73.44 48.91 94.74 50.26 104.21" style="fill:#9b76b3; fill-rule:evenodd; mix-blend-mode:overlay; stroke-width:0px;"/><polygon points="56.42 135.2 25 117.35 57.22 139.42 56.42 135.2" style="fill:#9b76b3; fill-rule:evenodd; mix-blend-mode:overlay; stroke-width:0px;"/><polygon points="2.93 102.57 23.37 96.82 3.18 99.99 2.93 102.57" style="fill:#97caf0; fill-rule:evenodd; mix-blend-mode:overlay; stroke-width:0px;"/><polygon points=".92 129.97 23.03 111.67 23.37 103.34 1.13 122.66 .92 129.97" style="fill:#9b76b3; fill-rule:evenodd; mix-blend-mode:overlay; stroke-width:0px;"/><polygon points="6.34 74.32 25.61 48.49 26.08 37.06 9.51 53.82 6.34 74.32" style="fill:#9b76b3; fill-rule:evenodd; mix-blend-mode:overlay; stroke-width:0px;"/><polygon points="46.29 79.34 26.89 67.79 27.23 65.58 46.53 77.93 46.29 79.34" style="fill:#9b76b3; fill-rule:evenodd; mix-blend-mode:overlay; stroke-width:0px;"/><polygon points="30.02 0 12.48 46.2 17.76 34.78 30.02 0" style="fill:#b3e2ff; fill-rule:evenodd; stroke-width:0px;"/><polygon points="9.51 53.82 4.43 86.63 6.26 81.44 10.26 56.78 9.51 53.82" style="fill:#b3e2ff; fill-rule:evenodd; stroke-width:0px;"/><polygon points="3.74 94.39 2.93 102.57 4.76 97.28 3.74 94.39" style="fill:#b3e2ff; fill-rule:evenodd; stroke-width:0px;"/><polygon points="2.72 105.8 0 142.27 1.43 135.28 3.76 112.44 2.72 105.8" style="fill:#b3e2ff; fill-rule:evenodd; stroke-width:0px;"/></g></g></g></svg>