<?xml version="1.0" encoding="UTF-8"?><svg xmlns="http://www.w3.org/2000/svg" xmlns:xlink="http://www.w3.org/1999/xlink" viewBox="0 0 73 348.8"><defs><linearGradient id="_횂횁_횕_횑횑_횊_횏횂횑횣_422" x1="52.89" y1="348.8" x2="52.89" y2="310.64" gradientUnits="userSpaceOnUse"><stop offset=".01" stop-color="#939d00"/><stop offset=".99" stop-color="#517042"/></linearGradient></defs><g style="isolation:isolate;"><g id="Layer_2"><g id="lake"><polygon points="34.44 348.8 20.33 54.5 0 0 2.12 0 13.7 30.64 18.07 23.58 24.43 .28 26.12 0 19.2 24.57 16.94 32.76 25.7 48.85 36.43 .28 44.9 .28 35.96 50.49 48.97 181.26 56.48 171.6 57.79 173.48 52.81 192.02 73 337.34 34.44 348.8" style="fill:#141229; fill-rule:evenodd; stroke-width:0px;"/><polygon points="73 337.34 70.15 316.78 68.34 317.65 68.34 328.04 66.45 327.66 66.45 322.58 61.61 323.46 62.66 331.99 61.34 332.37 59.3 321.92 58.38 322.77 56.57 312.73 49.7 314.2 51.76 328.99 49.7 330.3 48.1 327.38 45.36 328.13 44.71 333.97 42.32 335.01 41.05 310.64 36.5 310.64 37.87 325.97 36.07 326.23 34.72 314.44 32.78 314.3 34.44 348.8 73 337.34" style="fill:url(#_횂횁_횕_횑횑_횊_횏횂횑횣_422); fill-rule:evenodd; mix-blend-mode:multiply; stroke-width:0px;"/><polygon points="34.44 348.8 40.95 305.47 40.95 278.71 47.72 231.27 52.81 192.02 53.46 196.75 48.57 237.63 45.36 286.06 49.98 315.71 53.65 343.09 34.44 348.8" style="fill:#ccbdab; fill-rule:evenodd; mix-blend-mode:multiply; opacity:.8; stroke-width:0px;"/><polygon points="58.38 341.68 58.38 315.71 58.38 282.1 63.41 268.35 64.31 274.77 61.34 281.26 60.65 317.65 64.31 339.92 58.38 341.68" style="fill:#ccbdab; fill-rule:evenodd; mix-blend-mode:multiply; opacity:.8; stroke-width:0px;"/><polygon points="31.25 282.42 31.25 226.19 36.5 202.45 40.38 161.81 36.5 123.97 41.05 101.68 40.74 98.55 34.44 124.39 32.9 130.6 39.39 161.95 34.44 189.46 31.25 204.16 28.39 222.55 31.25 282.42" style="fill:#ccbdab; fill-rule:evenodd; mix-blend-mode:multiply; opacity:.8; stroke-width:0px;"/><polygon points="48.97 181.26 46.5 189.46 45.53 210.53 40.61 251.56 44.79 202.47 42.55 184.19 46.73 158.81 48.97 181.26" style="fill:#ccbdab; fill-rule:evenodd; mix-blend-mode:multiply; opacity:.8; stroke-width:0px;"/><polygon points="23.46 119.77 34.44 104.22 38.42 75.28 35.96 50.49 33.13 72.57 30.94 95.35 23.46 110.79 23.46 119.77" style="fill:#ccbdab; fill-rule:evenodd; mix-blend-mode:multiply; opacity:.8; stroke-width:0px;"/><polygon points="25.7 48.85 36.5 37.04 40.68 23.97 42.13 15.81 38.42 25.99 36.5 33.18 33.92 35.72 27.62 40.14 25.7 48.85" style="fill:#ccbdab; fill-rule:evenodd; mix-blend-mode:multiply; opacity:.8; stroke-width:0px;"/><polygon points="32.43 18.39 41.05 9.32 44.9 .28 41.05 .28 36.5 9.34 32.43 18.39" style="fill:#ccbdab; fill-rule:evenodd; mix-blend-mode:multiply; opacity:.8; stroke-width:0px;"/><polygon points="16.94 32.76 23.46 47.86 24.57 56.13 23.46 76.39 21.73 83.58 21.94 88.11 25.7 74.55 25.09 57.09 25.09 50.97 25.7 48.85 16.94 32.76" style="fill:#ccbdab; fill-rule:evenodd; mix-blend-mode:multiply; opacity:.8; stroke-width:0px;"/><polygon points="40.95 278.71 48.75 223.33 51.76 200.09 47.36 186.61 46.13 197.39 40.61 251.56 40.95 278.71" style="fill:#868e97; fill-rule:evenodd; mix-blend-mode:soft-light; stroke-width:0px;"/><polygon points="51.23 325.04 58.38 282.1 62.66 270.41 53.46 235.79 45.36 286.06 51.23 325.04" style="fill:#868e97; fill-rule:evenodd; mix-blend-mode:soft-light; stroke-width:0px;"/><polygon points="32.72 197.39 32.72 147.69 33.5 133.53 39.39 161.95 32.72 197.39" style="fill:#868e97; fill-rule:evenodd; mix-blend-mode:soft-light; stroke-width:0px;"/><polygon points="0 0 20.34 54.64 34.44 348.8 33.84 319.21 21.75 53.52 14.34 35.99 0 0" style="fill:#b3e2ff; fill-rule:evenodd; stroke-width:0px;"/><polygon points="25.7 48.85 36.43 .28 33.67 20.77 28 44.6 25.7 48.85" style="fill:#b3e2ff; fill-rule:evenodd; stroke-width:0px;"/></g></g></g></svg>