<?xml version="1.0" encoding="UTF-8"?><svg id="Layer_2" xmlns="http://www.w3.org/2000/svg" viewBox="0 0 82.81 234.01"><g id="lake"><polygon points="37.85 204.36 82.81 212.43 74.87 180.17 45.84 147.08 75.27 174.72 73.92 168.54 41.6 130.66 72.99 152.42 41.85 127.19 73.38 147.08 51.7 61.25 37.26 53.26 47.06 56.18 33.78 0 20.04 80.5 32.53 77.57 16.06 95.85 9.87 180.17 33.48 160.88 5.99 187.22 0 211.59 37.85 204.36" style="fill:#1b0e38; fill-rule:evenodd; stroke-width:0px;"/><polygon points="39.03 234.01 34.53 121.04 33.22 37.62 33.63 234.01 39.03 234.01" style="fill:#09000f; fill-rule:evenodd; stroke-width:0px;"/><polygon points="34.14 95.85 43.29 98.44 43.87 99.64 34.15 96.75 34.14 95.85" style="fill:#09000f; fill-rule:evenodd; stroke-width:0px;"/><polygon points="33.78 0 20.04 80.5 24.81 65.45 32.64 11.62 33.78 0" style="fill:#b3e2ff; fill-rule:evenodd; stroke-width:0px;"/><polygon points="16.06 95.85 9.87 180.17 16.81 107.62 16.06 95.85" style="fill:#b3e2ff; fill-rule:evenodd; stroke-width:0px;"/></g></svg>