<?xml version="1.0" encoding="UTF-8"?><svg id="Layer_2" xmlns="http://www.w3.org/2000/svg" viewBox="0 0 162.21 511.35"><g id="lake"><polygon points="73.04 446.56 162.21 464.2 142.04 393.7 80.46 321.4 142.04 381.8 138.5 368.28 69.8 285.51 134.37 333.06 69.8 277.93 134.37 321.4 79.61 133.84 50.2 116.38 69.8 122.76 35.73 0 20.41 175.9 44.43 169.5 14.81 209.46 14.81 393.7 58.25 351.56 8.23 409.12 0 462.37 73.04 446.56" style="fill:#00001c; fill-rule:evenodd; stroke-width:0px;"/><polygon points="79.61 511.35 54.59 264.51 40.05 82.22 69.05 511.35 79.61 511.35" style="fill:#09000f; fill-rule:evenodd; stroke-width:0px;"/><polygon points="50.2 209.46 68.48 215.11 69.8 217.74 50.36 211.41 50.2 209.46" style="fill:#09000f; fill-rule:evenodd; stroke-width:0px;"/><polygon points="162.21 464.2 73.04 446.56 69.61 412.74 153.46 433.6 162.21 464.2" style="fill:#0a0906; fill-rule:evenodd; stroke-width:0px;"/><polygon points="150.34 422.72 66.84 385.39 149.1 415.86 150.34 422.72" style="fill:#0a0906; fill-rule:evenodd; stroke-width:0px;"/><polygon points="14.81 393.7 58.25 351.56 14.81 381.8 14.81 393.7" style="fill:#0a0906; fill-rule:evenodd; stroke-width:0px;"/><polygon points="123.17 285.32 51.63 253.69 122.54 280.27 123.17 285.32" style="fill:#0a0906; fill-rule:evenodd; stroke-width:0px;"/><polygon points="20.41 175.9 44.43 169.5 21.35 165.05 20.41 175.9" style="fill:#0a0906; fill-rule:evenodd; stroke-width:0px;"/><polygon points="99.01 200.31 47.04 185.72 46.12 158.29 91.28 173.82 99.01 200.31" style="fill:#0a0906; fill-rule:evenodd; stroke-width:0px;"/><polygon points="69.8 122.76 44.43 116.38 65.11 111.08 69.8 122.76" style="fill:#0a0906; fill-rule:evenodd; stroke-width:0px;"/><polygon points="14.81 342.7 51.63 253.69 13.86 323.8 14.81 342.7" style="fill:#0a0906; fill-rule:evenodd; stroke-width:0px;"/><polygon points="69.8 120.76 57.64 77.56 56.19 80.22 69.8 120.76" style="fill:#b3e2ff; fill-rule:evenodd; stroke-width:0px;"/><polygon points="79.61 131.84 134.37 319.4 116.64 266.44 81.53 152.44 79.61 131.84" style="fill:#b3e2ff; fill-rule:evenodd; stroke-width:0px;"/><polygon points="142.04 391.7 162.21 462.2 142.64 407 142.04 391.7" style="fill:#b3e2ff; fill-rule:evenodd; stroke-width:0px;"/><polygon points="142.04 381.8 138.5 368.28 139.3 377 142.04 381.8" style="fill:#b3e2ff; fill-rule:evenodd; stroke-width:0px;"/></g></svg>