<?xml version="1.0" encoding="UTF-8"?><svg id="Layer_2" xmlns="http://www.w3.org/2000/svg" viewBox="0 0 102.57 323.35"><g id="lake"><polygon points="56.39 282.38 0 293.53 12.76 248.95 51.7 203.24 12.76 241.43 14.99 232.88 58.44 180.54 17.61 210.61 58.44 175.75 17.61 203.24 52.24 84.63 70.83 73.59 58.44 77.63 79.98 0 89.67 111.23 74.48 107.18 93.21 132.45 93.21 248.95 65.74 222.31 97.37 258.7 102.57 292.38 56.39 282.38" style="fill:#0f081e; fill-rule:evenodd; stroke-width:0px;"/><polygon points="52.24 323.35 68.05 167.26 77.25 51.99 58.91 323.35 52.24 323.35" style="fill:#09000f; fill-rule:evenodd; stroke-width:0px;"/><polygon points="70.83 132.45 59.27 136.03 58.44 137.69 70.73 133.69 70.83 132.45" style="fill:#09000f; fill-rule:evenodd; stroke-width:0px;"/><polygon points="0 293.53 56.39 282.38 58.55 260.99 5.54 274.19 0 293.53" style="fill:#0a0906; fill-rule:evenodd; stroke-width:0px;"/><polygon points="7.51 267.3 60.31 243.7 8.29 262.97 7.51 267.3" style="fill:#0a0906; fill-rule:evenodd; stroke-width:0px;"/><polygon points="93.21 248.95 65.74 222.31 93.21 241.43 93.21 248.95" style="fill:#0a0906; fill-rule:evenodd; stroke-width:0px;"/><polygon points="24.69 180.42 69.92 160.42 25.08 177.23 24.69 180.42" style="fill:#0a0906; fill-rule:evenodd; stroke-width:0px;"/><polygon points="89.67 111.23 74.48 107.18 89.07 104.37 89.67 111.23" style="fill:#0a0906; fill-rule:evenodd; stroke-width:0px;"/><polygon points="39.96 126.66 72.83 117.44 73.41 100.1 44.85 109.91 39.96 126.66" style="fill:#0a0906; fill-rule:evenodd; stroke-width:0px;"/><polygon points="58.44 77.63 74.48 73.59 61.4 70.24 58.44 77.63" style="fill:#0a0906; fill-rule:evenodd; stroke-width:0px;"/><polygon points="93.21 216.7 69.92 160.42 93.81 204.76 93.21 216.7" style="fill:#0a0906; fill-rule:evenodd; stroke-width:0px;"/><polygon points="79.98 0 58.44 77.63 70 42.44 79.98 0" style="fill:#b3e2ff; fill-rule:evenodd; stroke-width:0px;"/><polygon points="52.24 84.63 17.61 203.24 40.22 133.78 48.67 101.33 52.24 84.63" style="fill:#b3e2ff; fill-rule:evenodd; stroke-width:0px;"/><polygon points="12.76 248.95 0 293.53 10 262.22 12.76 248.95" style="fill:#b3e2ff; fill-rule:evenodd; stroke-width:0px;"/><polygon points="12.76 241.43 14.99 232.88 14.55 238.11 12.76 241.43" style="fill:#b3e2ff; fill-rule:evenodd; stroke-width:0px;"/></g></svg>