<?xml version="1.0" encoding="UTF-8"?><svg xmlns="http://www.w3.org/2000/svg" viewBox="0 0 669.28 206.5"><g style="isolation:isolate;"><g id="Layer_2"><g id="lake"><path d="M0,206.5L15.86,0s144.12,1.59,653.42,187.38L0,206.5Z" style="fill:#323187; fill-rule:evenodd; stroke-width:0px;"/><path d="M15.86,0s86.17,168.63,99.81,199.83l242.22-3.56S255.08,59.46,236.47,45.83c0,0-90.65-24.07-120.19-29.81C91.25,11.16,15.86,0,15.86,0Z" style="fill:#e8b6ce; fill-rule:evenodd; mix-blend-mode:multiply; opacity:.5; stroke-width:0px;"/><path d="M274.9,56.63s59.01,29.37,88.92,76.28l112.51,2.02s-36.28-28.09-79.52-41.23l-121.91-37.07Z" style="fill:#e895ce; fill-rule:evenodd; mix-blend-mode:multiply; opacity:.5; stroke-width:0px;"/><path d="M476.33,134.93s-16.8-16.87-63.51-36.1l14.93,4.84s77.33,19.07,100.35,33.63l-51.77-2.36Z" style="fill:#e895ce; fill-rule:evenodd; mix-blend-mode:multiply; opacity:.5; stroke-width:0px;"/><path d="M46.22,3.14s92.42,123.8,109.48,170.7l29.19,1.55S100.4,35.88,73.82,7.6l-27.6-4.47Z" style="fill:#e8b6ce; fill-rule:evenodd; mix-blend-mode:multiply; opacity:.5; stroke-width:0px;"/><path d="M108.65,14.62s80.47,117.3,94.11,149.62l25.8,1.37S161.87,46,137.99,20.62l-29.35-6Z" style="fill:#e8b6ce; fill-rule:evenodd; mix-blend-mode:multiply; opacity:.5; stroke-width:0px;"/><path d="M164.38,26.59s73.69,90.55,89.95,125.68l32.93,1.75s-53.96-100.3-66.28-113.38l-56.6-14.05Z" style="fill:#e8b6ce; fill-rule:evenodd; mix-blend-mode:multiply; opacity:.5; stroke-width:0px;"/><polygon points="319.85 86 429.35 106.22 439.07 111.31 326.48 91.44 319.85 86" style="fill:#e8b6ce; fill-rule:evenodd; mix-blend-mode:multiply; opacity:.5; stroke-width:0px;"/><polygon points="337.41 101.3 448.31 115.85 454.15 120.06 346.58 110.68 337.41 101.3" style="fill:#e8b6ce; fill-rule:evenodd; mix-blend-mode:multiply; opacity:.5; stroke-width:0px;"/><polygon points="359.99 127.21 466.78 127.21 476.33 134.93 362.63 131.07 359.99 127.21" style="fill:#e8b6ce; fill-rule:evenodd; mix-blend-mode:multiply; opacity:.5; stroke-width:0px;"/><path d="M243.11,47.72s33.33,27.33,42.56,40.11c9.22,12.78,32.78,50.67,32.78,50.67l10.22-1.22-53.22-71.89-30.52-17.17-1.81-.5Z" style="fill:#e8b6ce; fill-rule:evenodd; mix-blend-mode:multiply; opacity:.5; stroke-width:0px;"/><path d="M244.92,48.22s47.41,31.88,74.19,89.83l39.93-5.95s-40.67-53.62-88.98-76.82l-25.13-7.07Z" style="fill:#201f57; fill-rule:evenodd; stroke-width:0px;"/></g></g></g></svg>