<?xml version="1.0" encoding="UTF-8"?><svg xmlns="http://www.w3.org/2000/svg" xmlns:xlink="http://www.w3.org/1999/xlink" viewBox="0 0 31.87 186.08"><defs><linearGradient id="_횂횁_횕_횑횑_횊_횏횂횑횣_118" x1="-1095.47" y1="82.18" x2="-1095.47" y2="-103.51" gradientTransform="translate(1108.53 -15.72) rotate(-6.25)" gradientUnits="userSpaceOnUse"><stop offset="0" stop-color="#3e4677"/><stop offset=".21" stop-color="#3c3f70"/><stop offset=".51" stop-color="#362c5e"/><stop offset=".76" stop-color="#31174a"/><stop offset=".99" stop-color="#1d012e"/></linearGradient></defs><g style="isolation:isolate;"><g id="Layer_2"><g id="lake"><polygon points="20.19 186.08 22.61 78.48 15.14 32.05 0 1.64 1.84 1.29 14.39 25.12 11.66 .22 15.02 0 26.2 85.84 26.77 138.26 31.87 183.12 20.19 186.08" style="fill:url(#_횂횁_횕_횑횑_횊_횏횂횑횣_118); fill-rule:evenodd; stroke-width:0px;"/><polygon points="20.4 176.58 23.85 152.03 23.84 127.81 26.33 97.14 25.96 116.58 24.68 138.89 24.3 167.41 20.19 186.08 20.4 176.58" style="fill:#ccbdab; fill-rule:evenodd; mix-blend-mode:multiply; opacity:.5; stroke-width:0px;"/><polygon points="24.95 184.98 26.46 180.37 26.91 169.85 27.49 180.26 27.91 184.12 24.95 184.98" style="fill:#ccbdab; fill-rule:evenodd; mix-blend-mode:multiply; opacity:.5; stroke-width:0px;"/><polygon points="24.42 79.78 22.27 93.54 23.29 69.44 22.35 56.27 25.4 78.48 24.42 79.78" style="fill:#ccbdab; fill-rule:evenodd; mix-blend-mode:multiply; opacity:.5; stroke-width:0px;"/><polygon points="0 1.64 .24 2.12 15.14 32.05 22.61 78.48 20.19 186.08 21.9 136.62 23.35 77.62 15.35 30.07 0 1.64" style="fill:#b3e2ff; fill-rule:evenodd; stroke-width:0px;"/></g></g></g></svg>