<?xml version="1.0" encoding="UTF-8"?><svg xmlns="http://www.w3.org/2000/svg" xmlns:xlink="http://www.w3.org/1999/xlink" viewBox="0 0 375.25 137.32"><defs><radialGradient id="_횂횁_횕_횑횑_횊_횏횂횑횣_25" cx="120.32" cy="100.54" fx="120.32" fy="100.54" r="1.69" gradientTransform="translate(29.51 -72.74) rotate(24.35)" gradientUnits="userSpaceOnUse"><stop offset=".02" stop-color="#2172ff"/><stop offset=".33" stop-color="#2071fc"/><stop offset=".46" stop-color="#1f6df5"/><stop offset=".56" stop-color="#1e68e9"/><stop offset=".65" stop-color="#1b60d7"/><stop offset=".72" stop-color="#1855bf"/><stop offset=".79" stop-color="#1548a3"/><stop offset=".85" stop-color="#103980"/><stop offset=".9" stop-color="#0b2759"/><stop offset=".95" stop-color="#05142d"/><stop offset="1" stop-color="#000"/></radialGradient><radialGradient id="_횂횁_횕_횑횑_횊_횏횂횑횣_25-2" cx="115.59" cy="82.06" fx="115.59" fy="82.06" r="1.69" gradientTransform="translate(70.59 -111.7) rotate(46.25)" xlink:href="#_횂횁_횕_횑횑_횊_횏횂횑횣_25"/><radialGradient id="_횂횁_횕_횑횑_횊_횏횂횑횣_25-3" cx="120.07" cy="145.02" fx="120.07" fy="145.02" r="1.69" gradientTransform="translate(70.59 -111.7) rotate(46.25)" xlink:href="#_횂횁_횕_횑횑_횊_횏횂횑횣_25"/><radialGradient id="_횂횁_횕_횑횑_횊_횏횂횑횣_25-4" cx="111.79" cy="103.14" fx="111.79" fy="103.14" r=".61" gradientTransform="translate(70.59 -111.7) rotate(46.25)" xlink:href="#_횂횁_횕_횑횑_횊_횏횂횑횣_25"/><radialGradient id="_횂횁_횕_횑횑_횊_횏횂횑횣_620" cx="112.56" cy="60.25" fx="112.56" fy="60.25" r=".78" gradientTransform="translate(70.59 -111.7) rotate(46.25)" gradientUnits="userSpaceOnUse"><stop offset=".02" stop-color="#004c98"/><stop offset=".37" stop-color="#004a95"/><stop offset=".52" stop-color="#00478e"/><stop offset=".63" stop-color="#004182"/><stop offset=".73" stop-color="#003870"/><stop offset=".81" stop-color="#002c58"/><stop offset=".89" stop-color="#001e3c"/><stop offset=".95" stop-color="#000d1b"/><stop offset="1" stop-color="#000"/></radialGradient><radialGradient id="_횂횁_횕_횑횑_횊_횏횂횑횣_620-2" cx="111.79" cy="84.59" fx="111.79" fy="84.59" r=".78" xlink:href="#_횂횁_횕_횑횑_횊_횏횂횑횣_620"/><radialGradient id="_횂횁_횕_횑횑_횊_횏횂횑횣_620-3" cx="111.17" cy="143.75" fx="111.17" fy="143.75" r=".78" xlink:href="#_횂횁_횕_횑횑_횊_횏횂횑횣_620"/><radialGradient id="_횂횁_횕_횑횑_횊_횏횂횑횣_620-4" cx="117.85" cy="110.6" fx="117.85" fy="110.6" r=".78" gradientTransform="translate(29.51 -72.74) rotate(24.35)" xlink:href="#_횂횁_횕_횑횑_횊_횏횂횑횣_620"/><radialGradient id="_횂횁_횕_횑횑_횊_횏횂횑횣_620-5" cx="124.84" cy="36.79" fx="124.84" fy="36.79" r=".78" xlink:href="#_횂횁_횕_횑횑_횊_횏횂횑횣_620"/><radialGradient id="_횂횁_횕_횑횑_횊_횏횂횑횣_620-6" cx="110.87" cy="113.16" fx="110.87" fy="113.16" r=".78" gradientTransform="translate(29.51 -72.74) rotate(24.35)" xlink:href="#_횂횁_횕_횑횑_횊_횏횂횑횣_620"/><radialGradient id="_횂횁_횕_횑횑_횊_횏횂횑횣_611" cx="110.01" cy="54.68" fx="110.01" fy="54.68" r="5.57" gradientTransform="translate(70.59 -111.7) rotate(46.25)" gradientUnits="userSpaceOnUse"><stop offset=".02" stop-color="#0a1b5e"/><stop offset=".41" stop-color="#091a5b"/><stop offset=".58" stop-color="#091854"/><stop offset=".71" stop-color="#071448"/><stop offset=".82" stop-color="#050f36"/><stop offset=".91" stop-color="#03081f"/><stop offset=".99" stop-color="#000003"/><stop offset="1" stop-color="#000"/></radialGradient><radialGradient id="_횂횁_횕_횑횑_횊_횏횂횑횣_3" cx="125.94" cy="144.56" fx="125.94" fy="144.56" r="11.78" gradientTransform="translate(70.59 -111.7) rotate(46.25)" gradientUnits="userSpaceOnUse"><stop offset=".02" stop-color="#7c7a18"/><stop offset=".22" stop-color="#605f12"/><stop offset=".75" stop-color="#1b1a05"/><stop offset="1" stop-color="#000"/></radialGradient><radialGradient id="_횂횁_횕_횑횑_횊_횏횂횑횣_3-2" cx="110.09" cy="76.21" fx="110.09" fy="76.21" r="11.78" gradientTransform="translate(29.51 -72.74) rotate(24.35)" xlink:href="#_횂횁_횕_횑횑_횊_횏횂횑횣_3"/><radialGradient id="_횂횁_횕_횑횑_횊_횏횂횑횣_611-2" cx="98.39" cy="106.73" fx="98.39" fy="106.73" r="3.58" xlink:href="#_횂횁_횕_횑횑_횊_횏횂횑횣_611"/><radialGradient id="_횂횁_횕_횑횑_횊_횏횂횑횣_611-3" cx="102.78" cy="91.37" fx="102.78" fy="91.37" r="1.88" xlink:href="#_횂횁_횕_횑횑_횊_횏횂횑횣_611"/><radialGradient id="_횂횁_횕_횑횑_횊_횏횂횑횣_25-5" cx="126.55" cy="152.5" fx="126.55" fy="152.5" r="1.69" xlink:href="#_횂횁_횕_횑횑_횊_횏횂횑횣_25"/><radialGradient id="_횂횁_횕_횑횑_횊_횏횂횑횣_25-6" cx="147.76" cy="78.15" fx="147.76" fy="78.15" r="1.69" xlink:href="#_횂횁_횕_횑횑_횊_횏횂횑횣_25"/><radialGradient id="_횂횁_횕_횑횑_횊_횏횂횑횣_25-7" cx="60.69" cy="178.47" fx="60.69" fy="178.47" r="1.69" xlink:href="#_횂횁_횕_횑횑_횊_횏횂횑횣_25"/><radialGradient id="_횂횁_횕_횑횑_횊_횏횂횑횣_25-8" cx="58.09" cy="193.35" fx="58.09" fy="193.35" r="2.71" xlink:href="#_횂횁_횕_횑횑_횊_횏횂횑횣_25"/><radialGradient id="_횂횁_횕_횑횑_횊_횏횂횑횣_25-9" cx="122.75" cy="173.58" fx="122.75" fy="173.58" r=".61" xlink:href="#_횂횁_횕_횑횑_횊_횏횂횑횣_25"/><radialGradient id="_횂횁_횕_횑횑_횊_횏횂횑횣_620-7" cx="122.75" cy="155.03" fx="122.75" fy="155.03" r=".78" gradientTransform="translate(29.51 -72.74) rotate(24.35)" xlink:href="#_횂횁_횕_횑횑_횊_횏횂횑횣_620"/><radialGradient id="_횂횁_횕_횑횑_횊_횏횂횑횣_611-4" cx="109.35" cy="177.16" fx="109.35" fy="177.16" r="3.58" gradientTransform="translate(29.51 -72.74) rotate(24.35)" xlink:href="#_횂횁_횕_횑횑_횊_횏횂횑횣_611"/><radialGradient id="_횂횁_횕_횑횑_횊_횏횂횑횣_611-5" cx="113.74" cy="161.81" fx="113.74" fy="161.81" r="1.88" gradientTransform="translate(29.51 -72.74) rotate(24.35)" xlink:href="#_횂횁_횕_횑횑_횊_횏횂횑횣_611"/><radialGradient id="_횂횁_횕_횑횑_횊_횏횂횑횣_611-6" cx="354.09" cy="-34.22" fx="354.09" fy="-34.22" r="9.05" gradientTransform="translate(29.51 -72.74) rotate(24.35)" xlink:href="#_횂횁_횕_횑횑_횊_횏횂횑횣_611"/><radialGradient id="_횂횁_횕_횑횑_횊_횏횂횑횣_25-10" cx="327.22" cy="60.27" fx="327.22" fy="60.27" r="3.27" xlink:href="#_횂횁_횕_횑횑_횊_횏횂횑횣_25"/><radialGradient id="_횂횁_횕_횑횑_횊_횏횂횑횣_611-7" cx="346.98" cy="30.77" fx="346.98" fy="30.77" r="16.48" gradientTransform="translate(29.51 -72.74) rotate(24.35)" xlink:href="#_횂횁_횕_횑횑_횊_횏횂횑횣_611"/><radialGradient id="_횂횁_횕_횑횑_횊_횏횂횑횣_620-8" cx="327.22" cy="-39.19" fx="327.22" fy="-39.19" r="4.18" gradientTransform="translate(29.51 -72.74) rotate(24.35)" xlink:href="#_횂횁_횕_횑횑_횊_횏횂횑횣_620"/><radialGradient id="_횂횁_횕_횑횑_횊_횏횂횑횣_611-8" cx="255.38" cy="79.47" fx="255.38" fy="79.47" r="19.2" gradientTransform="translate(113.06 -135.87) rotate(46.93)" xlink:href="#_횂횁_횕_횑횑_횊_횏횂횑횣_611"/><radialGradient id="_횂횁_횕_횑횑_횊_횏횂횑횣_611-9" cx="278.94" cy="-2.84" fx="278.94" fy="-2.84" r="10.09" gradientTransform="translate(29.51 -72.74) rotate(24.35)" xlink:href="#_횂횁_횕_횑횑_횊_횏횂횑횣_611"/><radialGradient id="_횂횁_횕_횑횑_횊_횏횂횑횣_611-10" cx="115.19" cy="122.12" fx="115.19" fy="122.12" r="1.88" gradientTransform="translate(29.51 -72.74) rotate(24.35)" xlink:href="#_횂횁_횕_횑횑_횊_횏횂횑횣_611"/><radialGradient id="_횂횁_횕_횑횑_횊_횏횂횑횣_611-11" cx="103.8" cy="166.39" fx="103.8" fy="166.39" r="1.88" xlink:href="#_횂횁_횕_횑횑_횊_횏횂횑횣_611"/></defs><g style="isolation:isolate;"><g id="Layer_2"><g id="lake"><path d="M99.21,69.16c-.38.85-1.39,1.23-2.23.84-.85-.38-1.23-1.39-.84-2.23.38-.85,1.39-1.23,2.23-.84.85.38,1.23,1.39.84,2.23Z" style="fill:url(#_횂횁_횕_횑횑_횊_횏횂횑횣_25); fill-rule:evenodd; mix-blend-mode:screen; stroke-width:0px;"/><path d="M92.41,29.75c-.67.65-1.74.62-2.39-.05-.64-.67-.62-1.74.05-2.39.67-.65,1.74-.62,2.39.05.64.67.62,1.74-.05,2.39Z" style="fill:url(#_횂횁_횕_횑횑_횊_횏횂횑횣_25-2); fill-rule:evenodd; mix-blend-mode:screen; stroke-width:0px;"/><path d="M50.03,76.53c-.67.64-1.74.62-2.39-.05-.64-.67-.62-1.74.05-2.39.67-.65,1.74-.62,2.39.05.64.67.62,1.74-.05,2.39Z" style="fill:url(#_횂횁_횕_횑횑_횊_횏횂횑횣_25-3); fill-rule:evenodd; mix-blend-mode:screen; stroke-width:0px;"/><path d="M73.81,40.81c-.24.23-.63.22-.86-.02-.23-.24-.22-.63.02-.86s.63-.22.86.02c.23.24.22.63-.02.86Z" style="fill:url(#_횂횁_횕_횑횑_횊_횏횂횑횣_25-4); fill-rule:evenodd; mix-blend-mode:screen; stroke-width:0px;"/><path d="M105.45,11.83c-.31.3-.8.29-1.1-.02-.3-.31-.29-.8.02-1.1.31-.3.8-.29,1.1.02.3.31.29.8-.02,1.1Z" style="fill:url(#_횂횁_횕_횑횑_횊_횏횂횑횣_620); fill-rule:evenodd; mix-blend-mode:screen; stroke-width:0px;"/><path d="M87.32,28.1c-.31.3-.8.29-1.1-.02-.3-.31-.29-.8.02-1.1s.8-.29,1.1.02c.3.31.29.8-.02,1.1Z" style="fill:url(#_횂횁_횕_횑횑_횊_횏횂횑횣_620-2); fill-rule:evenodd; mix-blend-mode:screen; stroke-width:0px;"/><path d="M44.16,68.56c-.31.3-.8.29-1.1-.02-.3-.31-.29-.8.02-1.1.31-.3.8-.29,1.1.02.3.31.29.8-.02,1.1Z" style="fill:url(#_횂횁_횕_횑횑_횊_횏횂횑횣_620-3); fill-rule:evenodd; mix-blend-mode:screen; stroke-width:0px;"/><path d="M91.99,76.93c-.18.39-.64.57-1.03.39-.39-.18-.57-.64-.39-1.03.18-.39.64-.57,1.03-.39s.57.64.39,1.03Z" style="fill:url(#_횂횁_횕_횑횑_횊_횏횂횑횣_620-4); fill-rule:evenodd; mix-blend-mode:screen; stroke-width:0px;"/><path d="M130.88,4.47c-.31.3-.8.29-1.1-.02-.3-.31-.29-.8.02-1.1.31-.3.8-.29,1.1.02.3.31.29.8-.02,1.1Z" style="fill:url(#_횂횁_횕_횑횑_횊_횏횂횑횣_620-5); fill-rule:evenodd; mix-blend-mode:screen; stroke-width:0px;"/><path d="M84.57,76.38c-.18.39-.64.57-1.03.39-.39-.18-.57-.64-.39-1.03.18-.39.64-.57,1.03-.39.39.18.57.64.39,1.03Z" style="fill:url(#_횂횁_횕_횑횑_횊_횏횂횑횣_620-6); fill-rule:evenodd; mix-blend-mode:screen; stroke-width:0px;"/><path d="M111.02,9.6c-2.22,2.13-5.75,2.05-7.88-.17-2.13-2.22-2.05-5.75.17-7.88,2.22-2.13,5.75-2.05,7.88.17,2.13,2.22,2.05,5.75-.17,7.88Z" style="fill:url(#_횂횁_횕_횑횑_횊_횏횂횑횣_611); fill-rule:evenodd; mix-blend-mode:screen; opacity:.5; stroke-width:0px;"/><path d="M61.41,87.74c-4.7,4.5-12.16,4.34-16.65-.36-4.5-4.7-4.34-12.16.36-16.66,4.7-4.5,12.16-4.34,16.65.36s4.34,12.16-.36,16.65Z" style="fill:url(#_횂횁_횕_횑횑_횊_횏횂횑횣_3); fill-rule:evenodd; mix-blend-mode:screen; opacity:.4; stroke-width:0px;"/><path d="M109.12,46.94c-2.68,5.93-9.66,8.56-15.59,5.87-5.93-2.68-8.56-9.66-5.87-15.59,2.68-5.93,9.66-8.56,15.59-5.87,5.93,2.68,8.56,9.66,5.87,15.59Z" style="fill:url(#_횂횁_횕_횑횑_횊_횏횂횑횣_3-2); fill-rule:evenodd; mix-blend-mode:screen; opacity:.4; stroke-width:0px;"/><path d="M64.01,35.75c-1.43,1.37-3.7,1.32-5.06-.11-1.37-1.43-1.32-3.7.11-5.06,1.43-1.37,3.7-1.32,5.06.11,1.37,1.43,1.32,3.7-.11,5.06Z" style="fill:url(#_횂횁_횕_횑횑_횊_횏횂횑횣_611-2); fill-rule:evenodd; mix-blend-mode:screen; opacity:.5; stroke-width:0px;"/><path d="M76.96,27.08c-.75.72-1.94.69-2.66-.06-.72-.75-.69-1.94.06-2.66.75-.72,1.94-.69,2.66.06.72.75.69,1.94-.06,2.66Z" style="fill:url(#_횂횁_횕_횑횑_횊_횏횂횑횣_611-3); fill-rule:evenodd; mix-blend-mode:screen; opacity:.5; stroke-width:0px;"/><path d="M83.46,119.06c-.38.85-1.39,1.23-2.23.84-.85-.38-1.23-1.38-.84-2.23.38-.85,1.39-1.23,2.23-.84.85.38,1.23,1.39.84,2.23Z" style="fill:url(#_횂횁_횕_횑횑_횊_횏횂횑횣_25-5); fill-rule:evenodd; mix-blend-mode:screen; stroke-width:0px;"/><path d="M133.44,60.07c-.38.85-1.39,1.23-2.23.84-.85-.38-1.23-1.39-.84-2.23.38-.85,1.39-1.23,2.23-.84.85.38,1.23,1.39.84,2.23Z" style="fill:url(#_횂횁_횕_횑횑_횊_횏횂횑횣_25-6); fill-rule:evenodd; mix-blend-mode:screen; stroke-width:0px;"/><path d="M12.75,115.57c-.38.85-1.39,1.23-2.23.84-.85-.38-1.23-1.39-.84-2.23.38-.85,1.39-1.23,2.23-.84.85.38,1.23,1.39.84,2.23Z" style="fill:url(#_횂횁_횕_횑횑_횊_횏횂횑횣_25-7); fill-rule:evenodd; mix-blend-mode:screen; stroke-width:0px;"/><path d="M5.19,128.48c-.62,1.37-2.23,1.97-3.59,1.35-1.37-.62-1.97-2.23-1.35-3.59.62-1.37,2.23-1.97,3.59-1.35,1.37.62,1.97,2.23,1.35,3.59Z" style="fill:url(#_횂횁_횕_횑횑_횊_횏횂횑횣_25-8); fill-rule:evenodd; mix-blend-mode:screen; stroke-width:0px;"/><path d="M70.32,136.25c-.14.31-.5.44-.81.3-.31-.14-.44-.5-.3-.81.14-.31.5-.44.81-.3.31.14.44.5.3.81Z" style="fill:url(#_횂횁_횕_횑횑_횊_횏횂횑횣_25-9); fill-rule:evenodd; mix-blend-mode:screen; stroke-width:0px;"/><path d="M78.13,119.42c-.18.39-.64.57-1.03.39s-.57-.64-.39-1.03.64-.57,1.03-.39c.39.18.57.64.39,1.03Z" style="fill:url(#_횂횁_횕_횑횑_횊_횏횂횑횣_620-7); fill-rule:evenodd; mix-blend-mode:screen; stroke-width:0px;"/><path d="M59.35,135.22c-.82,1.8-2.94,2.6-4.74,1.79-1.8-.82-2.6-2.94-1.79-4.74s2.94-2.6,4.74-1.79c1.8.82,2.6,2.94,1.79,4.74Z" style="fill:url(#_횂횁_횕_횑횑_횊_횏횂횑횣_611-4); fill-rule:evenodd; mix-blend-mode:screen; opacity:.5; stroke-width:0px;"/><path d="M68.13,122.34c-.43.95-1.54,1.37-2.49.94-.95-.43-1.37-1.54-.94-2.49.43-.95,1.54-1.37,2.49-.94.95.43,1.37,1.54.94,2.49Z" style="fill:url(#_횂횁_횕_횑횑_횊_횏횂횑횣_611-5); fill-rule:evenodd; mix-blend-mode:screen; opacity:.5; stroke-width:0px;"/><path d="M374.44,45.81c-2.06,4.56-7.43,6.58-11.98,4.52-4.56-2.06-6.58-7.43-4.52-11.98,2.06-4.56,7.43-6.58,11.98-4.52,4.56,2.06,6.58,7.43,4.51,11.98Z" style="fill:url(#_횂횁_횕_횑횑_횊_횏횂횑횣_611-6); fill-rule:evenodd; mix-blend-mode:screen; stroke-width:0px;"/><path d="M305.73,118.42c-.74,1.64-2.68,2.37-4.32,1.63-1.64-.74-2.37-2.68-1.63-4.32s2.68-2.37,4.32-1.63,2.37,2.68,1.63,4.32Z" style="fill:url(#_횂횁_횕_횑횑_횊_횏횂횑횣_25-10); fill-rule:evenodd; mix-blend-mode:screen; stroke-width:0px;"/><path d="M347.93,105.14c-3.75,8.29-13.51,11.97-21.8,8.22-8.29-3.75-11.97-13.51-8.22-21.8,3.75-8.29,13.51-11.97,21.8-8.22,8.29,3.75,11.97,13.51,8.22,21.8Z" style="fill:url(#_횂횁_횕_횑횑_횊_횏횂횑횣_611-7); fill-rule:evenodd; mix-blend-mode:screen; opacity:.5; stroke-width:0px;"/><path d="M347.57,28.19c-.95,2.1-3.43,3.03-5.53,2.08-2.1-.95-3.03-3.43-2.08-5.53.95-2.1,3.43-3.03,5.53-2.08,2.1.95,3.03,3.43,2.08,5.53Z" style="fill:url(#_횂횁_횕_횑횑_횊_횏횂횑횣_620-8); fill-rule:evenodd; mix-blend-mode:screen; stroke-width:0px;"/><circle cx="229.4" cy="104.95" r="19.2" transform="translate(-22.71 96.13) rotate(-22.58)" style="fill:url(#_횂횁_횕_횑횑_횊_횏횂횑횣_611-8); mix-blend-mode:screen; opacity:.5; stroke-width:0px;"/><path d="M293.99,43.84c-2.3,5.08-8.28,7.33-13.35,5.03-5.08-2.3-7.33-8.28-5.03-13.35,2.3-5.08,8.28-7.33,13.35-5.03s7.33,8.28,5.03,13.35Z" style="fill:url(#_횂횁_횕_횑횑_횊_횏횂횑횣_611-9); fill-rule:evenodd; mix-blend-mode:screen; opacity:.5; stroke-width:0px;"/><path d="M85.82,86.78c-.43.95-1.54,1.37-2.49.94-.95-.43-1.37-1.54-.94-2.49.43-.95,1.54-1.37,2.49-.94.95.43,1.37,1.54.94,2.49Z" style="fill:url(#_횂횁_횕_횑횑_횊_횏횂횑횣_611-10); fill-rule:evenodd; mix-blend-mode:screen; opacity:.5; stroke-width:0px;"/><path d="M23.48,79.69c-.75.72-1.94.69-2.66-.06-.72-.75-.69-1.94.06-2.66.75-.72,1.94-.69,2.66.06.72.75.69,1.94-.06,2.66Z" style="fill:url(#_횂횁_횕_횑횑_횊_횏횂횑횣_611-11); fill-rule:evenodd; mix-blend-mode:screen; opacity:.5; stroke-width:0px;"/></g></g></g></svg>