<?xml version="1.0" encoding="UTF-8"?><svg xmlns="http://www.w3.org/2000/svg" xmlns:xlink="http://www.w3.org/1999/xlink" viewBox="0 0 859.31 328.9"><defs><linearGradient id="_ÂÁ_Ï_ÌÌ_È_ËÂÌÚ_6" x1="435.39" y1="328.9" x2="435.39" y2="37.87" gradientTransform="translate(.24)" gradientUnits="userSpaceOnUse"><stop offset="0" stop-color="#4798cb"/><stop offset=".11" stop-color="#3c80b9"/><stop offset=".34" stop-color="#20468c"/><stop offset=".44" stop-color="#132a77"/><stop offset=".85" stop-color="#180b3f"/><stop offset="1" stop-color="#1a002a"/></linearGradient><radialGradient id="_ÂÁ_Ï_ÌÌ_È_ËÂÌÚ_550" cx="-1117.37" cy="322.89" fx="-1117.37" fy="322.89" r="23.58" gradientTransform="translate(1085.25 -2563.8) rotate(-90) scale(2.39 -2.37)" gradientUnits="userSpaceOnUse"><stop offset="0" stop-color="#6a229d"/><stop offset=".16" stop-color="#672198"/><stop offset=".32" stop-color="#5e1e8c"/><stop offset=".48" stop-color="#501977"/><stop offset=".64" stop-color="#3d135a"/><stop offset=".81" stop-color="#240b35"/><stop offset=".97" stop-color="#050108"/><stop offset="1" stop-color="#000"/></radialGradient><radialGradient id="_ÂÁ_Ï_ÌÌ_È_ËÂÌÚ_558" cx="-1116.87" cy="321.99" fx="-1116.87" fy="321.99" r="20.12" gradientTransform="translate(1084.04 -2564.89) rotate(-90) scale(2.39 -2.37)" gradientUnits="userSpaceOnUse"><stop offset="0" stop-color="#0037a4"/><stop offset=".15" stop-color="#00359f"/><stop offset=".31" stop-color="#003193"/><stop offset=".47" stop-color="#002a7f"/><stop offset=".63" stop-color="#002162"/><stop offset=".79" stop-color="#00143d"/><stop offset=".95" stop-color="#000511"/><stop offset="1" stop-color="#000"/></radialGradient><linearGradient id="_ÂÁ_Ï_ÌÌ_È_ËÂÌÚ_102" x1="472.85" y1="199.96" x2="472.85" y2="47.68" gradientUnits="userSpaceOnUse"><stop offset="0" stop-color="#34229d"/><stop offset="1" stop-color="#5a5983"/></linearGradient><linearGradient id="_ÂÁ_Ï_ÌÌ_È_ËÂÌÚ_102-2" x1="490.41" y1="199.96" x2="490.41" y2="47.68" xlink:href="#_ÂÁ_Ï_ÌÌ_È_ËÂÌÚ_102"/><linearGradient id="_ÂÁ_Ï_ÌÌ_È_ËÂÌÚ_108" x1="70.28" y1="165.67" x2="70.28" y2="153.4" gradientUnits="userSpaceOnUse"><stop offset="0" stop-color="#06226f"/><stop offset=".96" stop-color="#213981"/><stop offset="1" stop-color="#224186"/></linearGradient><linearGradient id="_ÂÁ_Ï_ÌÌ_È_ËÂÌÚ_479" x1="415.97" y1="199.69" x2="415.97" y2="82.11" gradientUnits="userSpaceOnUse"><stop offset="0" stop-color="#3a247c"/><stop offset="1" stop-color="#224186"/></linearGradient><linearGradient id="_ÂÁ_Ï_ÌÌ_È_ËÂÌÚ_509" x1="564.82" y1="199.96" x2="564.82" y2="47.68" gradientUnits="userSpaceOnUse"><stop offset="0" stop-color="#2b3491"/><stop offset="1" stop-color="#504a89"/></linearGradient><linearGradient id="_ÂÁ_Ï_ÌÌ_È_ËÂÌÚ_509-2" x1="539.58" y1="199.96" x2="539.58" y2="47.68" xlink:href="#_ÂÁ_Ï_ÌÌ_È_ËÂÌÚ_509"/><linearGradient id="_ÂÁ_Ï_ÌÌ_È_ËÂÌÚ_509-3" x1="658.14" y1="199.96" x2="658.14" y2="47.68" xlink:href="#_ÂÁ_Ï_ÌÌ_È_ËÂÌÚ_509"/><linearGradient id="_ÂÁ_Ï_ÌÌ_È_ËÂÌÚ_509-4" x1="503.71" y1="199.96" x2="503.71" y2="47.68" xlink:href="#_ÂÁ_Ï_ÌÌ_È_ËÂÌÚ_509"/><linearGradient id="_ÂÁ_Ï_ÌÌ_È_ËÂÌÚ_509-5" x1="393.5" y1="199.96" x2="393.5" y2="47.68" xlink:href="#_ÂÁ_Ï_ÌÌ_È_ËÂÌÚ_509"/><linearGradient id="_ÂÁ_Ï_ÌÌ_È_ËÂÌÚ_509-6" x1="432.26" y1="199.96" x2="432.26" y2="47.68" xlink:href="#_ÂÁ_Ï_ÌÌ_È_ËÂÌÚ_509"/><linearGradient id="_ÂÁ_Ï_ÌÌ_È_ËÂÌÚ_509-7" x1="462" y1="199.96" x2="462" y2="47.68" xlink:href="#_ÂÁ_Ï_ÌÌ_È_ËÂÌÚ_509"/><linearGradient id="_ÂÁ_Ï_ÌÌ_È_ËÂÌÚ_509-8" x1="377.74" y1="199.96" x2="377.74" y2="47.68" xlink:href="#_ÂÁ_Ï_ÌÌ_È_ËÂÌÚ_509"/><linearGradient id="_ÂÁ_Ï_ÌÌ_È_ËÂÌÚ_509-9" x1="302.19" y1="199.96" x2="302.19" y2="47.68" xlink:href="#_ÂÁ_Ï_ÌÌ_È_ËÂÌÚ_509"/><linearGradient id="_ÂÁ_Ï_ÌÌ_È_ËÂÌÚ_509-10" x1="247.15" y1="199.96" x2="247.15" y2="47.68" xlink:href="#_ÂÁ_Ï_ÌÌ_È_ËÂÌÚ_509"/><linearGradient id="_ÂÁ_Ï_ÌÌ_È_ËÂÌÚ_509-11" x1="208.02" y1="199.96" x2="208.02" y2="47.68" xlink:href="#_ÂÁ_Ï_ÌÌ_È_ËÂÌÚ_509"/><linearGradient id="_ÂÁ_Ï_ÌÌ_È_ËÂÌÚ_509-12" x1="171.99" y1="199.96" x2="171.99" y2="47.68" xlink:href="#_ÂÁ_Ï_ÌÌ_È_ËÂÌÚ_509"/><linearGradient id="_ÂÁ_Ï_ÌÌ_È_ËÂÌÚ_509-13" x1="345.8" y1="199.96" x2="345.8" y2="47.68" xlink:href="#_ÂÁ_Ï_ÌÌ_È_ËÂÌÚ_509"/><linearGradient id="_ÂÁ_Ï_ÌÌ_È_ËÂÌÚ_509-14" x1="415.97" y1="199.96" x2="415.97" y2="47.68" xlink:href="#_ÂÁ_Ï_ÌÌ_È_ËÂÌÚ_509"/><linearGradient id="_ÂÁ_Ï_ÌÌ_È_ËÂÌÚ_509-15" x1="589.54" y1="199.96" x2="589.54" y2="47.68" xlink:href="#_ÂÁ_Ï_ÌÌ_È_ËÂÌÚ_509"/><linearGradient id="_ÂÁ_Ï_ÌÌ_È_ËÂÌÚ_5" x1="638.02" y1="138.33" x2="638.02" y2="21.08" gradientUnits="userSpaceOnUse"><stop offset="0" stop-color="#323f90"/><stop offset="1" stop-color="#212f81"/></linearGradient><linearGradient id="_ÂÁ_Ï_ÌÌ_È_ËÂÌÚ_5-2" x1="741.28" y1="102.36" x2="741.28" y2=".52" xlink:href="#_ÂÁ_Ï_ÌÌ_È_ËÂÌÚ_5"/><linearGradient id="_ÂÁ_Ï_ÌÌ_È_ËÂÌÚ_192" x1="568.82" y1="199.96" x2="568.82" y2="47.68" gradientUnits="userSpaceOnUse"><stop offset="0" stop-color="#3459bf"/><stop offset="1" stop-color="#453b93"/></linearGradient><linearGradient id="_ÂÁ_Ï_ÌÌ_È_ËÂÌÚ_192-2" x1="616.61" y1="199.96" x2="616.61" y2="47.68" xlink:href="#_ÂÁ_Ï_ÌÌ_È_ËÂÌÚ_192"/><linearGradient id="_ÂÁ_Ï_ÌÌ_È_ËÂÌÚ_192-3" x1="662.29" y1="199.96" x2="662.29" y2="47.68" xlink:href="#_ÂÁ_Ï_ÌÌ_È_ËÂÌÚ_192"/><linearGradient id="_ÂÁ_Ï_ÌÌ_È_ËÂÌÚ_192-4" x1="658.22" y1="199.96" x2="658.22" y2="47.68" xlink:href="#_ÂÁ_Ï_ÌÌ_È_ËÂÌÚ_192"/><linearGradient id="_ÂÁ_Ï_ÌÌ_È_ËÂÌÚ_192-5" x1="494.16" y1="199.96" x2="494.16" y2="47.68" xlink:href="#_ÂÁ_Ï_ÌÌ_È_ËÂÌÚ_192"/><linearGradient id="_ÂÁ_Ï_ÌÌ_È_ËÂÌÚ_192-6" x1="620.18" y1="199.95" x2="620.18" y2="47.68" xlink:href="#_ÂÁ_Ï_ÌÌ_È_ËÂÌÚ_192"/><linearGradient id="_ÂÁ_Ï_ÌÌ_È_ËÂÌÚ_192-7" x1="733.92" y1="199.96" x2="733.92" y2="47.68" xlink:href="#_ÂÁ_Ï_ÌÌ_È_ËÂÌÚ_192"/><linearGradient id="_ÂÁ_Ï_ÌÌ_È_ËÂÌÚ_192-8" x1="806.82" y1="199.96" x2="806.82" y2="47.68" xlink:href="#_ÂÁ_Ï_ÌÌ_È_ËÂÌÚ_192"/><linearGradient id="_ÂÁ_Ï_ÌÌ_È_ËÂÌÚ_108-2" x1="796.58" y1="123.46" x2="674.59" y2="133.09" xlink:href="#_ÂÁ_Ï_ÌÌ_È_ËÂÌÚ_108"/><linearGradient id="_ÂÁ_Ï_ÌÌ_È_ËÂÌÚ_108-3" x1="796.5" y1="122.34" x2="674.5" y2="131.97" xlink:href="#_ÂÁ_Ï_ÌÌ_È_ËÂÌÚ_108"/><linearGradient id="_ÂÁ_Ï_ÌÌ_È_ËÂÌÚ_5-3" x1="229.08" y1="158.68" x2="229.08" y2="80.79" xlink:href="#_ÂÁ_Ï_ÌÌ_È_ËÂÌÚ_5"/><linearGradient id="_ÂÁ_Ï_ÌÌ_È_ËÂÌÚ_108-4" x1="443.32" y1="160.84" x2="443.32" y2="158.68" xlink:href="#_ÂÁ_Ï_ÌÌ_È_ËÂÌÚ_108"/><linearGradient id="_ÂÁ_Ï_ÌÌ_È_ËÂÌÚ_192-9" x1="180.75" y1="199.96" x2="180.75" y2="47.68" xlink:href="#_ÂÁ_Ï_ÌÌ_È_ËÂÌÚ_192"/><linearGradient id="_ÂÁ_Ï_ÌÌ_È_ËÂÌÚ_192-10" x1="95.72" y1="199.96" x2="95.72" y2="47.68" xlink:href="#_ÂÁ_Ï_ÌÌ_È_ËÂÌÚ_192"/><linearGradient id="_ÂÁ_Ï_ÌÌ_È_ËÂÌÚ_192-11" x1="247.46" y1="199.96" x2="247.46" y2="47.68" xlink:href="#_ÂÁ_Ï_ÌÌ_È_ËÂÌÚ_192"/><linearGradient id="_ÂÁ_Ï_ÌÌ_È_ËÂÌÚ_192-12" x1="339.78" y1="199.96" x2="339.78" y2="47.68" xlink:href="#_ÂÁ_Ï_ÌÌ_È_ËÂÌÚ_192"/><linearGradient id="_ÂÁ_Ï_ÌÌ_È_ËÂÌÚ_192-13" x1="276.41" y1="199.96" x2="276.41" y2="47.68" xlink:href="#_ÂÁ_Ï_ÌÌ_È_ËÂÌÚ_192"/><linearGradient id="_ÂÁ_Ï_ÌÌ_È_ËÂÌÚ_192-14" x1="238.74" y1="199.96" x2="238.74" y2="47.68" xlink:href="#_ÂÁ_Ï_ÌÌ_È_ËÂÌÚ_192"/><linearGradient id="_ÂÁ_Ï_ÌÌ_È_ËÂÌÚ_31" x1="166.24" y1="66.64" x2="575.76" y2="66.64" gradientUnits="userSpaceOnUse"><stop offset="0" stop-color="#474c90"/><stop offset="1" stop-color="#000"/></linearGradient><linearGradient id="_ÂÁ_Ï_ÌÌ_È_ËÂÌÚ_31-2" x1="26.13" y1="71.76" x2="453.56" y2="71.76" xlink:href="#_ÂÁ_Ï_ÌÌ_È_ËÂÌÚ_31"/><linearGradient id="_ÂÁ_Ï_ÌÌ_È_ËÂÌÚ_31-3" x1="127.26" y1="81.94" x2="449.74" y2="81.94" xlink:href="#_ÂÁ_Ï_ÌÌ_È_ËÂÌÚ_31"/><linearGradient id="_ÂÁ_Ï_ÌÌ_È_ËÂÌÚ_31-4" x1="277.64" y1="71.31" x2="511.12" y2="71.31" xlink:href="#_ÂÁ_Ï_ÌÌ_È_ËÂÌÚ_31"/><linearGradient id="_ÂÁ_Ï_ÌÌ_È_ËÂÌÚ_31-5" x1="204.06" y1="65.17" x2="424.95" y2="65.17" xlink:href="#_ÂÁ_Ï_ÌÌ_È_ËÂÌÚ_31"/></defs><g style="isolation:isolate;"><g id="Layer_2"><g id="lake"><rect x="27.43" y="37.87" width="816.74" height="291.03" style="fill:url(#_ÂÁ_Ï_ÌÌ_È_ËÂÌÚ_6); stroke-width:0px;"/><g style="opacity:.5;"><circle cx="201.36" cy="128.47" r=".37" style="fill:#50ffff; stroke-width:0px;"/><circle cx="191.97" cy="100.42" r=".37" style="fill:#50ffff; stroke-width:0px;"/><path d="M559.66,83.94c0,.2-.16.37-.37.37s-.37-.16-.37-.37.16-.37.37-.37.37.16.37.37Z" style="fill:#50ffff; stroke-width:0px;"/><path d="M492.21,153.26c0,.2-.16.37-.36.37s-.37-.16-.37-.37.16-.37.37-.37.36.16.36.37Z" style="fill:#50ffff; stroke-width:0px;"/><path d="M490.57,94.79c0,.2-.16.37-.37.37s-.37-.16-.37-.37.16-.37.37-.37.37.16.37.37Z" style="fill:#5095ff; stroke-width:0px;"/><path d="M519.18,68.02c0,.2-.16.37-.37.37s-.37-.16-.37-.37.16-.37.37-.37.37.16.37.37Z" style="fill:#50ffff; stroke-width:0px;"/><path d="M363.23,53.48c0,.2-.16.37-.36.37s-.37-.16-.37-.37.16-.37.37-.37.36.16.36.37Z" style="fill:#50ffff; stroke-width:0px;"/><circle cx="614.4" cy="53.97" r=".37" style="fill:#50ffff; stroke-width:0px;"/><path d="M210.54,133.78c0,.2-.16.36-.37.36s-.37-.16-.37-.36.16-.37.37-.37.37.16.37.37Z" style="fill:#50ffff; stroke-width:0px;"/><path d="M157.89,150.39c0,.2-.16.37-.37.37s-.36-.16-.36-.37.16-.36.36-.36.37.16.37.36Z" style="fill:#50ffff; stroke-width:0px;"/><circle cx="188.09" cy="103.65" r=".37" style="fill:#50ffff; stroke-width:0px;"/><circle cx="137.29" cy="116.91" r=".37" style="fill:#50ffff; stroke-width:0px;"/><circle cx="110.01" cy="160.79" r=".37" style="fill:#50ffff; stroke-width:0px;"/><path d="M222.92,107.95c0,.2-.16.37-.37.37s-.36-.16-.36-.37.16-.37.36-.37.37.16.37.37Z" style="fill:#50ffff; stroke-width:0px;"/><path d="M330.73,67.4c0,.2-.16.37-.37.37s-.36-.16-.36-.37.16-.37.36-.37.37.16.37.37Z" style="fill:#50ffff; stroke-width:0px;"/><path d="M637.6,68.38c0,.2-.16.37-.36.37s-.37-.16-.37-.37.16-.37.37-.37.36.16.36.37Z" style="fill:#50ffff; stroke-width:0px;"/><path d="M665.67,177.71c0,.2-.16.37-.37.37s-.36-.16-.36-.37.16-.37.36-.37.37.16.37.37Z" style="fill:#50ffff; stroke-width:0px;"/><path d="M641.96,213.07c0,.2-.16.37-.37.37s-.36-.16-.36-.37.16-.37.36-.37.37.16.37.37Z" style="fill:#50ffff; stroke-width:0px;"/><path d="M664.35,167.15c0,.2-.16.37-.37.37s-.37-.16-.37-.37.16-.37.37-.37.37.16.37.37Z" style="fill:#50ffff; stroke-width:0px;"/><circle cx="288.44" cy="108.98" r=".37" style="fill:#50ffff; stroke-width:0px;"/><path d="M282.05,115.27c0,.2-.16.37-.37.37s-.37-.16-.37-.37.16-.37.37-.37.37.16.37.37Z" style="fill:#50ffff; stroke-width:0px;"/><circle cx="685.78" cy="68.75" r=".37" style="fill:#50ffff; stroke-width:0px;"/><path d="M666.04,106.36c0,.2-.16.37-.37.37s-.37-.16-.37-.37.16-.37.37-.37.37.16.37.37Z" style="fill:#50ffff; stroke-width:0px;"/><path d="M672.53,213.07c0,.2-.16.37-.37.37s-.36-.16-.36-.37.16-.37.36-.37.37.16.37.37Z" style="fill:#50ffff; stroke-width:0px;"/><path d="M69.34,212.89c0,.2-.16.37-.37.37s-.37-.16-.37-.37.16-.36.37-.36.37.16.37.36Z" style="fill:#50ffff; stroke-width:0px;"/><path d="M652.44,46.62c0,.2-.16.37-.37.37s-.36-.16-.36-.37.16-.37.36-.37.37.16.37.37Z" style="fill:#50ffff; stroke-width:0px;"/><path d="M628.65,131.69c0,.2-.16.37-.37.37s-.37-.16-.37-.37.16-.36.37-.36.37.16.37.36Z" style="fill:#50ffff; stroke-width:0px;"/><path d="M625.85,149.76c0,.2-.16.36-.37.36s-.37-.16-.37-.36.16-.37.37-.37.37.16.37.37Z" style="fill:#50ffff; stroke-width:0px;"/><path d="M112.77,105.3c0,.2-.16.36-.37.36s-.36-.16-.36-.36.16-.37.36-.37.37.16.37.37Z" style="fill:#50ffff; stroke-width:0px;"/><path d="M82.58,74.82c0,.2-.16.37-.37.37s-.37-.16-.37-.37.16-.37.37-.37.37.16.37.37Z" style="fill:#50ffff; stroke-width:0px;"/><circle cx="101.46" cy="70.07" r=".37" style="fill:#50ffff; stroke-width:0px;"/><path d="M371.46,82.21c0,.2-.16.37-.36.37s-.37-.16-.37-.37.16-.37.37-.37.36.16.36.37Z" style="fill:#5095ff; stroke-width:0px;"/><path d="M471.67,56.09c0,.2-.16.37-.37.37s-.37-.16-.37-.37.16-.36.37-.36.37.16.37.36Z" style="fill:#5095ff; stroke-width:0px;"/><circle cx="74.42" cy="111" r=".37" style="fill:#5095ff; stroke-width:0px;"/><path d="M212.94,82.21c0,.2-.16.37-.36.37s-.37-.16-.37-.37.16-.37.37-.37.36.16.36.37Z" style="fill:#50ffff; stroke-width:0px;"/><circle cx="174" cy="63.61" r=".37" style="fill:#50ffff; stroke-width:0px;"/><path d="M342.54,80.2c0,.2-.16.37-.37.37s-.37-.16-.37-.37.16-.37.37-.37.37.16.37.37Z" style="fill:#50ffff; stroke-width:0px;"/><circle cx="326.23" cy="67.4" r=".37" style="fill:#50ffff; stroke-width:0px;"/><path d="M315.66,142.36c0,.2-.16.37-.36.37s-.37-.16-.37-.37.16-.37.37-.37.36.16.36.37Z" style="fill:#50ffff; stroke-width:0px;"/><path d="M342.9,116.91c0,.2-.16.37-.37.37s-.37-.16-.37-.37.16-.37.37-.37.37.16.37.37Z" style="fill:#50ffff; stroke-width:0px;"/><circle cx="384.86" cy="128.05" r=".37" style="fill:#50ffff; stroke-width:0px;"/><path d="M554.97,106.86c0,.2-.16.37-.37.37s-.37-.16-.37-.37.16-.37.37-.37.37.16.37.37Z" style="fill:#50ffff; stroke-width:0px;"/><circle cx="667.21" cy="131.88" r=".37" style="fill:#50ffff; stroke-width:0px;"/><path d="M498.39,100.06c0,.2-.16.37-.37.37s-.37-.16-.37-.37.16-.37.37-.37.37.16.37.37Z" style="fill:#50ffff; stroke-width:0px;"/><path d="M567.85,82.21c0,.2-.16.37-.36.37s-.37-.16-.37-.37.16-.37.37-.37.36.16.36.37Z" style="fill:#50ffff; stroke-width:0px;"/><circle cx="600.47" cy="144.37" r=".37" style="fill:#50ffff; stroke-width:0px;"/></g><path d="M525.44,186.53c0,.27.22.49.49.49s.49-.22.49-.49-.22-.49-.49-.49-.49.22-.49.49Z" style="fill:#50ffff; stroke-width:0px;"/><path d="M538.03,148.93c0,.27.22.49.49.49s.49-.22.49-.49-.22-.49-.49-.49-.49.22-.49.49Z" style="fill:#50ffff; stroke-width:0px;"/><path d="M213.92,119.86c0,.27.22.49.49.49s.49-.22.49-.49-.22-.49-.49-.49-.49.22-.49.49Z" style="fill:#50ffff; stroke-width:0px;"/><path d="M304.31,212.75c0,.27.22.49.49.49s.49-.22.49-.49-.22-.49-.49-.49-.49.22-.49.49Z" style="fill:#50ffff; stroke-width:0px;"/><circle cx="306.99" cy="134.4" r=".49" style="fill:#5095ff; stroke-width:0px;"/><path d="M268.17,98.52c0,.27.22.49.49.49s.49-.22.49-.49-.22-.49-.49-.49-.49.22-.49.49Z" style="fill:#50ffff; stroke-width:0px;"/><path d="M309.02,86.04c0,.27.22.49.49.49s.49-.22.49-.49-.22-.49-.49-.49-.49.22-.49.49Z" style="fill:#50ffff; stroke-width:0px;"/><path d="M140.09,79.7c0,.27.22.49.49.49s.49-.22.49-.49-.22-.49-.49-.49-.49.22-.49.49Z" style="fill:#50ffff; stroke-width:0px;"/><path d="M513.63,193.64c0,.27.22.49.49.49s.49-.22.49-.49-.22-.49-.49-.49-.49.22-.49.49Z" style="fill:#50ffff; stroke-width:0px;"/><path d="M584.18,215.89c0,.27.22.49.49.49s.49-.22.49-.49-.22-.49-.49-.49-.49.22-.49.49Z" style="fill:#50ffff; stroke-width:0px;"/><path d="M543.22,153.26c0,.27.22.49.49.49s.49-.22.49-.49-.22-.49-.49-.49-.49.22-.49.49Z" style="fill:#50ffff; stroke-width:0px;"/><path d="M611.29,171.04c0,.27.22.49.49.49s.49-.22.49-.49-.22-.49-.49-.49-.49.22-.49.49Z" style="fill:#50ffff; stroke-width:0px;"/><path d="M647.86,229.83c0,.27.22.49.49.49s.49-.22.49-.49-.22-.49-.49-.49-.49.22-.49.49Z" style="fill:#50ffff; stroke-width:0px;"/><path d="M497.04,159.03c0,.27.22.49.49.49s.49-.22.49-.49-.22-.49-.49-.49-.49.22-.49.49Z" style="fill:#50ffff; stroke-width:0px;"/><path d="M352.57,104.69c0,.27.22.49.49.49s.49-.22.49-.49-.22-.49-.49-.49-.49.22-.49.49Z" style="fill:#50ffff; stroke-width:0px;"/><path d="M109.49,99.01c0,.27.22.49.49.49s.49-.22.49-.49-.22-.49-.49-.49-.49.22-.49.49Z" style="fill:#50ffff; stroke-width:0px;"/><path d="M71.88,245.5c0,.27.22.49.49.49s.49-.22.49-.49-.22-.49-.49-.49-.49.22-.49.49Z" style="fill:#50ffff; stroke-width:0px;"/><path d="M103.65,292.89c0,.27.22.49.49.49s.49-.22.49-.49-.22-.49-.49-.49-.49.22-.49.49Z" style="fill:#50ffff; stroke-width:0px;"/><path d="M73.64,231.36c0,.27.22.49.49.49s.49-.22.49-.49-.22-.49-.49-.49-.49.22-.49.49Z" style="fill:#50ffff; stroke-width:0px;"/><path d="M408.75,160.41c0,.27.22.49.49.49s.49-.22.49-.49-.22-.49-.49-.49-.49.22-.49.49Z" style="fill:#50ffff; stroke-width:0px;"/><circle cx="418.3" cy="168.84" r=".49" style="fill:#50ffff; stroke-width:0px;"/><path d="M44.44,99.5c0,.27.22.49.49.49s.49-.22.49-.49-.22-.49-.49-.49-.49.22-.49.49Z" style="fill:#50ffff; stroke-width:0px;"/><path d="M71.39,149.9c0,.27.22.49.49.49s.49-.22.49-.49-.22-.49-.49-.49-.49.22-.49.49Z" style="fill:#50ffff; stroke-width:0px;"/><path d="M62.68,292.89c0,.27.22.49.49.49s.49-.22.49-.49-.22-.49-.49-.49-.49.22-.49.49Z" style="fill:#50ffff; stroke-width:0px;"/><path d="M702.84,299.65c0,.27.22.49.49.49s.49-.22.49-.49-.22-.49-.49-.49-.49.22-.49.49Z" style="fill:#50ffff; stroke-width:0px;"/><path d="M89.6,69.84c0,.27.22.49.49.49s.49-.22.49-.49-.22-.49-.49-.49-.49.22-.49.49Z" style="fill:#50ffff; stroke-width:0px;"/><path d="M121.48,183.85c0,.27.22.49.49.49s.49-.22.49-.49-.22-.49-.49-.49-.49.22-.49.49Z" style="fill:#50ffff; stroke-width:0px;"/><path d="M125.24,208.06c0,.27.22.49.49.49s.49-.22.49-.49-.22-.49-.49-.49-.49.22-.49.49Z" style="fill:#50ffff; stroke-width:0px;"/><path d="M644.64,155.48c0,.27.22.49.49.49s.49-.22.49-.49-.22-.49-.49-.49-.49.22-.49.49Z" style="fill:#50ffff; stroke-width:0px;"/><path d="M685.1,114.63c0,.27.22.49.49.49s.49-.22.49-.49-.22-.49-.49-.49-.49.22-.49.49Z" style="fill:#50ffff; stroke-width:0px;"/><path d="M659.31,108.27c0,.27.22.49.49.49s.49-.22.49-.49-.22-.49-.49-.49-.49.22-.49.49Z" style="fill:#50ffff; stroke-width:0px;"/><path d="M298,124.54c0,.27.22.49.49.49s.49-.22.49-.49-.22-.49-.49-.49-.49.22-.49.49Z" style="fill:#5095ff; stroke-width:0px;"/><path d="M331.84,82.54c0,.27.22.49.49.49s.49-.22.49-.49-.22-.49-.49-.49-.49.22-.49.49Z" style="fill:#5095ff; stroke-width:0px;"/><path d="M695.54,163.11c0,.27.22.49.49.49s.49-.22.49-.49-.22-.49-.49-.49-.49.22-.49.49Z" style="fill:#5095ff; stroke-width:0px;"/><path d="M510.42,124.54c0,.27.22.49.49.49s.49-.22.49-.49-.22-.49-.49-.49-.49.22-.49.49Z" style="fill:#50ffff; stroke-width:0px;"/><path d="M562.1,99.62c0,.27.22.49.49.49s.49-.22.49-.49-.22-.49-.49-.49-.49.22-.49.49Z" style="fill:#50ffff; stroke-width:0px;"/><path d="M336.75,121.84c0,.27.22.49.49.49s.49-.22.49-.49-.22-.49-.49-.49-.49.22-.49.49Z" style="fill:#50ffff; stroke-width:0px;"/><path d="M358.12,104.69c0,.27.22.49.49.49s.49-.22.49-.49-.22-.49-.49-.49-.49.22-.49.49Z" style="fill:#50ffff; stroke-width:0px;"/><path d="M372.77,205.14c0,.27.22.49.49.49s.49-.22.49-.49-.22-.49-.49-.49-.49.22-.49.49Z" style="fill:#50ffff; stroke-width:0px;"/><path d="M336.26,171.04c0,.27.22.49.49.49s.49-.22.49-.49-.22-.49-.49-.49-.49.22-.49.49Z" style="fill:#50ffff; stroke-width:0px;"/><path d="M279.55,185.96c0,.27.22.49.49.49s.49-.22.49-.49-.22-.49-.49-.49-.49.22-.49.49Z" style="fill:#50ffff; stroke-width:0px;"/><path d="M220.21,150.56c0,.27.22.49.49.49s.49-.22.49-.49-.22-.49-.49-.49-.49.22-.49.49Z" style="fill:#50ffff; stroke-width:0px;"/><circle cx="69.82" cy="184.1" r=".49" style="fill:#50ffff; stroke-width:0px;"/><path d="M296.03,141.45c0,.27.22.49.49.49s.49-.22.49-.49-.22-.49-.49-.49-.49.22-.49.49Z" style="fill:#50ffff; stroke-width:0px;"/><path d="M202.95,117.54c0,.27.22.49.49.49s.49-.22.49-.49-.22-.49-.49-.49-.49.22-.49.49Z" style="fill:#50ffff; stroke-width:0px;"/><path d="M169.48,75.41c0,.27.22.49.49.49s.49-.22.49-.49-.22-.49-.49-.49-.49.22-.49.49Z" style="fill:#50ffff; stroke-width:0px;"/><path d="M223.72,54.08c0,.27.22.49.49.49s.49-.22.49-.49-.22-.49-.49-.49-.49.22-.49.49Z" style="fill:#50ffff; stroke-width:0px;"/><path d="M264.58,41.6c0,.27.22.49.49.49s.49-.22.49-.49-.22-.49-.49-.49-.49.22-.49.49Z" style="fill:#50ffff; stroke-width:0px;"/><path d="M95.64,35.26c0,.27.22.49.49.49s.49-.22.49-.49-.22-.49-.49-.49-.49.22-.49.49Z" style="fill:#50ffff; stroke-width:0px;"/><path d="M308.13,60.25c0,.27.22.49.49.49s.49-.22.49-.49-.22-.49-.49-.49-.49.22-.49.49Z" style="fill:#50ffff; stroke-width:0px;"/><path d="M65.05,54.57c0,.27.22.49.49.49s.49-.22.49-.49-.22-.49-.49-.49-.49.22-.49.49Z" style="fill:#50ffff; stroke-width:0px;"/><path d="M0,55.06c0,.27.22.49.49.49s.49-.22.49-.49-.22-.49-.49-.49-.49.22-.49.49Z" style="fill:#50ffff; stroke-width:0px;"/><path d="M45.16,25.4c0,.27.22.49.49.49s.49-.22.49-.49-.22-.49-.49-.49-.49.22-.49.49Z" style="fill:#50ffff; stroke-width:0px;"/><path d="M253.56,80.1c0,.27.22.49.49.49s.49-.22.49-.49-.22-.49-.49-.49-.49.22-.49.49Z" style="fill:#5095ff; stroke-width:0px;"/><path d="M287.39,38.1c0,.27.22.49.49.49s.49-.22.49-.49-.22-.49-.49-.49-.49.22-.49.49Z" style="fill:#5095ff; stroke-width:0px;"/><path d="M292.31,77.4c0,.27.22.49.49.49s.49-.22.49-.49-.22-.49-.49-.49-.49.22-.49.49Z" style="fill:#50ffff; stroke-width:0px;"/><path d="M368.08,241.54c0,.27.22.49.49.49s.49-.22.49-.49-.22-.49-.49-.49-.49.22-.49.49Z" style="fill:#50ffff; stroke-width:0px;"/><path d="M313.67,60.25c0,.27.22.49.49.49s.49-.22.49-.49-.22-.49-.49-.49-.49.22-.49.49Z" style="fill:#50ffff; stroke-width:0px;"/><path d="M488.38,251.79c0,.27.22.49.49.49s.49-.22.49-.49-.22-.49-.49-.49-.49.22-.49.49Z" style="fill:#50ffff; stroke-width:0px;"/><path d="M158.51,73.1c0,.27.22.49.49.49s.49-.22.49-.49-.22-.49-.49-.49-.49.22-.49.49Z" style="fill:#50ffff; stroke-width:0px;"/><path d="M644.27,180.76c0,.27.22.49.49.49s.49-.22.49-.49-.22-.49-.49-.49-.49.22-.49.49Z" style="fill:#50ffff; stroke-width:0px;"/><path d="M734.66,273.65c0,.27.22.49.49.49s.49-.22.49-.49-.22-.49-.49-.49-.49.22-.49.49Z" style="fill:#50ffff; stroke-width:0px;"/><path d="M736.86,195.3c0,.27.22.49.49.49s.49-.22.49-.49-.22-.49-.49-.49-.49.22-.49.49Z" style="fill:#5095ff; stroke-width:0px;"/><path d="M698.52,159.42c0,.27.22.49.49.49s.49-.22.49-.49-.22-.49-.49-.49-.49.22-.49.49Z" style="fill:#50ffff; stroke-width:0px;"/><path d="M739.37,146.95c0,.27.22.49.49.49s.49-.22.49-.49-.22-.49-.49-.49-.49.22-.49.49Z" style="fill:#50ffff; stroke-width:0px;"/><path d="M782.92,165.6c0,.27.22.49.49.49s.49-.22.49-.49-.22-.49-.49-.49-.49.22-.49.49Z" style="fill:#50ffff; stroke-width:0px;"/><path d="M839.1,221.32c0,.27.22.49.49.49s.49-.22.49-.49-.22-.49-.49-.49-.49.22-.49.49Z" style="fill:#50ffff; stroke-width:0px;"/><path d="M728.35,185.44c0,.27.22.49.49.49s.49-.22.49-.49-.22-.49-.49-.49-.49.22-.49.49Z" style="fill:#5095ff; stroke-width:0px;"/><path d="M762.19,143.44c0,.27.22.49.49.49s.49-.22.49-.49-.22-.49-.49-.49-.49.22-.49.49Z" style="fill:#5095ff; stroke-width:0px;"/><path d="M767.1,182.74c0,.27.22.49.49.49s.49-.22.49-.49-.22-.49-.49-.49-.49.22-.49.49Z" style="fill:#50ffff; stroke-width:0px;"/><path d="M788.47,165.6c0,.27.22.49.49.49s.49-.22.49-.49-.22-.49-.49-.49-.49.22-.49.49Z" style="fill:#50ffff; stroke-width:0px;"/><path d="M803.12,266.04c0,.27.22.49.49.49s.49-.22.49-.49-.22-.49-.49-.49-.49.22-.49.49Z" style="fill:#50ffff; stroke-width:0px;"/><path d="M766.61,231.94c0,.27.22.49.49.49s.49-.22.49-.49-.22-.49-.49-.49-.49.22-.49.49Z" style="fill:#50ffff; stroke-width:0px;"/><path d="M709.9,246.86c0,.27.22.49.49.49s.49-.22.49-.49-.22-.49-.49-.49-.49.22-.49.49Z" style="fill:#50ffff; stroke-width:0px;"/><path d="M650.56,211.46c0,.27.22.49.49.49s.49-.22.49-.49-.22-.49-.49-.49-.49.22-.49.49Z" style="fill:#50ffff; stroke-width:0px;"/><path d="M726.38,202.36c0,.27.22.49.49.49s.49-.22.49-.49-.22-.49-.49-.49-.49.22-.49.49Z" style="fill:#50ffff; stroke-width:0px;"/><path d="M633.3,178.44c0,.27.22.49.49.49s.49-.22.49-.49-.22-.49-.49-.49-.49.22-.49.49Z" style="fill:#50ffff; stroke-width:0px;"/><path d="M480.05,81.84c0,.27.22.49.49.49s.49-.22.49-.49-.22-.49-.49-.49-.49.22-.49.49Z" style="fill:#50ffff; stroke-width:0px;"/><path d="M516.62,140.63c0,.27.22.49.49.49s.49-.22.49-.49-.22-.49-.49-.49-.49.22-.49.49Z" style="fill:#50ffff; stroke-width:0px;"/><path d="M571.6,210.45c0,.27.22.49.49.49s.49-.22.49-.49-.22-.49-.49-.49-.49.22-.49.49Z" style="fill:#50ffff; stroke-width:0px;"/><path d="M513.4,66.28c0,.27.22.49.49.49s.49-.22.49-.49-.22-.49-.49-.49-.49.22-.49.49Z" style="fill:#50ffff; stroke-width:0px;"/><path d="M553.86,25.43c0,.27.22.49.49.49s.49-.22.49-.49-.22-.49-.49-.49-.49.22-.49.49Z" style="fill:#50ffff; stroke-width:0px;"/><path d="M564.3,73.91c0,.27.22.49.49.49s.49-.22.49-.49-.22-.49-.49-.49-.49.22-.49.49Z" style="fill:#5095ff; stroke-width:0px;"/><path d="M513.03,91.56c0,.27.22.49.49.49s.49-.22.49-.49-.22-.49-.49-.49-.49.22-.49.49Z" style="fill:#50ffff; stroke-width:0px;"/><circle cx="603.91" cy="184.45" r=".49" style="fill:#50ffff; stroke-width:0px;"/><circle cx="606.11" cy="106.1" r=".49" style="fill:#5095ff; stroke-width:0px;"/><path d="M567.28,70.22c0,.27.22.49.49.49s.49-.22.49-.49-.22-.49-.49-.49-.49.22-.49.49Z" style="fill:#50ffff; stroke-width:0px;"/><path d="M608.13,57.74c0,.27.22.49.49.49s.49-.22.49-.49-.22-.49-.49-.49-.49.22-.49.49Z" style="fill:#50ffff; stroke-width:0px;"/><path d="M651.68,76.39c0,.27.22.49.49.49s.49-.22.49-.49-.22-.49-.49-.49-.49.22-.49.49Z" style="fill:#50ffff; stroke-width:0px;"/><path d="M597.11,96.24c0,.27.22.49.49.49s.49-.22.49-.49-.22-.49-.49-.49-.49.22-.49.49Z" style="fill:#5095ff; stroke-width:0px;"/><path d="M630.95,54.24c0,.27.22.49.49.49s.49-.22.49-.49-.22-.49-.49-.49-.49.22-.49.49Z" style="fill:#5095ff; stroke-width:0px;"/><path d="M635.86,93.54c0,.27.22.49.49.49s.49-.22.49-.49-.22-.49-.49-.49-.49.22-.49.49Z" style="fill:#50ffff; stroke-width:0px;"/><path d="M657.23,76.39c0,.27.22.49.49.49s.49-.22.49-.49-.22-.49-.49-.49-.49.22-.49.49Z" style="fill:#50ffff; stroke-width:0px;"/><path d="M635.37,142.74c0,.27.22.49.49.49s.49-.22.49-.49-.22-.49-.49-.49-.49.22-.49.49Z" style="fill:#50ffff; stroke-width:0px;"/><path d="M578.66,157.66c0,.27.22.49.49.49s.49-.22.49-.49-.22-.49-.49-.49-.49.22-.49.49Z" style="fill:#50ffff; stroke-width:0px;"/><path d="M519.32,122.26c0,.27.22.49.49.49s.49-.22.49-.49-.22-.49-.49-.49-.49.22-.49.49Z" style="fill:#50ffff; stroke-width:0px;"/><path d="M595.14,113.15c0,.27.22.49.49.49s.49-.22.49-.49-.22-.49-.49-.49-.49.22-.49.49Z" style="fill:#50ffff; stroke-width:0px;"/><path d="M681.16,118.63c0,.27.22.49.49.49s.49-.22.49-.49-.22-.49-.49-.49-.49.22-.49.49Z" style="fill:#50ffff; stroke-width:0px;"/><path d="M714.51,103.07c0,.27.22.49.49.49s.49-.22.49-.49-.22-.49-.49-.49-.49.22-.49.49Z" style="fill:#50ffff; stroke-width:0px;"/><path d="M754.96,62.23c0,.27.22.49.49.49s.49-.22.49-.49-.22-.49-.49-.49-.49.22-.49.49Z" style="fill:#50ffff; stroke-width:0px;"/><path d="M729.18,55.86c0,.27.22.49.49.49s.49-.22.49-.49-.22-.49-.49-.49-.49.22-.49.49Z" style="fill:#50ffff; stroke-width:0px;"/><path d="M765.41,110.71c0,.27.22.49.49.49s.49-.22.49-.49-.22-.49-.49-.49-.49.22-.49.49Z" style="fill:#5095ff; stroke-width:0px;"/><path d="M714.14,128.35c0,.27.22.49.49.49s.49-.22.49-.49-.22-.49-.49-.49-.49.22-.49.49Z" style="fill:#50ffff; stroke-width:0px;"/><path d="M806.72,142.89c0,.27.22.49.49.49s.49-.22.49-.49-.22-.49-.49-.49-.49.22-.49.49Z" style="fill:#5095ff; stroke-width:0px;"/><path d="M768.38,107.02c0,.27.22.49.49.49s.49-.22.49-.49-.22-.49-.49-.49-.49.22-.49.49Z" style="fill:#50ffff; stroke-width:0px;"/><path d="M809.24,94.54c0,.27.22.49.49.49s.49-.22.49-.49-.22-.49-.49-.49-.49.22-.49.49Z" style="fill:#50ffff; stroke-width:0px;"/><path d="M852.79,113.19c0,.27.22.49.49.49s.49-.22.49-.49-.22-.49-.49-.49-.49.22-.49.49Z" style="fill:#50ffff; stroke-width:0px;"/><path d="M798.22,133.04c0,.27.22.49.49.49s.49-.22.49-.49-.22-.49-.49-.49-.49.22-.49.49Z" style="fill:#5095ff; stroke-width:0px;"/><path d="M832.05,91.04c0,.27.22.49.49.49s.49-.22.49-.49-.22-.49-.49-.49-.49.22-.49.49Z" style="fill:#5095ff; stroke-width:0px;"/><path d="M836.97,130.33c0,.27.22.49.49.49s.49-.22.49-.49-.22-.49-.49-.49-.49.22-.49.49Z" style="fill:#50ffff; stroke-width:0px;"/><path d="M858.33,113.19c0,.27.22.49.49.49s.49-.22.49-.49-.22-.49-.49-.49-.49.22-.49.49Z" style="fill:#50ffff; stroke-width:0px;"/><path d="M720.43,159.06c0,.27.22.49.49.49s.49-.22.49-.49-.22-.49-.49-.49-.49.22-.49.49Z" style="fill:#50ffff; stroke-width:0px;"/><path d="M796.24,149.95c0,.27.22.49.49.49s.49-.22.49-.49-.22-.49-.49-.49-.49.22-.49.49Z" style="fill:#50ffff; stroke-width:0px;"/><path d="M703.17,126.04c0,.27.22.49.49.49s.49-.22.49-.49-.22-.49-.49-.49-.49.22-.49.49Z" style="fill:#50ffff; stroke-width:0px;"/><path d="M673.28,132.04c0,.27.22.49.49.49s.49-.22.49-.49-.22-.49-.49-.49-.49.22-.49.49Z" style="fill:#50ffff; stroke-width:0px;"/><path d="M675.48,53.69c0,.27.22.49.49.49s.49-.22.49-.49-.22-.49-.49-.49-.49.22-.49.49Z" style="fill:#5095ff; stroke-width:0px;"/><circle cx="678.49" cy="5.34" r=".49" style="fill:#50ffff; stroke-width:0px;"/><path d="M721.55,23.99c0,.27.22.49.49.49s.49-.22.49-.49-.22-.49-.49-.49-.49.22-.49.49Z" style="fill:#50ffff; stroke-width:0px;"/><path d="M666.98,43.83c0,.27.22.49.49.49s.49-.22.49-.49-.22-.49-.49-.49-.49.22-.49.49Z" style="fill:#5095ff; stroke-width:0px;"/><path d="M700.81,1.84c0,.27.22.49.49.49s.49-.22.49-.49-.22-.49-.49-.49-.49.22-.49.49Z" style="fill:#5095ff; stroke-width:0px;"/><path d="M705.73,41.13c0,.27.22.49.49.49s.49-.22.49-.49-.22-.49-.49-.49-.49.22-.49.49Z" style="fill:#50ffff; stroke-width:0px;"/><circle cx="727.58" cy="23.99" r=".49" style="fill:#50ffff; stroke-width:0px;"/><path d="M705.24,90.33c0,.27.22.49.49.49s.49-.22.49-.49-.22-.49-.49-.49-.49.22-.49.49Z" style="fill:#50ffff; stroke-width:0px;"/><circle cx="665.49" cy="60.75" r=".49" style="fill:#50ffff; stroke-width:0px;"/><path d="M502.06,89.24c0,.27.22.49.49.49s.49-.22.49-.49-.22-.49-.49-.49-.49.22-.49.49Z" style="fill:#50ffff; stroke-width:0px;"/><path d="M158.76,200.83c0,.27.22.49.49.49s.49-.22.49-.49-.22-.49-.49-.49-.49.22-.49.49Z" style="fill:#50ffff; stroke-width:0px;"/><ellipse cx="318.92" cy="111.36" rx="55.98" ry="56.46" transform="translate(14.66 258.11) rotate(-45)" style="fill:url(#_ÂÁ_Ï_ÌÌ_È_ËÂÌÚ_550); mix-blend-mode:screen; stroke-width:0px;"/><ellipse cx="319.58" cy="108.99" rx="47.76" ry="48.17" transform="translate(16.54 257.92) rotate(-45)" style="fill:url(#_ÂÁ_Ï_ÌÌ_È_ËÂÌÚ_558); mix-blend-mode:screen; stroke-width:0px;"/><path d="M277.61,109.17c0,23.02,18.66,41.67,41.67,41.67,19.56,0,35.98-13.48,40.46-31.65.79-3.21,1.21-6.57,1.21-10.02,0-1.53-.08-3.04-.24-4.52-2.25-20.89-19.94-37.16-41.43-37.16-23.02,0-41.67,18.66-41.67,41.68Z" style="fill:#fff; fill-rule:evenodd; stroke-width:0px;"/><g style="opacity:.2;"><path d="M329.81,137.34c-.52,1.12-.87,2.1-1.77,3.03-.97,1.01-1.72,1.2-2.98,1.56-.73.21-.88.47-1.82.45-.61,0-1.46-.16-2.04-.02-1.32.3-2.03,1.47-3.51,1.55-1.41.08-2.31-.39-3.53-.76-1.15-.35-2.48-.85-3.55-1.25-1.16-.44-2.2-.75-3.41-1.14-1.29-.41-1.95-1.28-3.57-.82-.1.6.05,1.55-.69,1.85-.51.21-1.35-.33-1.89-.54-1.41-.54-2.69-.84-4.04-1.4-.65-.27-1.12-.25-1.78-.74-.63-.47-1.31-.82-1.97-1.26-1.22-.81-2.42-1.7-3.63-2.52-2.33-1.59-3.83-3.76-5.25-6.06-.75-1.21-1.17-2.54-1.64-3.92-.58-1.7-.38-2.18.76-3.57,2.04.85,2.85-.41,2.28-2.6-.5-1.91-.71-4.45-.28-6.45.08-.36.35-.61.41-1.11.06-.55-.05-.97.1-1.53.24-.92.4-1.54.39-2.52,0-.99-.14-2.07.11-3.03.16-.6.37-.86.4-1.51.03-.67-.08-1.26.1-1.91.49-1.68,2.03-2.16,3.42-2.64.95-.33,1.43-.65,2.03,0,.65.69.49,1.63.49,2.53.01,1.69-1.08,3.17-2.02,4.54-.42.61-1.15,1.2-1.05,2.04.06.46.63.53.59.99-.04.56-.65.73-.95,1.12-2.41,3.15,2.13,5.91,4.29,7.58,1.23.95,3.09,1.44,3.56,3.02.5,1.69-.66,3.1-1.27,4.54-.64,1.51-1.2,4.16-.26,5.58.4.6,1.18.96,1.78,1.25.89.43,1.22.96,2.01,1.53,1.27.93,2.85,1.23,4.43,1.13,1-.06,1.73-.47,2.52-1.02.61-.42,1.42-1.2,2.14-1.4.51-.15.89-.04,1.41-.1.71-.09.85-.38,1.47-.54,1.07-.28,1.84.48,2.68.91.71.36,1.56.88,2.43.65.84-.22,1.8-.76,2.61-.92,1.93-.4,5.04-.54,6.59.77.78.66,1.05,1.59,1.75,2.28.66.66,1.95.84,2.16,2.39Z" style="fill:#635eb0; fill-rule:evenodd; stroke-width:0px;"/><path d="M291.45,93.42c1.85.04,3.55-1.35,5.06-2.4,1.24-.86,2.54-2.21,3.14-3.53.18-.4.24-.73.38-1.13.03-.09.48-1.29.48-1.32-.02-.7-.59-1.54-1.11-2.08-1.5-1.55-3.81-.44-5.31.5-1.43.89-2.81,1.89-4.01,3.03-.58.55-1.38,1.06-1.79,1.75-.54.92-.39,2.05-.37,3.17.02,1.71-2.21,3.67.49,4.05,1.06.15,4.31-.75,4.56-2.03h-1.51Z" style="fill:#635eb0; fill-rule:evenodd; stroke-width:0px;"/><path d="M324.77,147.43c.46.51,1,.16,1.52,0,.5-.16.94-.25,1.51-.25,1.11,0,2.11,0,3.15-.25,1-.25,1.95-.39,2.9-.63.38-.09.74-.31,1.13-.39.24-.05.5.03.75-.01.11-.02.12-.16.2-.17.19-.04.38-.02.57-.05.95-.17,1.85-.45,2.71-.71.4-.12.77-.14,1.14-.36.39-.24.92-.5,1.27-.76,1.36-1.01,2.85-1.85,4.09-3.1,1.17-1.18,2.37-2.25,3.6-3.34.28-.25.51-.59.81-.82.33-.26.64-.38.95-.69.64-.65,1.13-1.35,1.64-2.09,1-1.44,2.28-2.62,3.06-4.19.38-.76.72-1.5,1.17-2.23.28-.46.56-1.03.76-1.53.15-.38.46-.83.57-1.19.16-.54.15-1.06.3-1.59.07-.23.22-.39.27-.61.07-.28-.08-.62-.02-.91.05-.26.22-.37.27-.61.07-.28-.08-.62-.02-.91.05-.26.22-.37.27-.61.08-.32-.1-.71-.03-1.04.06-.24.22-.35.27-.61.06-.26,0-.62,0-.89,0-.65.22-1.15.26-1.77.03-.57.12-1.36,0-1.9-.05-.25-.22-.37-.27-.61-.08-.33.08-.67-.03-1-.68-.18-.47,1.27-.46,1.62,0,.65-.27,1.01-.25,1.64.02.78-.31.89-.77,1.46-.2.25-.66.73-.76,1.05-.07.21-.06.56-.11.77-.07.26-.13.44-.13.76.01.62.04.93-.44,1.32-.33.27-.9.62-1.32.71-.57.13-1.08.12-1.66.23-.27.05-.36.22-.61.28-.32.08-.66-.12-.97.04-.29.15-.67.74-.75,1.02-.16.54-.05.99.2,1.46.09.17.15.34.25.5.12.19.35.37.45.56.48.87-.21,2.29-.4,3.03-.07.29-.51,1.16-.27,1.42.24.26,1.67.04,1.94-.12.16.32-.14.93-.24,1.27-.11.4-.3.97-.54,1.35-.46.75-1.28,1.45-2.06,1.86-.51.27-.83.41-.92-.28-.04-.31.05-.48-.11-.77-.11-.21-.32-.23-.4-.48-.09-.27.09-.62.02-.91-.05-.21-.2-.34-.24-.52-.14-.6.09-1.27,0-1.87-.2-1.21-1.11-1.76-2.16-2.02-1.07-.26-2.13-.56-3.14-1.01-1.14-.5-2.36-.69-3.55-.31-.97.3-1.73.89-2.62,1.35-.41.22-.78.31-1.17.47-.46.18-.94.35-1.4.49-.83.24-1.79.38-2.56.84-.72.43-1.7,1-2.21,1.7-.49.67-.96,2.05-.61,2.89.27.64,1.23,1.19,1.68,1.72.78.91.57,1.51,0,2.45-.21.34-.57.79-.67,1.16-.13.49-.05,1.24-.02,1.75.03.49.17.8.44,1.2.25.38.83.61,1.03.99.18.34.01.52-.13.78-.04.07-.17.1-.21.17-.1.18-.03.35-.11.52-.25.58-.75.49-1.27.62-.54.14-1,.08-1.52-.12-.31-.12-.41-.21-.74-.26-.37-.06-.55.14-.82.2-.62.13-.98-.3-1.6-.33-.49-.03-.8.19-1.19.58-.32.32-.77.85-.71,1.33.06.49.68.8,1.03,1.25Z" style="fill:#635eb0; fill-rule:evenodd; stroke-width:0px;"/><path d="M329.56,128.5c-.16-.09-.29-.15-.44-.22-.4.46-.84.92-1.33,1.22-.74.46-1.1.17-1.27-.62-.09-.41.13-.66.21-.95.08-.34,0-.69.36-.9.49-.29,1.93-.14,1.72.71l.76.76Z" style="fill:#635eb0; fill-rule:evenodd; stroke-width:0px;"/><path d="M353.79,95.94c.11.19.27.27.47.23.11-.43.1-1.16.02-1.6-.04-.24-.2-.35-.24-.65-.03-.24,0-.46-.05-.71-.07-.31-.33-.81-.39-1.12-.1-.49-.12-.75-.32-1.2-.18-.41-.28-.94-.47-1.41-.17-.42-.37-.73-.6-1.12-.46-.77-.85-1.51-1.32-2.28-.84-1.36-1.78-2.72-3.05-3.78-.43-.36-.92-.64-1.38-.95-.16-.11-.28-.28-.43-.38-.15-.1-.39-.14-.52-.24-.39-.29-1.53-1.44-2.04-1.16.36.94.97,1.88,1.42,2.79.52,1.06,1.49,1.01,2.27,1.77,1.22,1.18-.81,1.67-1.51,2.13-.69.45-.7,1.1-.7,1.84,0,.69-.05,1.25-.25,1.89-.08.26-.22.6-.27.88,0,.17.02.35.03.52-.02.14-.09.24-.21.3-.16.72.14,1.15.39,1.77.24.61.39,1.19.88,1.65.5.46,1.04.31,1.7.32.43,0,.62-.1,1.01-.2.25-.06.62-.21.81-.25.3-.06.6-.05.9-.11.31-.07.33-.25.76-.14.44.11.85.61,1.31.71.63.14,1.36-.16,1.99.03.01.07.03.14-.21.46Z" style="fill:#635eb0; fill-rule:evenodd; stroke-width:0px;"/><path d="M306.57,128.17c.73-.02,1.69.83,2.12,1.46.59.86-.51,1.74-1.13,2.17-.23.16-.45.32-.71.43-.16.06-.5.3-.65.3-.45,0-.62-1.06-.78-1.41-.53-1.11.32-1.91,1.15-2.57v-.38Z" style="fill:#635eb0; fill-rule:evenodd; stroke-width:0px;"/><path d="M302.99,129.87c.05.04.1.08.16.12.24-.54-.14-1.11-.18-1.61-.36-.02-1.11.66-1.12,1.02,0,.62.91.65,1.33.66l-.19-.19Z" style="fill:#635eb0; fill-rule:evenodd; stroke-width:0px;"/><path d="M296.4,105.37c.21-.92,1.5.11,1.84.42.23.22.48.43.62.7.19.36.17.8.18,1.23.01.47.19.84.19,1.32,0,.5-.04.96-.18,1.42-.24.81-.84,1.41-1.51,1.87-.34.24-.76.41-1.13.61-.49.26-.5.38-1.01.12-.58-.3-1.21-.59-1.67-1.06-.54-.55-1.07-1.08-1.46-1.74-.5-.85.03-1.51.48-2.26.52-.88,1.3-1.62,2.02-2.4.19-.21.5-.64.74-.76.48-.25,1,.16.9.53Z" style="fill:#635eb0; fill-rule:evenodd; stroke-width:0px;"/><path d="M296.59,101.98c.05-.01.1-.02.15-.04.02-.24.54-1.03.19-1.26-.26-.17-.66.35-.81.53-.25.31-.48.86-.15,1.19.32.33.94.05.81-.43h-.19Z" style="fill:#635eb0; fill-rule:evenodd; stroke-width:0px;"/><path d="M304.88,143.25c.26-.31,1.04-.45,1.41-.36.48.11.85.28,1.32.36.94.16,2.12.64,2.93,1.13,1.18.73,3.24,2.77,1.24,3.8-.81.42-1.82.34-2.75.35-.48,0-.74-.2-1.23-.19-.52.01-.95-.17-1.41-.28-.84-.2-1.64-.46-2.45-.8-.72-.31-1.28-.83-1.84-1.37-.7-.68-.8-1.59-.09-2.31.42-.42.78-.33,1.37-.33.57,0,1.13,0,1.51,0Z" style="fill:#635eb0; fill-rule:evenodd; stroke-width:0px;"/><path d="M299.79,142.87c.08.15.2.2.35.17.21-.43-.85-1.1-1.15-1.25-.5-.25-1.47-.79-1.66.04-.12.54.47,1.26.94,1.52.53.3,1.57.01,1.7-.67l-.19.19Z" style="fill:#635eb0; fill-rule:evenodd; stroke-width:0px;"/><path d="M284.15,107.25c.05.01.1.02.16.03.22.75-.12,1.51-.16,2.23-.04.75,0,1.51,0,2.26s0,1.51,0,2.26c0,.31.02.61-.04.9-.03.13-.13.23-.15.41-.03.24,0,.52,0,.76,0,.36.03.74-.04,1.09,0,.04-.13.37-.15.42-.07.22,0,.23-.14.43-.35.52-1,.85-1.57.57-.46-.24-.82-.6-1.3-.81-.69-.29-1-.67-1.33-1.32-.27-.53-.38-1.12-.56-1.71-.05-.16-.17-.19-.2-.36-.04-.17,0-.36-.03-.53-.03-.13-.13-.23-.15-.41,0-.13.01-.26.01-.39-.01-.1-.06-.18-.16-.22-.07-.3-.02-.59-.04-.9-.02-.4-.17-.72-.19-1.13-.02-.41-.2-.71-.19-1.13,0-.38,0-.75,0-1.13,0-.75.01-1.51,0-2.26,0-.38.12-.59.19-.94.08-.38.1-.78.18-1.14.06-.25.29-.55.35-.79.09-.38.15-.57.37-.91.41-.62.65-.88,1.32-1.17.64-.28,1.5-.17,2.08.28.2.15.54.46.61.7.04.15,0,.37.03.53.04.2.15.33.15.61-.01.73-.17,1.76,0,2.46.08.34.31.76.43,1.12.15.46.14.83.52.19Z" style="fill:#635eb0; fill-rule:evenodd; stroke-width:0px;"/><path d="M285.09,97.64c.49-.16.76.96.75,1.32,0,.3.1.65-.18.86-.18.13-.74.16-.96.09-.6-.18-.55-1.03-.56-1.52,0-.54.45-1.26,1.13-1.13l-.19.38Z" style="fill:#635eb0; fill-rule:evenodd; stroke-width:0px;"/><path d="M349.73,96.89c.01-.05.02-.1.04-.15.19-.02.29-.17.45-.21.2-.05.43-.02.64-.02.46,0,.72-.15,1.13-.19.21-.02.46,0,.67,0,.25.01.34.11.51.15.41.09.74.06,1.09.32.56.42.98,1.09,1.32,1.68.42.74.75,1.49.75,2.37,0,.38,0,.7-.21,1.02-.23.33-.35.56-.5.92-.34.8-.65,1.08-1.55,1.08-.82,0-1.58-.47-2.26-.84-.32-.18-.58-.44-.87-.64-.25-.18-.54-.3-.74-.58-.48-.67-.56-1.53-.75-2.27-.1-.39-.18-.96-.08-1.4.02-.08.11-.09.13-.15.04-.15,0-.3.04-.43.06-.21.26-.41.19-.65Z" style="fill:#635eb0; fill-rule:evenodd; stroke-width:0px;"/><path d="M347.66,98.4c.48-.01-.17-1.35-.71-1.28-.46.06-.86.81-.97,1.2-.46,1.69,2.09,1.82,2.06.27l-.38-.19Z" style="fill:#635eb0; fill-rule:evenodd; stroke-width:0px;"/><path d="M341.44,101.41c.04.4.43.64.52.98.09.36-.07.66-.28.95-.17.23-.5.59-.81.53-.31-.06-.5-.49-.74-.68-.5-.37-1.37-.75-.76-1.5.25-.3.66-.42,1.04-.48.55-.08.81.07,1.22.38l-.19-.19Z" style="fill:#635eb0; fill-rule:evenodd; stroke-width:0px;"/><path d="M354.44,118.18c.7.17.64-.9.54-1.29-.3-.06-.62-.25-.91-.23-.31.02-.85.27-1.09.44-.54.38-.85,1.02-.52,1.65.2.4,1.13,1.01,1.57.71.4-.26.61-1.24.6-1.66l-.19.38Z" style="fill:#635eb0; fill-rule:evenodd; stroke-width:0px;"/><path d="M301.3,77.67c.18-.34.3-.49,0-.76-.24-.22-.59-.24-.9-.14-.44.13-.91.68-1.22,1.04-.16.19-.46.63-.48.85-.02.28.11.52.29.76.3.41.78.76,1.14,1.13.54.56.88.23,1.32-.28.35-.41.62-.88.95-1.31.08-.11.37-.64.38-.76.03-.23-.09-.51-.24-.71-.32-.43-.93-.96-1.42-1.13l.19,1.32Z" style="fill:#635eb0; fill-rule:evenodd; stroke-width:0px;"/><path d="M296.77,79.17c.05.01.1.02.16.03.16.49-.04.81-.52.92-.43.1-1.06-.08-1.15-.47-.09-.38.29-.75.57-.95.44-.33.85-.39.95.29v.19Z" style="fill:#635eb0; fill-rule:evenodd; stroke-width:0px;"/><path d="M299.6,127.42c-.06.19.17.71.23.9.08.27.22.63.34.89.13.29.22.61.28.94.06.35.23.62.29.94.13.71-.69,1.21-1.34,1.05-.57-.14-1.08-.58-1.54-.91-.31-.22-.39-.18-.57-.56-.15-.32-.22-.66-.32-1-.11-.34-.2-.53-.19-.93,0-.37-.05-.77.04-1.13.43-1.78,2.38-.64,2.78.56v-.75Z" style="fill:#635eb0; fill-rule:evenodd; stroke-width:0px;"/><path d="M293.95,139.67c.19-.67-1.07-1.13-1.51-1.13-.52,0-.61.06-.8.52-.17.41-.23.7.04,1.08.4.57,1.5.9,2.15.64.79-.31.44-1.35-.27-1.49l.38.38Z" style="fill:#635eb0; fill-rule:evenodd; stroke-width:0px;"/><path d="M302.05,126.1c.21-.05.51-.35.58-.56.05-.16-.02-.36.03-.53.04-.14.13-.23.15-.41.02-.18-.05-.39-.01-.57.04-.2.17-.36.21-.57.06-.36-.08-.77-.02-1.13.06-.34.39-.73.16-1.09-.19-.3-.6-.27-.91-.23-.32.04-.6.16-.94.23-.39.09-.87.3-1.21.52-.53.36-1.1.76-1.25,1.41-.14.6-.04,1.62.1,2.17.12.47.35,1.13.84,1.42.49.29,1.61.13,2.08-.1l.19-.57Z" style="fill:#635eb0; fill-rule:evenodd; stroke-width:0px;"/><path d="M297.72,125.72s0-.08,0-.12c.17.92-.91.81-1.14.13-.26-.77.98-1.01,1.14-.2v.19Z" style="fill:#635eb0; fill-rule:evenodd; stroke-width:0px;"/></g><path d="M843.68,145.79s-196.16,42.03-393.19,53.9c-181,10.9-424.4-47.5-424.4-47.5v21.46s116.83,20.53,258.74,34.97c0,0-103.34.15-258.62-22.13l-.12,6.04v59.42h817.79l-.22-94.71s-176.41,35.22-395.35,50.11c0,0,274.03-31.85,395.37-57.54v-4.02Z" style="fill:#929dcc; fill-rule:evenodd; mix-blend-mode:soft-light; opacity:.79; stroke-width:0px;"/><path d="M64.85,191.77s202.46,23.66,365.99,27.99h-69.94s130.39,10.73,198.34,10.32c0,0-229.17,2.41-494.38-38.31Z" style="fill:#929dcc; fill-rule:evenodd; mix-blend-mode:soft-light; opacity:.79; stroke-width:0px;"/><path d="M469.87,138.33s14.37-12.18,23.46-14.04c9.09-1.86,19.59,3.24,19.59,3.24,0,0,4.07-40.15,34.84-51.44,30.76-11.29,53.49,13.56,53.49,13.56,0,0,2.01-8.23,13.75-.65s23.03,15.01,23.03,15.01l-130.44,31.7-37.71,2.62Z" style="fill:#b3e2ff; fill-rule:evenodd; stroke-width:0px;"/><path d="M173.45,180.51s104.42,24.81,225.36,25.64c120.94.83,373.42-46.61,373.42-46.61,0,0-218.1,40.15-372.35,40.15s-226.43-19.18-226.43-19.18Z" style="fill:url(#_ÂÁ_Ï_ÌÌ_È_ËÂÌÚ_102); fill-rule:evenodd; stroke-width:0px;"/><path d="M843.66,157.24s-152.59,31.34-347.96,46.53l164-15.12s-114.58,22.13-209.96,27.08c0,0,248.15-19.91,393.92-43.02v-15.48Z" style="fill:#929dcc; fill-rule:evenodd; mix-blend-mode:soft-light; opacity:.79; stroke-width:0px;"/><path d="M559.24,247.21s168.03-4.13,284.42-7.84v3.93l-284.42,3.91Z" style="fill:#2759b8; fill-rule:evenodd; stroke-width:0px;"/><path d="M399.16,195.31s80.57.31,182.5-15.48c0,0-36.73-8.66-66.46,6.65,0,0-65.19,7.89-116.04,8.82Z" style="fill:url(#_ÂÁ_Ï_ÌÌ_È_ËÂÌÚ_102-2); fill-rule:evenodd; stroke-width:0px;"/><path d="M91.42,165.67s-19.64-20.36-42.27-8.64c0,0,26.74,7.54,42.27,8.64Z" style="fill:url(#_ÂÁ_Ï_ÌÌ_È_ËÂÌÚ_108); fill-rule:evenodd; stroke-width:0px;"/><path d="M423.87,226.79s29.27-8.67,57.07-8.67,41.57,11.99,41.57,11.99c0,0-56-1.1-98.64-3.32Z" style="fill:#2759b8; fill-rule:evenodd; stroke-width:0px;"/><path d="M552.81,230.09s15.56-7.01,23.39,0h-23.39Z" style="fill:#2759b8; fill-rule:evenodd; stroke-width:0px;"/><path d="M510.92,171.14s-6-51.09,21.69-62.93c18.82-8.05,44.17,17.93,44.17,17.93l-64.44,45h-1.42Z" style="fill:#b3e2ff; fill-rule:evenodd; stroke-width:0px;"/><path d="M374.23,87.7s19.82-14.81,35.47-2.14c15.65,12.67,18.45,54.56,18.45,54.56,0,0,4.43-1.24,5.86-.49s1.06,9.07,1.06,9.07c0,0,9.44-11.07,23.96-8.58,14.52,2.49,27.44,46.24,27.44,46.24l-112.24-24.49v-74.17Z" style="fill:#b3e2ff; fill-rule:evenodd; stroke-width:0px;"/><path d="M268.53,191.77s7.66-27.1,23.11-32.8c11.87-4.38,24.53,8.53,30.23,23.87,0,0,25.5-92.11,63.83-100.15,38.33-8.05,41.31,70.7,41.31,70.7,0,0,5.16-22.77,7.97-1.2,0,0,31.25-40.72,51.24,37.41,0,0,8.62-18.74,16.54-19.36s9.58,16.59,9.58,16.59c0,0-10.96-68.21,25.11-78.14,29.63-8.16,85.76,68.71,85.76,68.71,0,0,34.83-19.31,72.77-4.55,0,0-148.65,26.84-296.1,26.84s-263.93-25.4-263.93-25.4c0,0,49.52-9.5,64.49,8.56,0,0,6.85-16.05,13.6,1.33,0,0,37.36-29.37,54.49,7.6Z" style="fill:url(#_ÂÁ_Ï_ÌÌ_È_ËÂÌÚ_479); fill-rule:evenodd; stroke-width:0px;"/><path d="M539.68,108.25c-22.24,1.35-23.37,34.39-18.32,51.29,5.05,16.9,86.73,17.6,89.3,11.33,2.57-6.28-42.1-64.36-70.98-62.62Z" style="fill:url(#_ÂÁ_Ï_ÌÌ_È_ËÂÌÚ_509); fill-rule:evenodd; stroke-width:0px;"/><path d="M512.34,186.83s4.42-11.79,14.07-12.33c9.64-.54,40.4,11.86,40.4,11.86,0,0-32.26,12.72-54.47.47Z" style="fill:url(#_ÂÁ_Ï_ÌÌ_È_ËÂÌÚ_509-2); fill-rule:evenodd; stroke-width:0px;"/><path d="M620.3,179.12s15.74-10.17,40.7-11.69c24.96-1.52,34.99,5.42,34.99,5.42,0,0-57.33,7.71-75.69,6.26Z" style="fill:url(#_ÂÁ_Ï_ÌÌ_È_ËÂÌÚ_509-3); fill-rule:evenodd; stroke-width:0px;"/><path d="M496.29,188.59s5.09,2.99,14.51,3.57c0,0,2.29-18.5-5.28-21.34-7.57-2.84-9.22,17.77-9.22,17.77Z" style="fill:url(#_ÂÁ_Ï_ÌÌ_È_ËÂÌÚ_509-4); fill-rule:evenodd; stroke-width:0px;"/><path d="M385.7,82.69c-21.84,6.09-31.26,47.94-23.21,63.1,8.05,15.17,52.47,26.31,61.76,18.26,9.3-8.05-2.04-91.54-38.55-81.36Z" style="fill:url(#_ÂÁ_Ï_ÌÌ_È_ËÂÌÚ_509-5); fill-rule:evenodd; stroke-width:0px;"/><path d="M431.33,143.04c-3.08-1.1-2.14,16.68.96,17.92s4.62-15.93-.96-17.92Z" style="fill:url(#_ÂÁ_Ï_ÌÌ_È_ËÂÌÚ_509-6); fill-rule:evenodd; stroke-width:0px;"/><path d="M446.94,142.99c-8.22,2.34-12.01,48.3-9.26,51.7,2.75,3.4,43.21,4.33,48.38.62,5.16-3.71-8.22-35.91-18.14-46.66-9.92-10.75-20.98-5.66-20.98-5.66Z" style="fill:url(#_ÂÁ_Ï_ÌÌ_È_ËÂÌÚ_509-7); fill-rule:evenodd; stroke-width:0px;"/><path d="M331.06,181.35c-4.71-5.26,23.02-16.34,44.33-14.14,21.32,2.21,49.78,24.7,49.55,28.1-.23,3.4-75.29,6.84-93.89-13.96Z" style="fill:url(#_ÂÁ_Ï_ÌÌ_È_ËÂÌÚ_509-8); fill-rule:evenodd; stroke-width:0px;"/><path d="M277.23,186.36c-4.04-3.64,6.71-26.85,20.83-26.82,14.12.03,30.13,32.22,29.96,35.78-.17,3.56-42.01-1.05-50.79-8.96Z" style="fill:url(#_ÂÁ_Ï_ÌÌ_È_ËÂÌÚ_509-9); fill-rule:evenodd; stroke-width:0px;"/><path d="M232.52,174.74c-11.45,3.4-.75,12.22,11.91,14.54,12.65,2.32,22.09.98,22.21,0,.12-.98-7.55-22.43-34.12-14.54Z" style="fill:url(#_ÂÁ_Ï_ÌÌ_È_ËÂÌÚ_509-10); fill-rule:evenodd; stroke-width:0px;"/><path d="M201.39,182.85s2.33-6.71,6.68-6.64,6.58,8.89,6.58,8.89c0,0-8.25,1.46-13.26-2.25Z" style="fill:url(#_ÂÁ_Ï_ÌÌ_È_ËÂÌÚ_509-11); fill-rule:evenodd; stroke-width:0px;"/><path d="M143.55,173.14s40.28-8.54,56.9,9.71c0,0-33.22-1.09-56.9-9.71Z" style="fill:url(#_ÂÁ_Ï_ÌÌ_È_ËÂÌÚ_509-12); fill-rule:evenodd; stroke-width:0px;"/><path d="M330.53,191.77s19.03-1.96,30.54,5.93c0,0-23.6,1.14-30.54-5.93Z" style="fill:url(#_ÂÁ_Ï_ÌÌ_È_ËÂÌÚ_509-13); fill-rule:evenodd; stroke-width:0px;"/><path d="M403.8,169.88s10.1.18,18.82,2.51c8.72,2.33,4.49,15.16,4.49,15.16,0,0-14.82-12.2-23.32-17.67Z" style="fill:url(#_ÂÁ_Ï_ÌÌ_È_ËÂÌÚ_509-14); fill-rule:evenodd; stroke-width:0px;"/><path d="M569.39,179.3s17.22-3.95,27.2-3.33c9.99.62,13.08,5.38,13.08,5.38,0,0-34.78,1.12-40.29-2.05Z" style="fill:url(#_ÂÁ_Ï_ÌÌ_È_ËÂÌÚ_509-15); fill-rule:evenodd; stroke-width:0px;"/><path d="M208.2,187.56s56.24,17.64,216.23,18.04c160,.4,419.23-48.36,419.23-48.36,0,0-334.1,59.6-635.46,30.32Z" style="fill:#20276f; fill-rule:evenodd; stroke-width:0px;"/><path d="M469.87,138.33s8.82-5.64,20.04-10.8c11.22-5.16,24.21,2.1,24.21,2.1,0,0,3.57-33.52,27.19-47.8,28.65-17.31,62.48,11.67,62.48,11.67,0,0-1.11-12.85,11.62-2.23,0,0-10.75-49.62,15.05-67.54,24.4-16.95,77.73,52.57,77.73,52.57,0,0,4.55-31.11,29.99-31.11,34.05,0,67.98,62.87,67.98,62.87l-130.3,19.15-101.72,7.97v-12.7l-104.27,15.84Z" style="fill:url(#_ÂÁ_Ï_ÌÌ_È_ËÂÌÚ_5); fill-rule:evenodd; stroke-width:0px;"/><path d="M469.87,138.33s50.81-.51,117.69-6.28l-13.41,3.14s117.31-4.65,232.02-27.12l-102.67,9.11s108.85-31.74,140.38-43.08v-28.9s-240.82,73.66-374,93.13Z" style="fill:#180f50; fill-rule:evenodd; stroke-width:0px;"/><path d="M843.88,45.2v-8.86s-31.73-40.73-56.72-35.33c-24.99,5.4-33.48,64.82-33.48,64.82,0,0-33.32-40.09-47.75,17.44l-67.23,19.08s150.08-37.34,205.18-57.15Z" style="fill:url(#_ÂÁ_Ï_ÌÌ_È_ËÂÌÚ_5-2); fill-rule:evenodd; stroke-width:0px;"/><path d="M616.57,102.36s-35.73-33.07-64.35-24.99c-28.62,8.07-32.75,35.46-30.69,39.49,2.07,4.02,76.61-5.94,95.04-14.5Z" style="fill:url(#_ÂÁ_Ï_ÌÌ_È_ËÂÌÚ_192); fill-rule:evenodd; stroke-width:0px;"/><path d="M607.67,87.08c-3.49-.13,7.72,13.47,15.79,15.28,8.06,1.81-2.84-14.8-15.79-15.28Z" style="fill:url(#_ÂÁ_Ï_ÌÌ_È_ËÂÌÚ_192-2); fill-rule:evenodd; stroke-width:0px;"/><path d="M630.47,23.74c-16.94,12.1-14.2,39.3-6.73,52.36,7.46,13.06,72.94,8.71,82.04,3.61,9.1-5.1-52.62-72.17-75.3-55.97Z" style="fill:url(#_ÂÁ_Ï_ÌÌ_È_ËÂÌÚ_192-3); fill-rule:evenodd; stroke-width:0px;"/><path d="M632.42,102.36s-3.76-9.93,11.46-15.28c15.22-5.35,40.55,2.3,40.55,2.3l-52.01,12.98Z" style="fill:url(#_ÂÁ_Ï_ÌÌ_È_ËÂÌÚ_192-4); fill-rule:evenodd; stroke-width:0px;"/><path d="M472.85,136.52s14.81-9.97,24.47-10.8c9.66-.82,18.15,4.74,18.15,4.74,0,0-34.75,5.53-42.63,6.06Z" style="fill:url(#_ÂÁ_Ï_ÌÌ_È_ËÂÌÚ_192-5); fill-rule:evenodd; stroke-width:0px;"/><path d="M609.77,107.18s12.22-5.74,20.83-4.69l-20.83,4.69Z" style="fill:url(#_ÂÁ_Ï_ÌÌ_È_ËÂÌÚ_192-6); fill-rule:evenodd; stroke-width:0px;"/><path d="M727.47,52.46c-10.69,2.46-16.73,24.4-15.58,27.24,1.15,2.85,41.55-6.95,43.96-10.15,2.41-3.2-14.18-20.35-28.38-17.09Z" style="fill:url(#_ÂÁ_Ï_ÌÌ_È_ËÂÌÚ_192-7); fill-rule:evenodd; stroke-width:0px;"/><path d="M787.16,1.01c-23.12,8.04-19.16,58.39-12.71,61.06,9.81,4.06,69.73-18.11,69.73-18.11l-.3-7.63s-33.33-43.46-56.72-35.33Z" style="fill:url(#_ÂÁ_Ï_ÌÌ_È_ËÂÌÚ_192-8); fill-rule:evenodd; stroke-width:0px;"/><path d="M585.41,133.72s142.9-9.28,203.5-22.9c0,0-177.79,15.06-203.5,22.9Z" style="fill:#8d87ff; fill-rule:evenodd; mix-blend-mode:soft-light; opacity:.5; stroke-width:0px;"/><path d="M559.24,131.08s70.59-5.52,127.92-13.31c57.33-7.78,157.02-48.45,157.02-48.45l-.52-13.39s-238.12,65.26-284.42,75.15Z" style="fill:#8d87ff; fill-rule:evenodd; mix-blend-mode:soft-light; opacity:.5; stroke-width:0px;"/><path d="M661.84,138.33s46.49-5.64,87.87-11.01c0,0-28.87-4.33-45.85,0-16.99,4.33-10.34,5.3-42.01,11.01Z" style="fill:url(#_ÂÁ_Ï_ÌÌ_È_ËÂÌÚ_108-2); fill-rule:evenodd; stroke-width:0px;"/><path d="M753.9,127.53s22.73-9.37,29.38-3.24l-29.38,3.24Z" style="fill:url(#_ÂÁ_Ï_ÌÌ_È_ËÂÌÚ_108-3); fill-rule:evenodd; stroke-width:0px;"/><path d="M144.07,84.71s47.19,12.65,88.51,50.02c0,0,6.57-19.37,25.75,7.47,0,0,23.35-17.96,69.69-5.37,56.32,15.3,80.86,20.01,80.86,20.01l-131.24-11.05-141.68-26.33,8.12-34.75Z" style="fill:#b3e2ff; fill-rule:evenodd; stroke-width:0px;"/><path d="M255.76,141.14c-20.02-21.41-20.02-3.12-20.02-3.12,0,0-75.23-53.96-98.28-53.96-19.77,0-12.09,27.88-12.09,27.88-41.56-27.55-46.84-30.97-65.37-31.15-8.46-.08-33.83,3.13-33.83,3.13l-.09,5.74c129.6,44.79,314.38,69.02,405.99,69.02-22.31,0-59.33-8.96-106.64-22.58-37.46-10.78-69.67,5.04-69.67,5.04Z" style="fill:url(#_ÂÁ_Ï_ÌÌ_È_ËÂÌÚ_5-3); stroke-width:0px;"/><path d="M432.07,158.68c14.5,1.82,22.49,2.16,22.49,2.16,0,0-8.17-.72-22.49-2.16Z" style="fill:url(#_ÂÁ_Ï_ÌÌ_È_ËÂÌÚ_108-4); stroke-width:0px;"/><path d="M26.08,89.65s166.76,58.21,428.47,71.19c0,0-202.03.84-428.47-64.95v-6.23Z" style="fill:#180f50; fill-rule:evenodd; stroke-width:0px;"/><path d="M137.46,84.06c-15.28,3.24-2.44,27.27,7.89,33.67,10.33,6.4,85.73,17,85.73,17,0,0-77.86-54.01-93.62-50.67Z" style="fill:url(#_ÂÁ_Ï_ÌÌ_È_ËÂÌÚ_192-9); fill-rule:evenodd; stroke-width:0px;"/><path d="M65.23,80.96c-16.72.49-11.81,9.76-8.26,14.48,3.55,4.72,81.02,24.01,81.02,24.01,0,0-42.91-39.36-72.75-38.49Z" style="fill:url(#_ÂÁ_Ï_ÌÌ_È_ËÂÌÚ_192-10); fill-rule:evenodd; stroke-width:0px;"/><path d="M239.56,130.9c-1.9.31,3.36,8.27,3.36,8.27l12.84,1.97s-10.25-11.21-16.2-10.24Z" style="fill:url(#_ÂÁ_Ï_ÌÌ_È_ËÂÌÚ_192-11); fill-rule:evenodd; stroke-width:0px;"/><path d="M302.19,132.41c-23.37-.37-31.51,5.69-31.51,5.69,0,0,41.76,8.58,77.59,13.31,35.83,4.72,60.6,5.44,60.6,5.44,0,0-79.31-24-106.68-24.44Z" style="fill:url(#_ÂÁ_Ï_ÌÌ_È_ËÂÌÚ_192-12); fill-rule:evenodd; stroke-width:0px;"/><path d="M262.94,140.12s12.74-4.18,26.94,5.11c0,0-16.27-1.93-26.94-5.11Z" style="fill:url(#_ÂÁ_Ï_ÌÌ_È_ËÂÌÚ_192-13); fill-rule:evenodd; stroke-width:0px;"/><path d="M237.63,135.63s2.73,0,3.69,3.28l-5.15-.82,1.47-2.45Z" style="fill:url(#_ÂÁ_Ï_ÌÌ_È_ËÂÌÚ_192-14); fill-rule:evenodd; stroke-width:0px;"/><path d="M166.24,36.34l260.95,50.74-177.34-38.78s180.26,34.77,325.92,48.64c0,0-126.89-34.38-219.31-60.59h-190.21Z" style="fill:url(#_ÂÁ_Ï_ÌÌ_È_ËÂÌÚ_31); fill-rule:evenodd; mix-blend-mode:screen; opacity:.3; stroke-width:0px;"/><polygon points="93.7 36.34 453.56 107.18 26.13 45.2 26.18 36.34 93.7 36.34" style="fill:url(#_ÂÁ_Ï_ÌÌ_È_ËÂÌÚ_31-2); fill-rule:evenodd; mix-blend-mode:screen; opacity:.2; stroke-width:0px;"/><path d="M127.26,59.87s236.06,20.62,322.48,44.14L127.26,59.87Z" style="fill:url(#_ÂÁ_Ï_ÌÌ_È_ËÂÌÚ_31-3); fill-rule:evenodd; mix-blend-mode:screen; opacity:.2; stroke-width:0px;"/><path d="M277.64,52.97s169.46,8.61,233.49,36.68c0,0-130.81-14.48-233.49-36.68Z" style="fill:url(#_ÂÁ_Ï_ÌÌ_È_ËÂÌÚ_31-4); fill-rule:evenodd; mix-blend-mode:screen; opacity:.2; stroke-width:0px;"/><polygon points="204.06 43.69 424.95 86.64 270.4 52.97 204.06 43.69" style="fill:url(#_ÂÁ_Ï_ÌÌ_È_ËÂÌÚ_31-5); fill-rule:evenodd; mix-blend-mode:screen; opacity:.2; stroke-width:0px;"/></g></g></g></svg>