<?xml version="1.0" encoding="UTF-8"?><svg id="Layer_2" xmlns="http://www.w3.org/2000/svg" viewBox="0 0 1535.82 1058.47"><g id="Red_Green"><rect x=".5" y="100.81" width="746.15" height="704.65" style="fill:#ff3d00; stroke-width:0px;"/><path d="M746.15,101.31v703.65H1V101.31h745.15M747.15,100.31H0v705.65h747.15V100.31h0Z" style="fill:#000; stroke-width:0px;"/><rect x="259.93" y="163.08" width="870.68" height="818.79" style="fill:#00ff42; stroke-width:0px;"/><path d="M1130.11,163.58v817.79H260.43V163.58h869.68M1131.11,162.58H259.43v819.79h871.68V162.58h0Z" style="fill:#000; stroke-width:0px;"/></g><g id="_3_Teals"><rect x="315.27" y="35.09" width="1220.04" height="230.76" style="fill:#17a6ad; stroke-width:0px;"/><path d="M1534.82,35.59v229.76H315.77V35.59h1219.04M1535.82,34.59H314.77v231.76h1221.04V34.59h0Z" style="fill:#000; stroke-width:0px;"/><rect x="301.44" y="619.67" width="1220.04" height="230.76" style="fill:#17a6ad; stroke-width:0px;"/><path d="M1520.98,620.17v229.76H301.94v-229.76h1219.04M1521.98,619.17H300.94v231.76h1221.04v-231.76h0Z" style="fill:#000; stroke-width:0px;"/><rect x="304.9" y="323.92" width="1220.04" height="230.76" style="fill:#17a6ad; stroke-width:0px;"/><path d="M1524.44,324.42v229.76H305.4v-229.76h1219.04M1525.44,323.42H304.4v231.76h1221.04v-231.76h0Z" style="fill:#000; stroke-width:0px;"/></g><g id="Vertical"><rect x="1228.46" y=".5" width="213.46" height="939.86" style="fill:#1818aa; stroke-width:0px;"/><path d="M1441.42,1v938.86h-212.46V1h212.46M1442.42,0h-214.46v940.86h214.46V0h0Z" style="fill:#000; stroke-width:0px;"/></g><g id="Base_blue"><rect x="425.96" y="650.8" width="618.17" height="407.17" style="fill:#1818aa; stroke-width:0px;"/><path d="M1043.63,651.3v406.17H426.46v-406.17h617.17M1044.63,650.3H425.46v408.17h619.17v-408.17h0Z" style="fill:#000; stroke-width:0px;"/><rect x="1272.96" y="664.64" width="16.77" height="67.05" style="fill:#1818aa; stroke-width:0px;"/><path d="M1289.23,665.14v66.05h-15.77v-66.05h15.77M1290.23,664.14h-17.77v68.05h17.77v-68.05h0Z" style="fill:#000; stroke-width:0px;"/></g></svg>