<?xml version="1.0" encoding="UTF-8"?><svg id="Layer_2" xmlns="http://www.w3.org/2000/svg" xmlns:xlink="http://www.w3.org/1999/xlink" viewBox="0 0 125.98 28.26"><defs><linearGradient id="linear-gradient" x1="-9770.3" y1="-2.18" x2="-9770.3" y2="27.06" gradientTransform="translate(-9707.31) rotate(-180) scale(1 -1)" gradientUnits="userSpaceOnUse"><stop offset="0" stop-color="#657f91"/><stop offset="1" stop-color="#c3d0dc"/></linearGradient></defs><g id="Layer_1-2"><path d="M0,28.26v-1.62c2.92-.55,5.76-1.45,8.44-2.38,3.4-1.17,6.72-2.49,10.2-3.52,1.43-.42,3.13-.96,4.7-.75,1,.13,1.9.52,2.92.63,1.62.17,3.1-.02,4.55-.6,1.63-.65,3.13-1.52,4.63-2.34.39-.21.77-.43,1.15-.64.36-.2.73-.41,1.09-.61.11-.06.21-.12.32-.18.28-.16.57-.32.85-.47.13-.07.26-.14.39-.21.26-.14.52-.28.78-.42.07-.03.13-.07.2-.1,0,0-.01,0-.02.01,1.34-.7,2.72-1.34,4.2-1.85.32-.11.65-.21.98-.31.01,0,.02,0,.04-.01.18-.05.36-.1.54-.15.03,0,.06-.02.1-.03.01,0,.02,0,.04,0,.41-.55,1.74-.69,2.48-.76.33-.03.63.01.89.19.09,0,.17-.01.26-.02.63-.03,1.26-.02,1.89,0-.03,0-.06,0-.09,0,.05,0,.09,0,.14,0,1.28.06,2.55.21,3.84.28,2.88.16,5.8-.05,8.48-.9,2.64-.84,5.26-2.16,7.34-3.66,1.61-1.16,3.09-2.42,4.63-3.63,1.64-1.29,3.29-2.67,5.2-3.73.7-.39,1.29-.61,2.16-.36.87.25,1.64.7,2.34,1.18.02.01.03.02.05.04.17.12.33.23.49.35,1.94,1.43,3.57,3.07,5.3,4.64.25.23.51.45.78.67.08.06.15.12.23.18.2.16.4.32.61.48.06.04.12.09.17.13.24.18.48.36.73.53.02.01.03.02.05.04.29.2.58.4.87.59,0,0,0,0,0,0,1.01.67,2.05,1.31,3.09,1.94,1.54.93,3.1,1.86,4.5,2.92,1.31.99,2.38,2.09,3.41,3.26.74.84,1.48,1.69,2.38,2.44.97.8,2.1,1.44,3.34,1.97,1.53.65,3.09,1.27,4.65,1.88,1.3.51,2.63,1,4.01,1.36.18.05.37.09.55.14.18.04.35.08.53.12,0,0,0,0,0,0,1.5.32,3.04.51,4.59.61v2.7H0Z" style="fill:url(#linear-gradient); stroke-width:0px;"/></g></svg>