<?xml version="1.0" encoding="UTF-8"?><svg id="Layer_2" xmlns="http://www.w3.org/2000/svg" viewBox="0 0 314.59 15.26"><g id="Layer_1-2"><path d="M314.59,15.26H0V.53C0,.83,15.69.1,16.73.08c8.27-.18,16.54.26,24.77.9,16.52,1.28,33.02,3.4,49.66,3.04,8.77-.19,17.5-1.08,26.16-2.19,4.04-.52,8.55-1.72,12.62-1.65,8.44.16,16.68,1.31,25.07,2.01,17.23,1.44,34.44-.86,51.65-1.3,15.24-.39,30.35,1.68,45.66,1.75,10.86.05,21.73-.39,32.54-1.33,4.73-.41,10.05-1.68,14.77-1.2,4.84.5,9.66.43,14.57.43h.4v14.72Z" style="fill:#485968; stroke-width:0px;"/></g></svg>