<?xml version="1.0" encoding="UTF-8"?><svg id="Layer_2" xmlns="http://www.w3.org/2000/svg" viewBox="0 0 314.69 34.39"><g id="Layer_1-2"><path d="M0,34.39h314.59c0-11.11.1-22.21.1-33.32,0-.33-.02-.69-.37-.91-.4-.24-1-.17-1.52-.08-4.42.77-10.09,1.53-13.87,3.32-4.18,1.98-7.93,4.81-11.75,7.12-2.89,1.74-6,3.56-9.79,3.91-2.36.22-4.73-.16-7.11-.25-2.37-.09-5,.21-6.56,1.45-.99.79-1.42,1.85-2.33,2.68-1.42,1.31-3.81,1.89-6.1,2.3-4.35.79-8.85.64-13.16,1.3-3.76.58-6.77.73-10.73.61-3.62-.11-7.29-.64-10.92-.42-6.49.39-12.21-.29-18.7-.83-3.48-.29-7.73.91-11.17,1.33-3.88.47-7.78.84-11.72,1.01-6.17.26-12.44,0-18.42-1.14-3-.57-4.7-.87-7.77-.75-3.12.12-6.26.1-9.38.03-4.15-.09-9.05-1.03-13.09-.66-5.09.47-10.15,2.24-15.26,2.91-5.16.67-10.47.93-15.67.33-10.12-1.15-19.3-5.38-29.54-5.74-5.8-.2-11.57.87-17.38.79-15.91-.24-29.23-8.97-45.01-10.41-1.68-.15-3.52-.2-4.91.47-3.51,1.69-1.57,5.52-1.73,7.92-.15,2.16-.74,4.23-.74,6.41v10.62Z" style="fill:#506677; stroke-width:0px;"/></g></svg>