<?xml version="1.0" encoding="UTF-8"?><svg id="Layer_2" xmlns="http://www.w3.org/2000/svg" viewBox="0 0 85.76 47.99"><g id="Layer_1-2"><path d="M68.51,15.92c-1.71.7-3.83,2.47-5.1,4.5-1.35,2.38.13,3.08.55,3.23-.44.84-.84,1.73-1.2,2.66-.09.24-.17.49-.26.73-.47.08-.64.32-.64.32,0,0-.56-.37-1.29-.26,0-.05,0-.11-.01-.16-.01-.15-.03-.29-.04-.44-.03-.29-.05-.58-.09-.87-.08-.58-.14-1.15-.24-1.71-.04-.28-.09-.56-.14-.84-.04-.28-.09-.55-.14-.83-.04-.24-.09-.48-.14-.72.9.29,2.86-.49,3.04-2.45.19-2.08-1.1-3.81-2.34-5.46-.11-.14-.22-.27-.33-.4,0-.03-.01-.06-.01-.06,0,0,0,.02,0,.05-1.11-1.29-2.38-1.97-3.04-3.33-.04-.08-.08-.17-.12-.26,0,0,.02.65-.47,2.48-.17.65-.34,1.41-.42,2.27,0,0-.01-.02-.01-.02,0,0,0,.01.01.02-.04.4-.05.82-.03,1.25,0,0,0-.01,0-.01,0,0,0,0,0,.02.03.79.16,1.65.45,2.56-.76-.79-2.14-.91-3.69-.58-.99.22-1.65.44-2.24.89-.02,0-.03,0-.03,0,0,0,.01,0,.02,0-.46.35-.87.84-1.37,1.58-1.19.69-1.82,3.29-1.67,3.41.02.01.04,0,.08-.05.49-.85,1.72-1.23,2.84-1.31h0s0,0,0,0c.88-.07,1.69.04,2.03.23.78.45,2.22,1.15,3.73.88.72-.13.99-.51,1.08-.88l.1.27.09.3c.09.49.16.99.24,1.48.08.5.14,1,.21,1.49.07.5.14.99.2,1.49l.19,1.5.1.75.08.75.17,1.5c.05.5.12,1,.16,1.5l.14,1.5.14,1.5.07.75c.02.25.04.5.06.75l.24,3.01c.04.5.09,1,.11,1.5l.1,1.51.1,1.51c0,.15.02.3.03.45,0,.17,0,.33,0,.48,0,.52,0,.92-.01,1.2,0,.28,0,.42,0,.42,0,0,0-.15.03-.42.01-.21.03-.51.05-.87,0,.08.01.17.02.25,0-.15,0-.29,0-.44,0-.05,0-.09,0-.14.03-.51.06-1.14.1-1.85.04-.72.08-1.53.12-2.41.04-.88.09-1.84.13-2.85.04-1.01.09-2.08.14-3.18.04-1.1.09-2.24.14-3.4,0-.2.01-.4.02-.6,0,0,.01,0,.02.01.17.09.33.18.49.28-.19,1.01-.33,2.01-.45,2.98-.12.98-.19,1.93-.25,2.82-.06.9-.08,1.75-.09,2.54-.01.79,0,1.51.02,2.14.02.64.05,1.19.08,1.65.03.46.06.82.09,1.06.03.24.04.37.04.37,0,0,0-.13-.02-.37-.01-.25-.02-.6-.03-1.06-.02-.91-.01-2.22.05-3.79.03-.78.08-1.63.16-2.52.07-.89.17-1.83.3-2.8.12-.91.28-1.85.46-2.8.49.31.94.65,1.32,1.02,0,.01,0,.02,0,.02,0,0,0,0,0-.02.77.74,1.24,1.6,1.21,2.61h0c.25-1.03,1.47-2.22,1.96-3.67.49-1.46.12-4.39-2.02-5.31-.39-.14-.71-.2-.98-.21.07-.19.13-.38.2-.57.33-.87.69-1.71,1.09-2.51.56.85,1.82,1.98,3.57.97,1.31-.76,2.09-3.02,2.54-4.93,0,0,0,0,0,0h0c.22-.92.36-1.76.45-2.3.17-1.02.75-1.84,1.18-2.33.28-.31.49-.49.49-.49,0,0-1.32.42-3.12.79-.26.05-.53.14-.82.26,0,0,0,0,0,0,0,0-.01,0-.01.01ZM58.33,25.87c-.08-.5-.15-1-.23-1.49-.08-.5-.16-.99-.26-1.49h0s0-.01,0-.01l-.11-.34-.13-.33c-.05-.11-.1-.21-.15-.32-.06-.1-.11-.2-.17-.3.08-.62.12-1.05.09-1.45.98,1.63,1.74,1.68,2.07,1.51.04.23.08.45.12.67.05.27.09.54.13.82.04.28.08.55.12.83.04.28.07.56.11.85.04.28.07.57.11.85.03.29.06.58.09.86.01.14.03.29.04.43,0,.08.01.15.02.23-.35.14-.73.4-1.1.88-.16.2-.28.4-.36.6l-.17-1.32c-.06-.5-.14-1-.21-1.5ZM60.14,32.66c-.04,1.16-.07,2.3-.1,3.4-.03,1.1-.06,2.17-.08,3.18-.02,1.01-.04,1.97-.06,2.85-.02.79-.03,1.52-.04,2.18v-.36s-.04-1.51-.04-1.51c0-.5-.04-1.01-.06-1.51l-.17-3.02c-.02-.25-.03-.5-.04-.75l-.06-.75-.12-1.51-.13-1.51c-.04-.5-.1-1-.16-1.5l-.13-1.17c.28.41.69.8,1.22,1.14,0,.27-.02.55-.03.82Z" style="fill:#000; stroke-width:0px;"/><path d="M58.48,41.01c0,.3,0,.6,0,.9l-.03,1.8c.02-.3.05-.6.07-.9l.05-.9c.02-.3.04-.6.05-.9l.03-.9.03-.9c.01-.3.02-.6.02-.9v-1.8s.02-.45.02-.45c0-.15,0-.3,0-.45,0-.3-.01-.6-.02-.9-.02-.6-.06-1.21-.13-1.81-.04-.3-.08-.6-.14-.9-.06-.3-.14-.6-.25-.89-.06-.15-.13-.29-.21-.43-.08-.14-.18-.27-.3-.38-.12-.11-.26-.21-.42-.28-.15-.07-.32-.11-.48-.12h0s0,0,0,0h-.01c-.34-.39-1.28-1.2-2.89-.71-1.03.31-1.85.82-2.49,1.48-.02,0-.03.01-.03.01,0,0,.01,0,.02,0-.87.89-1.4,2.05-1.67,3.34,0,0,0,.01,0,.01,0,0,0,0,0,0-.33,1.59-.25,3.38.16,5.11.01.05.02.1.03.15,0,0,.29-3.15,3.09-3.54,2.8-.4,5.19-1.56,5.06-3.72-.02-.3-.07-.55-.12-.76.1.26.17.53.23.81.06.29.1.58.14.88.07.59.11,1.19.14,1.79.01.3.03.6.03.9,0,.15,0,.3.01.45v.45s.03,1.8.03,1.8c0,.3.01.6,0,.9v.9s0,.9,0,.9Z" style="fill:#000; stroke-width:0px;"/><path d="M82.95,25.2c-1.22.5-2.72,1.75-3.62,3.2-.96,1.69.09,2.19.39,2.29-.31.6-.6,1.23-.85,1.89-.07.17-.12.35-.19.52-.34.06-.45.23-.45.23,0,0-.4-.26-.92-.19,0-.04,0-.07,0-.11-.01-.1-.02-.21-.03-.31-.02-.21-.04-.41-.06-.62-.06-.41-.1-.82-.17-1.22-.03-.2-.06-.4-.1-.59-.03-.2-.06-.39-.1-.59-.03-.17-.06-.34-.1-.51.64.21,2.03-.35,2.16-1.74.14-1.48-.78-2.71-1.66-3.88-.08-.1-.15-.19-.23-.28,0-.02,0-.04,0-.04,0,0,0,.01,0,.03-.79-.91-1.69-1.4-2.16-2.37-.03-.06-.06-.12-.08-.18,0,0,.02.46-.33,1.76-.12.46-.24,1-.3,1.61,0,0,0-.01,0-.01,0,0,0,0,0,.01-.03.28-.03.58-.02.89,0,0,0-.01,0-.01,0,0,0,0,0,.01.02.56.11,1.17.32,1.82-.54-.56-1.52-.65-2.62-.41-.7.15-1.17.31-1.59.63-.02,0-.02,0-.02,0,0,0,0,0,.02,0-.32.25-.62.6-.97,1.12-.85.49-1.29,2.34-1.18,2.42.01,0,.03,0,.05-.04.35-.6,1.22-.87,2.02-.93h0s0,0,0,0c.62-.05,1.2.03,1.44.17.55.32,1.58.82,2.65.63.51-.09.7-.36.77-.62l.07.19.06.22c.06.35.11.7.17,1.05.06.35.1.71.15,1.06.05.35.1.71.14,1.06l.13,1.06.07.53.06.53.12,1.06c.04.35.08.71.12,1.06l.1,1.07.1,1.07.05.53c.02.18.03.36.04.53l.17,2.14c.03.36.06.71.08,1.07l.07,1.07.07,1.07c0,.11.01.21.02.32,0,.12,0,.23,0,.34,0,.37,0,.65,0,.85,0,.2,0,.3,0,.3,0,0,0-.1.02-.3,0-.15.02-.36.04-.62,0,.06,0,.12.01.18,0-.1,0-.21,0-.31,0-.03,0-.06,0-.1.02-.37.04-.81.07-1.32.03-.51.06-1.08.09-1.71.03-.63.06-1.31.1-2.02.03-.72.06-1.48.1-2.26.03-.78.07-1.59.1-2.41,0-.14.01-.29.02-.43,0,0,0,0,.01,0,.12.06.23.13.35.2-.14.72-.24,1.43-.32,2.12-.08.69-.14,1.37-.18,2.01-.04.64-.06,1.24-.06,1.8,0,.56,0,1.07.02,1.52.02.45.04.85.06,1.17.02.33.05.58.06.75.02.17.03.26.03.26,0,0,0-.09-.01-.27,0-.17-.01-.43-.02-.75-.02-.65-.01-1.58.04-2.69.02-.56.06-1.16.11-1.79.05-.63.12-1.3.21-1.99.09-.65.2-1.32.32-1.99.35.22.67.46.93.72,0,0,0,.02,0,.02,0,0,0,0,0-.01.54.53.88,1.14.86,1.85h0c.18-.73,1.04-1.58,1.39-2.61.35-1.04.09-3.12-1.44-3.77-.28-.1-.51-.14-.69-.15.05-.14.09-.27.14-.41.24-.62.49-1.22.77-1.78.39.6,1.29,1.4,2.54.69.93-.54,1.48-2.14,1.8-3.5,0,0,0,0,0,0h0c.16-.65.26-1.25.32-1.63.12-.72.53-1.31.84-1.65.2-.22.35-.35.35-.35,0,0-.94.3-2.22.56-.18.04-.38.1-.58.18,0,0,0,0,0,0,0,0,0,0,0,0ZM75.72,32.28c-.05-.35-.1-.71-.16-1.06-.06-.35-.12-.71-.18-1.06h0s0-.01,0-.01l-.08-.24-.09-.23c-.04-.08-.07-.15-.11-.23-.04-.07-.08-.14-.12-.22.06-.44.09-.74.06-1.03.7,1.16,1.23,1.19,1.47,1.07.03.16.06.32.08.48.03.19.06.39.09.58.03.2.06.39.09.59.03.2.05.4.08.6.03.2.05.4.08.61.02.2.04.41.06.61,0,.1.02.21.03.31,0,.06,0,.11.01.16-.25.1-.52.28-.78.62-.11.14-.2.28-.26.43l-.12-.94c-.04-.36-.1-.71-.15-1.06ZM77.01,37.1c-.03.82-.05,1.63-.07,2.42-.02.78-.04,1.54-.06,2.26-.02.72-.03,1.4-.05,2.03-.01.56-.02,1.08-.03,1.55v-.25s-.03-1.07-.03-1.07c0-.36-.03-.71-.05-1.07l-.12-2.14c-.01-.18-.02-.36-.03-.54l-.04-.53-.09-1.07-.09-1.07c-.03-.36-.07-.71-.11-1.07l-.09-.83c.2.29.49.57.87.81,0,.2-.01.39-.02.59Z" style="fill:#000; stroke-width:0px;"/><path d="M75.83,43.03c0,.21,0,.43,0,.64l-.02,1.28c.02-.21.03-.43.05-.64l.04-.64c.01-.21.03-.43.03-.64l.02-.64.02-.64c0-.21.01-.43.01-.64v-1.28s.01-.32.01-.32c0-.11,0-.21,0-.32,0-.21,0-.43-.02-.64-.01-.43-.04-.86-.09-1.29-.03-.21-.06-.43-.1-.64-.04-.21-.1-.43-.18-.63-.04-.1-.09-.2-.15-.3-.06-.1-.13-.19-.22-.27-.09-.08-.19-.15-.3-.2-.11-.05-.23-.07-.34-.09h0s0,0,0,0h0c-.24-.27-.91-.85-2.05-.51-.73.22-1.31.58-1.77,1.05-.01,0-.02,0-.02,0,0,0,0,0,.01,0-.62.63-1,1.46-1.18,2.37,0,0,0,0,0,0,0,0,0,0,0,0-.23,1.13-.18,2.4.11,3.63,0,.03.02.07.02.1,0,0,.21-2.24,2.2-2.52,1.99-.28,3.69-1.11,3.59-2.64-.02-.21-.05-.39-.09-.54.07.18.12.38.17.57.04.2.07.41.1.62.05.42.08.84.1,1.27.01.21.02.43.02.64,0,.11,0,.21,0,.32v.32s.02,1.28.02,1.28c0,.21,0,.43,0,.64v.64s0,.64,0,.64Z" style="fill:#000; stroke-width:0px;"/><path d="M23.32,38.23c.51-.65.86-1.43,1.09-2.26.09.26.19.51.29.76.14.36.39.67.63.96.27.33.83.81.82,1.27,0,.01.02.02.02,0,.12-.23.11-.41.04-.58.05-.47.21-1.08.46-1.46.05-.07.1-.16.18-.2.13.13.15.26.06.38-.07.1-.14.2-.2.31-.17.32-.26.67-.23,1.04.07.87.47,1.49.94,2.2.22.33.47.65.63,1.01.05.1.08.2.1.29,0,.03,0,.06.01.09,0,.06.02.12.02.18,0,.03,0,.07,0,.1,0,.06,0,.12-.02.17,0,.03,0,.07-.02.1-.02.09-.04.18-.06.27,0,.03.02.05.05.04.21-.1.32-.24.38-.4.82-.87,1.8-1.34,2.79-1.99.07-.04.15-.1.24-.16,0,0,.01,0,.02-.01.28-.19.62-.44.83-.73,0,0,0,0,0,0h0c.14-.2.22-.42.16-.64-.08-.31-.25-.59-.39-.88-.07-.16-.21-.37-.19-.56,0-.09.06-.12.12-.11.03,0,.06,0,.09.02,0,0,0,0,0,0,.04.01.07.03.11.05,0,0,.01,0,.02.01.03.02.05.03.08.05,0,0,.01,0,.02.01.02.02.04.04.05.05.26.32.42.78.43,1.2,0,.39-.3.61-.36.98,0,.02.02.04.03.02.29-.28.59-.43.64-.82.6-.57,1.25-1.26,1.5-2.07.25-.79-.12-1.46-.64-2.05-.32-.37-.75-.74-.99-1.17-.14-.26.05-.51.33-.34.09.05.18.11.26.18.13.12.27.24.38.37.33.4.73.72.94,1.21.23.52.22,1.08.17,1.64,0,.02.03.02.04,0,.15-.24.24-.48.26-.73.36-.84.2-1.88.33-2.77,0-.03.01-.05.02-.08.04-.09.08-.17.13-.25.07-.11.57-.4.47-.05-.03.1-.06.19-.1.28-.09.18-.2.35-.3.52-.23.38-.21.85,0,1.23.16.29.36.52.58.76.29.32.49.63.65,1.04,0,0,.02.01.02,0,.07-.17.09-.32.06-.46.08-.26.19-.52.31-.76.09-.18.17-.36.32-.49.25-.22.57.05.39.34-.32.48-.57.96-.49,1.56.17,1.24,1.34,1.74,1.97,2.68,0,.04.01.08.02.12,0,.04.05.05.08.05.04.08.09.16.12.25,0,.02.03,0,.03-.01-.02-.13-.06-.24-.1-.35,0-.55,0-1.28.27-1.75.03-.05.44-.55.49-.19.02.17-.05.36-.1.52-.09.26-.21.52-.24.79-.09.86.69,1.73,1.2,2.33.35.4.8.75,1.09,1.2.21.34.31.69.35,1.06,0,.07-.01.15-.02.22-.01-.04-.02-.08-.03-.14h0c0,.08.01.2.02.3,0,.05,0,.1-.01.15,0,0,0,0,0,0,0,.1.14.13.18.03.03-.08.06-.17.08-.25.01-.05.02-.11.04-.16.01-.06.03-.12.04-.18.01-.05.03-.1.04-.15.01-.04.03-.07.04-.11.02-.07.05-.13.09-.2.19-.33.41-.63.67-.9.36-.38.89-.72,1.12-1.21.07-.15.08-.32.1-.48.05-.36.24-.58.45-.85.21-.27.46-.69.32-1.06-.11-.28-.31-.44-.58-.57-.28-.13-.9-.32-.86-.72,0-.08.8.33.87.38.22.14.47.25.68.4.11.14.24.26.38.38.03.02.07-.02.05-.05-.26-.48-.59-.96-.75-1.48-.11-.37-.2-.74-.41-1.07-.28-.43-.73-.61-1.21-.73-.03-.03-.07-.06-.1-.09-.1-.11-.2-.23.02-.22.32.01.63.1.88.32.09.08.16.17.24.26.16.32.38.61.73.78.02.01.04-.02.02-.03-.16-.12-.28-.28-.38-.45-.04-.12-.09-.24-.16-.35-.18-.48-.28-1.03-.45-1.44-.27-.64-.76-1.16-1.46-1.32-.26-.06-.54-.07-.8-.15-.09-.03-.2-.05-.28-.11-.07-.2-.04-.29.11-.28.13,0,.25.03.37.07.5.17.96.44,1.44.67.16.14.33.27.52.37.02.01.05-.01.03-.03-.37-.71-1.01-1.28-1.42-1.97-.32-.53-.59-1.06-1.08-1.47-.41-.35-.95-.53-1.49-.59-.18-.02-.36-.03-.54-.02-.19,0-.79-.13-.23-.25.35-.07.7-.05,1.05-.02.24.21.52.34.86.22,0,0,0-.02,0-.02-.44-.02-.77-.44-1.03-.75-.25-.31-.51-.57-.81-.83-.66-.55-1.45-.96-2.26-1.2-.7-.21-1.68-.43-2.46-.24-.05-.09-.1-.19-.15-.28-.28-.49-.59-1.01-.97-1.48-.37-.34-.87-.92-.8-.83-.39-.31-.84-.55-1.35-.66-.02,0-.05,0-.08,0,.27-.47.6-.92.96-1.33h0c0,.21.01.42.03.63.04.4.12.76.27,1.08.31.39.47.62.96,1.01.35.27.81.38,1.24.49.5.13.83.26,1,.81,0,.02.04.02.04,0,0,0,0-.01,0-.02,0,0,0,0,0,0,0-.25-.05-.44-.13-.59,0-.01.01-.03.01-.05,0-.26,0-.52.07-.78,0-.03.13-.32.14-.31.03.06.04.12.04.17,0,.17-.07.33-.09.49,0,0,0,.01,0,.02,0,0,0,0,0,0-.04.25.15.56.21.81.06.25.19.46.37.64.34.34.94.23,1.33.53.27.2.49.32.81.42.21.06.41.19.59.34.03.04.06.08.1.12.02.03.05.03.08.02.11.1.22.2.32.29.01.01.04,0,.03-.02,0,0,0,0,0,0,0,0,0,0,0-.02-.11-.16-.22-.31-.33-.45-.14-.33-.31-.68-.32-1.04,0-.12,0-.23.04-.35,0,.01.17-.33.28-.51.05-.08.08-.12.09-.1.03.13.04.25.04.38,0,.09,0,.18,0,.26v.06s0,.05,0,.08c0,.03,0,.05,0,.08.01.46.07.89.36,1.32.33.49.72.89,1.27,1.11.27.11.56.19.81.35.26.17.41.38.6.62.02.02.05,0,.05-.02,0,0,0-.01,0-.02,0,0,0,0,0,0,.01-.18-.03-.33-.1-.46.18-.54.23-1.04.69-1.47.02-.02.16-.1.26-.14.06-.02.11-.04.12-.02,0,0,0,0,0,0,0,0,0,0,0,0-.04.1-.09.18-.14.27-.1.15-.2.28-.3.43-.1.15-.15.31-.16.47-.05.46.23.93.64,1.18.36.22.75.35,1.14.47.39.12.93.2,1.21.5.29.31.3.88.67,1.09.21.12.32.26.38.42.02.06.03.12.04.19,0,0,0,0,0,0,0,.02,0,.03,0,.05,0,.04,0,.08,0,.12,0,.01,0,.02,0,.03,0,.04,0,.07,0,.11,0,.03,0,.07-.01.1-.02.17-.05.35-.07.52,0,0,0,0,0,0,0,0,0,.01,0,.02,0,.02.03.02.03,0,.02-.1.06-.2.09-.29.11-.28.25-.55.24-.83,0-.02,0-.03,0-.05,0,0,0,0,0,0,0-.04,0-.08-.02-.13.03-.1.07-.19.11-.29.04-.1.07-.2.09-.31.04-.24.07-.48.05-.73,0,0,0,0,0,0,0,0,0-.01,0-.02-.04-.51-.12-1.03-.3-1.51-.17-.45-.42-.9-.7-1.29-.19-.26-.76-.46-.83-.79.62.05,1.02.62,1.49.98.17.27.36.52.6.74.01.01.05,0,.04-.02,0,0,0,0,0-.01,0,0,0,0,0-.01-.2-.51-.52-.97-.7-1.49-.18-.51-.23-1.04-.41-1.55-.23-.62-.61-1.57-1.33-1.73-.36-.08-.72-.11-1.08-.18-.17-.04-.44-.08-.56-.22-.04-.04-.05-.08-.06-.12,0-.1.13-.15.25-.14.62.05,1.2.39,1.74.67.09.05.17,0,.19-.08.12.08.24.16.37.24.02,0,.03-.01.01-.02,0,0,0,0,0,0,0,0,.01-.01,0-.02-.24-.13-.4-.46-.56-.67-.21-.28-.42-.57-.6-.87-.33-.55-.5-1.17-.95-1.65-.55-.59-1.19-.8-1.97-.94-.21-.04-.42-.07-.62-.12-.11,0-.17-.04-.18-.13,0-.03,0-.06,0-.1.14-.07.29-.1.45-.09.22.01.43.05.64.1.39.3.84.54,1.34.49.03,0,.03-.02.03-.04,0-.02,0-.04-.02-.04-.29-.09-.55-.23-.79-.39,0-.01,0-.03,0-.04,0-.02,0-.05-.04-.06-.11-.06-.21-.11-.32-.15-.47-.37-.88-.82-1.34-1.23-.61-.54-1.29-.88-2.11-.97-.35-.04-.71-.02-1.05.04.16-.67.21-1.36,0-2-.3-.94-.95-1.57-1.78-2.05-.35-.2-.77-.43-1.02-.76-.21-.28.03-.49.34-.49.28.02.54.12.77.27.82.53,1.6,1.44,1.9,2.42,0,.12,0,.23.02.35,0,.05.04.08.08.08.02.13.03.25.03.38,0,.02.03.02.03,0,0-.01,0-.02,0-.03,0,0,0,.02,0,.03,0,.02.03.02.03,0,.08-.29.1-.58.06-.86.12-1.16.22-2.32-.48-3.33-.67-.97-1.87-1.11-2.8-1.71-.26-.17-.63-.43-.61-.79.02-.27.21-.46.48-.5.07,0,.14-.01.22-.01.57.03,1.12.37,1.57.68.47.32,1.14.68,1.42,1.18.14.25.2.51.26.79,0,0,0,0,.01,0,0,.02,0,.05-.02.07-.03.06,0,.12.08.13.02,0,.03,0,.05,0,0,0,0,0,.01,0,.01,0,.02,0,.03,0,.05,0,.09-.05.1-.09,0-.24-.03-.47-.09-.68.03-.03.04-.07.03-.11-.29-1.14-.65-2.45-1.44-3.36-.67-.78-1.57-1.32-2.54-1.66-.55-.19-1.28-.43-1.96-.42-.41,0-.8.07-1.13.3-.22.15-.45.4-.63.69-.02.03-.03.06-.05.09-.02.03-.03.06-.05.09-.02.03-.03.07-.04.1-.01.03-.02.05-.03.08-.01.03-.02.06-.02.09,0,.02-.01.04-.02.06-.31-.37-.7-.66-1.17-.78-.29-.07-.57-.09-.84-.07-.83.05-1.59.46-2.3.94-.89.59-1.78,1.43-1.91,2.57-.13,1.14.65,2.13.44,3.27,0,.04.03.08.07.06.02.01.04.01.06,0,.09-.1.16-.2.2-.32.02,0,.03,0,.05,0,.03.01.07,0,.09-.03.3-.48.44-1.02.73-1.5.18-.31.44-.64.79-.75.1-.03.22-.07.33-.08.03,0,.07,0,.1.02.28.12.23.46.04.64-.37.35-.84.56-1.2.92-.36.36-.64.76-.75,1.26-.21.91.38,1.75,1,2.35.42.41.87.8,1.25,1.25-.19.85-.36,1.7-.53,2.56-.05-.63,0-1.3-.13-1.86-.25-1.03-1.29-1.83-2.12-2.41-.06-.04-.12-.09-.19-.13-.07-.05-.14-.1-.21-.15,0-.02,0-.05-.01-.07-.46-2.37-1.2-4.71-2.4-6.8-.66-1.15-1.48-2.32-2.44-3.33-.05-.09-.11-.17-.16-.26.08.07.16.13.24.19.02.02.05-.02.02-.04-.12-.09-.23-.2-.33-.32.08-.03.14-.13.06-.21-.14-.12-.24-.27-.36-.4-.1-.11-.23-.21-.37-.26-.29-.33-.62-.61-1.01-.84-.58-.37-1.2-.68-1.85-.9-.52-.18-1.04-.31-1.57-.41-.65-.15-1.31-.25-1.99-.28-.25,0-.51,0-.77,0-1.17.06-2.28.31-3.37.66-.89.27-1.76.6-2.6.97-.92.4-1.86.79-2.74,1.27-.64.32-1.23.71-1.77,1.2-.17.15-.33.32-.49.48,0,0,0,.01-.01.02-.1.09-.2.18-.29.27-.02.02-.02.04,0,.06-.05.05-.09.1-.14.16,0,0,0,0,0,0-.13.16-.26.32-.38.49,0,0-.01.02-.02.03-.07.1-.14.21-.21.32-.04.06-.07.12-.11.18C.38,6.71-.06,7.42,0,8.14c0,0,0,.02.02.02,0,0,.02,0,.02-.02,0-.22.07-.44.17-.65-.04.17-.05.35,0,.55,0,0,0,.01.02.01,0,0,.01,0,.02-.01.26-.91.96-1.48,1.83-1.8.37-.13.72-.24,1.11-.26.36-.02.74-.02,1.09-.1.61-.14.93-.42,1.12-1,.07-.22.19-.78.48-.83.76-.14-.12.87-.35,1.19-.26.12-.27.24-.32.72,0,0,0,.01,0,.01,0,0,.01,0,.02,0,.26-.37.56-.47.88-.47.24,0,.5.06.77.12.09.02.18.04.27.05.55.08,1.05-.06,1.34-.56.19-.34.35-.8.74-.96.28-.11,0,.5,0,.51-.08.12-.18.23-.26.35-.15.21-.27.43-.23.63-.14.1-.24.25-.29.46,0,0,.01-.01.02-.02.17-.18.38-.26.6-.25.1-.02.2-.03.3-.03.3,0,.62.08.94.15.42.1,1.03.3,1.44.07.47-.26.62-.84.98-1.2.16-.17.51-.14.34.15-.07.11-.13.22-.21.33-.15.23-.31.46-.45.7-.38.05-.83.22-.67.64,0,.02.02.02.04,0,.16-.13.27-.23.43-.29,0,0,0,0,0,0,0,0,0,.02,0,.02,0,0,.01,0,.02,0,.02-.01.03-.03.04-.05.05-.01.11-.02.19-.02.3,0,.6.04.9.09.35.07.74.18,1.12.16.12,0,.25-.03.36-.07.6-.21.8-.74,1.23-1.16.09-.09.19-.18.3-.24.05.03.09.07.11.1.08.11.06.22-.07.34-.11.16-.23.32-.32.5-.12.21-.19.42-.24.64-.33,0-.64.1-.63.5,0,.02.03.03.04.01.42-.66,1.68.22,2.21.29.54.07,1.14.09,1.63-.18.51-.28.8-.69,1-1.23.12-.31.22-.65.38-.94.15-.26.33-.38.55-.39.13,0,.27.03.43.1.04.05.08.09.12.14.9,1.12,1.66,2.35,2.26,3.7.7,1.59,1.21,3.25,1.55,4.95-.04-.03-.08-.05-.13-.08-.02-.01-.05-.03-.07-.04-.18-.11-.37-.21-.56-.3-.02,0-.03-.01-.05-.02-.2-.09-.4-.16-.6-.21-.01,0-.03,0-.04,0-.2-.04-.41-.06-.61-.05-.02,0-.03,0-.05,0-.09,0-.19.02-.28.04,0,0-.01,0-.02,0-.01,0-.02,0-.03,0-.1.03-.19.06-.29.11-.02.01-.05.02-.07.03-.02,0-.04.02-.06.03,0,0-.01,0-.02,0-.03.01-.05.03-.07.04-.06.03-.12.07-.18.11-.02.01-.04.02-.06.04-.04.03-.07.06-.11.09-.05.04-.09.07-.14.11-.02.02-.04.03-.06.05,0,0,0,0,0,0-.03.03-.06.06-.08.09-.02.02-.05.05-.07.07-.04.04-.08.08-.11.13-.34-.27-.79-.45-1.15-.53-.68-.16-1.38-.15-2.06.02-.73.19-1.42.52-2.02.97-.57.43-1.25,1.03-1.48,1.74-.22.22-.39.49-.48.81,0,.01,0,.02.02.02.73-.48,1.16-1.21,2.15-1.11.12.01.22.03.33.06.21.09.41.17.62.24,0,0,0,0,0,0,.3.17.55.4.78.68-.13.03-.5-.18-.54-.2-.17-.1-.44-.29-.65-.25-.47.08-.88.29-1.36.35-.3.04-.61.1-.86.3-.69.55-1.05,1.37-1.19,2.23-.14.85.02,1.68.02,2.52-.05-.01-.1-.03-.15-.03-1.17-.19-2.53.01-3.56.61-.09.06-.09.18,0,.24.37.25-.33-.04-.44-.06-.31-.04-.58-.02-.87.09-.72.26-1.34.93-1.81,1.5,0,0,0,0,0,0-.12.08-.24.18-.35.3-.01.01,0,.03.02.02.29-.29,1.43-.53,1.59-.03-.66-.15-1.43.08-1.93.52-.3.27-.55.59-.78.93-.33.49-.71.94-1.03,1.43,0,.01,0,.03.02.02.2-.13.39-.25.56-.39-.06.06-.1.11-.13.17-.01.02.02.05.04.03.1-.1.23-.16.36-.21.09-.04.18-.07.28-.09.25-.08.34.03.28.31-.24.12-.51.15-.76.25-.43.16-.95.53-1.1.99-.08.23-.1.47-.06.71.03.22.12.45.11.67-.01.2-.06.41-.05.62.02.35.09.62.23.94.15.35.14.77.19,1.15,0,.05.08.04.1,0,.04-.1.07-.2.09-.29,0,0,.01-.01.01-.02.07-.5.21-1.12.48-1.55.1-.15.48-.28.36.07-.07.21-.21.38-.31.58-.21.43-.2,1.03-.14,1.5.12,1,.74,1.5,1.33,2.25.37.47.45,1.09.82,1.56.06.08.12.16.17.24.01.02.03.04.04.07.03.06.07.11.09.17.01.02.02.05.03.07.02.05.04.11.06.16,0,.03.01.05.02.08.01.05.02.11.02.16,0,.03,0,.05,0,.08,0,.06,0,.12-.02.18,0,.02,0,.04,0,.07-.02.08-.05.17-.09.26-.03.08-.08.16-.13.24-.02.03.02.07.05.05.03-.02.05-.05.08-.07,0,0,0,0,0,0,.04-.03.06-.06.09-.08.04-.03.08-.07.11-.1.07-.07.12-.15.16-.24.19-.2.33-.46.41-.72.15-.49.18-1.13.56-1.52.4-.41,1.58-.57,1.54-1.29-.02-.35-.2-.65-.29-.98-.05-.19-.11-.42-.03-.61.02-.05.49-.73.52-.48.03.2.02.39.02.58-.02.41.02.83.12,1.22.11.45.38,1.1.39,1.67-.07.1-.13.2-.15.3-.02.06.06.13.11.08-.03.13-.09.25-.17.36-.04.05.02.1.06.07.26-.2.38-.45.41-.73.08-.07.17-.13.27-.18.11-.06.26-.15.39-.13.24.03.03.54-.04.61-.33.32-.79.51-.82,1.03-.04.69.1,1.5.48,2.09.36.56.93,1.03.82,1.77,0,.06.09.09.12.03.14-.25.17-.46.13-.66,0,0,0,0,0,0,.14-.34.33-.73.55-1.03.03-.04.16-.17.15-.2.1.21.05.43-.06.63-.14.25-.31.5-.41.77-.24.67.06,1.3.32,1.91.21.49.33,1.06.31,1.6-.02.39-.12.76-.18,1.15-.01.02,0,.05,0,.07.03.06.13.09.18.02.08-.11.14-.23.19-.36.68-.89,1.49-1.41,2.66-1.45.71-.02,1.77-.02,2.14-.78.27-.57-.25-1.18-.35-1.72-.08-.44.38-.17.54,0,.13.15.29.32.35.52.18.6-.19,1.18-.46,1.7-.01.03,0,.06.04.05.18-.03.33-.15.45-.3.02,0,.04,0,.06-.02.36-.32.68-.67,1.03-1,.27-.26.59-.54.76-.89.29-.59.25-1.19-.18-1.71-.2-.24-.45-.44-.65-.68-.46-.57.34-.26.59-.07.83.61.72,1.37.49,2.27,0,.01.01.02.02.01.21-.22.37-.49.44-.77.02.02.05.03.09.02.57-.27.83-.79.95-1.39.13-.66-.23-1.1-.42-1.69-.05-.16-.21-.85.12-.55.18.16.33.35.45.55.14.24.28.49.24.78-.04.29-.11.55-.02.83.01.05.07.04.09,0,.06-.13.1-.26.14-.38ZM25.99,21.91s-.05-.02-.07-.04c-.19-.13-.34-.59.05-.45,0,0,.01,0,.02,0,0,.16,0,.32,0,.48ZM27.72,22.99c-.12.03-.24.06-.36.11-.22-.32-.44-.68-.78-.88-.06-.03-.12-.06-.17-.09,0-.15,0-.3,0-.45.49.41.92.84,1.31,1.31ZM25.91,18.04c-.07-.05-.14-.11-.19-.18-.16-.21-.15-.62.14-.61.02.26.03.52.05.79ZM13.89,21.77c.7-.82,1.33-1.83,2.56-1.8.06,0,.82.08.4.41-.1.08-.21.14-.33.19-.18.08-.37.15-.55.22-.4.17-.79.34-1.15.59-.24.17-.39.36-.5.56-.07-.03-.13-.06-.2-.08-.03-.01-.07-.02-.1-.04-.04-.01-.08-.03-.13-.04ZM28.36,19.09c-.03.14-.06.28-.08.43-.05-.06-.09-.11-.14-.16-.02-.03-.05-.05-.08-.08-.11-.1-.22-.2-.34-.29-.39-.28-.82-.47-1.26-.66-.04-.02-.09-.04-.14-.06-.01-.3-.04-.59-.06-.89.74.34,1.52.88,2.05,1.55.02.05.04.11.06.16ZM38.2,17.5c-.16.1-.31.21-.44.34-.2-.24-.43-.47-.7-.7-.11-.1-1.19-1.05-.88-1.18.07-.03.15-.05.23-.05.26.01.52.17.71.31.48.35.85.79,1.08,1.29ZM31.91,22.73c-.74.03-1.56.43-1.92,1.05-.03-.03-.06-.06-.1-.09-.03-.02-.05-.05-.08-.07-.05-.05-.1-.09-.15-.13-.05-.04-.1-.08-.16-.12-.05-.04-.09-.07-.14-.1-.06-.04-.13-.07-.19-.11-.04-.02-.08-.05-.13-.07-.11-.05-.22-.08-.33-.11-.05,0-.1-.01-.14-.02.01-.1.02-.2.04-.3.1-.48.23-.96.25-1.45,0-.11,0-.23,0-.34,0-.01,0-.02,0-.03-.01-.1-.03-.2-.05-.29,0-.01,0-.03-.01-.04-.02-.09-.05-.18-.08-.27-.01-.03-.03-.07-.05-.1-.03-.06-.05-.12-.08-.17.02-.14.05-.27.07-.41.07.08.16.15.26.22.02,0,.03-.01.02-.02-.09-.1-.16-.21-.22-.32,0,0,0-.02,0-.03,0-.03-.02-.05-.02-.07.17-1.02.37-2.04.58-3.06.14.2.26.41.35.65.01.03.05.04.08.03.03.01.07,0,.07-.04-.02-.17-.05-.33-.1-.48.02-.01.03-.03.04-.05.18-.63.01-1.65.56-2.12.07-.06.25-.15.39-.15.08.01.13.07.1.2-.03.14-.08.28-.13.41-.12.29-.27.57-.36.87-.27.91-.07,1.82.51,2.57.27.35.59.66.89.98.34.37.58.79.86,1.2.01.02.03.01.04,0,0,0,0,0,0,0,.01.02.05.02.05-.01,0-.16-.03-.31-.07-.45.02,0,.05-.01.05-.04.18-.84-.13-1.79.2-2.59.08-.19.15-.27.23-.29.2.03.35.54.32.8-.04.38-.18.73-.28,1.09-.17.61-.19,1.21.09,1.79.03.07.06.13.1.2-.54.58-.99,1.21-1.35,1.89ZM24.69,33.92c0-.25,0-.49-.02-.74.13-.1.26-.17.41-.19.41-.05.16.23.01.43-.12.16-.27.32-.41.49Z" style="fill:#000; stroke-width:0px;"/></g></svg>