<?xml version="1.0" encoding="UTF-8"?><svg id="Layer_2" xmlns="http://www.w3.org/2000/svg" viewBox="0 0 63.65 46.43"><g id="Layer_1-2"><path d="M40.47,38.61s.07.04.09,0c.09-.29.02-.54-.02-.83-.04-.29.1-.54.25-.78.13-.2.28-.39.45-.55.33-.31.17.38.12.55-.19.59-.55,1.03-.42,1.69.12.6.38,1.12.95,1.39.03.02.07,0,.09-.02.08.28.23.55.44.77,0,.01.03,0,.02-.01-.23-.89-.33-1.66.49-2.27.26-.19,1.05-.5.59.07-.2.24-.45.44-.65.68-.43.52-.46,1.12-.18,1.71.17.34.49.63.76.89.34.33.67.68,1.03,1,.02.02.04.02.06.02.12.15.27.27.45.3.03,0,.05-.02.04-.05-.27-.52-.64-1.1-.46-1.7.06-.19.23-.37.35-.52.16-.18.62-.45.54,0-.1.54-.62,1.15-.35,1.72.36.76,1.43.76,2.14.78,1.17.03,1.98.56,2.66,1.45.05.13.11.25.19.36.05.08.16.04.18-.02,0-.02.01-.04,0-.07-.06-.39-.16-.75-.18-1.15-.02-.54.1-1.11.31-1.6.26-.61.56-1.24.32-1.91-.1-.27-.27-.52-.41-.77-.11-.2-.15-.41-.06-.63-.02.04.12.16.15.2.21.3.41.68.55,1.03,0,0,0,0,0,0-.04.2-.01.42.13.66.03.05.13.03.12-.03-.11-.74.46-1.2.82-1.77.38-.59.52-1.4.48-2.09-.03-.52-.49-.71-.82-1.03-.07-.07-.28-.58-.04-.61.13-.02.28.07.39.13.1.05.18.11.27.18.04.28.16.53.41.73.05.04.1-.02.06-.07-.09-.11-.14-.23-.17-.36.05.04.13-.02.11-.08-.03-.1-.08-.2-.15-.3.01-.57.27-1.22.39-1.67.1-.39.14-.81.12-1.22,0-.19,0-.37.02-.58.03-.25.5.43.52.48.08.19.02.42-.03.61-.09.33-.27.63-.29.98-.04.73,1.14.88,1.54,1.29.38.39.41,1.03.56,1.52.08.27.22.52.41.72.04.08.1.16.16.24.03.04.08.07.11.11.03.03.06.06.09.08,0,0,0,0,0,0,.03.02.05.05.08.07.03.02.07-.02.05-.05-.05-.08-.09-.16-.13-.24-.04-.09-.07-.17-.09-.26,0-.02,0-.04,0-.07-.01-.06-.02-.12-.02-.18,0-.03,0-.05,0-.08,0-.05.01-.11.02-.16,0-.03.01-.05.02-.08.02-.05.04-.11.06-.16.01-.02.02-.05.03-.07.03-.06.06-.11.09-.17.01-.02.02-.04.04-.07.05-.08.11-.16.17-.24.36-.47.45-1.09.82-1.56.59-.75,1.21-1.25,1.33-2.25.05-.47.07-1.07-.14-1.5-.1-.2-.23-.36-.31-.58-.12-.36.26-.23.36-.08.27.43.41,1.05.48,1.55,0,.01,0,.02.01.02.02.1.05.19.09.29.02.04.09.05.1,0,.05-.38.04-.8.19-1.15.14-.32.21-.59.23-.94.01-.2-.03-.41-.05-.62-.01-.22.08-.45.11-.67.04-.24.01-.48-.06-.71-.15-.46-.66-.82-1.1-.99-.25-.09-.52-.13-.76-.25-.07-.28.02-.39.28-.31.1.02.19.05.28.09.13.05.25.11.36.21.02.02.05,0,.04-.03-.03-.06-.07-.11-.13-.17.17.14.35.27.56.39.01,0,.03,0,.02-.02-.32-.49-.7-.94-1.03-1.43-.22-.34-.47-.66-.78-.93-.5-.45-1.26-.68-1.93-.52.17-.5,1.31-.27,1.59.03.01.01.03,0,.02-.02-.11-.12-.23-.22-.35-.3,0,0,0,0,0,0-.47-.57-1.09-1.24-1.81-1.5-.29-.11-.56-.13-.87-.09-.11.01-.8.3-.44.06.09-.06.09-.19,0-.24-1.03-.6-2.39-.8-3.56-.61-.05,0-.1.02-.15.03,0-.84.16-1.67.02-2.52-.14-.86-.5-1.68-1.19-2.23-.24-.2-.55-.26-.86-.3-.48-.06-.89-.27-1.36-.35-.22-.04-.48.15-.65.25-.05.03-.41.23-.54.2.22-.28.48-.51.78-.68,0,0,0,0,0,0,.21-.07.42-.16.62-.24.11-.03.21-.05.33-.06.99-.1,1.42.63,2.15,1.11.01,0,.02,0,.02-.02-.09-.32-.26-.59-.48-.81-.23-.71-.91-1.3-1.48-1.74-.6-.46-1.29-.78-2.02-.97-.67-.18-1.38-.18-2.06-.02-.36.08-.81.27-1.15.53-.04-.05-.07-.09-.11-.13-.02-.03-.05-.05-.07-.07-.03-.03-.05-.06-.08-.09,0,0,0,0,0,0-.02-.02-.04-.03-.06-.05-.04-.04-.09-.08-.14-.11-.04-.03-.07-.06-.11-.09-.02-.01-.04-.02-.06-.04-.06-.04-.12-.07-.18-.11-.03-.01-.05-.03-.07-.04,0,0-.01,0-.02,0-.02,0-.04-.02-.06-.03-.02-.01-.05-.02-.07-.03-.09-.04-.19-.08-.29-.11-.01,0-.02,0-.03,0,0,0-.01,0-.02,0-.09-.02-.19-.04-.28-.04-.02,0-.03,0-.05,0-.2-.01-.41,0-.61.05-.01,0-.03,0-.04,0-.2.05-.4.12-.6.21-.02,0-.03.01-.05.02-.19.09-.38.19-.56.3-.02.01-.05.03-.07.04-.04.03-.09.05-.13.08.34-1.7.84-3.37,1.55-4.95.6-1.35,1.36-2.57,2.26-3.7.04-.05.08-.09.12-.14.15-.07.29-.1.43-.1.22.01.4.13.55.39.17.29.26.63.38.94.2.54.49.95,1,1.23.49.27,1.1.25,1.63.18.53-.07,1.78-.96,2.21-.29.01.02.04.01.04-.01,0-.4-.3-.51-.63-.5-.05-.22-.13-.43-.24-.64-.09-.17-.21-.33-.32-.5-.12-.12-.15-.24-.07-.34.03-.03.06-.07.11-.1.11.06.21.14.3.24.43.42.63.94,1.23,1.16.12.04.24.06.36.07.37.02.77-.09,1.12-.16.3-.06.6-.1.9-.09.07,0,.13.01.19.02.01.02.03.03.04.05,0,0,.01,0,.02,0,0,0,0-.01,0-.02,0,0,0,0,0,0,.16.05.27.16.43.29.01,0,.03,0,.04,0,.16-.42-.29-.59-.67-.64-.14-.24-.29-.47-.45-.7-.07-.11-.14-.21-.21-.33-.17-.29.18-.31.34-.15.36.37.51.94.98,1.2.41.23,1.03.03,1.44-.07.32-.08.64-.16.94-.15.1,0,.2.01.3.03.22,0,.43.07.6.25,0,0,.01.01.02.02-.05-.21-.15-.36-.29-.46.04-.19-.08-.41-.23-.63-.09-.12-.18-.23-.26-.35,0,0-.28-.62,0-.51.39.16.54.62.74.96.29.5.79.64,1.34.56.09-.01.18-.03.27-.05.27-.05.53-.12.77-.12.32,0,.62.1.88.47,0,0,.01,0,.02,0,0,0,.01,0,0-.01-.04-.48-.06-.6-.32-.72-.23-.32-1.11-1.33-.35-1.19.29.05.41.61.48.83.18.58.51.86,1.12,1,.35.08.73.08,1.09.1.39.02.74.13,1.11.26.87.31,1.56.89,1.83,1.8,0,0,0,.01.02.01,0,0,.01,0,.02-.01.04-.2.03-.38,0-.55.1.21.18.42.17.65,0,.01,0,.02.02.02,0,0,.02,0,.02-.02.06-.72-.38-1.42-.73-2.02-.03-.06-.07-.12-.11-.18-.07-.11-.14-.21-.21-.32,0,0-.01-.02-.02-.03-.12-.17-.25-.33-.38-.49,0,0,0,0,0,0-.04-.05-.09-.1-.14-.16.01-.02.01-.04,0-.06-.1-.09-.19-.18-.29-.27,0,0,0-.01-.01-.02-.16-.17-.32-.33-.49-.48-.54-.49-1.13-.88-1.77-1.2-.88-.48-1.83-.88-2.74-1.27-.85-.37-1.72-.7-2.6-.97-1.09-.35-2.2-.6-3.37-.66-.26-.01-.51-.02-.77,0-.68.02-1.34.12-1.99.28-.53.1-1.06.24-1.57.41-.65.22-1.27.53-1.85.9-.39.23-.72.51-1.01.84-.14.05-.27.16-.37.26-.13.13-.23.28-.36.4-.08.08-.03.18.06.21-.1.12-.21.23-.33.32-.02.02,0,.06.02.04.08-.06.16-.13.24-.19-.05.09-.1.17-.16.26-.97,1-1.78,2.18-2.44,3.33-1.21,2.1-1.95,4.44-2.4,6.8,0,.02,0,.05-.01.07-.07.05-.14.1-.21.15-.06.04-.13.09-.19.13-.84.57-1.87,1.38-2.12,2.41-.14.56-.08,1.23-.13,1.86-.17-.86-.35-1.71-.53-2.56.38-.45.84-.84,1.25-1.25.61-.6,1.21-1.44,1-2.35-.12-.5-.39-.9-.75-1.26-.36-.36-.84-.57-1.2-.92-.19-.18-.24-.52.04-.64.03-.01.06-.02.1-.02.11,0,.24.05.33.08.36.11.61.44.79.75.29.48.43,1.03.73,1.5.03.04.06.04.09.03.02,0,.03,0,.05,0,.04.11.1.22.2.32.02.02.04.02.06,0,.04.02.08-.02.07-.06-.21-1.15.57-2.13.44-3.27-.13-1.14-1.01-1.98-1.91-2.57-.72-.47-1.47-.89-2.3-.94-.27-.02-.55,0-.84.07-.47.12-.86.41-1.17.78,0-.02-.01-.04-.02-.06,0-.03-.01-.06-.02-.09,0-.03-.02-.05-.03-.08-.01-.03-.03-.07-.04-.1-.01-.03-.03-.06-.05-.09-.02-.03-.03-.06-.05-.09-.17-.29-.41-.54-.63-.69-.32-.23-.72-.3-1.13-.3-.68,0-1.41.23-1.96.42-.97.34-1.87.88-2.54,1.66-.78.91-1.14,2.22-1.44,3.36-.01.05,0,.08.03.11-.07.21-.1.43-.09.68,0,.05.04.1.1.09.01,0,.02,0,.03,0,0,0,0,0,.01,0,.02,0,.03,0,.05,0,.07,0,.1-.07.08-.13,0-.02-.01-.04-.02-.07,0,0,0,0,.01,0,.06-.28.12-.54.26-.79.28-.5.95-.87,1.42-1.18.46-.31,1.01-.65,1.57-.68.07,0,.14,0,.22.01.27.04.47.23.48.5.02.36-.35.62-.61.79-.93.6-2.13.74-2.8,1.71-.7,1.01-.6,2.17-.48,3.33-.04.29-.03.58.06.86,0,.02.03.01.03,0,0,0,0-.02,0-.03,0,.01,0,.02,0,.03,0,.02.03.01.03,0,0-.13.01-.25.03-.38.04,0,.08-.03.08-.08,0-.12.01-.23.02-.35.3-.98,1.08-1.89,1.9-2.42.23-.15.49-.26.77-.27.31,0,.55.21.34.49-.25.33-.67.55-1.02.76-.83.48-1.48,1.11-1.78,2.05-.21.64-.16,1.33,0,2-.35-.06-.7-.08-1.05-.04-.82.09-1.5.43-2.11.97-.46.41-.87.86-1.34,1.23-.11.04-.22.09-.32.15-.03.02-.04.04-.04.06,0,.01,0,.03,0,.04-.24.16-.5.29-.79.39-.03,0-.03.03-.02.04,0,.02,0,.04.03.04.51.05.95-.19,1.34-.5.21-.04.43-.08.64-.1.16-.01.31.02.45.09,0,.04.01.07,0,.1,0,.09-.07.14-.18.13-.2.05-.42.08-.62.12-.78.14-1.41.35-1.97.94-.45.48-.62,1.1-.95,1.65-.18.3-.38.59-.6.87-.16.21-.32.55-.56.67-.01,0,0,.01,0,.02,0,0,0,0,0,0-.02,0,0,.03.01.02.13-.07.26-.15.37-.24.02.07.1.13.19.08.54-.29,1.12-.63,1.74-.67.12-.01.25.04.25.14,0,.03-.02.07-.06.12-.12.14-.39.18-.56.22-.36.08-.73.1-1.08.18-.72.16-1.11,1.11-1.33,1.73-.19.5-.23,1.04-.41,1.55-.18.52-.5.98-.7,1.49,0,0,0,0,0,.01,0,0,0,0,0,.01,0,.02.02.03.04.02.23-.21.43-.47.6-.74.47-.36.88-.93,1.49-.98-.07.33-.64.53-.83.79-.28.39-.54.84-.7,1.29-.17.48-.26.99-.3,1.51,0,0,0,.01,0,.02,0,0,0,0,0,0-.02.25.02.49.05.73.02.11.05.21.09.31.04.1.08.19.11.29-.01.04-.02.08-.02.13,0,0,0,0,0,0,0,.02,0,.03,0,.05,0,.27.13.55.24.83.04.1.07.2.09.29,0,.02.03.01.03,0,0,0,0-.01,0-.02,0,0,0,0,0,0-.02-.18-.05-.35-.07-.52,0-.03,0-.07-.01-.1,0-.04,0-.07,0-.11,0-.01,0-.02,0-.03,0-.04,0-.08,0-.12,0-.02,0-.03,0-.05,0,0,0,0,0,0,0-.07.02-.13.04-.19.06-.16.17-.3.38-.42.38-.21.39-.78.67-1.09.29-.31.83-.38,1.21-.5.4-.12.79-.26,1.14-.47.41-.25.69-.72.64-1.18-.01-.16-.06-.32-.16-.47-.09-.15-.2-.28-.3-.43-.05-.08-.1-.17-.14-.27,0,0,0,0,0,0,0,0,0,0,0,0,.01-.01.06,0,.12.02.1.04.24.12.26.14.46.42.51.92.69,1.47-.07.13-.11.28-.1.46,0,0,0,0,0,0,0,0,0,.01,0,.02,0,.02.04.04.05.02.19-.24.34-.45.6-.62.24-.16.54-.24.81-.35.55-.23.95-.63,1.27-1.11.29-.43.35-.86.36-1.32,0-.03,0-.05,0-.08,0-.03,0-.05,0-.08v-.06c0-.09,0-.17,0-.26,0-.13.02-.26.04-.38,0-.02.04.03.09.1.11.18.28.52.28.51.03.12.05.23.04.35-.01.36-.18.72-.32,1.04-.12.14-.23.29-.33.45,0,0,0,.01,0,.02,0,0,0,0,0,0-.01.02.01.03.03.02.1-.09.21-.19.32-.29.02.01.05,0,.08-.02.04-.04.07-.08.1-.12.19-.15.39-.28.59-.34.32-.09.54-.21.81-.42.39-.3.99-.19,1.33-.53.18-.18.31-.39.37-.64.06-.24.25-.55.21-.81,0,0,0,0,0,0,0,0,0-.01,0-.02-.03-.17-.1-.33-.09-.49,0-.06.01-.11.04-.17,0-.01.13.27.14.31.08.26.07.51.07.78,0,.02,0,.03.01.05-.09.15-.13.34-.13.59,0,0,0,0,0,0,0,0,0,.01,0,.02,0,.03.04.03.04,0,.17-.55.49-.68,1-.81.43-.11.89-.21,1.24-.49.49-.38.65-.61.96-1.01.15-.32.23-.69.27-1.08.02-.21.03-.42.03-.63h0c.36.41.69.86.96,1.33-.03,0-.05,0-.08,0-.51.11-.96.34-1.35.66.07-.1-.43.49-.8.83-.37.47-.69.99-.97,1.48-.05.09-.1.19-.15.28-.78-.19-1.76.03-2.46.24-.81.25-1.61.66-2.26,1.2-.31.25-.56.52-.81.83-.26.31-.59.73-1.03.75-.01,0-.01.01,0,.02.35.12.62-.01.86-.22.35-.03.71-.05,1.05.02.57.12-.04.26-.23.25-.18,0-.36,0-.54.02-.53.06-1.07.24-1.49.59-.48.41-.76.93-1.08,1.47-.41.7-1.05,1.26-1.42,1.98-.01.02.01.04.03.03.19-.1.36-.23.52-.37.48-.23.94-.5,1.44-.67.12-.04.24-.07.37-.07.15-.01.18.08.11.28-.08.06-.19.08-.28.11-.26.08-.53.09-.8.15-.69.15-1.19.68-1.46,1.32-.17.41-.27.96-.45,1.44-.07.11-.12.23-.16.35-.1.18-.22.33-.38.45-.02.02,0,.05.02.03.35-.17.57-.46.73-.78.07-.09.15-.18.24-.26.24-.22.56-.3.88-.32.22,0,.12.11.02.22-.03.03-.06.06-.1.09-.47.12-.93.3-1.21.73-.21.33-.3.7-.41,1.07-.16.52-.49,1-.75,1.48-.02.03.02.07.05.05.14-.11.27-.24.38-.38.21-.15.46-.26.68-.4.08-.05.86-.46.87-.38.04.4-.58.6-.86.72-.27.12-.48.29-.58.57-.14.37.11.78.32,1.06.22.28.4.49.45.85.02.16.03.33.1.48.22.49.75.83,1.12,1.21.26.27.48.57.67.9.04.06.06.13.09.2.01.04.03.07.04.11.01.05.03.1.04.15.01.06.03.12.04.18.01.05.02.11.04.16.02.09.05.17.08.25.04.1.18.07.18-.03,0,0,0,0,0,0,0-.05,0-.1-.01-.15,0-.1.02-.22.02-.3h0c0,.06-.01.11-.03.14,0-.08-.01-.15-.02-.22.04-.37.13-.72.35-1.06.29-.45.74-.8,1.09-1.2.51-.6,1.3-1.47,1.2-2.33-.03-.27-.16-.53-.24-.79-.06-.16-.12-.35-.1-.52.04-.36.46.14.49.19.26.47.26,1.21.27,1.75-.04.11-.07.23-.1.35,0,.02.02.03.03.01.04-.09.08-.17.12-.25.03,0,.07,0,.08-.05,0-.04.01-.08.02-.12.63-.94,1.81-1.45,1.97-2.68.08-.6-.17-1.08-.49-1.56-.19-.29.14-.56.39-.34.15.13.24.32.32.49.12.24.23.5.31.76-.03.15-.01.3.06.46,0,.01.02,0,.02,0,.16-.4.35-.72.65-1.04.22-.24.42-.47.58-.76.22-.39.24-.85,0-1.23-.1-.17-.21-.34-.3-.52-.05-.09-.08-.18-.1-.28-.1-.35.39-.06.47.05.05.08.1.16.13.25,0,.03.01.05.02.08.13.89-.04,1.93.33,2.77.03.25.11.49.27.73.01.02.04,0,.04,0-.06-.56-.07-1.12.17-1.64.22-.49.61-.81.94-1.21.11-.14.25-.26.38-.37.08-.07.17-.13.26-.18.27-.17.47.08.33.34-.24.43-.67.8-.99,1.17-.52.59-.89,1.26-.64,2.05.25.8.9,1.49,1.5,2.07.05.38.35.54.64.82.02.02.04,0,.03-.02-.06-.37-.37-.59-.36-.98.01-.42.16-.87.43-1.2.01-.01.03-.03.05-.05,0,0,.01,0,.02-.01.02-.02.05-.03.08-.05,0,0,.01,0,.02-.01.03-.02.07-.04.11-.05,0,0,0,0,0,0,.03-.01.07-.02.09-.02.07,0,.12.02.12.11.02.18-.12.4-.19.56-.14.29-.31.57-.39.88-.06.22.02.44.16.64h0s0,0,0,0c.21.29.55.54.83.73,0,0,.01,0,.02.01.09.06.17.11.24.16.98.64,1.97,1.12,2.79,1.99.06.16.17.3.38.4.03.01.06,0,.05-.04-.03-.1-.05-.18-.07-.27,0-.03-.01-.07-.02-.1,0-.06-.02-.12-.02-.18,0-.03,0-.07,0-.1,0-.06,0-.12.02-.18,0-.03,0-.06.01-.09.02-.09.05-.19.1-.29.16-.36.41-.68.63-1.01.47-.71.87-1.33.94-2.2.03-.37-.06-.72-.23-1.04-.06-.11-.13-.21-.2-.31-.1-.12-.08-.24.06-.38.08.04.14.13.18.2.26.38.42.99.46,1.46-.07.17-.07.35.04.58,0,.01.03,0,.02,0,0-.46.54-.94.82-1.27.24-.29.49-.6.63-.96.1-.25.2-.5.29-.76.22.84.58,1.62,1.09,2.26.04.12.09.25.14.38ZM37.66,21.43s.01,0,.02,0c.39-.14.24.32.05.45-.02.01-.04.02-.07.04,0-.16,0-.32,0-.48ZM37.25,21.68c0,.15,0,.3,0,.45-.06.03-.12.06-.17.09-.33.2-.56.56-.78.88-.12-.04-.24-.08-.36-.11.39-.47.82-.9,1.31-1.31ZM37.79,17.25c.29,0,.3.4.14.61-.05.07-.12.12-.19.18.01-.26.03-.52.05-.79ZM49.64,21.81s-.07.02-.1.04c-.07.03-.13.05-.2.08-.1-.2-.26-.39-.5-.56-.36-.25-.75-.42-1.15-.59-.18-.08-.37-.15-.55-.22-.12-.05-.23-.11-.33-.19-.42-.33.33-.41.4-.41,1.23-.03,1.85.98,2.56,1.8-.04.01-.08.03-.13.04ZM35.35,18.93c.52-.68,1.31-1.21,2.05-1.55-.02.3-.04.59-.06.89-.05.02-.1.04-.14.06-.44.19-.86.38-1.26.66-.12.09-.24.19-.34.29-.03.02-.05.05-.08.08-.05.05-.1.11-.14.16-.03-.14-.06-.28-.08-.43.02-.05.04-.1.06-.16ZM26.53,16.21c.19-.14.46-.29.71-.31.08,0,.16.01.23.05.31.14-.77,1.09-.88,1.18-.27.23-.5.46-.7.7-.13-.13-.28-.24-.44-.34.23-.5.6-.94,1.08-1.29ZM30.39,20.83c.03-.07.06-.13.1-.2.28-.58.25-1.18.09-1.79-.1-.37-.24-.71-.28-1.09-.03-.26.12-.77.32-.8.07.02.15.1.23.29.33.81.02,1.75.2,2.59,0,.03.03.04.05.04-.04.14-.07.29-.07.45,0,.03.04.03.05.01,0,0,0,0,0,0,.01.01.03.02.04,0,.28-.41.52-.83.86-1.2.3-.33.62-.63.89-.99.58-.75.78-1.66.51-2.57-.09-.3-.24-.58-.36-.87-.06-.13-.1-.27-.13-.41-.03-.13.02-.19.1-.2.13,0,.31.09.39.15.55.46.38,1.49.56,2.12,0,.03.02.04.04.05-.05.15-.09.31-.1.48,0,.04.04.05.07.04.03.01.06,0,.08-.03.09-.23.21-.45.35-.65.21,1.02.41,2.04.58,3.06,0,.03-.02.05-.02.07,0,.01,0,.02,0,.03-.06.11-.13.22-.22.32-.01.01,0,.03.02.02.1-.06.18-.14.26-.22.02.14.05.27.07.41-.03.06-.05.11-.08.17-.01.03-.03.07-.05.1-.03.09-.06.18-.08.27,0,.01,0,.03-.01.04-.02.1-.04.19-.05.29,0,.01,0,.02,0,.03,0,.11-.01.22,0,.34.03.49.16.97.25,1.45.02.1.03.2.04.3-.05,0-.09,0-.14.02-.11.02-.22.06-.33.11-.04.02-.08.05-.13.07-.06.03-.13.07-.19.11-.05.03-.1.07-.14.1-.05.04-.1.08-.16.12-.05.04-.1.09-.15.13-.03.02-.05.05-.08.07-.03.03-.07.06-.1.09-.36-.63-1.18-1.02-1.92-1.05-.36-.68-.82-1.31-1.35-1.89ZM38.55,33.43c-.15-.21-.4-.49.01-.43.15.02.29.09.41.19-.02.24-.02.49-.02.74-.14-.17-.3-.33-.41-.49Z" style="fill:#000; stroke-width:0px;"/><path d="M0,16.79c.21,0,.42-.02.62-.02.02,0,.04.02.06.03.41.2.72.53,1.03.92.22.27.39.57.48.91.08.31.06.66.04,1h0c0,.09,0,.18-.01.26,0,.55.03,1.04.4,1.46.07.08.14.15.22.22.03.03.07.06.1.09.03.03.07.06.1.09,0,0,0,0,0,0,.18.15.36.3.5.49.35.46.11.98.03,1.49-.05.34,0,.66.15.92h0s0,0,0,0c.04.07.1.14.16.2.01.01.03.03.04.04.07.06.14.12.22.17.26.15.52.3.73.51.06.06.11.12.15.19,0,0,0,.01.01.02.04.07.07.14.09.21.06.19.07.39.08.6,0,.61.08,1.17.64,1.5,0,0,0,0,0,0,.01,0,.02.01.03.02.08.05.16.08.25.1,0,0,0,0,0,0-.14,0-.29.03-.42.04-.37.04-.64-.05-.88-.34-.16-.2-.3-.42-.52-.56-.16-.11-.35-.15-.55-.15,0,0,0,0,0,0,0,0,0,0-.01,0-.07,0-.14,0-.21.01-.1.01-.2.03-.29.05-.04,0-.09.02-.13.03-.07.02-.14.03-.21.05-.07.02-.14.03-.21.04-.03,0-.07.01-.1.02-.09.02-.18.03-.28.03-.17,0-.33-.02-.47-.08-.25-.1-.47-.28-.64-.52-.03-.04-.09,0-.06.04,0,.01.01.02.02.03,0,0,0,.02,0,.03.18.28.38.54.58.81.19.25.25.57.3.87h0s0,0,0,.01c.09.51.19,1,.66,1.28.06.04.13.07.2.1.03.01.05.02.08.03.04.02.09.03.13.05.06.02.11.04.17.05.03,0,.06.02.09.03.05.02.1.03.14.05.23.09.44.2.59.44.06.1.11.21.14.33.02.06.04.11.05.17.03.09.05.17.09.26.11.28.29.52.51.72.1.09.21.16.32.23-.39-.09-.78-.18-1.16-.29-.11-.09-.22-.18-.33-.26-.04-.03-.08-.06-.12-.09-.03-.02-.07.02-.05.05.05.07.1.14.15.2-.02-.02-.04-.03-.05-.05-.03-.03-.08,0-.06.04.2.33.51.6.81.84.64.68,1.38,1.29,2.15,1.76.24.15.5.28.77.39.03.11.06.22.09.33-.03-.07-.06-.14-.09-.21,0,0,0,0,0,0,.02.05.04.09.05.14-.02-.03-.04-.06-.06-.08,0,0-.01,0,0,0,.03.07.06.13.09.2.02.09.03.17.05.25.04.2.13.4.19.6.11.36.19.71.41,1.02.11.14.24.26.37.38.02.02.04.04.06.07-.08-.02-.16-.05-.24-.07-.15-.04-.31-.07-.46-.09-.51-.1-1.04-.13-1.54-.08-.05-.02-.17-.02-.27-.02-.06,0-.11,0-.17-.01-.03,0-.04.04-.01.04,0,0,.02,0,.03,0,0,0,0,0,0,0,0,0,0,0,0,.01-.39-.08-.79-.09-1.18-.13-.13-.04-.26-.06-.4-.07-.14,0-.28,0-.43.02,0,0,0,0-.01.01-.05,0-.1,0-.15,0,0,0,0,.02,0,.01.05,0,.11,0,.16,0,0,0,0,0,0,0,.21,0,.4.05.58.14.17.09.32.21.47.33.17.16.31.34.43.51.09.13.18.26.27.39.04.07.08.14.13.21.04.06.09.12.14.18.04.07.08.13.12.2.16.26.39.48.65.67-.23-.01-.47,0-.68.03-.3.03-.61.08-.9.16-.14.04-.27.1-.39.17-.47.14-.9.38-1.33.67-.02.01-.04.03-.06.04-.04.03-.08.05-.12.08-.05.03-.1.07-.15.11-.03.03-.07.05-.1.07-.25.19-.51.41-.69.68-.16.23-.29.49-.42.74-.12.13-.23.29-.32.45,0,.01,0,.03,0,.04-.02.02-.05.05-.07.07,0,0,0,.02.02.01,0,0,.01-.01.02-.02,0,0,.02,0,.02,0,.01,0,.02-.02.04-.02.03.02.06.02.09,0,.09-.09.18-.18.27-.26h0c.47-.28.96-.54,1.46-.76.31-.09.64-.12.96-.17.4-.07.8-.17,1.21-.19.03,0,.06,0,.09,0,.17,0,.34.01.51.02-.19.24-.36.5-.5.77-.18.33-.3.69-.42,1.05-.06.17-.1.35-.15.52-.06.22-.07.43-.11.65,0,.03.03.04.05.02,0,0,0-.01,0-.02.02-.04.04-.08.07-.11.01,0,.02,0,.03,0,0,0,.01-.02.02-.03.19-.23.33-.48.49-.73.21-.32.45-.61.72-.88.2-.2.43-.37.66-.53-.15.33-.26.67-.33,1.03-.1.49-.06.97-.07,1.46,0,.03-.02.07-.02.1,0,.02,0,.03.02.04,0,.03,0,.05,0,.08,0,0,0,0,0,0-.02.12-.04.25-.04.37,0,.02.02.02.03,0,0-.03.02-.05.03-.08.26-.71.8-1.36,1.33-1.87.57-.56,1.25-.91,1.92-1.3-.2.48-.32.99-.38,1.5-.05.44-.14.92-.13,1.37-.02.1-.04.2-.06.3,0,.02,0,.04-.01.06,0,.02.02.02.03,0,0,0,0-.01,0-.02.02.02.05.02.06,0,0-.01.01-.03.02-.04.01-.03.02-.05.04-.08.03-.06.06-.11.08-.17.23-.51.47-1,.9-1.4.43-.4.95-.67,1.4-1.05,0,.17.02.34.03.51.01.2.04.39.08.58,0,.02,0,.04.01.06,0,.06.01.11.02.17.07.42.25.89.31,1.34-.03.19-.05.37-.08.56,0,.02.03.03.03,0,.02-.11.04-.22.06-.32,0,.06,0,.12,0,.17,0,.03,0,.05-.01.08.13-.1.17-.3.24-.45.14-.29.29-.58.42-.87,0,0,0,0,0,0,.02-.03.03-.06.05-.09,0,.1-.01.2-.01.31,0,.02.01.03.03.04,0,.03,0,.06-.01.09-.03.09-.05.18-.08.27,0,0,0,0,0,0,.02-.04.03-.08.05-.12,0,.02,0,.04,0,.06,0,.02.02.04.04.02.23-.24.27-.51.37-.82,0-.02.01-.04.02-.06,0,0,0,0,0,0,.16-.26.27-.57.41-.85.12-.25.24-.51.33-.77.06-.16.11-.31.16-.46.06-.13.11-.25.16-.38.02.04.04.07.06.11.4.73.51,1.48.48,2.31,0,.26-.03.56-.08.85,0,0,0,0,0,0,0,0,0,0,0,0-.02.14-.05.28-.09.42-.16.25-.35.49-.53.73-.01.02,0,.04.03.02.1-.1.19-.21.29-.33-.05.1-.11.19-.16.29-.02.03,0,.07.04.08.02,0,.03,0,.05-.01.65-.75,1.17-1.61,1.48-2.54.2-.52.32-1.06.32-1.65,0-.11-.01-.23-.02-.34,0-.05,0-.11,0-.16-.02-.27-.06-.54-.13-.81.05.04.09.08.14.12.66.57,1.38,1.01,1.35,1.98,0,.01.02.02.02,0,.05-.08.09-.16.11-.24.04-.15.04-.31,0-.46.36-1-.03-2.25-.74-3.06.37.08.76.08,1.13.05,1.06-.1,2.01-.67,3.07-.72.02,0,.02-.02,0-.03-.01,0-.03,0-.04-.01.03,0,.05.01.08.02.01,0,.02-.01,0-.02.03,0,.05,0,.08,0,.04,0,.04-.05,0-.06-.25-.08-.51-.11-.77-.13-.99-.28-2.03-.52-3.05-.51-.65,0-1.32.18-1.91.49-.1-.04-.2-.08-.31-.12.19-.05.37-.12.55-.21.02,0,.03-.02.05-.03.28-.12.55-.25.82-.39.58-.3,1.15-.44,1.81-.47.03,0,.04-.05,0-.06,0,0-.02,0-.03,0,.01,0,.03,0,.04,0,.07,0,.13,0,.19.01.04,0,.04-.06,0-.07,0,0-.01,0-.02,0,0-.02,0-.04-.03-.04-.06,0-.12-.01-.19-.02.02,0,.04-.02.06-.03,0,0,0-.01,0,0-.03.01-.06.02-.1.03-.01,0-.03,0-.04,0,0,0-.01,0-.02,0-.23-.05-.47-.12-.7-.17-.35-.08-.71-.14-1.07-.17-.03,0-.07,0-.1,0-.11-.03-.23-.05-.35-.05.31-.08.62-.19.91-.33.53-.25,1-.61,1.4-1.03.42-.43.72-.94,1.17-1.35,0,0,0-.01,0-.02,0,0-.01-.01-.02-.01-.11.02-.21.06-.3.11-.25.07-.52.08-.79.07-.31-.02-.63.02-.93.06-.32.04-.65.11-.96.21,0-.02-.01-.05-.02-.07-.03-.07-.12-.17-.16-.14.05-.03.09-.05.13-.09.11-.09.07-.26,0-.36-.19-.33-.62-.44-.98-.45,0-.01,0-.02,0-.04,0-.35-.24-.64-.53-.73-.1-.03-.31-.06-.43.02,0,0,0,0,0,0,.21-.21.4-.43.57-.68.36-.37.58-.88.77-1.35.09-.22.17-.4.25-.59.22-.45.44-.9.63-1.36,0,0,0-.02-.01-.01-.09.1-.18.19-.28.29-.01.01-.02.02-.04.04,0,0-.01,0-.02,0-.54.25-1.05.55-1.52.9.02-.13.04-.25.07-.38.02-.04.03-.08.02-.13.06-.3.17-.57.27-.85.01-.01.03-.02.04-.04.17-.15.34-.3.46-.49.17-.25.23-.54.3-.83.02-.07.03-.13.05-.2,0-.02,0-.04.01-.05.02-.06.04-.12.06-.18,0-.01.01-.03.02-.04.01-.03.03-.06.04-.09,0-.02.02-.03.02-.04.02-.03.03-.06.05-.09,0-.01.02-.03.03-.04.02-.03.05-.06.07-.09,0-.01.02-.02.03-.03.04-.04.08-.08.12-.12.26-.22.54-.39.76-.65.07-.08.12-.16.17-.24.01-.02.03-.05.04-.07.03-.06.06-.12.08-.18,0-.02.02-.05.03-.07.03-.08.05-.16.07-.24,0,0,0,0,0,0,.02-.09.03-.18.04-.27,0,0,0-.01,0-.02,0-.03,0-.05,0-.08,0-.06.01-.11.02-.17.01-.12.02-.24.04-.37,0-.07.03-.14.05-.2.01-.05.03-.09.04-.14.01-.04.03-.08.05-.11.02-.04.04-.09.06-.13.02-.03.04-.07.06-.1.03-.05.06-.1.08-.15.01-.02.03-.04.04-.07.05-.09.11-.17.16-.26.02-.03.04-.06.06-.09.03-.05.05-.09.07-.14.02-.03.03-.07.05-.1.02-.05.04-.1.06-.16.01-.03.02-.06.03-.09.02-.09.04-.18.04-.27,0-.02,0-.05,0-.07,0-.04,0-.09,0-.13,0-.22-.02-.44-.01-.65,0-.03,0-.05,0-.08,0-.08.01-.15.03-.23.08-.3.29-.57.47-.82.17-.23.31-.46.4-.73.03-.08.05-.17.06-.26,0-.03,0-.06.01-.09,0-.03,0-.06.01-.09,0-.02,0-.04,0-.06,0-.08,0-.17,0-.25,0-.03,0-.07,0-.1,0-.11-.01-.22-.02-.33-.04-.46-.07-.93.15-1.35.18-.33.49-.57.73-.86.01-.01,0-.03-.02-.02-.06.03-.12.07-.17.11.04-.03.08-.07.12-.11.03-.04.07-.07.1-.12,0-.01,0-.03-.02-.02-.46.41-1.08.45-1.64.64-.56.19-.77.65-1.11,1.09-.09.11-.18.22-.29.31-.04.04-.09.07-.13.11-.02.01-.04.03-.06.04-.07.05-.14.09-.22.12-.07.03-.15.06-.23.08-.03,0-.05.01-.08.02-.06.02-.12.03-.18.04-.09.02-.17.04-.25.06h0c-.09.02-.17.05-.25.09-.47.23-.63.87-.84,1.31-.04.04-.09.08-.13.13-.08.07-.17.15-.25.21-.02.02-.04.03-.07.05-.07.05-.14.11-.21.16-.36.27-.76.53-1.03.91,0,0,0,.01-.01.02-.02-.05-.03-.11-.03-.17-.03-.24.09-.48.19-.69.1-.2.19-.4.27-.6,0,0,0,0,0,0,.02-.06.04-.12.05-.18,0-.03.02-.06.03-.09.02-.1.04-.2.04-.31.02-.38-.09-.8-.27-1.14-.04-.08-.1-.16-.16-.23-.03-.03-.05-.06-.08-.09-.05-.05-.09-.1-.14-.16-.04-.05-.09-.1-.13-.15-.02-.03-.05-.06-.07-.09-.05-.07-.1-.14-.14-.23-.17-.38.2-.78.29-1.14.03-.1.03-.21.02-.32,0,0,0,0,0,0,0-.06-.02-.11-.03-.17.31-.35-.16-1.15-.33-1.45-.06-.1-.11-.2-.16-.3-.02-.04-.04-.08-.06-.12-.02-.03-.03-.07-.04-.1-.02-.04-.03-.09-.05-.13-.01-.03-.02-.06-.03-.1-.02-.07-.04-.15-.04-.23-.03-.38.13-.74.33-1.06.17-.12.32-.27.39-.47,0-.01,0-.03.01-.04.02-.06-.08-.09-.1-.04-.02.04-.04.08-.06.12-.1.08-.19.17-.27.27-.29.19-.68.28-.96.42-.49.25-.7.82-.83,1.32-.08.28-.15.57-.28.84,0,0,0,0,0,0-.11.24-.29.44-.47.63-.15.15-.31.3-.46.46-.01.01-.02.02-.03.03-.04.04-.08.09-.12.14-.04.04-.08.09-.11.13-.03.04-.05.09-.08.13-.03.05-.07.1-.1.16,0,.01-.01.03-.02.04-.09.19-.12.4-.11.61.01.26.16.48.19.73,0,.03,0,.06,0,.09,0,0,0,.02,0,.02,0,.02-.02.04-.03.07,0,0-.01.02-.02.02-.01.02-.03.04-.05.06,0,0-.01.01-.02.02-.02.02-.04.04-.06.06,0,0-.01.01-.02.02-.02.02-.04.03-.05.05-.13-.15-.28-.29-.45-.4-.2-.12-.45-.14-.63-.29-.17-.14-.1-.4-.11-.59,0-.19-.15-.3-.3-.4-.21-.14-.44-.24-.66-.37-.28-.17-.42-.44-.47-.76-.03-.19-.05-.38-.16-.55-.12-.19-.36-.28-.57-.35-.04-.01-.08-.03-.12-.04,0,0,0,0,0,0-.21-.06-.42-.11-.62-.2-.05-.02-.08-.05-.12-.08-.03-.02-.06-.04-.08-.06-.03-.03-.06-.06-.09-.09-.02-.02-.04-.04-.06-.06-.03-.04-.06-.08-.09-.12-.01-.02-.02-.03-.04-.05-.04-.06-.08-.12-.12-.18-.27-.41-.59-.78-1.09-.89-.24-.05-.43-.02-.66.08-.16.07-.33.12-.5.06-.11-.04-.21-.13-.31-.19-.41-.26-.98-.1-1.45.01-.04.01-.08.02-.12.03-.16.02-.32.05-.47.06-.02,0-.02.03,0,.04.33.09.67.04,1,.12.36.09.63.43.8.73.06.1.09.2.12.31.02.09.04.17.05.26,0,.04.01.07.01.11.01.09.02.17.03.26.04.3.17.55.4.75.05.04.1.08.16.11.03.02.07.04.1.06,0,0,.02,0,.02.01,0,0,0,0,0,0,.14.08.29.15.39.29.12.16.04.33,0,.5-.04.14-.03.27,0,.4,0,0,0,0,0,0,0,0,0,0,0,0,.11.4.98.37.74.9-.02.04-.04.08-.06.13,0,0,0,.01,0,.02-.01.03-.03.07-.04.1,0,.01,0,.02-.01.03-.01.03-.02.06-.03.09,0,.01,0,.02,0,.03,0,.04-.02.08-.02.12,0,0,0,0,0,.01,0,.04,0,.08,0,.12,0,.01,0,.03,0,.04,0,.03,0,.06.01.08,0,.01,0,.03.01.04,0,.01,0,.02.01.04,0,0,0,0,0,0,.02.06.06.12.11.19-.06,0-.11-.02-.17-.03-.56-.16-.91-.67-1.42-.94,0,0-.02,0-.02-.01,0,0,0,0,0,0-.75-.4-1.58-.33-2.34-.06ZM6.08,32.54h0c.24-.03.47-.09.71-.08.09,0,.17.04.24.08.05.13.09.26.21.33-.38-.14-.77-.24-1.16-.34,0,0,0,0,0,0,0,0,0,0,0,0ZM10.2,40.22s-.08-.06-.12-.09c0,0,0-.01-.02-.02,0,0,0,0,0,0-.01,0-.02-.01-.03-.02-.02,0-.03-.01-.04-.02-.01,0-.03,0-.04,0-.03-.02-.05-.03-.08-.04,0,0,0,0,0,0,0,0,0,0-.01,0-.05-.02-.09-.04-.14-.06-.01,0-.02,0-.03-.01-.05-.02-.11-.03-.17-.04-.01,0-.02,0-.03,0-.17-.03-.35-.03-.52-.01-.05.01-.09.02-.13.03-.01-.06-.03-.12-.05-.17-.02-.14-.06-.27-.12-.39.25.13.51.24.78.35.25.1.51.18.74.33.05.03.09.06.13.1,0,.04,0,.09,0,.13-.03-.01-.07-.02-.1-.03ZM10.14,34.72c-.02-.16-.05-.32-.08-.48.02,0,.04.01.06.01.35.02.68-.11.97.09.07.09.13.2.17.31,0,.03.01.06.02.09-.07.51-.13,1.02-.16,1.53-.01.15-.02.3-.03.45-.01.03-.02.05-.03.07-.2-.22-.46-.36-.69-.3,0-.01,0-.03,0-.04,0,0,0,0,0,0,0,0,0-.02,0-.03,0-.02,0-.04,0-.06.01,0,.02-.02.02-.03,0-.01,0-.02,0-.04.03-.3.07-.58-.08-.86-.02-.05-.05-.09-.08-.14-.03-.19-.05-.38-.08-.58ZM9.77,30.09s-.04-.04-.06-.06c.06,0,.12.01.18.02-.02.02-.03.04-.05.06-.02-.01-.05-.02-.07-.03ZM12.06,40.1c.02-.3.04-.61.07-.91,0-.02,0-.05,0-.07.08-.05.15-.14.19-.24.01.02.03.03.04.05-.13.34-.14.74-.12,1.08,0,.13.04.25.08.37-.03.15-.06.3-.08.46-.04-.01-.09-.02-.13-.03-.02-.24-.04-.47-.06-.71ZM12.07,34.86c0,.06.02.12.03.18-.02-.03-.03-.05-.05-.08,0-.03,0-.05,0-.08,0,0,.02-.02.03-.02ZM12.39,34.77s-.01-.09-.02-.13c0,0,0,0,.02-.01,0,.04,0,.07,0,.11,0,0,0,.02,0,.03ZM11.74,35.16c.16.43.3.87.42,1.32-.06-.01-.12-.02-.18-.02-.08,0-.14-.04-.2-.09-.03-.39-.05-.78-.07-1.17.01-.01.02-.03.04-.04ZM12.79,34.35s.08-.07.13-.1c-.05.1-.09.2-.11.29,0-.06,0-.13-.01-.19ZM12.88,35.55c-.01-.18-.03-.36-.04-.55.05.09.12.16.22.21,0,0,0,0,.01,0-.06.11-.13.22-.19.33ZM10.55,38.59s.08,0,.12-.01c.08-.01.15,0,.21.02-.04.43-.08.85-.11,1.28-.04-.19-.11-.36-.2-.53,0-.25-.01-.5-.02-.75ZM10.01,30.08c.1.03.2.08.28.15,0,0,0,.01.01.02-.12-.03-.24-.06-.36-.09.02-.03.04-.05.07-.08ZM10,37.89c-.1.13-.15.28-.1.43.07.21.22.28.39.29,0,.11.01.22.01.33-.12-.15-.26-.3-.41-.43-.03-.21-.1-.43-.17-.64.09.03.19.03.28.01ZM10.92,40.92c0-.26,0-.53.02-.79.02-.46.06-.92.1-1.38.01.01.03.02.04.03,0,.1,0,.21.02.31.02.34.04.68.06,1.01,0,.07,0,.13,0,.2,0,.18-.03.35-.05.53-.07.02-.13.04-.19.07ZM11.53,39.58c-.01-.22-.03-.44-.04-.66.03,0,.07,0,.1,0,.04.53.08,1.05.12,1.58,0,.09.01.18.02.27,0,0-.01,0-.02,0-.04.02-.08.05-.12.08,0-.42-.04-.85-.06-1.27ZM8.38,35.35c.31.1.61.2.92.3.23.08.54.12.75.28.03.24.05.48.08.72,0,0-.02.02-.02.03-.12.16-.46.33-.63.55,0-.02-.02-.04-.03-.07-.21-.54-.55-1.02-.9-1.47-.11-.14-.21-.27-.32-.4.05.02.11.04.16.06ZM9.02,33.7c.18.09.26.32.51.28.03,0,.05-.01.08-.02.06.09.14.16.24.21.02.19.04.37.06.56,0,.04,0,.08.01.12-.08-.12-.17-.23-.25-.34-.28-.36-.64-.65-1.02-.91.13.02.26.05.37.11ZM10.56,40.34s.02.02.03.02c.01,0,.03.01.04.01,0,0,0,.02.01.02-.03,0-.06,0-.08,0,0-.02,0-.03,0-.05ZM13.95,35.87c.02-.2.04-.39.05-.59.18.08.32.09.42-.12.03-.07.1,0,.19.05.03.01.06.03.1.04-.26.2-.51.41-.76.62ZM7.4,32.93s0,0,.01,0c0,.01.02.02.03.03-.04-.01-.07-.03-.11-.04.02,0,.04.01.07.01ZM14.51,36.75c-.13.04-.34.12-.56.23-.08.04-.17.08-.25.12.06-.17.11-.35.14-.52.38-.02.77.04,1.16.06-.16.03-.33.06-.49.11ZM6.67,28.27s.08,0,.11,0c.06,0,.12,0,.18,0,.06,0,.11,0,.17,0,.06,0,.11,0,.17,0,.05,0,.09,0,.14,0,.04,0,.09,0,.13,0,.05,0,.1,0,.15.01.04,0,.08,0,.12.01.08.02.17.04.25.07.21.09.4.26.44.5,0,.06,0,.12,0,.18-.03,0-.06,0-.08.01-.03,0-.07,0-.1.02-.03,0-.07.01-.1.02-.1.02-.2.05-.29.07-.09.02-.16.03-.23.03-.02,0-.05,0-.07,0-.21-.02-.37-.13-.52-.34-.13-.18-.26-.35-.44-.47,0,0,0,0,0,0-.04-.03-.08-.05-.13-.07-.01,0-.02,0-.04-.01.05,0,.1,0,.16,0Z" style="fill:#000; stroke-width:0px;"/></g></svg>