<?xml version="1.0" encoding="UTF-8"?><svg id="Layer_2" xmlns="http://www.w3.org/2000/svg" xmlns:xlink="http://www.w3.org/1999/xlink" viewBox="0 0 319.12 32.87"><defs><linearGradient id="linear-gradient" x1="159.56" y1="-.14" x2="159.56" y2="20.93" gradientUnits="userSpaceOnUse"><stop offset="0" stop-color="#657f91"/><stop offset="1" stop-color="#c3d0dc"/></linearGradient></defs><g id="Layer_1-2"><path d="M319.12,32.87v-16.81c-3.73.18-7.47.31-11.24.31-7.09,0-14.2-.45-21.07-1.04-7.12-.61-14.19-1.38-20.93-2.41-4.67-.72-9.01-1.64-13.39-2.56-.81-.17-1.61-.34-2.42-.52.26-.11.34-.28-.06-.36-3.63-.78-7.13-1.64-10.62-2.49-3.01-.74-6.51-1.17-9.92-1.62-2.76-.61-5.53-1.22-8.29-1.83-4.77-1.06-9.61-2.27-15.53-2.02-3.31.14-6.36.61-9.25,1.18-1,.08-1.99.16-2.97.29-1.36.17-2.11.65-3.44.84-1.43.21-2.65.5-3.56.95-.3.15-.69.27-1.09.39-.18.03-.36.07-.54.1-2.32.38-4.63.77-6.91,1.18-1.31.23-2.61.47-3.91.72-.29.05-.57.11-.86.17-.69.13-1.39.27-2.08.4,0,0,0,0-.01,0-.03,0-.07.01-.1.02-.26.05-.52.11-.79.16-.13.03-.27.05-.4.08,0,0,.02,0,.03,0-.73.15-1.46.3-2.18.46-.07.02-.15.03-.23.05-1.2.26-2.38.54-3.55.82-4.19,1.03-8.01,2.23-11.99,3.35-2.11.59-4.51,1.28-7.28,1.37-3.42.1-6.53-.55-9.3-1.19-.65-.15-1.27-.31-1.9-.47-.47-.12-.95-.24-1.41-.37-.3-.08-.6-.16-.9-.25-.49-.14-.97-.27-1.46-.41-.26-.08-.52-.15-.78-.23-.51-.15-1.02-.31-1.52-.46-.21-.06-.41-.13-.62-.2-.55-.17-1.1-.35-1.64-.52-.1-.03-.2-.06-.29-.1-2.74-.89-5.42-1.81-8.16-2.68-.8-.26-1.64-.52-2.51-.8-.05-.02-.1-.03-.15-.05-.38-.12-.76-.24-1.15-.36-.08-.02-.15-.05-.23-.07-.37-.11-.73-.23-1.11-.34-.09-.03-.18-.06-.28-.08-.37-.11-.75-.23-1.14-.34-.09-.03-.17-.05-.26-.08-.41-.12-.82-.24-1.23-.36-.06-.02-.13-.04-.19-.06-1.46-.42-2.96-.85-4.52-1.25-.07-.02-.14-.04-.21-.05-.43-.11-.87-.22-1.31-.33-.13-.03-.25-.06-.38-.09-.39-.1-.77-.19-1.17-.28-.15-.04-.3-.07-.46-.11-.37-.09-.75-.17-1.12-.26-.16-.04-.32-.07-.49-.11-.38-.08-.76-.16-1.14-.24-.16-.03-.32-.07-.48-.1-.41-.08-.81-.16-1.22-.24-.13-.03-.27-.05-.4-.08-.52-.1-1.03-.19-1.55-.28-.03,0-.05,0-.08-.01-.56-.1-1.13-.19-1.7-.27,0,0-.01,0-.02,0,0,0,0,0,0,0-7.13-1.08-14.63-1.37-21.84.06-8.23,1.63-14.33,4.25-21.76,6.27-3.53.96-7.39,1.78-11.74,2.16-4.4.38-8.92.41-13.42.51-4.26.1-7.79.88-11.52,1.56-1.78.32-3.58.65-5.47.89-1.18.15-2.81.37-4.1.3-.76-.04-1.51-.12-2.23-.21v20.42h319.12Z" style="fill:url(#linear-gradient); stroke-width:0px;"/></g></svg>