<?xml version="1.0" encoding="UTF-8"?><svg id="Layer_2" xmlns="http://www.w3.org/2000/svg" viewBox="0 0 329.43 22.24"><g id="Layer_1-2"><path d="M0,22.24h329.43V.78c0,.43-16.43-.63-17.51-.66-8.66-.27-17.32.38-25.94,1.31-17.3,1.87-34.58,4.96-52,4.43-9.19-.28-18.32-1.57-27.4-3.2-4.23-.76-8.95-2.51-13.22-2.41-8.84.23-17.47,1.91-26.25,2.93-18.04,2.1-36.07-1.26-54.09-1.9-15.96-.57-31.78,2.45-47.82,2.55-11.38.07-22.76-.57-34.08-1.94C26.18,1.31,20.61-.55,15.67.16,10.6.88,5.55.78.41.78h-.41v21.46Z" style="fill:#373e49; stroke-width:0px;"/></g></svg>