<?xml version="1.0" encoding="UTF-8"?><svg id="Layer_2" xmlns="http://www.w3.org/2000/svg" xmlns:xlink="http://www.w3.org/1999/xlink" viewBox="0 0 189.32 42.47"><defs><linearGradient id="linear-gradient" x1="94.66" y1="-3.28" x2="94.66" y2="40.67" gradientUnits="userSpaceOnUse"><stop offset="0" stop-color="#657f91"/><stop offset="1" stop-color="#c3d0dc"/></linearGradient></defs><g id="Layer_1-2"><path d="M189.32,42.47v-2.44c-4.39-.83-8.66-2.18-12.69-3.58-5.1-1.76-10.09-3.75-15.32-5.28-2.15-.63-4.71-1.44-7.06-1.13-1.51.2-2.86.78-4.39.94-2.44.26-4.65-.03-6.84-.9-2.45-.98-4.7-2.28-6.95-3.51-.58-.32-1.16-.64-1.74-.96-.55-.31-1.09-.61-1.64-.92-.16-.09-.32-.18-.48-.27-.43-.24-.85-.48-1.28-.71-.2-.11-.4-.21-.59-.32-.39-.21-.78-.42-1.17-.62-.1-.05-.2-.11-.29-.16,0,0,.02.01.03.02-2.02-1.04-4.09-2.01-6.31-2.78-.48-.17-.97-.32-1.47-.47-.02,0-.04-.01-.05-.02-.27-.08-.53-.15-.8-.23-.05-.01-.1-.03-.14-.04-.02,0-.04,0-.06-.01-.62-.82-2.61-1.04-3.72-1.14-.5-.05-.95.02-1.34.29-.13,0-.26-.02-.39-.03-.95-.05-1.9-.04-2.84,0,.04,0,.09,0,.13,0-.07,0-.14,0-.21.01-1.92.09-3.83.32-5.77.43-4.32.24-8.71-.07-12.74-1.36-3.97-1.26-7.9-3.25-11.04-5.51-2.42-1.74-4.65-3.64-6.96-5.46-2.47-1.94-4.95-4.01-7.82-5.6-1.06-.59-1.93-.92-3.24-.54-1.31.38-2.46,1.05-3.51,1.77-.03.02-.05.04-.08.05-.25.17-.5.35-.74.53-2.91,2.15-5.36,4.62-7.96,6.98-.38.34-.77.68-1.17,1.01-.11.09-.23.18-.35.28-.3.24-.6.48-.92.72-.09.07-.18.13-.26.19-.36.27-.73.54-1.1.8-.03.02-.05.04-.08.05-.43.3-.87.6-1.31.89,0,0,0,0,0,0-1.51,1-3.08,1.96-4.65,2.91-2.31,1.4-4.65,2.8-6.76,4.39-1.97,1.49-3.57,3.14-5.12,4.89-1.12,1.26-2.22,2.55-3.58,3.66-1.46,1.2-3.16,2.16-5.02,2.96-2.29.98-4.65,1.9-6.99,2.82-1.96.76-3.95,1.5-6.03,2.05-.28.07-.55.14-.83.21-.27.06-.53.12-.8.18,0,0,0,0,0,0-2.26.49-4.56.76-6.89.91v4.06h189.32Z" style="fill:url(#linear-gradient); stroke-width:0px;"/></g></svg>