<?xml version="1.0" encoding="UTF-8"?><svg id="Layer_2" xmlns="http://www.w3.org/2000/svg" viewBox="0 0 329.43 14.82"><g id="Layer_1-2"><path d="M329.43,14.82H0V.52C0,.8,16.43.1,17.51.08c8.66-.18,17.32.25,25.94.87,17.3,1.25,34.58,3.3,52,2.95,9.19-.19,18.32-1.05,27.4-2.13,4.23-.5,8.95-1.68,13.22-1.6,8.84.15,17.47,1.27,26.25,1.95,18.04,1.4,36.07-.84,54.09-1.26,15.96-.38,31.78,1.63,47.82,1.7,11.38.05,22.76-.38,34.08-1.29,4.95-.4,10.53-1.64,15.47-1.17,5.07.48,10.12.41,15.26.41h.41v14.3Z" style="fill:#2c313a; stroke-width:0px;"/></g></svg>