<?xml version="1.0" encoding="UTF-8"?>
<svg version="1.1" xmlns="http://www.w3.org/2000/svg" width="500" height="500">
<path d="M0 0 C1.60432558 -0.00258618 3.20865052 -0.00560004 4.81297457 -0.0090034 C9.2108091 -0.01704655 13.60862728 -0.01886147 18.0064683 -0.01960087 C22.75367066 -0.02145603 27.50086464 -0.02900554 32.24806213 -0.03573608 C42.62189478 -0.04929932 52.99572355 -0.05534056 63.36956358 -0.05974674 C69.84829127 -0.06251172 76.32701748 -0.06674946 82.80574417 -0.07125092 C100.74854374 -0.08343935 118.69134212 -0.09374055 136.63414574 -0.09712601 C137.78174993 -0.09734557 138.92935412 -0.09756514 140.11173419 -0.09779136 C141.26204956 -0.09800964 142.41236494 -0.09822791 143.59753835 -0.09845281 C145.92843906 -0.09889627 148.25933977 -0.09934283 150.59024048 -0.09979248 C151.74644251 -0.10001391 152.90264454 -0.10023534 154.09388299 -0.10046348 C172.83633015 -0.10441312 191.57873847 -0.1218741 210.32117061 -0.145152 C229.57010495 -0.16886586 248.81901979 -0.18132782 268.06796896 -0.18249393 C278.87310696 -0.18341049 289.67819429 -0.18915856 300.48331833 -0.20731354 C309.68171464 -0.22271473 318.88004463 -0.22783473 328.07845138 -0.21957543 C332.77031319 -0.21566946 337.46204143 -0.21659616 342.1538868 -0.23063278 C346.45208456 -0.24337411 350.7500484 -0.24217216 355.04824586 -0.23004207 C356.59999358 -0.22808552 358.15175789 -0.23116156 359.70348231 -0.23988643 C370.30876684 -0.29572381 380.75402215 -0.31047867 388.86856079 7.40216064 C394.51623151 14.08623902 395.45971571 21.41520922 395.46873856 29.95718765 C395.47079119 30.62126886 395.47284382 31.28535008 395.47495866 31.96955496 C395.48060859 34.19257206 395.4791739 36.41552681 395.47775269 38.6385498 C395.48033746 40.24939887 395.48335094 41.8602473 395.48675609 43.47109485 C395.49481594 47.8962512 395.49661509 52.32139132 395.49735355 56.74655414 C395.49920585 61.51969509 395.50675402 66.29282765 395.51348877 71.06596375 C395.52706488 81.50189632 395.53309554 91.93782505 395.53749943 102.37376499 C395.54026277 108.89033909 395.54450027 115.40691171 395.5490036 121.9234848 C395.56119476 139.9674279 395.57149474 158.0113698 395.57487869 176.05531693 C395.57509826 177.20992658 395.57531782 178.36453623 395.57554404 179.55413406 C395.57576232 180.71149553 395.5759806 181.868857 395.57620549 183.06129003 C395.57664896 185.40652164 395.57709552 187.75175325 395.57754517 190.09698486 C395.5777666 191.26029913 395.57798803 192.42361339 395.57821617 193.6221796 C395.58216473 212.47468476 395.59962121 231.32715128 395.62290469 250.17964152 C395.64661869 269.53699372 395.65908055 288.89432652 395.66024661 308.25169349 C395.66116328 319.11945942 395.66691377 329.987175 395.68506622 340.85492706 C395.70046776 350.10826845 395.7055873 359.3615439 395.69732812 368.61489567 C395.69342198 373.33509701 395.69434957 378.05516558 395.70838547 382.77535057 C395.72112615 387.0995336 395.71992539 391.42348409 395.70779476 395.74766681 C395.70583807 397.3088955 395.70891489 398.87014067 395.71763912 400.43134621 C395.8282978 421.57888541 395.8282978 421.57888541 388.05996704 429.67169189 C378.28972677 438.00187407 364.98792015 436.28701872 352.92332458 436.26742554 C351.37033431 436.26857925 349.81734432 436.27016845 348.26435488 436.27215278 C344.0175068 436.27631199 339.7706813 436.27427083 335.52383316 436.27116656 C330.93540222 436.26889868 326.34697509 436.27239905 321.75854492 436.27514648 C312.77653211 436.27958883 303.79452766 436.27863438 294.81251452 436.27573384 C287.50834219 436.27347308 280.2041722 436.27317021 272.89999962 436.27425766 C271.85937417 436.27441089 270.81874873 436.27456413 269.74658918 436.274722 C267.63234149 436.27504174 265.5180938 436.27536595 263.40384611 436.27569459 C243.58510305 436.27854507 223.76636462 436.2752695 203.94762232 436.26989423 C186.9622004 436.26542988 169.97678532 436.26619992 152.99136353 436.27081299 C133.25002753 436.27617206 113.50869558 436.27826696 93.76735896 436.27520072 C91.6594729 436.27488219 89.55158685 436.27456782 87.44370079 436.27425766 C86.40669178 436.27410338 85.36968277 436.27394911 84.30124924 436.27379016 C77.01298914 436.27292876 69.72473163 436.27437983 62.43647194 436.27673721 C53.54387408 436.27955035 44.65128504 436.27876523 35.75868819 436.27345647 C31.2262341 436.27083934 26.69379468 436.26978044 22.16134071 436.27310562 C18.00304428 436.27610999 13.84477596 436.2744076 9.68648203 436.26912807 C8.19123487 436.26802137 6.69598528 436.26855566 5.20073972 436.27100386 C-25.79947439 436.31782195 -25.79947439 436.31782195 -33.36581421 429.63653564 C-41.5655031 421.05870576 -41.09565533 410.40213444 -41.04364014 399.2325592 C-41.04709995 397.61371966 -41.05186669 395.99488247 -41.05782187 394.37605017 C-41.07031767 389.94252987 -41.06416788 385.5092039 -41.05486321 381.075683 C-41.04806697 376.28819438 -41.058557 371.50073885 -41.06680298 366.71325684 C-41.08013787 357.3390539 -41.0772632 347.96492305 -41.06856506 338.59071729 C-41.06178595 330.96852463 -41.06087278 323.34635215 -41.06413651 315.72415733 C-41.0645962 314.6387019 -41.0650559 313.55324646 -41.06552953 312.43489843 C-41.06648873 310.22965147 -41.06746137 308.02440451 -41.06844731 305.81915756 C-41.07700101 285.14202813 -41.06716842 264.4649386 -41.05104621 243.78781571 C-41.03765252 226.0618319 -41.03996334 208.33590706 -41.05380249 190.60992432 C-41.06987497 170.01380607 -41.07616708 149.41772283 -41.0669657 128.82159919 C-41.06601009 126.62300122 -41.06506697 124.42440326 -41.06413651 122.22580528 C-41.06367368 121.14413481 -41.06321085 120.06246433 -41.062734 118.94801596 C-41.06014841 111.34119307 -41.06450601 103.73439245 -41.07157516 96.12757301 C-41.08000931 86.84805858 -41.07767025 77.56862023 -41.06173293 68.28911445 C-41.05387449 63.55827747 -41.05071689 58.8275671 -41.06068039 54.09673119 C-41.06967891 49.75826134 -41.06461027 45.42003441 -41.04874773 41.08158632 C-41.0454215 39.51970784 -41.04704481 37.95780845 -41.0543751 36.39594362 C-41.09553539 26.88986258 -40.9446015 17.1834181 -37.66268921 8.14044189 C-36.67268921 7.81044189 -35.68268921 7.48044189 -34.66268921 7.14044189 C-34.66268921 6.48044189 -34.66268921 5.82044189 -34.66268921 5.14044189 C-33.0003838 4.48346457 -31.33254573 3.84048222 -29.66268921 3.20294189 C-28.73456421 2.84329346 -27.80643921 2.48364502 -26.85018921 2.11309814 C-18.142126 -0.54414173 -9.01073427 -0.00581424 0 0 Z M34.33731079 111.14044189 C34.33731079 187.70044189 34.33731079 264.26044189 34.33731079 343.14044189 C83.50731079 343.14044189 132.67731079 343.14044189 183.33731079 343.14044189 C183.66731079 330.93044189 183.99731079 318.72044189 184.33731079 306.14044189 C150.01731079 305.81044189 115.69731079 305.48044189 80.33731079 305.14044189 C80.27672485 291.21985596 80.21613892 277.29927002 80.15371704 262.95684814 C80.11324758 254.16582951 80.07252811 245.37481322 80.03067017 236.58380127 C79.96420066 222.61400474 79.89878551 208.64420869 79.83999634 194.67437744 C79.79718411 184.50219595 79.75091371 174.33003717 79.70043224 164.15789074 C79.67380737 158.76826273 79.64895379 153.37863929 79.62823677 147.98898506 C79.6087067 142.92230546 79.58457402 137.8556692 79.55681992 132.78902817 C79.54743018 130.92372738 79.53976188 129.05841706 79.53389168 127.19310188 C79.52566301 124.65792745 79.51139579 122.12285916 79.49552917 119.58772278 C79.49455107 118.8396826 79.49357296 118.09164242 79.49256521 117.32093436 C79.76264422 113.94403534 79.76264422 113.94403534 78.33731079 111.14044189 C63.81731079 111.14044189 49.29731079 111.14044189 34.33731079 111.14044189 Z M165.33731079 111.14044189 C165.33731079 123.68044189 165.33731079 136.22044189 165.33731079 149.14044189 C187.44731079 149.14044189 209.55731079 149.14044189 232.33731079 149.14044189 C232.33731079 213.16044189 232.33731079 277.18044189 232.33731079 343.14044189 C247.18731079 343.14044189 262.03731079 343.14044189 277.33731079 343.14044189 C277.33731079 279.12044189 277.33731079 215.10044189 277.33731079 149.14044189 C299.44731079 149.14044189 321.55731079 149.14044189 344.33731079 149.14044189 C344.35793579 143.05606689 344.37856079 136.97169189 344.39981079 130.70294189 C344.40891479 128.78038574 344.4180188 126.85782959 344.42739868 124.87701416 C344.43031786 123.36195953 344.43286641 121.84690413 344.43496704 120.33184814 C344.44008301 119.53806763 344.44519897 118.74428711 344.45046997 117.92645264 C344.45078036 115.9974136 344.39966972 114.06847277 344.33731079 112.14044189 C343.23037966 110.80800178 343.23037966 110.80800178 340.43437099 111.01739407 C339.12265958 111.01831586 337.81094816 111.01923765 336.45948792 111.02018738 C335.73176117 111.01933295 335.00403443 111.01847853 334.25425535 111.01759821 C331.79745966 111.01594126 329.34073113 111.02146827 326.88394165 111.0269165 C325.13012188 111.02719836 323.376302 111.02704068 321.6224823 111.026474 C316.84582411 111.02618594 312.06919079 111.03208395 307.2925384 111.03904796 C302.30637025 111.04528018 297.3202016 111.04588519 292.33403015 111.04707336 C282.88507785 111.05018707 273.43613705 111.05840098 263.98718983 111.06842285 C253.23283835 111.07958278 242.47848633 111.08509414 231.72413051 111.09011829 C209.59518275 111.10058357 187.46625077 111.11892953 165.33731079 111.14044189 Z " fill="#E2AAEF" transform="translate(72.66268920898438,31.85955810546875)"/>
<path d="M0 0 C0.33 0 0.66 0 1 0 C1 76.56 1 153.12 1 232 C50.17 232 99.34 232 150 232 C150 221.44 150 210.88 150 200 C150.33 198.35 150.66 196.7 151 195 C149.69930069 195.00222061 148.39860138 195.00444122 147.05848694 195.00672913 C134.82968235 195.0269581 122.60088113 195.04197096 110.37206364 195.05181217 C104.08437976 195.05704162 97.79670934 195.06414039 91.5090332 195.07543945 C85.44662277 195.08626614 79.38422531 195.09227637 73.32180595 195.09487724 C71.00323723 195.09673189 68.68466926 195.10035325 66.36610603 195.10573006 C63.13085492 195.11293758 59.89565817 195.11399106 56.66040039 195.11352539 C55.20707809 195.1189183 55.20707809 195.1189183 53.72439575 195.12442017 C52.84794907 195.1230455 51.97150238 195.12167084 51.0684967 195.12025452 C49.91948175 195.12163721 49.91948175 195.12163721 48.74725437 195.12304783 C47 195 47 195 46 194 C45.88988181 191.49625297 45.84503976 189.01949461 45.84178162 186.51475525 C45.83437465 185.32515987 45.83437465 185.32515987 45.82681805 184.11153227 C45.81136587 181.4336507 45.80306167 178.75579323 45.79467773 176.07788086 C45.78510526 174.16642543 45.77509557 172.25497214 45.76467896 170.34352112 C45.73755539 165.13714847 45.71658631 159.93076669 45.69667697 154.72436213 C45.67486321 149.28974016 45.64745205 143.85514658 45.62062073 138.42054749 C45.5706313 128.121633 45.52571574 117.82270281 45.48259836 107.52375752 C45.43327929 95.80205227 45.37834146 84.0803755 45.32291877 72.35869777 C45.20900281 48.2391584 45.10218482 24.11959172 45 0 C45.66 0 46.32 0 47 0 C47.33 63.36 47.66 126.72 48 192 C82.32 192.33 116.64 192.66 152 193 C152 229 152 229 151 233 C101.17 233 51.34 233 0 233 C0 156.11 0 79.22 0 0 Z " fill="#F2D5F7" transform="translate(106,143)"/>
<path d="M0 0 C0.66 0 1.32 0 2 0 C1.6786296 5.30261155 -1.21104113 8.56066609 -5 12 C-7.54250416 13.68380936 -10.06180365 15.14798571 -13 16 C-13.99 15.67 -14.98 15.34 -16 15 C-11.375 12 -11.375 12 -8 12 C-8 11.34 -8 10.68 -8 10 C-7.01 10 -6.02 10 -5 10 C-4.67 9.01 -4.34 8.02 -4 7 C-2.73371096 4.62507237 -1.3593256 2.32400828 0 0 Z " fill="#E7C7EE" transform="translate(464,451)"/>
<path d="M0 0 C0.99 0 1.98 0 3 0 C3.66 1.98 4.32 3.96 5 6 C5.78375 6.0825 6.5675 6.165 7.375 6.25 C10 7 10 7 11.3125 8.9375 C12 11 12 11 12 13 C6.85599584 11.63835184 3.8743952 8.3115928 1 4 C0.328125 1.7734375 0.328125 1.7734375 0 0 Z M10 5 C10.66 5.66 11.32 6.32 12 7 C11.34 7 10.68 7 10 7 C10 6.34 10 5.68 10 5 Z " fill="#E7C3EF" transform="translate(34,452)"/>
<path d="M0 0 C-0.928125 0.70125 -1.85625 1.4025 -2.8125 2.125 C-5.90095295 4.67315622 -7.44426187 7.28351447 -9 11 C-10.25541557 7.23375329 -9.37061958 5.62811066 -8 2 C-7.34 2 -6.68 2 -6 2 C-6 1.34 -6 0.68 -6 0 C-3.50907189 -1.24546405 -2.58919267 -0.7767578 0 0 Z " fill="#FEF6FE" transform="translate(44,37)"/>
<path d="M0 0 C3.98175544 2.10148204 6.35039045 4.36905358 9 8 C8.67 8.66 8.34 9.32 8 10 C3.125 6.375 3.125 6.375 2 3 C1.34 2.67 0.68 2.34 0 2 C0 1.34 0 0.68 0 0 Z " fill="#EACAF0" transform="translate(456,36)"/>
</svg>
