<?xml version="1.0" encoding="UTF-8"?><svg xmlns="http://www.w3.org/2000/svg" xmlns:xlink="http://www.w3.org/1999/xlink" viewBox="0 0 345.93 70.55"><defs><linearGradient id="linear-gradient" x1="202.57" y1="34.47" x2="332.41" y2="34.47" gradientUnits="userSpaceOnUse"><stop offset="0" stop-color="#95a6b3"/><stop offset="1" stop-color="#e7ecf1"/></linearGradient><linearGradient id="linear-gradient-2" x1="268.13" y1="48.26" x2="338.12" y2="48.26" xlink:href="#linear-gradient"/><linearGradient id="linear-gradient-3" x1="261.03" y1="67.02" x2="331.01" y2="67.02" xlink:href="#linear-gradient"/><linearGradient id="linear-gradient-4" x1="23.83" y1="58.79" x2="85.03" y2="58.79" xlink:href="#linear-gradient"/><linearGradient id="linear-gradient-5" x1="24.81" y1="10.36" x2="86" y2="10.36" xlink:href="#linear-gradient"/><linearGradient id="linear-gradient-6" x1="24.44" y1="32.28" x2="122.44" y2="32.28" xlink:href="#linear-gradient"/><linearGradient id="linear-gradient-7" x1="190.9" y1="4.82" x2="336.14" y2="4.82" xlink:href="#linear-gradient"/><linearGradient id="linear-gradient-8" x1="0" y1="42.22" x2="108.65" y2="42.22" xlink:href="#linear-gradient"/><linearGradient id="linear-gradient-9" x1="90.31" y1="41.08" x2="198.96" y2="41.08" xlink:href="#linear-gradient"/><linearGradient id="linear-gradient-10" x1="60.48" y1="2.86" x2="169.14" y2="2.86" xlink:href="#linear-gradient"/><linearGradient id="linear-gradient-11" x1="189.47" y1="23.1" x2="345.93" y2="23.1" xlink:href="#linear-gradient"/><linearGradient id="linear-gradient-12" x1="140.71" y1="58.4" x2="297.17" y2="58.4" xlink:href="#linear-gradient"/><linearGradient id="linear-gradient-13" x1="24.73" y1="19.34" x2="205.95" y2="19.34" xlink:href="#linear-gradient"/></defs><g style="isolation:isolate;"><g id="Layer_2"><g id="Layer_1-2"><g id="BG_Clouds"><path d="M332.41,27.91s-22.64-.08-31.33,1.79c0,0-21.19-.34-29.34,1.62,0,0-19.19.68-13.94,2.39,0,0-18.11.25-24.45,1.53-6.34,1.28-.73-.17-.73-.17,0,0-29.34,1.11-30.06,2.64-.72,1.54,32.05.77,32.05.77,0,0,17.02,1.36,33.68.09,0,0,13.22.85,26.62.08,0,0,7.79.85,14.3.94,0,0,5.25,1.36,23.18,1.45v-13.12Z" style="fill:url(#linear-gradient); mix-blend-mode:screen; opacity:.2; stroke-width:0px;"/><path d="M338.12,44.72s-12.2-.05-16.89.96c0,0-11.42-.18-15.81.87,0,0-10.35.37-7.52,1.29,0,0-9.76.14-13.18.83-3.42.69-.39-.09-.39-.09,0,0-15.81.6-16.2,1.42-.39.83,17.28.41,17.28.41,0,0,9.17.74,18.15.05,0,0,7.13.46,14.35.05,0,0,4.2.46,7.71.5,0,0,2.83.73,12.49.78v-7.07Z" style="fill:url(#linear-gradient-2); mix-blend-mode:screen; opacity:.2; stroke-width:0px;"/><path d="M331.01,63.48s-12.2-.05-16.88.96c0,0-11.42-.18-15.81.87,0,0-10.35.37-7.52,1.28,0,0-9.76.14-13.18.83-3.41.69-.39-.09-.39-.09,0,0-15.81.6-16.2,1.42-.39.83,17.28.41,17.28.41,0,0,9.17.73,18.15.04,0,0,7.12.46,14.35.05,0,0,4.2.46,7.71.5,0,0,2.83.73,12.49.78v-7.07Z" style="fill:url(#linear-gradient-3); mix-blend-mode:screen; opacity:.2; stroke-width:0px;"/><path d="M23.83,56.22s10.67-.03,14.76.7c0,0,9.99-.13,13.83.64,0,0,9.05.27,6.57.94,0,0,8.53.1,11.52.6,2.99.5.34-.07.34-.07,0,0,13.82.43,14.17,1.04.34.6-15.1.3-15.1.3,0,0-8.02.53-15.87.03,0,0-6.23.34-12.54.04,0,0-3.67.33-6.74.37,0,0-2.48.54-10.92.57v-5.15Z" style="fill:url(#linear-gradient-4); mix-blend-mode:screen; opacity:.2; stroke-width:0px;"/><path d="M24.81,7.79s10.67-.03,14.76.7c0,0,9.98-.13,13.83.64,0,0,9.05.27,6.57.94,0,0,8.53.1,11.52.6,2.99.5.34-.07.34-.07,0,0,13.82.43,14.17,1.04.34.6-15.1.3-15.1.3,0,0-8.02.54-15.87.03,0,0-6.23.34-12.55.04,0,0-3.67.33-6.74.37,0,0-2.47.53-10.92.57v-5.15Z" style="fill:url(#linear-gradient-5); mix-blend-mode:screen; opacity:.2; stroke-width:0px;"/><path d="M24.44,37.1s10.05-.26,16.3-1.28c0,0,29.88-1.4,6.79-2.3,0,0,16.84.51,23.9-.89,0,0,32.92-.42,46.34-1.46,20.48-1.58-33.03-1.61-33.03-1.61,0,0-20.64-2.17-34.5-.64,0,0-11.4-1.79-25.8-1.4v9.58Z" style="fill:url(#linear-gradient-6); mix-blend-mode:screen; opacity:.2; stroke-width:0px;"/><path d="M336.14,9.64s-14.9-.25-24.15-1.28c0,0-44.28-1.41-10.06-2.3,0,0-24.96.51-35.43-.89,0,0-48.79-.42-68.68-1.45-30.35-1.58,48.95-1.61,48.95-1.61,0,0,30.59-2.17,51.12-.64,0,0,16.89-1.79,38.25-1.41v9.58Z" style="fill:url(#linear-gradient-7); mix-blend-mode:screen; opacity:.2; stroke-width:0px;"/><path d="M77.68,43.62s64.92-1.92,6.79-3.19c0,0-34.5-2.55-50.79.26,0,0-67.91,2.04-10.87,3.07,0,0,10.05,2.04,25.26.38,0,0,14.94,2.43,29.61-.51Z" style="fill:url(#linear-gradient-8); mix-blend-mode:screen; opacity:.2; stroke-width:0px;"/><path d="M167.99,42.49s64.92-1.92,6.79-3.19c0,0-34.5-2.55-50.79.26,0,0-67.91,2.04-10.87,3.07,0,0,10.05,2.04,25.26.38,0,0,14.94,2.43,29.61-.51Z" style="fill:url(#linear-gradient-9); mix-blend-mode:screen; opacity:.2; stroke-width:0px;"/><path d="M138.16,4.26s64.92-1.92,6.79-3.19c0,0-34.5-2.55-50.79.26,0,0-67.91,2.04-10.87,3.07,0,0,10.05,2.04,25.26.38,0,0,14.94,2.43,29.61-.51Z" style="fill:url(#linear-gradient-10); mix-blend-mode:screen; opacity:.2; stroke-width:0px;"/><path d="M301.33,24.5s93.48-1.92,9.78-3.19c0,0-49.67-2.55-73.14.26,0,0-97.78,2.04-15.64,3.07,0,0,14.47,2.04,36.38.38,0,0,21.51,2.43,42.63-.51Z" style="fill:url(#linear-gradient-11); mix-blend-mode:screen; opacity:.2; stroke-width:0px;"/><path d="M252.57,59.8s93.48-1.92,9.78-3.19c0,0-49.67-2.55-73.14.26,0,0-97.78,2.04-15.64,3.07,0,0,14.47,2.04,36.38.38,0,0,21.51,2.43,42.63-.51Z" style="fill:url(#linear-gradient-12); mix-blend-mode:screen; opacity:.2; stroke-width:0px;"/><path d="M154.28,20.97s108.27-2.22,11.33-3.7c0,0-57.53-2.96-84.72.3,0,0-113.26,2.37-18.12,3.55,0,0,16.76,2.37,42.13.44,0,0,24.92,2.81,49.38-.59Z" style="fill:url(#linear-gradient-13); mix-blend-mode:screen; opacity:.2; stroke-width:0px;"/></g></g></g></g></svg>