<?xml version="1.0" encoding="UTF-8"?><svg id="Layer_2" xmlns="http://www.w3.org/2000/svg" viewBox="0 0 131.96 43.24"><g id="Layer_1-2"><g id="Birds"><path d="M97.71,16.04s-.26-1.1-1.87-.68c0,0,1.47-.68,1.97.45,0,0,.19-.15.34.02,0,0,.88-.57,1.99-.1,0,0-1.52-.19-2.01.4,0,0-.21.21-.42-.09Z" style="fill:#525b6d; stroke-width:0px;"/><path d="M105.21,12.93s-.45-1.93-3.3-1.2c0,0,2.59-1.2,3.48.8,0,0,.33-.27.6.03,0,0,1.55-1.01,3.51-.18,0,0-2.68-.33-3.54.71,0,0-.37.37-.75-.16Z" style="fill:#525b6d; stroke-width:0px;"/><path d="M83.06,12.73s-.54-1.15-2.23-.3c0,0,1.46-1.1,2.28.03,0,0,.17-.21.38-.06,0,0,.83-.84,2.18-.59,0,0-1.72.15-2.12.92,0,0-.18.28-.49,0Z" style="fill:#525b6d; stroke-width:0px;"/><path d="M120.58,33.85s-.24-1.06-1.81-.65c0,0,1.42-.66,1.9.43,0,0,.18-.15.33.02,0,0,.85-.56,1.92-.1,0,0-1.47-.19-1.94.39,0,0-.2.19-.41-.09Z" style="fill:#525b6d; stroke-width:0px;"/><path d="M127.82,30.84s-.43-1.86-3.19-1.16c0,0,2.5-1.16,3.37.77,0,0,.32-.26.58.03,0,0,1.49-.98,3.39-.17,0,0-2.59-.32-3.42.69,0,0-.36.35-.72-.15Z" style="fill:#525b6d; stroke-width:0px;"/><path d="M106.43,30.65s-.52-1.11-2.15-.29c0,0,1.41-1.06,2.21.03,0,0,.16-.21.36-.06,0,0,.81-.81,2.1-.56,0,0-1.66.14-2.05.89,0,0-.18.26-.47,0Z" style="fill:#525b6d; stroke-width:0px;"/><path d="M117.02,4.67s-.26-1.1-1.88-.68c0,0,1.47-.68,1.98.45,0,0,.18-.15.33.01,0,0,.88-.57,1.99-.1,0,0-1.52-.19-2.01.4,0,0-.21.21-.42-.09Z" style="fill:#525b6d; stroke-width:0px;"/><path d="M124.52,1.56s-.44-1.93-3.31-1.2c0,0,2.6-1.2,3.49.79,0,0,.33-.27.6.03,0,0,1.55-1.01,3.51-.18,0,0-2.68-.34-3.54.71,0,0-.38.36-.75-.16Z" style="fill:#525b6d; stroke-width:0px;"/><path d="M102.37,1.36s-.54-1.14-2.23-.3c0,0,1.46-1.1,2.29.03,0,0,.17-.22.38-.06,0,0,.83-.84,2.17-.59,0,0-1.72.15-2.12.92,0,0-.19.28-.49,0Z" style="fill:#525b6d; stroke-width:0px;"/><path d="M77.84,5.46s-.25-1.09-1.88-.68c0,0,1.47-.68,1.98.45,0,0,.19-.15.34.02,0,0,.88-.57,1.99-.1,0,0-1.52-.19-2.01.41,0,0-.21.2-.42-.09Z" style="fill:#525b6d; stroke-width:0px;"/><path d="M85.34,2.35s-.45-1.93-3.31-1.2c0,0,2.6-1.2,3.49.8,0,0,.33-.27.59.03,0,0,1.55-1.01,3.52-.18,0,0-2.68-.33-3.54.71,0,0-.37.36-.75-.16Z" style="fill:#525b6d; stroke-width:0px;"/><path d="M63.19,2.16s-.54-1.15-2.23-.3c0,0,1.46-1.1,2.29.03,0,0,.17-.21.38-.06,0,0,.83-.84,2.17-.59,0,0-1.72.15-2.12.92,0,0-.18.27-.49,0Z" style="fill:#525b6d; stroke-width:0px;"/><path d="M61.02,43.08s-.25-1.1-1.87-.67c0,0,1.46-.69,1.97.45,0,0,.18-.15.33.02,0,0,.88-.58,1.99-.1,0,0-1.52-.19-2,.4,0,0-.21.21-.42-.09Z" style="fill:#525b6d; stroke-width:0px;"/><path d="M68.52,39.97s-.44-1.93-3.31-1.2c0,0,2.59-1.2,3.49.79,0,0,.33-.27.59.03,0,0,1.55-1.01,3.52-.18,0,0-2.68-.34-3.55.71,0,0-.37.36-.75-.16Z" style="fill:#525b6d; stroke-width:0px;"/><path d="M46.37,39.77s-.54-1.14-2.23-.3c0,0,1.46-1.1,2.29.03,0,0,.17-.21.38-.07,0,0,.83-.84,2.17-.59,0,0-1.72.16-2.12.92,0,0-.18.28-.49,0Z" style="fill:#525b6d; stroke-width:0px;"/><path d="M57.86,20.38s-.25-1.09-1.87-.68c0,0,1.47-.68,1.97.45,0,0,.19-.15.34.02,0,0,.88-.57,1.99-.1,0,0-1.52-.19-2.01.4,0,0-.21.2-.42-.09Z" style="fill:#525b6d; stroke-width:0px;"/><path d="M65.36,17.27s-.45-1.93-3.3-1.2c0,0,2.59-1.2,3.48.79,0,0,.33-.27.6.03,0,0,1.55-1.01,3.51-.18,0,0-2.68-.34-3.54.71,0,0-.37.36-.75-.16Z" style="fill:#525b6d; stroke-width:0px;"/><path d="M43.21,17.07s-.54-1.15-2.23-.3c0,0,1.46-1.1,2.29.03,0,0,.17-.21.38-.06,0,0,.83-.84,2.17-.59,0,0-1.72.15-2.12.92,0,0-.18.28-.49,0Z" style="fill:#525b6d; stroke-width:0px;"/><path d="M16.88,31.59s-.25-1.1-1.87-.68c0,0,1.47-.68,1.97.45,0,0,.19-.15.34.01,0,0,.88-.57,1.99-.1,0,0-1.52-.19-2,.4,0,0-.21.21-.42-.09Z" style="fill:#525b6d; stroke-width:0px;"/><path d="M24.38,28.49s-.45-1.93-3.31-1.19c0,0,2.59-1.2,3.48.79,0,0,.33-.27.6.03,0,0,1.55-1.01,3.51-.18,0,0-2.68-.33-3.54.71,0,0-.37.36-.75-.16Z" style="fill:#525b6d; stroke-width:0px;"/><path d="M2.23,28.29s-.54-1.15-2.23-.3c0,0,1.46-1.1,2.29.03,0,0,.17-.21.38-.06,0,0,.83-.84,2.17-.59,0,0-1.72.15-2.12.92,0,0-.18.28-.48,0Z" style="fill:#525b6d; stroke-width:0px;"/></g></g></svg>