<?xml version="1.0" encoding="UTF-8"?><svg xmlns="http://www.w3.org/2000/svg" xmlns:xlink="http://www.w3.org/1999/xlink" viewBox="0 0 340.98 34.55"><defs><linearGradient id="_횂횁_횕_횑횑_횊_횏횂횑횣_588" x1="165.7" y1="112.82" x2="171.45" y2="-1.82" gradientUnits="userSpaceOnUse"><stop offset="0" stop-color="#353683"/><stop offset=".65" stop-color="#6d3cd7"/><stop offset="1" stop-color="#883fff"/></linearGradient></defs><g style="isolation:isolate;"><g id="Layer_2"><g id="_횓횙횊_1"><path d="M0,34.55s106.16-3.32,140.38-7.37c1.07-.13-25.77,2.53-24.94.9.83-1.63-35.28,2.12-35.12,2.05,3.65-1.69,44.49-5.57,56.41-7.81C199.16,10.61,340.98.08,340.98.08l-67.28,2.88s34.25-1.02,3.75,1.62c-10.59.91-22.6-5.04-27.78-4.55-5.18.49-4.72,6.29-7.37,7.77-2.66,1.49-65.21,7.33-65.35,7.85-.14.53-1,1.6-4.67,1.67-3.67.08-16.05-3.83-22.04-3.17s-4.15,9.02-24.02,8.85c-1.93-3.77-10.53,1.42-10.84,2.19-.31.77-16.52-3.96-16.52-3.96,0,0-23.3-23.07-39.19-4.22C44.4,35.13,0,34.55,0,34.55Z" style="fill:url(#_횂횁_횕_횑횑_횊_횏횂횑횣_588); fill-rule:evenodd; mix-blend-mode:multiply; opacity:.4; stroke-width:0px;"/></g></g></g></svg>