<?xml version="1.0" encoding="UTF-8"?><svg xmlns="http://www.w3.org/2000/svg" xmlns:xlink="http://www.w3.org/1999/xlink" viewBox="0 0 717.05 204.83"><defs><radialGradient id="_ÂÁ_Ï_ÌÌ_È_ËÂÌÚ_329" cx="298.29" cy="19.7" fx="298.29" fy="19.7" r="3.86" gradientUnits="userSpaceOnUse"><stop offset="0" stop-color="#404ffa"/><stop offset=".17" stop-color="#313cc0"/><stop offset=".4" stop-color="#20277d"/><stop offset=".6" stop-color="#121647"/><stop offset=".77" stop-color="#080a20"/><stop offset=".91" stop-color="#020208"/><stop offset="1" stop-color="#000"/></radialGradient><radialGradient id="_ÂÁ_Ï_ÌÌ_È_ËÂÌÚ_329-2" cx="453.73" cy="55.54" fx="453.73" fy="55.54" r="3.86" xlink:href="#_ÂÁ_Ï_ÌÌ_È_ËÂÌÚ_329"/></defs><g style="isolation:isolate;"><g id="Layer_2"><g id="_ÎÓÈ_1"><path d="M471.19,117.07c0,.24-.19.43-.43.43s-.43-.19-.43-.43.19-.43.43-.43.43.19.43.43Z" style="fill:#90ffff; fill-rule:evenodd; stroke-width:0px;"/><path d="M681.34,47.71c0,.24-.19.43-.43.43s-.43-.19-.43-.43.19-.43.43-.43.43.19.43.43Z" style="fill:#90ffff; fill-rule:evenodd; stroke-width:0px;"/><path d="M338.46,194.89c0,.24-.19.43-.43.43s-.43-.19-.43-.43.19-.43.43-.43.43.19.43.43Z" style="fill:#5696df; fill-rule:evenodd; stroke-width:0px;"/><path d="M389.51,34.73c.15-.03.29.07.32.22.03.15-.07.29-.22.32-.15.03-.29-.07-.32-.22-.03-.15.07-.29.22-.32Z" style="fill:#90ffff; fill-rule:evenodd; stroke-width:0px;"/><path d="M454.63,55.21c0,.47-.38.85-.85.85s-.85-.38-.85-.85.38-.85.85-.85.85.38.85.85Z" style="fill:#90ffff; fill-rule:evenodd; stroke-width:0px;"/><path d="M423.36,23.14c0,.24-.19.43-.43.43s-.43-.19-.43-.43.19-.43.43-.43.43.19.43.43Z" style="fill:#90ffff; fill-rule:evenodd; stroke-width:0px;"/><path d="M524,42.77c0,.24-.19.43-.43.43s-.43-.19-.43-.43.19-.43.43-.43.43.19.43.43Z" style="fill:#90ffff; fill-rule:evenodd; stroke-width:0px;"/><circle cx="453.82" cy="19.55" r=".43" style="fill:#90ffff; stroke-width:0px;"/><path d="M367.69,199.06c0,.24-.19.43-.43.43s-.43-.19-.43-.43.19-.43.43-.43.43.19.43.43Z" style="fill:#90ffff; fill-rule:evenodd; stroke-width:0px;"/><path d="M621.84,26.5c0,.24-.19.43-.43.43s-.43-.19-.43-.43.19-.43.43-.43.43.19.43.43Z" style="fill:#90ffff; fill-rule:evenodd; stroke-width:0px;"/><path d="M449.4,56.8c0,.24-.19.43-.43.43s-.43-.19-.43-.43.19-.43.43-.43.43.19.43.43Z" style="fill:#90ffff; fill-rule:evenodd; stroke-width:0px;"/><circle cx="376.5" cy="40.46" r=".28" style="fill:#90ffff; stroke-width:0px;"/><path d="M418.4,204.4c0,.24-.19.43-.43.43s-.43-.19-.43-.43.19-.43.43-.43.43.19.43.43Z" style="fill:#5696df; fill-rule:evenodd; stroke-width:0px;"/><path d="M364.82,54.85c.23-.04.46.11.5.35.04.23-.11.46-.35.5-.23.04-.46-.11-.5-.35-.04-.23.11-.46.35-.5Z" style="fill:#90ffff; fill-rule:evenodd; stroke-width:0px;"/><path d="M524.38,72.94c0,.24-.19.43-.43.43s-.43-.19-.43-.43.19-.43.43-.43.43.19.43.43Z" style="fill:#90ffff; fill-rule:evenodd; stroke-width:0px;"/><path d="M426.34,37.37c0,.14-.11.25-.25.25s-.25-.11-.25-.25.11-.25.25-.25.25.11.25.25Z" style="fill:#90ffff; fill-rule:evenodd; stroke-width:0px;"/><path d="M340.93,24c0,.24-.19.43-.43.43s-.43-.19-.43-.43.19-.43.43-.43.43.19.43.43Z" style="fill:#90ffff; fill-rule:evenodd; stroke-width:0px;"/><path d="M529.81,125.88c0,.24-.19.43-.43.43s-.43-.19-.43-.43.19-.43.43-.43.43.19.43.43Z" style="fill:#90ffff; fill-rule:evenodd; stroke-width:0px;"/><path d="M379.56,36.25c.15-.03.29.07.32.22s-.07.29-.22.32c-.15.03-.29-.07-.32-.22s.07-.29.22-.32Z" style="fill:#90ffff; fill-rule:evenodd; stroke-width:0px;"/><path d="M670.84,49.3c0,.24-.19.43-.43.43s-.43-.19-.43-.43.19-.43.43-.43.43.19.43.43Z" style="fill:#90ffff; fill-rule:evenodd; stroke-width:0px;"/><path d="M462.07,74.43c0,.24-.19.43-.43.43s-.43-.19-.43-.43.19-.43.43-.43.43.19.43.43Z" style="fill:#90ffff; fill-rule:evenodd; stroke-width:0px;"/><path d="M403.77,25.87c0,.21-.17.38-.38.38s-.38-.17-.38-.38.17-.38.38-.38.38.17.38.38Z" style="fill:#90ffff; fill-rule:evenodd; stroke-width:0px;"/><circle cx="421.81" cy="47.47" r=".43" style="fill:#90ffff; stroke-width:0px;"/><path d="M706.24,54.22c.2.12.27.39.15.59-.12.2-.39.27-.59.15s-.27-.39-.15-.59c.12-.2.39-.27.59-.15Z" style="fill:#90ffff; fill-rule:evenodd; stroke-width:0px;"/><path d="M348.67,145.3c0,.24-.19.43-.43.43s-.43-.19-.43-.43.19-.43.43-.43.43.19.43.43Z" style="fill:#90ffff; fill-rule:evenodd; stroke-width:0px;"/><path d="M551.67,59.81c0,.54-.44.97-.97.97s-.97-.44-.97-.97.44-.97.97-.97.97.44.97.97Z" style="fill:#90ffff; fill-rule:evenodd; stroke-width:0px;"/><path d="M465.71,47.82c0,.24-.19.43-.43.43s-.43-.19-.43-.43.19-.43.43-.43.43.19.43.43Z" style="fill:#90ffff; fill-rule:evenodd; stroke-width:0px;"/><path d="M505.14,22.84c.34-.09.68.11.77.44s-.11.68-.44.77c-.34.09-.68-.11-.77-.44-.09-.34.11-.68.44-.77Z" style="fill:#90ffff; fill-rule:evenodd; stroke-width:0px;"/><path d="M562.67,103.61c.34-.09.68.11.77.44.09.34-.11.68-.44.77-.34.09-.68-.11-.77-.44-.09-.34.11-.68.44-.77Z" style="fill:#90ffff; fill-rule:evenodd; stroke-width:0px;"/><path d="M651.98,61.73c.34-.09.68.11.77.44.09.34-.11.68-.44.77-.34.09-.68-.11-.77-.44-.09-.34.11-.68.44-.77Z" style="fill:#90ffff; fill-rule:evenodd; stroke-width:0px;"/><path d="M582.65,16.61c.34-.09.68.11.77.44.09.34-.11.68-.44.77-.34.09-.68-.11-.77-.44-.09-.34.11-.68.44-.77Z" style="fill:#90ffff; fill-rule:evenodd; stroke-width:0px;"/><path d="M494.5,31.91c.34-.09.68.11.77.44.09.34-.11.68-.44.77-.34.09-.68-.11-.77-.44-.09-.34.11-.68.44-.77Z" style="fill:#90ffff; fill-rule:evenodd; stroke-width:0px;"/><path d="M153.14,53.1c0,.24-.19.43-.43.43s-.43-.19-.43-.43.19-.43.43-.43.43.19.43.43Z" style="fill:#90ffff; fill-rule:evenodd; stroke-width:0px;"/><path d="M102.49,46.44c0,.24-.19.43-.43.43s-.43-.19-.43-.43.19-.43.43-.43.43.19.43.43Z" style="fill:#90ffff; fill-rule:evenodd; stroke-width:0px;"/><path d="M298.94,19.4c0,.36-.29.66-.66.66s-.66-.29-.66-.66.29-.66.66-.66.66.29.66.66Z" style="fill:#90ffff; fill-rule:evenodd; stroke-width:0px;"/><path d="M153.8,32.54c0,.18-.14.32-.32.32s-.32-.14-.32-.32.14-.32.32-.32.32.14.32.32Z" style="fill:#90ffff; fill-rule:evenodd; stroke-width:0px;"/><path d="M297.74,63.21c0,.18-.14.32-.32.32s-.32-.14-.32-.32.14-.32.32-.32.32.14.32.32Z" style="fill:#90ffff; fill-rule:evenodd; stroke-width:0px;"/><path d="M276.61,20.9c0,.24-.19.43-.43.43s-.43-.19-.43-.43.19-.43.43-.43.43.19.43.43Z" style="fill:#90ffff; fill-rule:evenodd; stroke-width:0px;"/><path d="M94.58,70.31c0,.24-.19.43-.43.43s-.43-.19-.43-.43.19-.43.43-.43.43.19.43.43Z" style="fill:#90ffff; fill-rule:evenodd; stroke-width:0px;"/><path d="M85.52,25.93c0,.24-.19.43-.43.43s-.43-.19-.43-.43.19-.43.43-.43.43.19.43.43Z" style="fill:#90ffff; fill-rule:evenodd; stroke-width:0px;"/><path d="M245.07,23.33c0,.18-.14.32-.32.32s-.32-.14-.32-.32.14-.32.32-.32.32.14.32.32Z" style="fill:#90ffff; fill-rule:evenodd; stroke-width:0px;"/><path d="M126.46,89.04c0,.24-.19.43-.43.43s-.43-.19-.43-.43.19-.43.43-.43.43.19.43.43Z" style="fill:#90ffff; fill-rule:evenodd; stroke-width:0px;"/><path d="M160.97,76.37c0,.24-.19.43-.43.43s-.43-.19-.43-.43.19-.43.43-.43.43.19.43.43Z" style="fill:#90ffff; fill-rule:evenodd; stroke-width:0px;"/><circle cx="234.75" cy="32.38" r=".32" style="fill:#90ffff; stroke-width:0px;"/><path d="M30.01,60.7c0,.24-.19.43-.43.43s-.43-.19-.43-.43.19-.43.43-.43.43.19.43.43Z" style="fill:#90ffff; fill-rule:evenodd; stroke-width:0px;"/><path d="M66.92,80.77c0,.24-.19.43-.43.43s-.43-.19-.43-.43.19-.43.43-.43.43.19.43.43Z" style="fill:#90ffff; fill-rule:evenodd; stroke-width:0px;"/><path d="M49.83,69.68c0,.24-.19.43-.43.43s-.43-.19-.43-.43.19-.43.43-.43.43.19.43.43Z" style="fill:#90ffff; fill-rule:evenodd; stroke-width:0px;"/><path d="M29.91.43c0,.24-.19.43-.43.43s-.43-.19-.43-.43.19-.43.43-.43.43.19.43.43Z" style="fill:#90ffff; fill-rule:evenodd; stroke-width:0px;"/><path d="M.86,38.88c0,.24-.19.43-.43.43s-.43-.19-.43-.43.19-.43.43-.43.43.19.43.43Z" style="fill:#90ffff; fill-rule:evenodd; stroke-width:0px;"/><circle cx="309.98" cy="23.71" r=".18" style="fill:#90ffff; stroke-width:0px;"/><path d="M184.29,21.26c0,.24-.19.43-.43.43s-.43-.19-.43-.43.19-.43.43-.43.43.19.43.43Z" style="fill:#90ffff; fill-rule:evenodd; stroke-width:0px;"/><path d="M136.57,65.91c0,.24-.19.43-.43.43s-.43-.19-.43-.43.19-.43.43-.43.43.19.43.43Z" style="fill:#90ffff; fill-rule:evenodd; stroke-width:0px;"/><path d="M686.43,58.99c0,.24-.19.43-.43.43s-.43-.19-.43-.43.19-.43.43-.43.43.19.43.43Z" style="fill:#90ffff; fill-rule:evenodd; stroke-width:0px;"/><path d="M701.09,54.43c-.04-.12.01-.25.13-.29.12-.04.25.01.29.13.04.12-.01.25-.13.29-.12.04-.25-.01-.29-.13Z" style="fill:#90ffff; fill-rule:evenodd; stroke-width:0px;"/><path d="M302.41,9.15c0,.24-.19.43-.43.43s-.43-.19-.43-.43.19-.43.43-.43.43.19.43.43Z" style="fill:#90ffff; fill-rule:evenodd; stroke-width:0px;"/><path d="M716.84,40.32c.2.12.27.39.15.59-.12.2-.39.27-.59.15-.2-.12-.27-.39-.15-.59.12-.2.39-.27.59-.15Z" style="fill:#90ffff; fill-rule:evenodd; stroke-width:0px;"/><path d="M301.78,67.08c0,.18-.14.32-.32.32s-.32-.14-.32-.32.14-.32.32-.32.32.14.32.32Z" style="fill:#90ffff; fill-rule:evenodd; stroke-width:0px;"/><path d="M397.62,20.81c0,.32-.26.58-.58.58s-.58-.26-.58-.58.26-.58.58-.58.58.26.58.58Z" style="fill:#90ffff; fill-rule:evenodd; stroke-width:0px;"/><path d="M644.73,19.46c.2.12.27.39.15.59-.12.2-.39.27-.59.15-.2-.12-.27-.39-.15-.59.12-.2.39-.27.59-.15Z" style="fill:#90ffff; fill-rule:evenodd; stroke-width:0px;"/><path d="M306.05,119.2c0,.24-.19.43-.43.43s-.43-.19-.43-.43.19-.43.43-.43.43.19.43.43Z" style="fill:#90ffff; fill-rule:evenodd; stroke-width:0px;"/><path d="M431.13,33.93c0,.24-.19.43-.43.43s-.43-.19-.43-.43.19-.43.43-.43.43.19.43.43Z" style="fill:#90ffff; fill-rule:evenodd; stroke-width:0px;"/><path d="M334.71,61.71c0,.24-.19.43-.43.43s-.43-.19-.43-.43.19-.43.43-.43.43.19.43.43Z" style="fill:#90ffff; fill-rule:evenodd; stroke-width:0px;"/><path d="M682.54,43.67c.2.12.27.39.15.59s-.39.27-.59.15c-.2-.12-.27-.39-.15-.59.12-.2.39-.27.59-.15Z" style="fill:#90ffff; fill-rule:evenodd; stroke-width:0px;"/><path d="M586.04,69.66c.22.09.33.33.25.56-.08.22-.33.33-.56.25-.22-.08-.33-.33-.25-.56.08-.22.33-.33.56-.25Z" style="fill:#90ffff; fill-rule:evenodd; stroke-width:0px;"/><path d="M573.9,65c0,.24-.19.43-.43.43s-.43-.19-.43-.43.19-.43.43-.43.43.19.43.43Z" style="fill:#90ffff; fill-rule:evenodd; stroke-width:0px;"/><path d="M550.31,66.42c0,.24-.19.43-.43.43s-.43-.19-.43-.43.19-.43.43-.43.43.19.43.43Z" style="fill:#90ffff; fill-rule:evenodd; stroke-width:0px;"/><path d="M593.52,57.56c.34-.09.68.11.77.44.09.34-.11.68-.44.77-.34.09-.68-.11-.77-.44-.09-.34.11-.68.44-.77Z" style="fill:#90ffff; fill-rule:evenodd; stroke-width:0px;"/><path d="M562.8,72.51c0,.24-.19.43-.43.43s-.43-.19-.43-.43.19-.43.43-.43.43.19.43.43Z" style="fill:#90ffff; fill-rule:evenodd; stroke-width:0px;"/><path d="M155.96,46.12c0,.36-.29.66-.66.66s-.66-.29-.66-.66.29-.66.66-.66.66.29.66.66Z" style="fill:#90ffff; fill-rule:evenodd; stroke-width:0px;"/><path d="M23.47,26.75c0,.24-.19.43-.43.43s-.43-.19-.43-.43.19-.43.43-.43.43.19.43.43Z" style="fill:#90ffff; fill-rule:evenodd; stroke-width:0px;"/><path d="M72.55,27.72c0,.24-.19.43-.43.43s-.43-.19-.43-.43.19-.43.43-.43.43.19.43.43Z" style="fill:#90ffff; fill-rule:evenodd; stroke-width:0px;"/><path d="M285.56,32.22c0,.18-.14.32-.32.32s-.32-.14-.32-.32.14-.32.32-.32.32.14.32.32Z" style="fill:#90ffff; fill-rule:evenodd; stroke-width:0px;"/><path d="M567.13,62.7c0,.15-.12.27-.27.27s-.27-.12-.27-.27.12-.27.27-.27.27.12.27.27Z" style="fill:#90ffff; fill-rule:evenodd; opacity:.54; stroke-width:0px;"/><path d="M528,65.79c0,.15-.12.27-.27.27s-.27-.12-.27-.27.12-.27.27-.27.27.12.27.27Z" style="fill:#90ffff; fill-rule:evenodd; opacity:.54; stroke-width:0px;"/><path d="M517.26,42.73c0,.15-.12.27-.27.27s-.27-.12-.27-.27.12-.27.27-.27.27.12.27.27Z" style="fill:#90ffff; fill-rule:evenodd; opacity:.54; stroke-width:0px;"/><circle cx="531.84" cy="65.52" r=".27" style="fill:#90ffff; opacity:.54; stroke-width:0px;"/><path d="M541.63,57.38c0,.15-.12.27-.27.27s-.27-.12-.27-.27.12-.27.27-.27.27.12.27.27Z" style="fill:#90ffff; fill-rule:evenodd; opacity:.54; stroke-width:0px;"/><path d="M529.22,42.69c.22.08.33.33.25.56-.08.22-.33.33-.56.25s-.33-.33-.25-.56.33-.33.56-.25Z" style="fill:#90ffff; fill-rule:evenodd; opacity:.54; stroke-width:0px;"/><path d="M655.8,54.71c0,.24-.19.43-.43.43s-.43-.19-.43-.43.19-.43.43-.43.43.19.43.43Z" style="fill:#90ffff; fill-rule:evenodd; opacity:.54; stroke-width:0px;"/><path d="M650.25,72.74c0,.24-.19.43-.43.43s-.43-.19-.43-.43.19-.43.43-.43.43.19.43.43Z" style="fill:#90ffff; fill-rule:evenodd; opacity:.54; stroke-width:0px;"/><path d="M564.81,52.45c0,.15-.12.27-.27.27s-.27-.12-.27-.27.12-.27.27-.27.27.12.27.27Z" style="fill:#90ffff; fill-rule:evenodd; opacity:.54; stroke-width:0px;"/><path d="M606.73,20.66c.34-.09.68.11.77.44.09.34-.11.68-.44.77s-.68-.11-.77-.44c-.09-.34.11-.68.44-.77Z" style="fill:#90ffff; fill-rule:evenodd; opacity:.54; stroke-width:0px;"/><circle cx="534.05" cy="32.01" r=".27" style="fill:#90ffff; opacity:.54; stroke-width:0px;"/><circle cx="507.19" cy="33.99" r=".27" style="fill:#90ffff; opacity:.54; stroke-width:0px;"/><path d="M74.97,21.02c0,.36-.29.66-.66.66s-.66-.29-.66-.66.29-.66.66-.66.66.29.66.66Z" style="fill:#90ffff; fill-rule:evenodd; opacity:.54; stroke-width:0px;"/><path d="M42.66,76.88c0,.24-.19.43-.43.43s-.43-.19-.43-.43.19-.43.43-.43.43.19.43.43Z" style="fill:#90ffff; fill-rule:evenodd; opacity:.54; stroke-width:0px;"/><path d="M131.43,53.35c0,.18-.14.32-.32.32s-.32-.14-.32-.32.14-.32.32-.32.32.14.32.32Z" style="fill:#90ffff; fill-rule:evenodd; opacity:.54; stroke-width:0px;"/><path d="M533.8,56.63c.22.09.33.33.25.56-.08.22-.33.33-.56.25-.22-.08-.33-.33-.25-.56s.33-.33.56-.25Z" style="fill:#90ffff; fill-rule:evenodd; opacity:.54; stroke-width:0px;"/><path d="M665.13,68.01c.08-.1.22-.12.31-.04.1.08.12.22.04.31-.08.1-.22.12-.31.04-.1-.08-.12-.22-.04-.31Z" style="fill:#90ffff; fill-rule:evenodd; opacity:.54; stroke-width:0px;"/><path d="M669.35,67.24c.08-.1.22-.12.31-.04.1.08.12.22.04.31-.08.1-.22.12-.31.04-.1-.08-.12-.22-.04-.31Z" style="fill:#90ffff; fill-rule:evenodd; opacity:.54; stroke-width:0px;"/><path d="M670.14,62.95c0,.24-.19.43-.43.43s-.43-.19-.43-.43.19-.43.43-.43.43.19.43.43Z" style="fill:#90ffff; fill-rule:evenodd; opacity:.54; stroke-width:0px;"/><path d="M127.22,54.92c.15.06.22.23.16.37-.06.15-.23.22-.37.16-.15-.06-.22-.23-.16-.37.06-.15.23-.22.37-.16Z" style="fill:#90ffff; fill-rule:evenodd; opacity:.54; stroke-width:0px;"/><path d="M119.08,54.04c0,.18-.14.32-.32.32s-.32-.14-.32-.32.14-.32.32-.32.32.14.32.32Z" style="fill:#90ffff; fill-rule:evenodd; opacity:.54; stroke-width:0px;"/><path d="M31.64,60.74c0,.24-.19.43-.43.43s-.43-.19-.43-.43.19-.43.43-.43.43.19.43.43Z" style="fill:#90ffff; fill-rule:evenodd; opacity:.54; stroke-width:0px;"/><path d="M49.51,42.23c0,.24-.19.43-.43.43s-.43-.19-.43-.43.19-.43.43-.43.43.19.43.43Z" style="fill:#90ffff; fill-rule:evenodd; opacity:.54; stroke-width:0px;"/><path d="M44.16,54.3c0,.24-.19.43-.43.43s-.43-.19-.43-.43.19-.43.43-.43.43.19.43.43Z" style="fill:#90ffff; fill-rule:evenodd; opacity:.54; stroke-width:0px;"/><path d="M133.58,66.92c.15.06.22.23.16.37-.06.15-.23.22-.37.16-.15-.06-.22-.23-.16-.37.06-.15.23-.22.37-.16Z" style="fill:#90ffff; fill-rule:evenodd; opacity:.54; stroke-width:0px;"/><path d="M214.36,61.56c0,.24-.19.43-.43.43s-.43-.19-.43-.43.19-.43.43-.43.43.19.43.43Z" style="fill:#90ffff; fill-rule:evenodd; stroke-width:0px;"/><path d="M348.06,39.01c0,.24-.19.43-.43.43s-.43-.19-.43-.43.19-.43.43-.43.43.19.43.43Z" style="fill:#90ffff; fill-rule:evenodd; stroke-width:0px;"/><path d="M302.15,19.7c0,2.13-1.73,3.86-3.86,3.86s-3.86-1.73-3.86-3.86,1.73-3.86,3.86-3.86,3.86,1.73,3.86,3.86Z" style="fill:url(#_ÂÁ_Ï_ÌÌ_È_ËÂÌÚ_329); mix-blend-mode:screen; stroke-width:0px;"/><path d="M457.59,55.54c0,2.13-1.73,3.86-3.86,3.86s-3.86-1.73-3.86-3.86,1.73-3.86,3.86-3.86,3.86,1.73,3.86,3.86Z" style="fill:url(#_ÂÁ_Ï_ÌÌ_È_ËÂÌÚ_329-2); mix-blend-mode:screen; stroke-width:0px;"/></g></g></g></svg>