<?xml version="1.0" encoding="UTF-8"?><svg xmlns="http://www.w3.org/2000/svg" xmlns:xlink="http://www.w3.org/1999/xlink" viewBox="0 0 829.46 151.93"><defs><linearGradient id="_횂횁_횕_횑횑_횊_횏횂횑횣_446" x1="414.74" y1="46.42" x2="414.74" y2="137.98" gradientUnits="userSpaceOnUse"><stop offset="0" stop-color="#e3eae1"/><stop offset=".44" stop-color="#e1e8e1"/><stop offset=".6" stop-color="#dbe1e2"/><stop offset=".71" stop-color="#d1d5e4"/><stop offset=".8" stop-color="#c3c4e7"/><stop offset=".88" stop-color="#b0aeeb"/><stop offset=".95" stop-color="#9994f0"/><stop offset="1" stop-color="#847bf5"/></linearGradient><linearGradient id="_횂횁_횕_횑횑_횊_횏횂횑횣_19" x1=".01" y1="113.39" x2="0" y2="113.41" gradientUnits="userSpaceOnUse"><stop offset="0" stop-color="#3e19a2"/><stop offset="1" stop-color="#fff"/></linearGradient><linearGradient id="_횂횁_횕_횑횑_횊_횏횂횑횣_19-2" x1="576.21" y1="-10.64" x2="572.7" y2="164.19" xlink:href="#_횂횁_횕_횑횑_횊_횏횂횑횣_19"/><linearGradient id="_횂횁_횕_횑횑_횊_횏횂횑횣_19-3" x1="662.72" y1="75.3" x2="662" y2="76.28" xlink:href="#_횂횁_횕_횑횑_횊_횏횂횑횣_19"/><linearGradient id="_횂횁_횕_횑횑_횊_횏횂횑횣_19-4" x1="583.61" y1="19.19" x2="544.68" y2="117.63" xlink:href="#_횂횁_횕_횑횑_횊_횏횂횑횣_19"/><linearGradient id="_횂횁_횕_횑횑_횊_횏횂횑횣_19-5" x1="597.86" y1="43.11" x2="564.7" y2="126.96" xlink:href="#_횂횁_횕_횑횑_횊_횏횂횑횣_19"/><linearGradient id="_횂횁_횕_횑횑_횊_횏횂횑횣_19-6" x1="662.12" y1="76.42" x2="662.11" y2="75.87" xlink:href="#_횂횁_횕_횑횑_횊_횏횂횑횣_19"/><linearGradient id="_횂횁_횕_횑횑_횊_횏횂횑횣_19-7" x1="719.51" y1="-105.49" x2="679.04" y2="236.91" xlink:href="#_횂횁_횕_횑횑_횊_횏횂횑횣_19"/><linearGradient id="_횂횁_횕_횑횑_횊_횏횂횑횣_19-8" x1="244.57" y1="-15.28" x2="259.98" y2="218.83" xlink:href="#_횂횁_횕_횑횑_횊_횏횂횑횣_19"/><linearGradient id="_횂횁_횕_횑횑_횊_횏횂횑횣_19-9" x1="340.55" y1="-76.21" x2="424.27" y2="234.52" xlink:href="#_횂횁_횕_횑횑_횊_횏횂횑횣_19"/><linearGradient id="_횂횁_횕_횑횑_횊_횏횂횑횣_19-10" x1="494.21" y1="-25.69" x2="493.43" y2="233.26" xlink:href="#_횂횁_횕_횑횑_횊_횏횂횑횣_19"/><linearGradient id="_횂횁_횕_횑횑_횊_횏횂횑횣_19-11" x1="560.93" y1="-14.41" x2="566.02" y2="149.35" xlink:href="#_횂횁_횕_횑횑_횊_횏횂횑횣_19"/><linearGradient id="_횂횁_횕_횑횑_횊_횏횂횑횣_19-12" x1="643.85" y1="187.82" x2="669.96" y2="85.94" xlink:href="#_횂횁_횕_횑횑_횊_횏횂횑횣_19"/><linearGradient id="_횂횁_횕_횑횑_횊_횏횂횑횣_19-13" x1="500.86" y1="140.23" x2="500.91" y2="138.76" xlink:href="#_횂횁_횕_횑횑_횊_횏횂횑횣_19"/><linearGradient id="_횂횁_횕_횑횑_횊_횏횂횑횣_19-14" x1="442.98" y1="132.22" x2="500.69" y2="61.53" xlink:href="#_횂횁_횕_횑횑_횊_횏횂횑횣_19"/><linearGradient id="_횂횁_횕_횑횑_횊_횏횂횑횣_19-15" x1="492.86" y1="190.62" x2="629.93" y2="57.44" xlink:href="#_횂횁_횕_횑횑_횊_횏횂횑횣_19"/><linearGradient id="_횂횁_횕_횑횑_횊_횏횂횑횣_19-16" x1="378.6" y1="74.68" x2="431.5" y2="23.28" xlink:href="#_횂횁_횕_횑횑_횊_횏횂횑횣_19"/><linearGradient id="_횂횁_횕_횑횑_횊_횏횂횑횣_19-17" x1="342.77" y1="205.28" x2="381.78" y2="70.39" xlink:href="#_횂횁_횕_횑횑_횊_횏횂횑횣_19"/><linearGradient id="_횂횁_횕_횑횑_횊_횏횂횑횣_19-18" x1="359.61" y1="-78.52" x2="339.57" y2="94.16" xlink:href="#_횂횁_횕_횑횑_횊_횏횂횑횣_19"/><linearGradient id="_횂횁_횕_횑횑_횊_횏횂횑횣_19-19" x1="446.3" y1="53.92" x2="442.28" y2="113.16" xlink:href="#_횂횁_횕_횑횑_횊_횏횂횑횣_19"/><linearGradient id="_횂횁_횕_횑횑_횊_횏횂횑횣_19-20" x1="144.84" y1="406.65" x2="261.86" y2="1.96" xlink:href="#_횂횁_횕_횑횑_횊_횏횂횑횣_19"/><linearGradient id="_횂횁_횕_횑횑_횊_횏횂횑횣_19-21" x1="690.1" y1="124.83" x2="358.86" y2="131.6" xlink:href="#_횂횁_횕_횑횑_횊_횏횂횑횣_19"/><linearGradient id="_횂횁_횕_횑횑_횊_횏횂횑횣_19-22" x1="250.58" y1="137.68" x2="344.59" y2="70.12" xlink:href="#_횂횁_횕_횑횑_횊_횏횂횑횣_19"/><linearGradient id="_횂횁_횕_횑횑_횊_횏횂횑횣_19-23" x1="554.5" y1="149.4" x2="655.3" y2="76.97" xlink:href="#_횂횁_횕_횑횑_횊_횏횂횑횣_19"/><linearGradient id="_횂횁_횕_횑횑_횊_횏횂횑횣_19-24" x1="569.43" y1="107.51" x2="577.99" y2="70.02" xlink:href="#_횂횁_횕_횑횑_횊_횏횂횑횣_19"/><linearGradient id="_횂횁_횕_횑횑_횊_횏횂횑횣_19-25" x1="593.09" y1="115.5" x2="602.57" y2="73.97" xlink:href="#_횂횁_횕_횑횑_횊_횏횂횑횣_19"/><linearGradient id="_횂횁_횕_횑횑_횊_횏횂횑횣_19-26" x1="283.86" y1="100.48" x2="415.17" y2="91.76" xlink:href="#_횂횁_횕_횑횑_횊_횏횂횑횣_19"/><linearGradient id="_횂횁_횕_횑횑_횊_횏횂횑횣_19-27" x1="590.22" y1="99.45" x2="834.78" y2="83.21" xlink:href="#_횂횁_횕_횑횑_횊_횏횂횑횣_19"/><linearGradient id="_횂횁_횕_횑횑_횊_횏횂횑횣_19-28" x1="623.06" y1="66.52" x2="771.69" y2="56.65" xlink:href="#_횂횁_횕_횑횑_횊_횏횂횑횣_19"/><linearGradient id="_횂횁_횕_횑횑_횊_횏횂횑횣_19-29" x1="727.31" y1="28.18" x2="718.01" y2="42.68" xlink:href="#_횂횁_횕_횑횑_횊_횏횂횑횣_19"/><linearGradient id="_횂횁_횕_횑횑_횊_횏횂횑횣_19-30" x1="709.89" y1="-28.03" x2="682.57" y2="135.93" xlink:href="#_횂횁_횕_횑횑_횊_횏횂횑횣_19"/><linearGradient id="_횂횁_횕_횑횑_횊_횏횂횑횣_19-31" x1="0" y1="113.38" x2=".01" y2="113.41" xlink:href="#_횂횁_횕_횑횑_횊_횏횂횑횣_19"/><linearGradient id="_횂횁_횕_횑횑_횊_횏횂횑횣_19-32" x1="77.13" y1="49.43" x2="115.15" y2="190.56" xlink:href="#_횂횁_횕_횑횑_횊_횏횂횑횣_19"/><linearGradient id="_횂횁_횕_횑횑_횊_횏횂횑횣_19-33" x1="251.83" y1="-36.7" x2="163.64" y2="124.87" xlink:href="#_횂횁_횕_횑횑_횊_횏횂횑횣_19"/><linearGradient id="_횂횁_횕_횑횑_횊_횏횂횑횣_19-34" x1="282.32" y1="-36.24" x2="188.12" y2="136.33" xlink:href="#_횂횁_횕_횑횑_횊_횏횂횑횣_19"/><linearGradient id="_횂횁_횕_횑횑_횊_횏횂횑횣_19-35" x1="656.53" y1="225.93" x2="689.74" y2="67.12" xlink:href="#_횂횁_횕_횑횑_횊_횏횂횑횣_19"/><linearGradient id="_횂횁_횕_횑횑_횊_횏횂횑횣_19-36" x1="719.88" y1="240.95" x2="754.89" y2="73.54" xlink:href="#_횂횁_횕_횑횑_횊_횏횂횑횣_19"/><linearGradient id="_횂횁_횕_횑횑_횊_횏횂횑횣_19-37" x1="684.18" y1="230.48" x2="717.69" y2="70.27" xlink:href="#_횂횁_횕_횑횑_횊_횏횂횑횣_19"/><linearGradient id="_횂횁_횕_횑횑_횊_횏횂횑횣_19-38" x1="691.68" y1="-12.68" x2="679.25" y2="61.92" xlink:href="#_횂횁_횕_횑횑_횊_횏횂횑횣_19"/><linearGradient id="_횂횁_횕_횑횑_횊_횏횂횑횣_19-39" x1="779.02" y1="187.06" x2="814.51" y2="56.94" xlink:href="#_횂횁_횕_횑횑_횊_횏횂횑횣_19"/><linearGradient id="_횂횁_횕_횑횑_횊_횏횂횑횣_19-40" x1="659.77" y1="249.69" x2="702.51" y2="70.25" xlink:href="#_횂횁_횕_횑횑_횊_횏횂횑횣_19"/><linearGradient id="_횂횁_횕_횑횑_횊_횏횂횑횣_19-41" x1="392.41" y1="237.01" x2="552.81" y2="68.31" xlink:href="#_횂횁_횕_횑횑_횊_횏횂횑횣_19"/><linearGradient id="_횂횁_횕_횑횑_횊_횏횂횑횣_19-42" x1="126.99" y1="106.85" x2="128.97" y2="104.03" xlink:href="#_횂횁_횕_횑횑_횊_횏횂횑횣_19"/><linearGradient id="_횂횁_횕_횑횑_횊_횏횂횑횣_19-43" x1="83" y1="137.27" x2="134.87" y2="63.33" xlink:href="#_횂횁_횕_횑횑_횊_횏횂횑횣_19"/><linearGradient id="_횂횁_횕_횑횑_횊_횏횂횑횣_19-44" x1="70.86" y1="201.69" x2="160.92" y2="73.31" xlink:href="#_횂횁_횕_횑횑_횊_횏횂횑횣_19"/><linearGradient id="_횂횁_횕_횑횑_횊_횏횂횑횣_19-45" x1="179.77" y1="246.94" x2="219.03" y2="83.78" xlink:href="#_횂횁_횕_횑횑_횊_횏횂횑횣_19"/><linearGradient id="_횂횁_횕_횑횑_횊_횏횂횑횣_19-46" x1="286.39" y1="247.85" x2="346.24" y2="56.06" xlink:href="#_횂횁_횕_횑횑_횊_횏횂횑횣_19"/><linearGradient id="_횂횁_횕_횑횑_횊_횏횂횑횣_444" x1="415.84" y1="145.83" x2="413.46" y2="73.88" gradientUnits="userSpaceOnUse"><stop offset="0" stop-color="#d6d7fc"/><stop offset=".25" stop-color="#9f9bde"/><stop offset=".53" stop-color="#655dc0"/><stop offset=".74" stop-color="#3a2f81"/><stop offset=".91" stop-color="#190d51"/><stop offset="1" stop-color="#0d003f"/></linearGradient><linearGradient id="_횂횁_횕_횑횑_횊_횏횂횑횣_18" x1="338.31" y1="102.07" x2="338.32" y2="101.98" gradientUnits="userSpaceOnUse"><stop offset="0" stop-color="#93498b"/><stop offset="1" stop-color="#dbd119"/></linearGradient><linearGradient id="_횂횁_횕_횑횑_횊_횏횂횑횣_18-2" x1="423.97" y1="169.92" x2="429.14" y2="89.77" xlink:href="#_횂횁_횕_횑횑_횊_횏횂횑횣_18"/><linearGradient id="_횂횁_횕_횑횑_횊_횏횂횑횣_18-3" x1="634.4" y1="163.71" x2="654.12" y2="102.38" xlink:href="#_횂횁_횕_횑횑_횊_횏횂횑횣_18"/><linearGradient id="_횂횁_횕_횑횑_횊_횏횂횑횣_18-4" x1="600.84" y1="151.94" x2="619.14" y2="95.02" xlink:href="#_횂횁_횕_횑횑_횊_횏횂횑횣_18"/><linearGradient id="_횂횁_횕_횑횑_횊_횏횂횑횣_18-5" x1="602.65" y1="141.67" x2="617.52" y2="95.44" xlink:href="#_횂횁_횕_횑횑_횊_횏횂횑횣_18"/><linearGradient id="_횂횁_횕_횑횑_횊_횏횂횑횣_18-6" x1="412.07" y1="181.79" x2="449.27" y2="78.11" xlink:href="#_횂횁_횕_횑횑_횊_횏횂횑횣_18"/><linearGradient id="_횂횁_횕_횑횑_횊_횏횂횑횣_18-7" x1="353.21" y1="170.22" x2="395.45" y2="52.49" xlink:href="#_횂횁_횕_횑횑_횊_횏횂횑횣_18"/><linearGradient id="_횂횁_횕_횑횑_횊_횏횂횑횣_18-8" x1="403.74" y1="183.27" x2="443.82" y2="71.53" xlink:href="#_횂횁_횕_횑횑_횊_횏횂횑횣_18"/><linearGradient id="_횂횁_횕_횑횑_횊_횏횂횑횣_18-9" x1="202.62" y1="138.66" x2="208.67" y2="109.84" xlink:href="#_횂횁_횕_횑횑_횊_횏횂횑횣_18"/><linearGradient id="_횂횁_횕_횑횑_횊_횏횂횑횣_18-10" x1="328.69" y1="102.44" x2="333.82" y2="86.51" xlink:href="#_횂횁_횕_횑횑_횊_횏횂횑횣_18"/><linearGradient id="_횂횁_횕_횑횑_횊_횏횂횑횣_18-11" x1="341.74" y1="106.94" x2="346.91" y2="90.89" xlink:href="#_횂횁_횕_횑횑_횊_횏횂횑횣_18"/><linearGradient id="_횂횁_횕_횑횑_횊_횏횂횑횣_18-12" x1="188.67" y1="115.6" x2="188.99" y2="110.7" xlink:href="#_횂횁_횕_횑횑_횊_횏횂횑횣_18"/><linearGradient id="_횂횁_횕_횑횑_횊_횏횂횑횣_18-13" x1="-2887.87" y1="-7025.6" x2="-2887.36" y2="-7033.44" gradientTransform="translate(-2612.91 -6486.5) rotate(167.45) scale(.42 1)" xlink:href="#_횂횁_횕_횑횑_횊_횏횂횑횣_18"/><linearGradient id="_횂횁_횕_횑횑_횊_횏횂횑횣_18-14" x1="728" y1="161" x2="747.85" y2="99.25" xlink:href="#_횂횁_횕_횑횑_횊_횏횂횑횣_18"/><linearGradient id="_횂횁_횕_횑횑_횊_횏횂횑횣_18-15" x1="703.65" y1="178.68" x2="735.13" y2="80.77" xlink:href="#_횂횁_횕_횑횑_횊_횏횂횑횣_18"/><linearGradient id="_횂횁_횕_횑횑_횊_횏횂횑횣_442" x1="0" y1="113.4" x2="0" y2="113.39" gradientUnits="userSpaceOnUse"><stop offset="0" stop-color="#4857a7"/><stop offset=".28" stop-color="#4f3f96"/><stop offset=".51" stop-color="#562886"/><stop offset=".99" stop-color="#0e0034"/></linearGradient><linearGradient id="_횂횁_횕_횑횑_횊_횏횂횑횣_442-2" x1="422.05" y1="32.48" x2="413.69" y2="132.72" xlink:href="#_횂횁_횕_횑횑_횊_횏횂횑횣_442"/><linearGradient id="_횂횁_횕_횑횑_횊_횏횂횑횣_376" x1="433.25" y1="11.62" x2="425.3" y2="176.29" gradientUnits="userSpaceOnUse"><stop offset="0" stop-color="#4655c6"/><stop offset=".06" stop-color="#3c48a9"/><stop offset=".18" stop-color="#2c357c"/><stop offset=".3" stop-color="#1e2556"/><stop offset=".42" stop-color="#131737"/><stop offset=".55" stop-color="#0a0d1e"/><stop offset=".68" stop-color="#04050d"/><stop offset=".83" stop-color="#010103"/><stop offset="1" stop-color="#000"/></linearGradient></defs><g style="isolation:isolate;"><g id="Layer_2"><g id="_횓횙횊_1"><path d="M829.46,111.49l-.19,2.57-.82,11.07-.32,12.27s-46.92.02-51.47.03h-.45c-1.66,0-3.59.02-5.76.02h-.65c-.1,0-.19,0-.28.02h-3.02c-.18,0-.36.02-.55.02h-4.44c-.1.02-.19.02-.3.02h-3.8c-.14,0-.29.01-.45.01h-4.14c-.15.02-.32.02-.48.02h-3.4c-.2.02-.41.02-.61.02h-2.86c-.58,0-1.16,0-1.76.02h-3.75c-.68.01-1.37.01-2.06.01h-2.55c-.26.01-.51.02-.77.02h-3.84c-.24.02-.49.02-.72.02h-2.92c-1.32.02-2.68.02-4.05.02h-.82c-.47,0-.93.01-1.41.01h-3.89c-.45.02-.88.02-1.33.02h-3.35c-.59.02-1.17.02-1.77.02h-2.76c-.32.02-.63.02-.95.02h-3.51c-.1,0-.18.02-.27.02h-4.01c-.42.02-.83.02-1.25.02h-3.69c-.3,0-.61,0-.91.01h-4.48c-.26,0-.5.02-.75.02h-2.83c-.37,0-.75,0-1.11.01h-4.49c-.52,0-1.03.02-1.56.02h-3.59c-.91.02-1.81.02-2.73.02h-2.4c-.27,0-.54,0-.8.02h-4.9c-.1,0-.2,0-.31,0h-.31s-1.37,0-1.37,0h-1.37c-.56,0-1.12,0-1.68.02-3.23,0-6.51.02-9.81.02-4.89,0-9.86.03-14.91.03h-.01c-1.76.02-3.54.02-5.33.02-1.19,0-2.39.01-3.59.02-1.2,0-2.41,0-3.62.02-1.51,0-3.03,0-4.55,0-.76,0-1.52,0-2.29,0-.77,0-1.53,0-2.29,0-.23,0-.46,0-.69,0-.69,0-1.38,0-2.07,0h-.02c-.46,0-.92,0-1.38,0-.46,0-.92,0-1.38,0-.62,0-1.23,0-1.86,0-.62,0-1.24,0-1.87,0-1.86,0-3.73.02-5.6.02-.94,0-1.88,0-2.83,0-2.82,0-5.66.02-8.52.02h-3.81c-1.27,0-2.55.01-3.82.02-.64,0-1.28,0-1.92,0-.64,0-1.28,0-1.92,0-12.39.03-24.99.05-37.68.08h-.04c-4.17.01-8.35.02-12.54.03h-.32c-4.9.01-9.8.02-14.71.03-.56,0-1.12,0-1.68,0-1.24,0-2.49,0-3.74,0-2.08,0-4.16.01-6.23.01h-.1c-3.63,0-7.25.02-10.87.02h-4.11c-.32,0-.65,0-.97,0-.29,0-.58,0-.87,0-.34,0-.68,0-1.01.01h0c-2.81,0-5.6,0-8.4.02-6.07,0-12.1.02-18.12.02h-1.62c-.92.02-1.83.02-2.75.02-4.17,0-9.39.03-15.43.08-7.28.05-15.74.13-24.99.23h-.16c-11.1.12-23.32.26-35.95.41-.65,0-1.29.02-1.94.02-17.89.21-36.54.44-53.97.64-16.65.2-32.16.37-44.85.49-10.4.1-18.89.15-24.51.15h-1.78c-19.85-.02-37.95-.04-53.6-.11h-2.79c-.34,0-.69-.01-1.04-.01h-2.72c-.32-.02-.66-.02-.98-.02h-1.33c-.54,0-1.1,0-1.65-.02h-2.87c-.16,0-.32,0-.48,0-.8-.01-1.59-.01-2.38-.01h-.26c-2.98-.01-5.83-.04-8.53-.06h-1.46c-.44,0-.87-.01-1.31-.01-.47,0-.93,0-1.4-.02h-1.57c-.25-.02-.5-.02-.74-.02h-.8c-.25,0-.5,0-.74-.02h-.99c-.75-.02-1.48-.02-2.19-.02-.24-.02-.47-.02-.71-.02h-.92c-.23-.01-.46-.01-.69-.01h-.69c-.21-.01-.44-.01-.65-.01h-.67c-.36-.02-.71-.02-1.06-.02h-.65c-.48-.02-.94-.02-1.4-.03-1.13-.02-40.84,4.71-67.2,7.79-.33.04-.65.08-.97.11-10.48,1.23-18.69,2.18-21.24,2.43-.46.04-.74.07-.81.07h-.17c-.52-.01-1.02-.01-1.5-.03h-.15c-.9-.02-1.74-.03-2.54-.05h-.12c-.16-.02-.3-.02-.44-.02h-.11c-.14,0-.28-.02-.42-.02h-.09c-.15,0-.28,0-.42-.02h-.08c-.21,0-.43,0-.64-.02h-.08c-.13,0-.26,0-.38-.01h-.29c-.2-.01-.38-.01-.57-.01-.09-.02-.17-.02-.25-.02-.25,0-.49-.02-.7-.03-.61-.02-1.12-.05-1.55-.06-.16-.02-.31-.02-.44-.03-.08,0-.15-.01-.22-.01-.06,0-.11-.02-.16-.02h-.09c-.05-.02-.1-.02-.15-.02-.01-.02-.04-.02-.07-.02-.03,0-.07-.02-.11-.02s-.06-.01-.08-.01c-.03,0-.05-.02-.07-.02-.02,0-.04-.02-.04-.02-.04-.02-.04-.03,0-.04,0,0,0-.02.01-.02.08-.03.15-.06.2-.11.13-.07.2-.18.23-.31.01-.06.02-.1.02-.17,0-.04,0-.09,0-.13,0-.04-.01-.07-.02-.12-.11-.43-.45-.99-1-1.66-.25-.3-.53-.63-.86-.97-.12-.13-.24-.25-.36-.39-.88-.89-1.99-1.91-3.27-3.02-1.06-.92-2.24-1.9-3.51-2.92-.18-.13-.35-.27-.52-.42-.73-.58-1.5-1.18-2.29-1.79-.32-.26-.65-.51-.97-.76-.02-.02-.06-.05-.09-.08-.24-.18-.47-.36-.71-.54-.95-.72-1.92-1.45-2.91-2.2-.31-.24-.62-.46-.94-.7-.35-.27-.71-.54-1.07-.79-.33-.25-.67-.49-1.01-.75-.2-.15-.41-.3-.62-.45-.28-.2-.56-.41-.84-.62-.03-.02-.06-.04-.09-.06-.08-.06-.16-.11-.24-.17-.71-.52-1.41-1.03-2.12-1.54-.24-.18-.48-.36-.72-.52-.13-.09-.26-.18-.38-.27-.37-.27-.73-.52-1.09-.79-.56-.39-1.1-.78-1.64-1.16-.36-.26-.72-.53-1.08-.76-.36-.27-.72-.52-1.07-.76-.36-.26-.71-.49-1.07-.75-.35-.24-.7-.49-1.04-.74-.35-.25-.7-.49-1.03-.72-.18-.12-.34-.24-.52-.35-.34-.24-.67-.48-1-.7-.19-.13-.38-.25-.56-.4-.3-.19-.6-.41-.9-.61-.64-.45-1.28-.88-1.87-1.3-.25-.16-.49-.33-.72-.49-.35-.24-.69-.46-1.01-.69-.28-.19-.55-.39-.83-.57-.13-.09-.26-.18-.39-.27-.53-.36-1.03-.7-1.51-1.03-.2-.13-.39-.25-.57-.39h0c-.72-.49-1.36-.93-1.92-1.3-.1-.06-.18-.12-.27-.18-.17-.12-.33-.23-.48-.33-.08-.05-.15-.1-.22-.15-.14-.09-.27-.18-.4-.27-.14-.09-.26-.18-.37-.26.43,0,.85.02,1.28.02l43.7-9.05,133.81-27.69.03.02,9.91,8.41,62.7-24.04,24.88.23,95.58-36.39,22.84-18.79,15.96-6.12,53.09,60.32.38.44h0c1.19-.3,2.34-.61,3.45-.9l3.2-.43,1.78-.25,2.19-.31,17.37,5.44,21.87,6.86h0l.04-.03,10.14-6.8v-.02s15.8,4.98,15.8,4.98l.94-.31,36.96-12.19,37.31,11.19,3.2.96,98.69-35.25,73.54,46.36-1.89,12.26,22.23,10.47,18.46,8.69Z" style="fill:url(#_횂횁_횕_횑횑_횊_횏횂횑횣_446); stroke-width:0px;"/><path d="M.02,113.4h-.02v-.02s0,0,.02.02Z" style="fill:url(#_횂횁_횕_횑횑_횊_횏횂횑횣_19); mix-blend-mode:multiply; opacity:.7; stroke-width:0px;"/><path d="M633.75,137.88s-3.56,0-5.35.02c-1.2,0-2.39,0-3.6,0-1.2,0-2.41,0-3.61,0-1.51,0-3.03.01-4.55.02-.76,0-1.52,0-2.29,0-.77,0-1.53,0-2.3,0h-.68c-.69,0-1.38,0-2.07,0h-.02c-.46,0-.92,0-1.38,0-.46,0-.92,0-1.38,0-.62,0-1.24,0-1.86,0-.62,0-1.24,0-1.86,0-1.86,0-3.73.01-5.61.02-.94,0-1.88,0-2.82,0-2.82,0-5.66.02-8.52.02-1.27,0-2.54,0-3.81,0-1.27,0-2.55,0-3.82,0-.64,0-1.28,0-1.92,0-.64,0-1.28,0-1.92,0-.36-.61-.71-1.22-1.07-1.82-1.29-2.2-2.58-4.35-3.85-6.46h0c-.04-.07-.08-.14-.12-.21-.98-1.61-1.95-3.2-2.92-4.75-.61-.97-1.21-1.93-1.81-2.88h0c-1.37-2.16-2.73-4.26-4.08-6.29h0c-.42-.64-.84-1.26-1.26-1.88-.21-.31-.42-.62-.63-.93-.42-.62-.84-1.22-1.25-1.83-.84-1.21-1.67-2.39-2.5-3.56-.62-.87-1.25-1.73-1.87-2.57-.42-.56-.83-1.12-1.24-1.67-.21-.27-.41-.55-.62-.82-1.04-1.36-2.07-2.69-3.11-3.98-1.14-1.42-2.28-2.79-3.42-4.11-.31-.36-.62-.72-.93-1.07t0,0c-.26-.29-.52-.59-.78-.88-.26-.29-.52-.58-.78-.86-.26-.29-.52-.57-.78-.85-.26-.28-.52-.56-.78-.83-7.63-8.08-15.34-13.99-23.44-17.42-1.03-.44-2.05-.83-3.09-1.18,0,0,0,0,0,0,0,0,0,0,0,0l.04-.03,10.14-6.8c-4.03,3.17,4.07,10.96,20.46,21.96,0,0,0,0,0,0,.36.25.73.49,1.1.74.56.37,1.13.75,1.7,1.12,1,.66,2.03,1.33,3.09,2.01.36.23.73.47,1.1.7,2.35,1.5,4.83,3.05,7.42,4.65.36.22.72.44,1.09.67,1.61.99,3.26,1.99,4.96,3.01h0c1.23.74,2.49,1.5,3.78,2.26h0s0,0,.01.01c.03.03.07.12.11.26,0,.02.01.04.02.07.06.21.11.5.17.86h0s0,.01,0,.02h0c.43,2.59.93,8.44.93,8.44,4.41,2.61,10.55,5.58,17.28,8.56,15.16,6.71,33.35,13.51,41.7,16.55,2.71.99,4.38,1.59,4.58,1.66.01,0,.02,0,.02,0Z" style="fill:url(#_횂횁_횕_횑횑_횊_횏횂횑횣_19-2); mix-blend-mode:multiply; opacity:.7; stroke-width:0px;"/><path d="M662.99,76.05c-.52,0-1.1.05-1.75.13l.71-.33,1.03.2Z" style="fill:url(#_횂횁_횕_횑횑_횊_횏횂횑횣_19-3); mix-blend-mode:multiply; opacity:.7; stroke-width:0px;"/><path d="M565.14,99.2c-.38,3.1-1.48,9.44-4.63,16.43-6.72-10.12-13.3-18.8-19.94-25.84,1.99-1.11,3.35-2.54,4.11-3.48,5.83,3.91,12.7,8.23,20.46,12.9Z" style="fill:url(#_횂횁_횕_횑횑_횊_횏횂횑횣_19-4); mix-blend-mode:multiply; opacity:.7; stroke-width:0px;"/><path d="M569.45,129.76c-1.63-2.69-3.25-5.31-4.86-7.84,2.07-5.63,3.85-12.56,4.33-20.46.44.26-.15.19.3.45.14,8.74,1.03,18.81.23,27.85Z" style="fill:url(#_횂횁_횕_횑횑_횊_횏횂횑횣_19-5); mix-blend-mode:multiply; opacity:.7; stroke-width:0px;"/><path d="M662.99,76.05c-.52,0-1.1.05-1.75.13l.71-.33,1.03.2Z" style="fill:url(#_횂횁_횕_횑횑_횊_횏횂횑횣_19-6); mix-blend-mode:multiply; opacity:.7; stroke-width:0px;"/><polygon points="774.1 113.4 757.19 136.22 756.93 136.57 756.24 137.5 754.8 139.45 745.71 151.71 745.22 151.09 736.29 139.73 734.6 137.57 734.49 137.44 733.53 136.22 726.41 127.16 725.84 126.43 676.92 102.13 670.21 98.79 657.04 92.26 653.37 90.43 649.7 88.61 648.71 88.12 645.87 81.6 636.11 77.11 620.7 70.01 618.43 68.96 717.12 33.72 710.7 40.23 708.33 53.64 714.9 60.89 714.9 60.89 715.48 61.53 739.56 88.12 738.61 91.57 767 110.34 772.18 112.57 774.1 113.4" style="fill:url(#_횂횁_횕_횑횑_횊_횏횂횑횣_19-7); fill-rule:evenodd; mix-blend-mode:multiply; opacity:.7; stroke-width:0px;"/><polygon points="317.32 141.5 272.03 141.81 271.32 140.15 271.08 139.57 269.65 136.22 268.63 133.8 265.8 127.15 265.72 126.95 261.62 117.29 260.87 117.02 224.23 104.01 215.25 100.82 211.46 96.6 206.46 94.07 205.04 93.35 205.03 93.35 204.12 92.89 204.12 92.89 201.89 91.76 201.88 91.76 196.61 89.09 188.75 85.11 251.45 61.07 257.18 68.57 264.5 78.16 276.33 90.41 285.79 91.18 297.16 109.33 299.11 112.43 301.95 116.97 302.74 118.22 304.6 121.2 309.84 129.55 314.01 136.22 315.91 139.25 316.17 139.66 317.32 141.5" style="fill:url(#_횂횁_횕_횑횑_횊_횏횂횑횣_19-8); fill-rule:evenodd; mix-blend-mode:multiply; opacity:.7; stroke-width:0px;"/><path d="M497.39,138.19l-2.64-1.98-26.51-19.84-14.71-11.01-.16-.12-2.91-2.18.08-.04h0s0,0,0,0l15.28-6.84,2.61-1.17h-8.99l-20.82-54.4-28.39-6.51-1.89-6.51-2.37-3.07,4.73-24.52-15.96,6.12-22.84,18.79-95.58,36.39s.95.39,2.59,1.07h0c.31.13.64.26,1,.42,0,0,0,0,0,0,13.06,5.39,57.08,23.81,55.07,26.1-2.37,2.68-2.37,5.75-2.37,5.75l.03.03,1.74,2.19h0s4.21,5.31,4.21,5.31l13.39,16.9.98,1.24,13.33,3,1.33.3,16.82,3.79h0s12.22,2.75,12.22,2.75h0s6.88,1.55,6.88,1.55h0l2.62.59,5.81,1.31.23.05,7,1.58,4.44,1,9.5,2.14.21.05h0l9.84,2.21,56.9-.4-2.75-2.03ZM421.59,93.1l7.57,2.68-37.38-1.15-29.34-4.98,10.41-.77,48.74,4.21Z" style="fill:url(#_횂횁_횕_횑횑_횊_횏횂횑횣_19-9); fill-rule:evenodd; mix-blend-mode:multiply; opacity:.7; stroke-width:0px;"/><path d="M523.87,138.22l-14.26.85-.52-.9-1.11-1.95-5.57-9.77-10.67-18.71-2.01-3.52-24.51-34.45-.57-.8-.85-8.64.38.44h0c1.19-.3,2.34-.61,3.45-.9l3.2-.43,1.78-.25-.87,10.93.23.37h0s12.49,20,12.49,20l8.1,12.97.44.47,11.86,12.56,11.46,13.13,5.78,6.62,1.68,1.92.07.08Z" style="fill:url(#_횂횁_횕_횑횑_횊_횏횂횑횣_19-10); fill-rule:evenodd; mix-blend-mode:multiply; opacity:.7; stroke-width:0px;"/><polygon points="587.67 101.14 540.97 69 540.36 68.58 577.93 56.81 564.49 65.51 567.33 69.34 569.22 79.69 587.67 101.14" style="fill:url(#_횂횁_횕_횑횑_횊_횏횂횑횣_19-11); fill-rule:evenodd; mix-blend-mode:multiply; opacity:.7; stroke-width:0px;"/><polygon points="734.44 137.57 648.78 138.03 648.65 137.84 644.93 132.56 588.15 101.91 597.14 104.97 604.71 99.99 665.27 122.98 725.84 126.43 734.34 137.44 734.44 137.57" style="fill:url(#_횂횁_횕_횑횑_횊_횏횂횑횣_19-12); mix-blend-mode:multiply; opacity:.7; stroke-width:0px;"/><path d="M504.4,139.07l-4.26,1.15-2.7-2.03c2.08,0,4.15-.01,6.23-.02l.73.89Z" style="fill:url(#_횂횁_횕_횑횑_횊_횏횂횑횣_19-13); mix-blend-mode:multiply; opacity:.7; stroke-width:0px;"/><polygon points="493.18 104.18 491.73 107.73 489.73 104.21 465.22 69.76 471.75 70.11 493.01 103.91 493.18 104.18" style="fill:url(#_횂횁_횕_횑횑_횊_횏횂횑횣_19-14); fill-rule:evenodd; mix-blend-mode:multiply; opacity:.7; stroke-width:0px;"/><polygon points="648.71 88.12 619.73 85.04 592.96 82.21 580.22 80.85 578.22 80.64 569.22 79.69 567.33 69.34 573.24 70.27 577.04 70.86 583.37 71.85 615.17 76.81 645.87 81.6 648.71 88.12" style="fill:url(#_횂횁_횕_횑횑_횊_횏횂횑횣_19-15); mix-blend-mode:multiply; opacity:.7; stroke-width:0px;"/><polygon points="408.34 27.58 438.15 33.33 439.1 34.1 410.24 34.1 408.34 27.58" style="fill:url(#_횂횁_횕_횑횑_횊_횏횂횑횣_19-16); mix-blend-mode:multiply; opacity:.7; stroke-width:0px;"/><polygon points="335 88.88 412.6 101.91 414.02 104.59 332.64 94.63 335 88.88" style="fill:url(#_횂횁_횕_횑횑_횊_횏횂횑횣_19-17); fill-rule:evenodd; mix-blend-mode:multiply; opacity:.7; stroke-width:0px;"/><polygon points="371.91 24.9 385.16 37.16 384.68 42.14 407.4 79.3 396.99 65.9 330.74 75.47 333.11 71.64 388.47 65.51 379.01 46.74 361.5 49.8 279.64 62.83 277.28 61.3 371.91 24.9" style="fill:url(#_횂횁_횕_횑횑_횊_횏횂횑횣_19-18); fill-rule:evenodd; mix-blend-mode:multiply; opacity:.7; stroke-width:0px;"/><polygon points="459.44 95.01 418.28 99.61 450.93 103.06 468.43 95.01 459.44 95.01" style="fill:url(#_횂횁_횕_횑횑_횊_횏횂횑횣_19-19); fill-rule:evenodd; mix-blend-mode:multiply; opacity:.7; stroke-width:0px;"/><polygon points="276.33 90.42 261.66 117.23 260.87 117.02 224.23 104.01 268.76 83.9 261.35 74.35 246.99 79.69 259.9 72.29 257.36 69.65 230.9 84.29 212.45 93.48 206.46 94.07 196.61 89.09 226.17 80.07 229.96 82.75 257.18 68.57 257.36 68.48 276.33 90.42" style="fill:url(#_횂횁_횕_횑횑_횊_횏횂횑횣_19-20); fill-rule:evenodd; mix-blend-mode:multiply; opacity:.7; stroke-width:0px;"/><polygon points="500.14 140.22 443.23 140.62 433.4 138.4 433.39 138.4 433.18 138.36 352.98 120.3 465.6 125.28 460.86 120.3 423.96 118.77 471.19 119.25 497.34 138.19 500.14 140.22" style="fill:url(#_횂횁_횕_횑횑_횊_횏횂횑횣_19-21); fill-rule:evenodd; mix-blend-mode:multiply; opacity:.7; stroke-width:0px;"/><polygon points="335 88.88 291 92.71 332.64 94.63 335 88.88" style="fill:url(#_횂횁_횕_횑횑_횊_횏횂횑횣_19-22); fill-rule:evenodd; mix-blend-mode:multiply; opacity:.7; stroke-width:0px;"/><polygon points="604.71 99.99 650.13 104.21 594.77 96.93 604.71 99.99" style="fill:url(#_횂횁_횕_횑횑_횊_횏횂횑횣_19-23); fill-rule:evenodd; mix-blend-mode:multiply; opacity:.7; stroke-width:0px;"/><polygon points="580.22 80.85 578.22 80.64 573.24 70.27 577.04 70.86 580.22 80.85" style="fill:url(#_횂횁_횕_횑횑_횊_횏횂횑횣_19-24); fill-rule:evenodd; mix-blend-mode:multiply; opacity:.7; stroke-width:0px;"/><polygon points="619.73 85.04 592.96 82.21 583.37 71.85 615.17 76.81 619.73 85.04" style="fill:url(#_횂횁_횕_횑횑_횊_횏횂횑횣_19-25); fill-rule:evenodd; mix-blend-mode:multiply; opacity:.7; stroke-width:0px;"/><polygon points="363.11 89.84 364.81 93.86 391.62 98.71 391.78 94.63 363.11 89.84" style="fill:url(#_횂횁_횕_횑횑_횊_횏횂횑횣_19-26); fill-rule:evenodd; mix-blend-mode:multiply; opacity:.7; stroke-width:0px;"/><polygon points="790.66 80.07 788.77 92.33 738.61 91.57 739.56 88.12 790.66 80.07" style="fill:url(#_횂횁_횕_횑횑_횊_횏횂횑횣_19-27); fill-rule:evenodd; mix-blend-mode:multiply; opacity:.7; stroke-width:0px;"/><polygon points="745.24 60.15 713.05 58.8 715.47 61.53 745.24 60.15" style="fill:url(#_횂횁_횕_횑횑_횊_횏횂횑횣_19-28); fill-rule:evenodd; mix-blend-mode:multiply; opacity:.7; stroke-width:0px;"/><polygon points="710.7 40.23 728.11 40.8 717.12 33.72 710.7 40.23" style="fill:url(#_횂횁_횕_횑횑_횊_횏횂횑횣_19-29); fill-rule:evenodd; mix-blend-mode:multiply; opacity:.7; stroke-width:0px;"/><path d="M756.59,127.96l-1.44,9.53h0s-.05.34-.05.34c0,0-.45.63-1.18,1.63-2,2.75-6.1,8.34-8.7,11.63l-8.93-11.36-1.7-2.16-.1-.13h0l-8.08-10.28-.57-.73-48.92-24.3-6.7-3.33-13.17-6.54-3.67-1.82-3.67-1.82-.99-.49-2.84-6.51-9.76-4.49-15.41-7.1,15.24-1.05,23.19,10.73,2.84.77-.47,7.66,1.12.73h0s26.32,17.28,26.32,17.28l3.3.81h0l1.39.34,5.1,1.25,10.55,2.58,18.45,6.9,1.89,2.3,10.37,2.95,16.6,4.72Z" style="fill:url(#_횂횁_횕_횑횑_횊_횏횂횑횣_19-30); fill-rule:evenodd; mix-blend-mode:multiply; opacity:.7; stroke-width:0px;"/><path d="M.02,113.4h-.02v-.02s0,0,.02.02Z" style="fill:url(#_횂횁_횕_횑횑_횊_횏횂횑횣_19-31); fill-rule:evenodd; mix-blend-mode:multiply; opacity:.7; stroke-width:0px;"/><path d="M178.55,76.76l-46.06,14.8,4.73,4.98-10.42,5.98-.94.54,1.57,1.99.06.07,2.5,3.19,11.31,14.39,1.12,1.43,11.55,5.26,10.87,4.95,4.12,1.88,8.62,3.92.08.03c-5.23.38-59.88,4.38-98.05,7.63-10.48,1.23-18.69,2.18-21.24,2.43-.46.04-.74.07-.81.07h-.17c-.52-.01-1.02-.01-1.5-.03h-.15c-.9-.02-1.74-.03-2.54-.05-.33.04-.65.07-.97.1-5.66.6-9.19,1.08-9.63,1.38-.85.58-.6-.06.18-1.23.57-.85,1.41-1.99,2.3-3.15-.25-.3-.53-.63-.86-.97-.12-.13-.24-.25-.36-.39-.88-.89-1.99-1.91-3.27-3.02-1.06-.92-2.24-1.9-3.51-2.92-.18-.13-.35-.27-.52-.42-.73-.58-1.5-1.18-2.29-1.79-.32-.26-.65-.51-.97-.76-.02-.02-.06-.05-.09-.08-.24-.18-.47-.36-.71-.54-.95-.72-1.92-1.45-2.91-2.2-.31-.24-.62-.46-.94-.7-.35-.27-.71-.54-1.07-.79-.33-.25-.67-.49-1.01-.75-.2-.15-.41-.3-.62-.45-.28-.2-.56-.41-.84-.62-.03-.02-.06-.04-.09-.06-.08-.06-.16-.11-.24-.17-.71-.52-1.41-1.03-2.12-1.54-.24-.18-.48-.36-.72-.52-.13-.09-.26-.18-.38-.27-.37-.27-.73-.52-1.09-.79-.56-.39-1.1-.78-1.64-1.16-.36-.26-.72-.53-1.08-.76-.36-.27-.72-.52-1.07-.76-.36-.26-.71-.49-1.07-.75-.35-.24-.7-.49-1.04-.74-.35-.25-.7-.49-1.03-.72-.18-.12-.34-.24-.52-.35-.34-.24-.67-.48-1-.7-.19-.13-.38-.25-.56-.4-.3-.19-.6-.41-.9-.61-.64-.45-1.28-.88-1.87-1.3-.25-.16-.49-.33-.72-.49-.35-.24-.69-.46-1.01-.69-.28-.19-.55-.39-.83-.57-.13-.09-.26-.18-.39-.27-.53-.36-1.03-.7-1.51-1.03-.2-.13-.39-.25-.57-.39h0c-.72-.49-1.36-.93-1.92-1.3-.1-.06-.18-.12-.27-.18-.17-.12-.33-.23-.48-.33-.08-.05-.15-.1-.22-.15-.14-.09-.27-.18-.4-.27-.14-.09-.26-.18-.37-.26.43,0,.85.02,1.28.02l43.7-9.05,133.81-27.69-.26.08Z" style="fill:url(#_횂횁_횕_횑횑_횊_횏횂횑횣_19-32); fill-rule:evenodd; mix-blend-mode:multiply; opacity:.7; stroke-width:0px;"/><polygon points="211.46 96.6 143.37 102.68 145.73 101.91 204.45 92.84 211.46 96.6" style="fill:url(#_횂횁_횕_횑횑_횊_횏횂횑횣_19-33); fill-rule:evenodd; mix-blend-mode:multiply; opacity:.7; stroke-width:0px;"/><polygon points="215.25 100.82 163.24 106.89 170.34 109.19 138.64 113.02 260.87 117.02 215.25 100.82" style="fill:url(#_횂횁_횕_횑횑_횊_횏횂횑횣_19-34); fill-rule:evenodd; mix-blend-mode:multiply; opacity:.7; stroke-width:0px;"/><polygon points="713.06 73.56 661.96 80.45 661.49 88.12 713.06 75.09 713.06 73.56" style="fill:url(#_횂횁_횕_횑횑_횊_횏횂횑횣_19-35); fill-rule:evenodd; mix-blend-mode:multiply; opacity:.7; stroke-width:0px;"/><polygon points="727.73 118 763.69 116.85 729.62 120.3 727.73 118" style="fill:url(#_횂횁_횕_횑횑_횊_횏횂횑횣_19-36); fill-rule:evenodd; mix-blend-mode:multiply; opacity:.7; stroke-width:0px;"/><polygon points="688.46 106.89 761.86 107.7 759.93 106.14 675.68 95.78 674.26 94.63 725.36 99.23 723.94 98.46 661.83 88.73 688.46 106.89" style="fill:url(#_횂횁_횕_횑횑_횊_횏횂횑횣_19-37); fill-rule:evenodd; mix-blend-mode:multiply; opacity:.7; stroke-width:0px;"/><polygon points="710.7 40.23 652.02 58.23 653.44 59.77 708.33 53.64 710.7 40.23" style="fill:url(#_횂횁_횕_횑횑_횊_횏횂횑횣_19-38); fill-rule:evenodd; mix-blend-mode:multiply; opacity:.7; stroke-width:0px;"/><polygon points="829.46 111.49 829.18 116.95 828.14 137.39 756.97 137.5 774.1 113.4 789.6 112.87 829.46 111.49" style="fill:url(#_횂횁_횕_횑횑_횊_횏횂횑횣_19-39); fill-rule:evenodd; mix-blend-mode:multiply; opacity:.7; stroke-width:0px;"/><polygon points="774.1 113.4 764.16 137.16 756.97 137.5 756.24 137.5 755.16 137.5 734.5 137.44 734.34 137.44 733.23 137.44 664.56 137.78 662.88 137.79 661.51 137.8 658.46 137.81 665.27 122.98 725.84 126.43 676.92 102.13 670.21 98.79 657.04 92.26 653.37 90.43 649.71 88.61 648.71 88.12 645.87 81.6 636.11 77.11 620.7 70.01 635.94 68.96 659.82 80.06 661.96 80.45 661.49 88.12 662.61 88.85 688.93 106.12 692.47 106.94 708.95 110.71 727.73 118 729.62 120.3 748.79 117.33 774.1 113.4" style="fill:url(#_횂횁_횕_횑횑_횊_횏횂횑횣_19-40); fill-rule:evenodd; mix-blend-mode:multiply; opacity:.7; stroke-width:0px;"/><polygon points="573.95 137.54 536.69 138.11 536.66 138.11 524.27 138.31 524.12 138.14 522.36 136.22 516.33 129.6 493.18 104.18 493.01 103.91 484.47 90.48 471.92 70.73 471.98 70.48 471.98 70.48 474.81 58.87 514.09 71.15 518.12 72.41 517.13 72.37 474.11 70.49 487.84 87.35 529.47 93.1 490.67 91.95 543.2 98.84 567.9 129.93 572.9 136.22 573.95 137.54" style="fill:url(#_횂횁_횕_횑횑_횊_횏횂횑횣_19-41); fill-rule:evenodd; mix-blend-mode:multiply; opacity:.7; stroke-width:0px;"/><polygon points="127.49 105.12 129.99 108.31 127.36 105.16 127.29 105.07 125.95 103.46 125.59 103.12 125.86 103.06 127.43 105.05 127.49 105.12" style="fill:url(#_횂횁_횕_횑횑_횊_횏횂횑횣_19-42); fill-rule:evenodd; mix-blend-mode:multiply; opacity:.7; stroke-width:0px;"/><polygon points="137.22 96.54 125.59 103.12 73.81 113.78 137.22 96.54" style="fill:url(#_횂횁_횕_횑횑_횊_횏횂횑횣_19-43); fill-rule:evenodd; mix-blend-mode:multiply; opacity:.7; stroke-width:0px;"/><path d="M178.06,140.14s-.14.01-.41.03c-5.23.38-59.88,4.38-98.05,7.63-10.51.9-19.78,1.74-26.42,2.43-.33.04-.65.07-.97.1-5.66.6-9.19,1.08-9.63,1.38-.85.58-.6-.06.18-1.23.57-.85,1.41-1.99,2.3-3.15,1.25-1.62,2.58-3.28,3.39-4.28.46-.57.75-.92.75-.92l14.24-2.75,78.97-15.26-1.12-1.43-11.31-14.39,11.98,14.37,1.43,1.72,11.08,5.03,10.73,4.88,12.84,5.83Z" style="fill:url(#_횂횁_횕_횑횑_횊_횏횂횑횣_19-44); fill-rule:evenodd; mix-blend-mode:multiply; opacity:.7; stroke-width:0px;"/><polygon points="271.32 140.15 191.79 140.14 178.06 140.14 143.4 124.4 260.87 117.02 268.47 133.84 271.06 139.57 271.32 140.15" style="fill:url(#_횂횁_횕_횑횑_횊_횏횂횑횣_19-45); fill-rule:evenodd; mix-blend-mode:multiply; opacity:.7; stroke-width:0px;"/><polygon points="452.97 138.26 433.4 138.4 433.39 138.4 408.19 138.58 408.03 138.59 315.91 139.25 271.08 139.57 271.06 139.57 191.79 140.14 187.61 140.17 188 140.14 268.23 133.92 268.47 133.84 268.63 133.8 305.2 122.18 297.95 112.2 267.81 124.9 296.86 109.27 297.16 109.33 352.98 120.3 452.97 138.26" style="fill:url(#_횂횁_횕_횑횑_횊_횏횂횑횣_19-46); fill-rule:evenodd; mix-blend-mode:multiply; opacity:.7; stroke-width:0px;"/><path d="M829.46,111.49l-.28,5.46-1.05,20.44-71.16.11h-.73l-1.44,1.95-9.09,12.27-.49-.62-8.93-11.36-1.7-2.16h-.16l-85.66.46-.14-.19c-4.89,0-9.86.03-14.91.03h-.01s.02,0,.02,0c0,0-3.56,0-5.35.02-1.2,0-2.39,0-3.6,0-1.2,0-2.41,0-3.62.02-1.51,0-3.03,0-4.55,0-.76,0-1.52,0-2.29,0-.77,0-1.53,0-2.3,0h-.68c-.69,0-1.38,0-2.07,0h-.02c-.46,0-.92,0-1.38,0-.46,0-.92,0-1.38,0-.62,0-1.24,0-1.86,0-.62,0-1.24,0-1.87,0-1.86,0-3.73.02-5.6.02-.94,0-1.88,0-2.83,0-2.82,0-5.66.02-8.52.02-1.27,0-2.54,0-3.81,0-1.27,0-2.55,0-3.82,0-.64,0-1.28,0-1.92,0-.64,0-1.28,0-1.92,0-12.39.03-24.99.05-37.68.08h-.04l-12.39.19-.15-.17h-.32l.07.08-14.26.85-.52-.9c-.56,0-1.12,0-1.68,0-1.24,0-2.49,0-3.74,0l.73.89-4.26,1.15-56.9.4-9.84-2.21h0l-25.2.18h-.16c-11.1.12-23.32.26-35.95.41-.65,0-1.29.02-1.94.02-17.89.21-36.54.44-53.97.64l1.15,1.83-45.29.32-.7-1.66c-10.4.1-18.89.15-24.51.15h-1.78c-19.85-.02-37.95-.04-53.6-.11h-2.79c-.34,0-.69-.01-1.04-.01h-2.72c-.32-.02-.66-.02-.98-.02h-1.33c-.54,0-1.1,0-1.65-.02h-2.87s-.14.01-.41.03c-5.23.38-59.88,4.38-98.05,7.63-10.48,1.23-18.69,2.18-21.24,2.43-.46.04-.74.07-.81.07h-.17c-.52-.01-1.02-.01-1.5-.03h-.15c-.9-.02-1.74-.03-2.54-.05-.33.04-.65.07-.97.1-5.66.6-9.19,1.08-9.63,1.38-.85.58-.6-.06.18-1.23.57-.85,1.41-1.99,2.3-3.15-.25-.3-.53-.63-.86-.97-.12-.13-.24-.25-.36-.39-.88-.89-1.99-1.91-3.27-3.02-1.06-.92-2.24-1.9-3.51-2.92-.18-.13-.35-.27-.52-.42-.73-.58-1.5-1.18-2.29-1.79-.32-.26-.65-.51-.97-.76-.02-.02-.06-.05-.09-.08-.24-.18-.47-.36-.71-.54-.95-.72-1.92-1.45-2.91-2.2-.31-.24-.62-.46-.94-.7-.35-.27-.71-.54-1.07-.79-.33-.25-.67-.49-1.01-.75-.2-.15-.41-.3-.62-.45-.28-.2-.56-.41-.84-.62-.03-.02-.06-.04-.09-.06-.08-.06-.16-.11-.24-.17-.71-.52-1.41-1.03-2.12-1.54-.24-.18-.48-.36-.72-.52-.13-.09-.26-.18-.38-.27-.37-.27-.73-.52-1.09-.79-.56-.39-1.1-.78-1.64-1.16-.36-.26-.72-.53-1.08-.76-.36-.27-.72-.52-1.07-.76-.36-.26-.71-.49-1.07-.75-.35-.24-.7-.49-1.04-.74-.35-.25-.7-.49-1.03-.72-.18-.12-.34-.24-.52-.35-.34-.24-.67-.48-1-.7-.19-.13-.38-.25-.56-.4-.3-.19-.6-.41-.9-.61-.64-.45-1.28-.88-1.87-1.3-.25-.16-.49-.33-.72-.49-.35-.24-.69-.46-1.01-.69-.28-.19-.55-.39-.83-.57-.13-.09-.26-.18-.39-.27-.53-.36-1.03-.7-1.51-1.03-.2-.13-.39-.25-.57-.39h0c-.72-.49-1.36-.93-1.92-1.3-.1-.06-.18-.12-.27-.18-.17-.12-.33-.23-.48-.33-.08-.05-.15-.1-.22-.15-.14-.09-.27-.18-.4-.27-.14-.09-.26-.18-.37-.26.43,0,.85.02,1.28.02l43.7-9.04,133.55-27.62.29-.06h.05s9.86,8.41,9.86,8.41l62.7-24.04,24.88.23,95.57-36.42,22.85-18.76,15.96-6.12,53.09,60.32.38.44h0c1.19-.3,2.34-.61,3.45-.9l3.2-.43,1.78-.25,2.19-.31,39.28,12.28,10.14-6.8v-.02s15.8,4.98,15.8,4.98l.94-.31-.61-.42,37.57-11.76,37.31,11.19,3.2.96,98.69-35.25,73.54,46.36-1.89,12.26,22.23,10.47,18.46,8.69Z" style="fill:url(#_횂횁_횕_횑횑_횊_횏횂횑횣_444); fill-rule:evenodd; mix-blend-mode:screen; stroke-width:0px;"/><path d="M338.39,102.08c-.1-.04-.16-.08-.16-.09,0-.05.05-.01.16.09Z" style="fill:url(#_횂횁_횕_횑횑_횊_횏횂횑횣_18); fill-rule:evenodd; mix-blend-mode:multiply; opacity:.76; stroke-width:0px;"/><path d="M811,113l-28.8.72,7.39-.85,11.95-1.38-24.6-2.3,34.06-.38h.48s-.48-.07-.48-.07l-57.07-7.64,19.21,11.15-.96.32-6.38,2.11h0s-6.99,2.32-6.99,2.32h0l-1.46.49-17.35,5.75-12.88,4.27-.7-.35h-.02s0,0,0,0l-1.55-.78-8.24-4.14-71.94-7.07h0l-2.72-.27-7.43,7.7-28.17-10.87h0s-2.44-.94-2.44-.94l26.82,14.38-43.13-5.57-.13.07-17.98,9.81-.15.08-.6.33-.82.05-47.41,2.85-11.08-15.83,47.51.67-49.21-4.98-6.15-3.45,14.78,20.41-11.75-.32-2.18-2.83-6.53-8.45,4.73,8.05-9.46.77-12.3-6.51-10.61-3.93-5.95-2.2,7.4,5.07,14.24,9.75-9.38-.18-1.29-.03-2.46-.05-.2-.04-20.39-4.09h0l-30.98-6.21-2.09-.2-2.46-.24-.37-.04-12.12-1.17-.49-.05-2.34-.23,2.35.58.59.15,11.72,2.88,1.03.26,8.32,2.04h.01s2.46.61,2.46.61l-.23.02h0l-4.75.3h0l-5.27.34-.88.06s-.39-.11-1.12-.31c-.46-.13-1.06-.29-1.77-.49h0c-1.44-.4-3.36-.93-5.66-1.56-.08-.02-.17-.04-.25-.07-.87-.24-1.79-.49-2.75-.76-.43-.12-.87-.24-1.31-.36-2.68-.74-5.67-1.57-8.85-2.45h0c-.69-.19-1.39-.39-2.1-.58-.85-.24-1.71-.47-2.57-.72-.84-.23-1.7-.47-2.56-.71-.09-.03-.19-.05-.28-.08-.17-.05-.34-.1-.51-.14h0c-.39-.11-.77-.22-1.16-.32-.05-.01-.1-.03-.14-.04-.91-.26-1.83-.51-2.75-.77-.05-.02-.1-.03-.16-.04-1.29-.36-2.59-.72-3.89-1.08-2.28-.64-4.56-1.28-6.82-1.91h0c-.55-.16-1.1-.31-1.65-.47-.38-.11-.75-.21-1.13-.32-.12-.04-.25-.07-.37-.11-.11-.03-.22-.06-.33-.09-.87-.24-1.73-.49-2.59-.73-.26-.07-.51-.14-.76-.21-.04,0-.07-.02-.11-.03-.37-.11-.73-.21-1.1-.31-.04-.01-.08-.02-.12-.04-11.73-3.32-21.32-6.09-23.29-6.84-.09-.03-.16-.06-.21-.09,1.51,1.49,13.37,16.93,13.37,16.93l.24.05,6.44,1.48,7.99,1.84,1.06.24,5.6,1.29h.02s3.3.76,3.3.76l8.05,2.71h0s22.28,7.51,22.28,7.51l-36.12-1.3-5.65-.2-1.02-.04-.58-.02-.67-.02-4.24-.15-47.23-1.7-1.41-1.91-2.5-3.37-15.91.37h0l-25.62.6h-.35s-1.42.04-1.42.04l1.35-.2.34-.05,38.78-5.73.1-.02.29-.04,25.38-.09-27.53-2.84h-.02s-.33.08-.33.08l-8.54,2,7.7-3.16.41-.17.28-.12,46.49,3.45-49.39-7.95-.22.08-.78.28-11.58,4.21h0l-12.65,4.6h0l-2.96,1.08,18.36-9.36h.01s7.67-3.91,7.67-3.91l-.73.18-25.78,6.2-7.84-.58-7.78-.57-26.5-11.49,31.23-13.03-4.17.21-19.33,8.33h-.03s-10.59,4.58-10.59,4.58l-2.78-.86,17.51-8.04-25.12,6.57,21.5,7.82,24.11,8.39-83.9,1.74,29.93,1.65h0l6.42.35-21.06.57h-.02l-50.28,1.35-.67.02-.71.02-46.48.47,40.96,1.37-61.71,5.15-28.36.69-19.97.49-1.04.03,1.13.04,19.88.69,43.02,1.5-12.1,3.07-12.47,3.17-14.48,3.68s-.18,0-.52,0c-1.13-.01-4.01-.05-7.88-.1-3.14-.04-6.93-.09-10.94-.13l7.74,7.74,5.38-.08,9.45-.15,3.51-.05h0l2.63-.04,677.93-10.51,17.63-.27h.88s73.72-1.16,73.72-1.16l.67-21.35.09-2.89.05-1.51-18.32.46ZM120.58,131.77l33.09-2.4.3.03.5.04h0l34.43,2.85-23.7,2.03h0l-.37.03-21.93,1.88-28.24,2.41,13.45-2.41,20-3.59-25.09,3.59-43.24,6.19,23.73-6.19,17.05-4.45Z" style="fill:url(#_횂횁_횕_횑횑_횊_횏횂횑횣_18-2); fill-rule:evenodd; mix-blend-mode:multiply; opacity:.76; stroke-width:0px;"/><polygon points="630.43 109.68 681.36 116.85 621.27 105.36 630.43 109.68" style="fill:url(#_횂횁_횕_횑횑_횊_횏횂횑횣_18-3); fill-rule:evenodd; mix-blend-mode:multiply; opacity:.76; stroke-width:0px;"/><polygon points="590.51 96.16 602.81 99.99 644.45 104.21 590.51 96.16" style="fill:url(#_횂횁_횕_횑횑_횊_횏횂횑횣_18-4); fill-rule:evenodd; mix-blend-mode:multiply; opacity:.76; stroke-width:0px;"/><polygon points="621.24 105.46 603.85 109.93 623.09 106.12 621.24 105.46" style="fill:url(#_횂횁_횕_횑횑_횊_횏횂횑횣_18-5); fill-rule:evenodd; mix-blend-mode:multiply; opacity:.76; stroke-width:0px;"/><polygon points="418.28 99.61 450.93 103.06 466.07 96.16 418.28 99.61" style="fill:url(#_횂횁_횕_횑횑_횊_횏횂횑횣_18-6); fill-rule:evenodd; mix-blend-mode:multiply; opacity:.76; stroke-width:0px;"/><polygon points="335.82 95.14 425.85 105.74 427.27 106.51 334.85 97.09 329.29 94.16 335.82 95.14" style="fill:url(#_횂횁_횕_횑횑_횊_횏횂횑횣_18-7); fill-rule:evenodd; mix-blend-mode:multiply; opacity:.76; stroke-width:0px;"/><polygon points="397.93 105.36 402.66 106.89 462.28 114.17 455.66 108.81 397.93 105.36" style="fill:url(#_횂횁_횕_횑횑_횊_횏횂횑횣_18-8); fill-rule:evenodd; mix-blend-mode:multiply; opacity:.76; stroke-width:0px;"/><polygon points="201.64 91.81 224.28 86.97 213.24 93.11 205.67 93.64 201.64 91.81" style="fill:url(#_횂횁_횕_횑횑_횊_횏횂횑횣_18-9); fill-rule:evenodd; mix-blend-mode:multiply; opacity:.76; stroke-width:0px;"/><polygon points="309.4 58.16 380.43 45.97 365.28 44.82 309.4 58.16" style="fill:url(#_횂횁_횕_횑횑_횊_횏횂횑횣_18-10); fill-rule:evenodd; mix-blend-mode:multiply; opacity:.76; stroke-width:0px;"/><polygon points="335 56.32 374.27 52.1 382.05 53.33 335 56.32" style="fill:url(#_횂횁_횕_횑횑_횊_횏횂횑횣_18-11); fill-rule:evenodd; mix-blend-mode:multiply; opacity:.76; stroke-width:0px;"/><path d="M160.4,113.72c.95-.32,73.69,2.54,73.69,2.54l-59.03-4.39h41.17l-45.42-1.15,6.62.77-34.07,1.53,17.03.7Z" style="fill:url(#_횂횁_횕_횑횑_횊_횏횂횑횣_18-12); fill-rule:evenodd; mix-blend-mode:multiply; opacity:.76; stroke-width:0px;"/><path d="M120.82,105.8c-.32.39-51.73,9.12-51.73,9.12l25.2-.88-16.88,3.6,18.89-2.86-2.89-.17,34.55-9.63-7.14.81Z" style="fill:url(#_횂횁_횕_횑횑_횊_횏횂횑횣_18-13); fill-rule:evenodd; mix-blend-mode:multiply; opacity:.76; stroke-width:0px;"/><polygon points="727.73 118 761.06 115.29 723.94 116.47 727.73 118" style="fill:url(#_횂횁_횕_횑횑_횊_횏횂횑횣_18-14); fill-rule:evenodd; mix-blend-mode:multiply; opacity:.76; stroke-width:0px;"/><polygon points="693.19 107.27 707.91 110.59 759.91 107.66 759.43 107.27 693.19 107.27" style="fill:url(#_횂횁_횕_횑횑_횊_횏횂횑횣_18-15); fill-rule:evenodd; mix-blend-mode:multiply; opacity:.76; stroke-width:0px;"/><path d="M360.88,118.78l1.14-10.91.03,9.14,1.18-8.48-.09,8.29,1.59-13.52.87,4.6.67-2.07.56,8.03.17-7.23s.78,10.68.78,10.11c0-.56,1.29-11.58,1.29-11.58l1.9,11.63.44-2.19.87,4.03s.73-4.13.75-3.75c.02.38,1.89,3.87,1.89,3.87l1.01-2.97.59,2.92,1.04-15.48,1.17,9.43.32-4.47,1.85,6.57s.35-6,.38-5.39c.02.61,2.62,6.23,2.62,6.23,0,0-.77-4.38-.67-3.78.11.61,2.52,5.12,2.52,5.12,0,0-.64-3.32-.48-2.46.17.88,3.89,7.83,3.89,7.83l-1.94-13.78s6.11,14.53,6.11,13.69c0-.83-.33-4.51-.33-4.51l3.74,6.25.27-1.48,5.3,8.11-.72-16.13,4.85,18.8-45.56-14.46Z" style="fill:#706c2f; fill-rule:evenodd; stroke-width:0px;"/><path d="M416.98,120.6l.99-15.35.56,12.81,1.18-11.94.33,11.62,1.47-19.02,1.47,6.4.82-2.94,1.23,11.23-.17-10.13s1.69,14.92,1.65,14.13c-.03-.78,1.16-16.29,1.16-16.29l3.3,16.19.5-3.09,1.44,5.6s.79-5.83.85-5.29c.05.54,2.86,5.32,2.86,5.32l1.25-4.21.99,4.05.6-21.73,2.17,13.16.2-6.28,2.96,9.11s.16-8.42.23-7.58c.07.85,4.02,8.59,4.02,8.59,0,0-1.33-6.1-1.14-5.27.18.85,3.82,7.05,3.82,7.05,0,0-1.08-4.61-.8-3.42.29,1.22,5.88,10.77,5.88,10.77l-3.48-19.21s9.37,20.04,9.33,18.86c-.04-1.16-.72-6.31-.72-6.31l5.59,8.56.29-2.08,6.96,11.8-2.02-9.42,8.88,12.23-64.63-17.93Z" style="fill:#706c2f; fill-rule:evenodd; stroke-width:0px;"/><path d="M358.48,134c0-1.89-.18-11.67-.18-11.67l2.15,9.78.54-4.46,2.15,7.03.54-2.92.89,4.8,2.33-17.67,2.15,13.38v-4.63l3.22,12.01-19.14-5.84,5.37.17Z" style="fill:#706c2f; fill-rule:evenodd; stroke-width:0px;"/><path d="M406.06,131.77c0-1.89-.18-11.67-.18-11.67l2.15,9.78.54-4.46,2.15,7.03.54-2.92.89,4.8,2.33-17.67,2.15,13.38v-4.63l3.22,12.01-19.14-5.84,5.37.17Z" style="fill:#706c2f; fill-rule:evenodd; stroke-width:0px;"/><path d="M.02,113.4h-.02v-.02s0,0,.02.02Z" style="fill:url(#_횂횁_횕_횑횑_횊_횏횂횑횣_442); fill-rule:evenodd; stroke-width:0px;"/><path d="M829.46,111.49l-.28,5.46-.67,21.35-73.72,1.14-9.09,12.27-.49-.62-8.93-11.36-677.93,10.51c-.46.04-.74.07-.81.07h-.17c-.52-.01-1.02-.01-1.5-.03h-.15l-3.51.05c-5.66.6-9.19,1.08-9.63,1.38-.85.58-.6-.06.18-1.23l-5.38.08-7.74-7.74c4.01.05,7.8.09,10.94.13-1.06-.92-2.24-1.9-3.51-2.92-.18-.13-.35-.27-.52-.42-.73-.58-1.5-1.18-2.29-1.79-.32-.26-.65-.51-.97-.76-.02-.02-.06-.05-.09-.08-.24-.18-.47-.36-.71-.54-.95-.72-1.92-1.45-2.91-2.2-.31-.24-.62-.46-.94-.7-.35-.27-.71-.54-1.07-.79-.33-.25-.67-.49-1.01-.75-.2-.15-.41-.3-.62-.45-.28-.2-.56-.41-.84-.62l-1.13-.04,1.04-.03c-.08-.06-.16-.11-.24-.17-.71-.52-1.41-1.03-2.12-1.54-.24-.18-.48-.36-.72-.52-.13-.09-.26-.18-.38-.27-.37-.27-.73-.52-1.09-.79-.56-.39-1.1-.78-1.64-1.16-.36-.26-.72-.53-1.08-.76-.36-.27-.72-.52-1.07-.76-.36-.26-.71-.49-1.07-.75-.35-.24-.7-.49-1.04-.74-.35-.25-.7-.49-1.03-.72-.18-.12-.34-.24-.52-.35-.34-.24-.67-.48-1-.7-.19-.13-.38-.25-.56-.4-.3-.19-.6-.41-.9-.61-.64-.45-1.28-.88-1.87-1.3-.25-.16-.49-.33-.72-.49-.35-.24-.69-.46-1.01-.69-.28-.19-.55-.39-.83-.57-.13-.09-.26-.18-.39-.27-.53-.36-1.03-.7-1.51-1.03-.2-.13-.39-.25-.57-.39h0c-.72-.49-1.36-.93-1.92-1.3-.1-.06-.18-.12-.27-.18-.17-.12-.33-.23-.48-.33-.08-.05-.15-.1-.22-.15-.14-.09-.27-.18-.4-.27-.14-.09-.26-.18-.37-.26.43,0,.85.02,1.28.02l43.7-9.05,133.81-27.69.03.02h.05s9.86,8.41,9.86,8.41l62.7-24.04,24.88.23,95.57-36.42,22.85-18.76,15.96-6.12,53.09,60.32.38.44h0c1.19-.3,2.34-.61,3.45-.9l3.2-.43,1.78-.25,2.19-.31,39.28,12.28,10.14-6.8v-.02s15.8,4.98,15.8,4.98l.94-.31-.61-.42,37.57-11.76,37.31,11.19,3.2.96,98.69-35.25,73.54,46.36-1.89,12.26,22.23,10.47,18.46,8.69Z" style="fill:url(#_횂횁_횕_횑횑_횊_횏횂횑횣_442-2); fill-rule:evenodd; mix-blend-mode:multiply; opacity:.8; stroke-width:0px;"/><path d="M811,102.8v33.42H45v-31.84l133.81-27.69.03.02h.05s9.86,8.41,9.86,8.41l62.7-24.04,24.88.23,95.57-36.42,22.85-18.76,15.96-6.12,53.09,60.32.38.44h0c1.19-.3,2.34-.61,3.45-.9l3.2-.43,1.78-.25,2.19-.31,39.28,12.28,10.14-6.8v-.02s15.8,4.98,15.8,4.98l.94-.31-.61-.42,37.57-11.76,37.31,11.19,3.2.96,98.69-35.25,73.54,46.36-1.89,12.26,22.23,10.47Z" style="fill:url(#_횂횁_횕_횑횑_횊_횏횂횑횣_376); fill-rule:evenodd; mix-blend-mode:screen; opacity:.24; stroke-width:0px;"/></g></g></g></svg>