<?xml version="1.0" encoding="UTF-8"?><svg id="Layer_2" xmlns="http://www.w3.org/2000/svg" xmlns:xlink="http://www.w3.org/1999/xlink" viewBox="0 0 851.61 72.44"><defs><linearGradient id="_횂횁_횕_횑횑_횊_횏횂횑횣_357" x1="427.85" y1="-50.14" x2="430.84" y2="65.01" gradientUnits="userSpaceOnUse"><stop offset="0" stop-color="#487ea7"/><stop offset=".14" stop-color="#42659f"/><stop offset=".44" stop-color="#33288b"/><stop offset=".51" stop-color="#301886"/><stop offset=".99" stop-color="#000034"/></linearGradient><linearGradient id="_횂횁_횕_횑횑_횊_횏횂횑횣_357-2" x1="480.93" y1="221.59" x2="348.48" y2="-37.35" xlink:href="#_횂횁_횕_횑횑_횊_횏횂횑횣_357"/><linearGradient id="_횂횁_횕_횑횑_횊_횏횂횑횣_357-3" x1="309.75" y1="-42.08" x2="302.59" y2="120.61" xlink:href="#_횂횁_횕_횑횑_횊_횏횂횑횣_357"/><linearGradient id="_횂횁_횕_횑횑_횊_횏횂횑횣_357-4" x1="212.01" y1="-99.5" x2="179" y2="64.37" xlink:href="#_횂횁_횕_횑횑_횊_횏횂횑횣_357"/></defs><g id="_횓횙횊_1"><rect x="8.58" y=".18" width="843.04" height="72.27" style="fill:url(#_횂횁_횕_횑횑_횊_횏횂횑횣_357); stroke-width:0px;"/><polygon points="735.86 1.54 7.32 14.13 7.32 0 709.05 0 735.86 1.54" style="fill:url(#_횂횁_횕_횑횑_횊_횏횂횑횣_357-2); fill-rule:evenodd; stroke-width:0px;"/><polygon points="602.18 15.46 12.25 15.46 12.25 17.61 410.42 17.07 602.18 15.46" style="fill:url(#_횂횁_횕_횑횑_횊_횏횂횑횣_357-3); fill-rule:evenodd; stroke-width:0px;"/><polygon points="16.78 21.25 260.86 21.54 15.89 18.27 291.01 15.26 32.88 9.98 238.58 4.25 315.14 4.25 382.81 3.48 0 2.11 2.11 21.07 16.78 21.25" style="fill:url(#_횂횁_횕_횑횑_횊_횏횂횑횣_357-4); fill-rule:evenodd; stroke-width:0px;"/></g></svg>