<?xml version="1.0" encoding="UTF-8"?><svg xmlns="http://www.w3.org/2000/svg" xmlns:xlink="http://www.w3.org/1999/xlink" viewBox="0 0 884 174.58"><defs><linearGradient id="_횂횁_횕_횑횑_횊_횏횂횑횣_357" x1="286.46" y1="215.95" x2="298.8" y2="122.87" gradientUnits="userSpaceOnUse"><stop offset="0" stop-color="#487ea7"/><stop offset=".14" stop-color="#42659f"/><stop offset=".44" stop-color="#33288b"/><stop offset=".51" stop-color="#301886"/><stop offset=".99" stop-color="#000034"/></linearGradient><linearGradient id="_횂횁_횕_횑횑_횊_횏횂횑횣_357-2" x1="139.22" y1="196.44" x2="151.55" y2="103.37" xlink:href="#_횂횁_횕_횑횑_횊_횏횂횑횣_357"/><linearGradient id="_횂횁_횕_횑횑_횊_횏횂횑횣_16" x1="90.19" y1="96.69" x2="211.24" y2="96.69" gradientUnits="userSpaceOnUse"><stop offset="0" stop-color="#301628"/><stop offset=".63" stop-color="#2f1328"/><stop offset="1" stop-color="#2f0c29"/></linearGradient><linearGradient id="_횂횁_횕_횑횑_횊_횏횂횑횣_16-2" x1="112.99" y1="89.45" x2="152.56" y2="89.45" xlink:href="#_횂횁_횕_횑횑_횊_횏횂횑횣_16"/><linearGradient id="_횂횁_횕_횑횑_횊_횏횂횑횣_3" x1="152.38" y1="101.41" x2="156.49" y2="85.52" gradientUnits="userSpaceOnUse"><stop offset="0" stop-color="#5649cb"/><stop offset="1" stop-color="#bd7a5b"/></linearGradient><linearGradient id="_횂횁_횕_횑횑_횊_횏횂횑횣_16-3" x1="197.41" y1="111.84" x2="197.3" y2="108.36" xlink:href="#_횂횁_횕_횑횑_횊_횏횂횑횣_16"/><linearGradient id="_횂횁_횕_횑횑_횊_횏횂횑횣_3-2" x1="197.04" y1="113" x2="201.15" y2="97.11" xlink:href="#_횂횁_횕_횑횑_횊_횏횂횑횣_3"/><linearGradient id="_횂횁_횕_횑횑_횊_횏횂횑횣_3-3" x1="117.41" y1="102.2" x2="179.34" y2="73.7" xlink:href="#_횂횁_횕_횑횑_횊_횏횂횑횣_3"/><linearGradient id="_횂횁_횕_횑횑_횊_횏횂횑횣_3-4" x1="127.86" y1="124.91" x2="189.79" y2="96.41" xlink:href="#_횂횁_횕_횑횑_횊_횏횂횑횣_3"/><linearGradient id="_횂횁_횕_횑횑_횊_횏횂횑횣_3-5" x1="134.22" y1="138.71" x2="196.15" y2="110.21" xlink:href="#_횂횁_횕_횑횑_횊_횏횂횑횣_3"/><linearGradient id="_횂횁_횕_횑횑_횊_횏횂횑횣_16-4" x1="255.19" y1="115.6" x2="343.43" y2="115.6" xlink:href="#_횂횁_횕_횑횑_횊_횏횂횑횣_16"/><linearGradient id="_횂횁_횕_횑횑_횊_횏횂횑횣_16-5" x1="293.57" y1="120.74" x2="327.36" y2="120.74" xlink:href="#_횂횁_횕_횑횑_횊_횏횂횑횣_16"/><linearGradient id="_횂횁_횕_횑횑_횊_횏횂횑횣_16-6" x1="372" y1="119.89" x2="371.95" y2="118.25" xlink:href="#_횂횁_횕_횑횑_횊_횏횂횑횣_16"/><linearGradient id="_횂횁_횕_횑횑_횊_횏횂횑횣_16-7" x1="356.11" y1="123.04" x2="356.04" y2="120.79" xlink:href="#_횂횁_횕_횑횑_횊_횏횂횑횣_16"/><linearGradient id="_횂횁_횕_횑횑_횊_횏횂횑횣_16-8" x1="310.38" y1="120.79" x2="322.19" y2="120.79" xlink:href="#_횂횁_횕_횑횑_횊_횏횂횑횣_16"/><linearGradient id="_횂횁_횕_횑횑_횊_횏횂횑횣_16-9" x1="276.58" y1="107.51" x2="308.24" y2="107.51" xlink:href="#_횂횁_횕_횑횑_횊_횏횂횑횣_16"/><linearGradient id="_횂횁_횕_횑횑_횊_횏횂횑횣_3-6" x1="299.16" y1="119.59" x2="302.99" y2="104.25" xlink:href="#_횂횁_횕_횑횑_횊_횏횂횑횣_3"/><linearGradient id="_횂횁_횕_횑횑_횊_횏횂횑횣_3-7" x1="348.47" y1="152.12" x2="352.58" y2="136.23" xlink:href="#_횂횁_횕_횑횑_횊_횏횂횑횣_3"/><linearGradient id="_횂횁_횕_횑횑_횊_횏횂횑횣_3-8" x1="362.77" y1="155.81" x2="366.87" y2="139.92" xlink:href="#_횂횁_횕_횑횑_횊_횏횂횑횣_3"/><linearGradient id="_횂횁_횕_횑횑_횊_횏횂횑횣_3-9" x1="285.37" y1="139.8" x2="310.03" y2="96.51" xlink:href="#_횂횁_횕_횑횑_횊_횏횂횑횣_3"/><linearGradient id="_횂횁_횕_횑횑_횊_횏횂횑횣_3-10" x1="332.25" y1="166.5" x2="356.91" y2="123.21" xlink:href="#_횂횁_횕_횑횑_횊_횏횂횑횣_3"/><linearGradient id="_횂횁_횕_횑횑_횊_횏횂횑횣_3-11" x1="342.34" y1="172.25" x2="367" y2="128.96" xlink:href="#_횂횁_횕_횑횑_횊_횏횂횑횣_3"/><linearGradient id="_횂횁_횕_횑횑_횊_횏횂횑횣_357-3" x1="342.74" y1="223.39" x2="355.07" y2="130.33" xlink:href="#_횂횁_횕_횑횑_횊_횏횂횑횣_357"/><linearGradient id="_횂횁_횕_횑횑_횊_횏횂횑횣_357-4" x1="358.09" y1="225.44" x2="370.42" y2="132.36" xlink:href="#_횂횁_횕_횑횑_횊_횏횂횑횣_357"/><linearGradient id="_횂횁_횕_횑횑_횊_횏횂횑횣_15" x1="635.62" y1="62.64" x2="869.25" y2="62.64" gradientUnits="userSpaceOnUse"><stop offset="0" stop-color="#331a2b"/><stop offset=".63" stop-color="#32172b"/><stop offset="1" stop-color="#32102b"/></linearGradient><linearGradient id="_횂횁_횕_횑횑_횊_횏횂횑횣_15-2" x1="19.04" y1="143.68" x2="509.36" y2="143.68" xlink:href="#_횂횁_횕_횑횑_횊_횏횂횑횣_15"/><linearGradient id="_횂횁_횕_횑횑_횊_횏횂횑횣_15-3" x1="398.48" y1="127.47" x2="850.43" y2="127.47" xlink:href="#_횂횁_횕_횑횑_횊_횏횂횑횣_15"/><linearGradient id="_횂횁_횕_횑횑_횊_횏횂횑횣_15-4" x1="581.87" y1="133.46" x2="681.96" y2="133.46" gradientTransform="translate(96.59 19.99) rotate(-1.9)" xlink:href="#_횂횁_횕_횑횑_횊_횏횂횑횣_15"/><linearGradient id="_횂횁_횕_횑횑_횊_횏횂횑횣_15-5" x1="570.22" y1="148.96" x2="728.41" y2="148.96" gradientTransform="translate(96.59 19.99) rotate(-1.9)" xlink:href="#_횂횁_횕_횑횑_횊_횏횂횑횣_15"/><linearGradient id="_횂횁_횕_횑횑_횊_횏횂횑횣_15-6" x1="333.8" y1="158.8" x2="386.68" y2="158.8" xlink:href="#_횂횁_횕_횑횑_횊_횏횂횑횣_15"/><linearGradient id="_횂횁_횕_횑횑_횊_횏횂횑횣_15-7" x1="337.17" y1="163.17" x2="356.33" y2="163.17" xlink:href="#_횂횁_횕_횑횑_횊_횏횂횑횣_15"/><linearGradient id="_횂횁_횕_횑횑_횊_횏횂횑횣_15-8" x1="52.46" y1="137.43" x2="115.17" y2="137.43" xlink:href="#_횂횁_횕_횑횑_횊_횏횂횑횣_15"/><linearGradient id="_횂횁_횕_횑횑_횊_횏횂횑횣_15-9" x1="47.94" y1="128.07" x2="206.72" y2="128.07" xlink:href="#_횂횁_횕_횑횑_횊_횏횂횑횣_15"/><linearGradient id="_횂횁_횕_횑횑_횊_횏횂횑횣_15-10" x1="630.85" y1="136.31" x2="651.98" y2="185.69" xlink:href="#_횂횁_횕_횑횑_횊_횏횂횑횣_15"/><linearGradient id="_횂횁_횕_횑횑_횊_횏횂횑횣_15-11" x1="470.58" y1="148.04" x2="485.28" y2="182.39" xlink:href="#_횂횁_횕_횑횑_횊_횏횂횑횣_15"/><linearGradient id="_횂횁_횕_횑횑_횊_횏횂횑횣_355" x1="535.03" y1="121.02" x2="394.86" y2="159.32" gradientUnits="userSpaceOnUse"><stop offset="0" stop-color="#47204d"/><stop offset=".24" stop-color="#49204c"/><stop offset=".41" stop-color="#522148"/><stop offset=".55" stop-color="#622443"/><stop offset=".68" stop-color="#77273c"/><stop offset=".8" stop-color="#932c32"/><stop offset=".92" stop-color="#b53227"/><stop offset="1" stop-color="#d3371d"/></linearGradient><linearGradient id="_횂횁_횕_횑횑_횊_횏횂횑횣_744" x1="299.36" y1="115.02" x2="299.29" y2="120.47" gradientUnits="userSpaceOnUse"><stop offset="0" stop-color="#301886"/><stop offset=".98" stop-color="#0d002a"/></linearGradient><linearGradient id="_횂횁_횕_횑횑_횊_횏횂횑횣_744-2" x1="356.1" y1="121.43" x2="356.08" y2="122.95" xlink:href="#_횂횁_횕_횑횑_횊_횏횂횑횣_744"/><linearGradient id="_횂횁_횕_횑횑_횊_횏횂횑횣_744-3" x1="372.02" y1="118.72" x2="372.01" y2="119.59" xlink:href="#_횂횁_횕_횑횑_횊_횏횂횑횣_744"/><linearGradient id="_횂횁_횕_횑횑_횊_횏횂횑횣_749" x1="296.06" y1="141.56" x2="301.13" y2="106.36" gradientUnits="userSpaceOnUse"><stop offset="0" stop-color="#f4df80"/><stop offset=".09" stop-color="#eed67d"/><stop offset=".24" stop-color="#dfbe76"/><stop offset=".43" stop-color="#c6966a"/><stop offset=".65" stop-color="#a36059"/><stop offset=".9" stop-color="#781b45"/><stop offset=".99" stop-color="#67003d"/></linearGradient><linearGradient id="_횂횁_횕_횑횑_횊_횏횂횑횣_749-2" x1="352.2" y1="149.65" x2="357.27" y2="114.45" xlink:href="#_횂횁_횕_횑횑_횊_횏횂횑횣_749"/><linearGradient id="_횂횁_횕_횑횑_횊_횏횂횑횣_749-3" x1="367.43" y1="151.85" x2="372.5" y2="116.64" xlink:href="#_횂횁_횕_횑횑_횊_횏횂횑횣_749"/><linearGradient id="_횂횁_횕_횑횑_횊_횏횂횑횣_744-4" x1="442.18" y1="68.57" x2="440.99" y2="177.16" xlink:href="#_횂횁_횕_횑횑_횊_횏횂횑횣_744"/><radialGradient id="_횂횁_횕_횑횑_횊_횏횂횑횣_748" cx="420.24" cy="108.67" fx="420.24" fy="108.67" r="253.74" gradientUnits="userSpaceOnUse"><stop offset="0" stop-color="#f4df80"/><stop offset=".09" stop-color="#eed67d"/><stop offset=".24" stop-color="#dfbe76"/><stop offset=".43" stop-color="#c6966a"/><stop offset=".65" stop-color="#a36059"/><stop offset=".9" stop-color="#781b45"/><stop offset=".99" stop-color="#67003d"/></radialGradient></defs><g style="isolation:isolate;"><g id="Layer_2"><g id="_횓횙횊_1"><polygon points="343.43 118.44 341.87 120.43 327.38 120.97 327.2 123.29 319.86 125.62 259.94 125.08 259.23 122.22 255.19 119.53 298.48 118.99 315.03 118.79 315.04 118.79 323.86 118.68 326.55 118.65 331.07 118.59 331.09 118.59 335.42 118.54 343.43 118.44" style="fill:url(#_횂횁_횕_횑횑_횊_횏횂횑횣_357); fill-rule:evenodd; stroke-width:0px;"/><polygon points="210.6 111.97 211.11 112.2 207.35 114.35 204.13 119.89 169.61 120.07 168.49 121.23 165.85 123.98 165.2 124.66 163.82 126.09 162.5 127.46 160.67 129.38 97.17 129.38 95.74 125.02 95.45 124.14 93.66 118.7 90.19 108.13 116.26 108.01 119.05 108 128.36 107.96 164.94 107.79 167.28 107.78 187.12 107.69 187.3 107.69 197.33 107.65 197.4 107.64 202.23 107.62 204.22 107.61 205.12 107.61 205.3 107.61 211.24 107.58 209.46 111.03 209.41 111.14 209.33 111.29 209.29 111.38 210.2 111.79 210.6 111.97" style="fill:url(#_횂횁_횕_횑횑_횊_횏횂횑횣_357-2); fill-rule:evenodd; stroke-width:0px;"/><polygon points="211.24 107.58 205.92 108.12 205.76 108.14 204.4 108.27 204.39 108.27 203.53 108.29 199.7 108.39 199.61 108.39 186.49 108.72 186.31 108.72 167.16 109.19 166.96 109.31 164.77 110.59 127.87 111.52 117.92 111.77 117.63 111.78 118.94 108.13 90.19 108.13 97.95 81.66 97.97 81.59 98.52 81.64 184.29 89.82 202.84 92.38 202.61 95.43 202.52 96.59 207.58 95.68 211.24 107.58" style="fill:url(#_횂횁_횕_횑횑_횊_횏횂횑횣_16); fill-rule:evenodd; stroke-width:0px;"/><polygon points="202.84 92.38 181.87 91.65 165.11 97.14 130.43 92.75 124.26 90.64 124.1 90.59 117.21 88.23 117.21 88.23 115.9 87.79 97.95 81.66 97.75 81.59 143.4 80.49 202.84 92.38" style="fill:#5f2840; fill-rule:evenodd; stroke-width:0px;"/><polygon points="207.58 95.68 201.68 98.06 169.22 98.42 180.18 95.68 185.34 94.58 202.61 95.43 207.58 95.68" style="fill:#5f2840; fill-rule:evenodd; stroke-width:0px;"/><polygon points="165.57 97.23 164.77 110.59 127.87 111.52 130.43 92.75 165.57 97.23" style="fill:#7d8dcc; fill-rule:evenodd; mix-blend-mode:multiply; opacity:.5; stroke-width:0px;"/><polygon points="204.4 108.27 204.39 108.27 167.16 109.19 166.96 109.31 169.22 98.42 201.68 98.06 204.4 108.27" style="fill:#7d8dcc; fill-rule:evenodd; mix-blend-mode:multiply; opacity:.5; stroke-width:0px;"/><polygon points="112.99 87.73 152.56 88.47 116.19 91.17 112.99 87.73" style="fill:url(#_횂횁_횕_횑횑_횊_횏횂횑횣_16-2); fill-rule:evenodd; stroke-width:0px;"/><polygon points="152.02 88.44 151.87 88.46 151.84 88.46 125.8 90.46 125.5 90.48 125.23 90.5 124.28 90.58 124.26 90.64 117.92 111.77 117.88 111.91 117.58 111.91 117.63 111.78 118.94 108.13 116.26 108.13 115.77 90.72 115.7 88.22 117.21 88.23 117.21 88.23 150.68 88.44 150.73 88.44 152.02 88.44" style="fill:#7d8dcc; fill-rule:evenodd; mix-blend-mode:multiply; opacity:.5; stroke-width:0px;"/><polygon points="211.24 107.58 205.92 108.12 205.76 108.14 204.4 108.27 204.39 108.27 203.53 108.29 199.7 108.39 199.61 108.39 186.49 108.72 186.31 108.72 167.16 109.19 166.96 109.31 164.77 110.59 127.87 111.52 117.92 111.77 117.88 111.91 117.58 111.91 117.63 111.78 118.94 108.13 90.19 108.13 97.95 81.66 97.75 81.59 143.4 80.49 202.84 92.38 202.61 95.43 207.58 95.68 211.24 107.58" style="fill:url(#_횂횁_횕_횑횑_횊_횏횂횑횣_3); fill-rule:evenodd; mix-blend-mode:lighten; opacity:.1; stroke-width:0px;"/><polygon points="211.11 112.2 183.74 112.2 186.49 108.72 187.3 107.69 189.38 105.05 189.39 105.05 189.48 105.05 198.7 105.8 202.23 107.62 203.53 108.29 209.33 111.29 210.02 111.64 210.5 111.89 211.11 112.2" style="fill:url(#_횂횁_횕_횑횑_횊_횏횂횑횣_16-3); fill-rule:evenodd; stroke-width:0px;"/><polygon points="210.63 112 210.36 111.91 199.61 108.39 197.33 107.65 189.4 105.05 189.39 105.05 202.65 105.42 203.92 106.47 205.3 107.61 205.92 108.12 209.46 111.03 210.5 111.89 210.6 111.97 210.63 112" style="fill:#5f2840; fill-rule:evenodd; stroke-width:0px;"/><polygon points="210.32 111.89 210.93 112.2 183.56 112.2 189.21 105.05 202.47 105.42 210.32 111.89" style="fill:url(#_횂횁_횕_횑횑_횊_횏횂횑횣_3-2); fill-rule:evenodd; mix-blend-mode:lighten; opacity:.1; stroke-width:0px;"/><polygon points="97.95 81.65 115.7 88.22 151.84 88.46 125.23 90.5 130.43 92.75 165.57 97.23 181.87 91.65 202.84 92.38 143.32 80.54 97.95 81.65" style="fill:url(#_횂횁_횕_횑횑_횊_횏횂횑횣_3-3); fill-rule:evenodd; mix-blend-mode:lighten; opacity:.22; stroke-width:0px;"/><polygon points="207.58 95.68 201.68 98.06 169.22 98.42 185.34 94.58 202.61 95.43 207.58 95.68" style="fill:url(#_횂횁_횕_횑횑_횊_횏횂횑횣_3-4); fill-rule:evenodd; mix-blend-mode:lighten; opacity:.22; stroke-width:0px;"/><polygon points="210.5 111.89 210.2 111.79 199.7 108.39 197.4 107.64 189.4 105.05 189.39 105.05 202.65 105.42 203.92 106.47 205.3 107.61 205.92 108.12 209.46 111.03 210.5 111.89" style="fill:url(#_횂횁_횕_횑횑_횊_횏횂횑횣_3-5); fill-rule:evenodd; mix-blend-mode:lighten; opacity:.22; stroke-width:0px;"/><polygon points="341.66 114.96 296.35 113.25 259.17 111.85 259.05 111.85 259.18 111.82 259.8 111.69 259.81 111.69 276.58 108.27 280.87 105.41 281.26 105.32 294.64 102.36 341.66 114.96" style="fill:#5f2840; fill-rule:evenodd; stroke-width:0px;"/><polygon points="343.43 118.44 335.42 118.54 331.09 118.59 331.07 118.59 326.55 118.65 323.86 118.68 315.04 118.79 315.03 118.79 298.48 118.99 255.19 119.53 257.59 116.57 259.17 111.85 259.18 111.82 259.23 111.67 259.81 111.69 259.81 111.69 341.66 114.96 343.43 118.44" style="fill:url(#_횂횁_횕_횑횑_횊_횏횂횑횣_16-4); fill-rule:evenodd; stroke-width:0px;"/><polygon points="327.36 120.31 319.63 124.35 293.57 123.47 293.59 122.07 315.03 118.79 325.81 117.14 326.55 118.65 327.36 120.31" style="fill:url(#_횂횁_횕_횑횑_횊_횏횂횑횣_16-5); fill-rule:evenodd; stroke-width:0px;"/><polygon points="325.81 117.14 323.86 118.68 321.63 120.44 320.76 121.13 319.15 122.4 293.59 122.07 298.48 118.99 303.01 116.14 303.59 115.78 325.81 117.14" style="fill:#5f2840; fill-rule:evenodd; stroke-width:0px;"/><polygon points="378.18 120.07 365.84 120.07 368.38 116.67 371.1 116.91 372.58 117.03 377.17 119.53 377.9 119.92 378.18 120.07" style="fill:url(#_횂횁_횕_횑횑_횊_횏횂횑횣_16-6); fill-rule:evenodd; stroke-width:0px;"/><polygon points="366.73 121.86 366.73 122.76 364.58 123.29 345.44 122.58 350.63 118.64 351.08 118.73 366.57 121.83 366.73 121.86" style="fill:url(#_횂횁_횕_횑횑_횊_횏횂횑횣_16-7); fill-rule:evenodd; stroke-width:0px;"/><polygon points="366.65 121.86 363.87 122.4 350.94 118.75 350.99 118.74 351.08 118.73 356.18 117.93 366.57 121.83 366.65 121.86" style="fill:#5f2840; fill-rule:evenodd; stroke-width:0px;"/><polygon points="377.96 119.98 377.85 119.94 377.81 119.92 377.47 119.8 369.15 116.94 368.38 116.67 374.36 116.85 377.9 119.92 377.96 119.98" style="fill:#5f2840; fill-rule:evenodd; stroke-width:0px;"/><polygon points="335.43 118.59 326.75 118.59 325.81 117.14 303.01 116.14 262.27 114.35 262.09 115.06 296.97 117.75 257.59 116.57 259.17 111.85 259.18 111.82 259.23 111.67 259.8 111.69 259.8 111.69 292.53 113.09 296.35 113.25 334.71 114.89 335.42 118.54 335.43 118.59" style="fill:#7d8dcc; fill-rule:evenodd; mix-blend-mode:multiply; opacity:.5; stroke-width:0px;"/><polygon points="321.12 121.15 310.38 120.61 322.19 120.43 321.12 121.15" style="fill:url(#_횂횁_횕_횑횑_횊_횏횂횑횣_16-8); fill-rule:evenodd; stroke-width:0px;"/><polygon points="308.24 109.7 276.58 108.27 280.87 105.41 281.26 105.32 308.24 109.7" style="fill:url(#_횂횁_횕_횑횑_횊_횏횂횑횣_16-9); fill-rule:evenodd; stroke-width:0px;"/><polygon points="335.42 118.54 335.43 118.59 331.07 118.59 326.55 118.65 327.36 120.31 319.63 124.35 293.57 123.47 293.59 122.07 298.48 118.99 255.19 119.53 257.59 116.57 259.17 111.85 259.05 111.85 259.18 111.82 259.23 111.67 259.81 111.69 259.81 111.69 276.58 108.27 280.87 105.41 281.26 105.32 294.64 102.36 341.66 114.96 343.43 118.44 335.42 118.54" style="fill:url(#_횂횁_횕_횑횑_횊_횏횂횑횣_3-6); fill-rule:evenodd; mix-blend-mode:lighten; opacity:.1; stroke-width:0px;"/><polygon points="366.73 121.86 366.73 122.76 364.58 123.29 345.44 122.58 350.63 118.64 351.08 118.73 356.18 117.93 366.57 121.83 366.73 121.86" style="fill:url(#_횂횁_횕_횑횑_횊_횏횂횑횣_3-7); fill-rule:evenodd; mix-blend-mode:lighten; opacity:.1; stroke-width:0px;"/><polygon points="378.18 120.07 365.84 120.07 368.38 116.67 374.36 116.85 377.9 119.92 378.18 120.07" style="fill:url(#_횂횁_횕_횑횑_횊_횏횂횑횣_3-8); fill-rule:evenodd; mix-blend-mode:lighten; opacity:.1; stroke-width:0px;"/><polygon points="341.66 114.96 292.53 113.09 259.18 111.82 259.8 111.69 259.81 111.69 259.81 111.69 276.58 108.27 303.41 109.34 281.26 105.32 294.64 102.36 341.66 114.96" style="fill:url(#_횂횁_횕_횑횑_횊_횏횂횑횣_3-9); fill-rule:evenodd; mix-blend-mode:lighten; opacity:.22; stroke-width:0px;"/><polygon points="366.57 121.83 363.87 122.4 350.99 118.74 350.63 118.64 356.18 117.93 366.57 121.83" style="fill:url(#_횂횁_횕_횑횑_횊_횏횂횑횣_3-10); fill-rule:evenodd; mix-blend-mode:lighten; opacity:.22; stroke-width:0px;"/><polygon points="368.49 116.95 377.53 119.87 374.36 116.85 368.49 116.95" style="fill:url(#_횂횁_횕_횑횑_횊_횏횂횑횣_3-11); fill-rule:evenodd; mix-blend-mode:lighten; opacity:.22; stroke-width:0px;"/><polygon points="366.73 122.76 364.41 124.01 350.09 125.8 345.44 122.58 366.73 122.76" style="fill:url(#_횂횁_횕_횑횑_횊_횏횂횑횣_357-3); fill-rule:evenodd; stroke-width:0px;"/><polygon points="377.9 119.92 377.85 119.94 377.36 120.07 367.62 122.76 366.22 120.07 366.21 120.05 377.81 119.92 377.9 119.92" style="fill:url(#_횂횁_횕_횑횑_횊_횏횂횑횣_357-4); fill-rule:evenodd; stroke-width:0px;"/><polygon points="869.25 11.41 861.87 60.5 848.49 67.59 848.48 67.59 821.52 81.86 810.24 87.83 807.7 88.21 807.42 88.25 797.38 89.75 780.39 92.28 678.46 107.49 644.26 112.59 644.22 112.59 635.62 113.88 637.21 111.99 637.23 111.96 645.62 102 648.93 98.07 683.59 56.89 683.93 56.49 684.21 56.15 684.92 55.98 869.25 11.41" style="fill:url(#_횂횁_횕_횑횑_횊_횏횂횑횣_15); fill-rule:evenodd; stroke-width:0px;"/><polygon points="677.11 105.61 690.75 81.46 694.47 80.69 702 64.22 809.13 43.25 852.1 57.05 844.91 78.01 677.11 105.61" style="fill:#8d98cf; fill-rule:evenodd; mix-blend-mode:multiply; opacity:.5; stroke-width:0px;"/><polygon points="884 0 872.01 128.43 828.53 127.21 820.3 126.97 810.79 126.7 810.68 126.7 799.96 126.4 792.81 126.2 789.27 126.1 789.26 126.1 751.79 125.04 751.79 125.04 750.57 125.01 734.03 124.54 734.03 124.54 713.73 123.97 713.72 123.97 707.51 123.79 695.07 123.44 695.06 123.44 625.38 121.47 625.38 121.47 605.7 120.92 600.09 120.76 599.78 120.75 587.49 120.4 586.75 120.38 587.49 120.15 594.61 117.93 594.72 117.89 618.86 110.36 618.93 110.33 645.62 102 668.06 94.99 686.33 89.29 686.33 89.29 706.52 82.98 703.9 82.73 691.6 81.55 690.75 81.47 690.79 81.46 694.6 80.4 694.6 80.4 727.94 71.16 738.05 68.36 744.41 66.6 839.38 61.03 839.38 56.26 756.81 64.29 790.8 57.08 796.96 49.62 702 64.22 717.26 53.72 803.6 30.05 817.62 26.08 683.59 56.89 682.82 57.05 683.93 56.49 684.92 55.98 713.3 41.52 838.27 .53 884 0" style="fill:#443822; fill-rule:evenodd; stroke-width:0px;"/><path d="M509.36,141.54l-26.19,2.86-20.07,2.19-9,.98s-17.59.76-45.54,1.94h0c-2.86.12-5.83.25-8.9.38-4.61.2-9.44.4-14.48.61-14.11.6-29.8,1.26-46.5,1.96h0c-.67.03-1.34.06-2.01.08h0c-13.49.57-27.62,1.16-42.08,1.76h0c-.89.04-1.79.08-2.68.11-4.51.19-9.06.38-13.62.57-45.7,1.9-93.57,3.87-134.58,5.49-24.21.96-46.02,1.81-63.59,2.45-27.45,1-44.52,1.52-44.13,1.22.49-.37-.36-1.79-1.91-3.71-.02-.03-.04-.06-.07-.08-.07-.09-.14-.17-.21-.26-4.67-5.67-14.74-15.17-14.74-15.17l.18-.09,33.27-16.88,4.66-2.36,9.05-.13,3.16-.05h0l13.62-.2,12.76-.19,7.73-.11h0l21.8-.33,28.13-.42,12.45-.18,58.32-.87.55,2.28.44,1.8,91.27-.05,3.96,8.25h0s1.16.04,1.16.04l93.56,3.04h.26s.1.01.1.01l45.32,1.47,24.35.79h0l24.23.79Z" style="fill:url(#_횂횁_횕_횑횑_횊_횏횂횑횣_15-2); fill-rule:evenodd; stroke-width:0px;"/><path d="M390.69,139.66v-.13s-.03-.61-.03-.61l-76.58-1.41,6.3-2.12h-.01s-22.06,4.28-22.06,4.28l-.13-7.82-90.12-3.83-.05,1.39-.25,6.3-2.66.77v-1.74s.01,0,.01,0v-.1s.04-5.36.04-5.36l.02-2.96-39.98-1.67-11.8-.49-22.48-.94-5.65,1.36-7.18,1.73h0l-12.74,3.06-.81.19h0l-4.25,1.02h0l-45.84,11.02-35.22,3.24h-.05s-.13.02-.13.02l-1.27.12,3.7,8.11,2.03,6.39,10.28.63.33.02,2.56.16,43.42,2.65,62.79,3.83.8-6.28.47-3.66.3-2.33,52.64-1.63h0l188.22-5.83,7.52-7.52-2.14.14ZM258.23,140.41l-21.21,6.86.34-6.46,11.6-9.63,9.75,9.08-.48.16h0Z" style="fill:#8d98cf; fill-rule:evenodd; mix-blend-mode:multiply; opacity:.5; stroke-width:0px;"/><polygon points="248.97 131.18 237.37 140.81 63.74 144.1 63.45 144.1 63.44 144.1 54.55 144.27 54.54 144.27 19.04 144.94 19.17 144.85 59.7 117.55 93.66 118.7 168.49 121.23 224.17 123.11 205.18 126.33 163.82 126.09 125.5 125.87 162.5 127.46 205.16 129.3 208.01 129.42 248.97 131.18" style="fill:#623043; fill-rule:evenodd; stroke-width:0px;"/><polygon points="316.42 127.15 298.19 131.85 208.06 128.02 222.69 125.36 224.72 125.4 316.42 127.15" style="fill:#443822; fill-rule:evenodd; stroke-width:0px;"/><polygon points="237.02 147.27 258.15 140.41 392.83 139.52 385.31 147.04 144.45 154.5 149.31 152.01 237.02 147.27" style="fill:#443822; fill-rule:evenodd; stroke-width:0px;"/><polygon points="442.5 139.57 414.31 139.12 414 139.11 414 139.11 314.09 137.52 320.37 135.4 320.38 135.39 321.54 135.43 414.84 138.62 415.11 138.63 442.5 139.57" style="fill:#623043; fill-rule:evenodd; stroke-width:0px;"/><polygon points="295.65 149.87 284.55 163.31 266.21 164.86 284.08 150.24 295.65 149.87" style="fill:#8d98cf; fill-rule:evenodd; mix-blend-mode:multiply; opacity:.5; stroke-width:0px;"/><polygon points="385.31 147.04 385.08 152.95 290.54 160.65 297.43 149.81 385.31 147.04" style="fill:#8d98cf; fill-rule:evenodd; mix-blend-mode:multiply; opacity:.5; stroke-width:0px;"/><polygon points="831.02 159.21 826.15 159.26 825.53 159.27 820.65 159.32 780.79 159.76 778.82 159.78 773.81 159.84 711.24 160.54 678.61 160.9 678.6 160.9 669.71 161 669.71 161 665.88 161.04 642.35 161.3 636.16 161.37 627.89 161.46 627.89 161.46 616.36 161.59 577.28 162.02 482.83 163.07 467.38 163.24 426.61 163.7 426.47 163.7 412.99 163.85 381.92 164.19 381.91 164.19 379.43 164.22 379.43 164.22 346.76 164.58 342.67 164.63 342.67 164.63 70.89 167.65 8.51 168.34 16.83 165.3 16.83 165.3 17 165.24 29.95 160.5 33.99 160.37 34.32 160.36 36.67 160.29 144.15 156.83 144.42 156.83 144.1 160.06 279.12 154.3 279.12 154.3 292.47 153.73 295.01 153.62 334.4 151.94 334.4 151.94 336.39 151.85 336.4 151.85 385.2 149.77 396.56 149.28 401.27 146.53 413.7 139.29 414 139.11 414 139.11 414.84 138.63 414.84 138.63 414.84 138.62 415.1 138.48 415.67 138.15 423.48 133.59 586.79 113.66 589.13 107.68 648.93 98.07 668.06 94.99 684.61 92.33 717.2 87.09 763.37 86.92 773.35 86.88 791.41 86.81 791.41 86.81 806.92 86.76 807.42 88.25 820.3 126.97 831.02 159.21" style="fill:#443822; fill-rule:evenodd; stroke-width:0px;"/><polygon points="850.43 168.19 830.35 168.16 829.58 168.15 829.58 168.15 826.09 168.15 712 167.95 696.51 167.93 672.39 167.88 665.62 167.87 642.71 167.84 637.98 167.83 637.97 167.83 629.28 167.81 629.27 167.81 617.02 167.79 576.32 167.72 482.49 167.56 469.42 167.54 418.54 167.45 416.43 167.45 416.33 167.35 412.99 163.85 399.65 149.89 398.48 148.66 401.71 146.71 414.31 139.12 415.11 138.64 415.11 138.63 415.36 138.48 423.48 133.59 460.77 139.96 472.86 142.03 485.12 140.75 485.13 140.75 574.16 131.51 612.74 127.51 605.94 123.88 600.09 120.76 594.72 117.89 586.79 113.66 589.13 107.68 618.93 110.33 637.23 111.96 644.26 112.59 647.21 112.85 681.58 115.91 706.94 118.17 797.38 89.75 806.92 86.76 807.7 88.21 828.53 127.21 850.43 168.19" style="fill:url(#_횂횁_횕_횑횑_횊_횏횂횑횣_15-3); fill-rule:evenodd; stroke-width:0px;"/><polygon points="617.02 167.79 576.32 167.72 482.49 167.56 469.42 167.54 418.54 167.45 418.63 167.36 425.77 164.02 426.47 163.7 434.29 160.04 463.1 146.59 472.86 142.03 485.12 140.75 485.13 140.75 574.16 131.51 612.74 127.51 616.36 161.59 617.02 167.79" style="fill:#8d98cf; fill-rule:evenodd; mix-blend-mode:multiply; opacity:.5; stroke-width:0px;"/><polygon points="850.43 168.19 830.35 168.16 829.58 168.15 829.58 168.15 826.09 168.15 712 167.95 711.82 166.21 711.24 160.54 710.27 150.94 710.27 150.94 709.54 143.76 709.51 143.46 709.5 143.33 708.4 132.56 708.4 132.56 708.37 132.25 707.67 125.41 707.51 123.79 706.94 118.17 797.38 89.75 806.92 86.76 807.7 88.21 828.53 127.21 850.43 168.19" style="fill:#8d98cf; fill-rule:evenodd; mix-blend-mode:multiply; opacity:.5; stroke-width:0px;"/><polygon points="483.16 144.4 546.31 138.16 580.79 141.03 495.07 145.98 483.16 144.4" style="fill:#443822; fill-rule:evenodd; stroke-width:0px;"/><polygon points="462.63 153.2 525.08 146.39 529.46 145.97 483.48 154.45 462.63 153.2" style="fill:#443822; fill-rule:evenodd; stroke-width:0px;"/><polygon points="632.07 113.58 707.66 125.41 775.54 109.24 781.94 110.13 682.78 139.95 605.23 114.99 632.07 113.58" style="fill:#623043; fill-rule:evenodd; stroke-width:0px;"/><polygon points="646.03 133.03 666.58 142.12 621.86 133.81 646.03 133.03" style="fill:#623043; fill-rule:evenodd; stroke-width:0px;"/><polygon points="682.78 139.95 683.52 154.78 767.74 118.09 780.54 118.83 781.94 110.13 682.78 139.95" style="fill:url(#_횂횁_횕_횑횑_횊_횏횂횑횣_15-4); fill-rule:evenodd; stroke-width:0px;"/><polygon points="673.08 162.63 672.11 169.94 830.39 169.93 807.76 120.28 673.08 162.63" style="fill:url(#_횂횁_횕_횑횑_횊_횏횂횑횣_15-5); fill-rule:evenodd; stroke-width:0px;"/><polygon points="684.13 121.82 633.11 113.74 632.07 113.57 605.23 114.99 605.7 120.92 605.94 123.88 605.95 124.12 599.78 120.75 594.61 117.93 586.79 113.66 589.13 107.68 618.86 110.36 633.49 111.67 637.21 111.99 644.22 112.59 647.21 112.85 681.54 115.81 681.58 115.91 684.08 121.72 684.08 121.72 684.13 121.82" style="fill:#8d98cf; fill-rule:evenodd; mix-blend-mode:multiply; opacity:.5; stroke-width:0px;"/><polygon points="682.78 139.95 683.52 154.78 718.77 139.84 718.42 129.34 705.34 133.55 706.22 147.02 704.97 147.61 703.61 133.81 695.51 135.7 695.35 151.76 685.31 156.06 682.78 139.95" style="fill:#8d98cf; fill-rule:evenodd; mix-blend-mode:multiply; opacity:.5; stroke-width:0px;"/><path d="M666.7,162.29c1.12-.31,99.1-44.09,99.1-44.09l41.95,2.08-134.68,42.35-6.38-.34Z" style="fill:#623043; fill-rule:evenodd; stroke-width:0px;"/><path d="M828.95,173.13l-14.37-.43-91.57-2.76h-.02l-34.98-1.06,8.5-.95,15.31-1.72,24.25-2.72,1.4,3.8,38.07.29-1.75-7.74-5.42-24.02,10.43,23.96.27.62,1.71-.62v-.03s-11.31-26.53-11.31-26.53l23.32-7.04,5.89-1.78s.46.72,1.26,1.98c3.47,5.48,13.42,21.21,20.7,32.92,2.11,3.4,4,6.46,5.44,8.83.39.65.75,1.25,1.07,1.78.72,1.21,1.25,2.12,1.53,2.66.16.3.25.49.25.55Z" style="fill:#8d98cf; fill-rule:evenodd; mix-blend-mode:multiply; opacity:.5; stroke-width:0px;"/><polygon points="621.86 133.81 629.35 168.16 665.55 169.88 666.58 142.12 621.86 133.81" style="fill:#8d98cf; fill-rule:evenodd; mix-blend-mode:multiply; opacity:.5; stroke-width:0px;"/><polygon points="630.1 138.9 660.48 141.76 662.93 143.06 641.53 146.08 630.1 138.9" style="fill:#623043; fill-rule:evenodd; stroke-width:0px;"/><polygon points="333.8 151.77 385.29 165.82 386.68 165.48 336.11 151.77 333.8 151.77" style="fill:url(#_횂횁_횕_횑횑_횊_횏횂횑횣_15-6); fill-rule:evenodd; stroke-width:0px;"/><path d="M356.33,157.93l-9.57,6.66-4.2,2.92-.81.33-4.58,1.86c0-.15.71-.84,1.81-1.84.98-.89,2.28-2.02,3.68-3.22h0c3.87-3.32,8.51-7.15,9.39-7.88.1-.08.15-.12.15-.12l3.94,1.23h.04s.14.06.14.06Z" style="fill:url(#_횂횁_횕_횑횑_횊_횏횂횑횣_15-7); fill-rule:evenodd; stroke-width:0px;"/><polygon points="52.46 144.76 115.17 130.1 63.08 144.2 52.46 144.76" style="fill:url(#_횂횁_횕_횑횑_횊_횏횂횑횣_15-8); fill-rule:evenodd; stroke-width:0px;"/><path d="M206.72,134.81s-57-2.03-102.75-4.06c-9.6-.43-18.72-.86-26.7-1.27-4.04-.21-7.79-.41-11.17-.6-1.26-.07-2.46-.14-3.61-.22-8.01-.49-13.33-.93-14.54-1.27l18.24-6.07,4.3.41,2.12.2,13.06,1.25,20.94,2.01,100.11,9.6Z" style="fill:url(#_횂횁_횕_횑횑_횊_횏횂횑횣_15-9); fill-rule:evenodd; stroke-width:0px;"/><path d="M70.49,121.75l2.12.2-6.5,6.94c-1.26-.07-2.46-.14-3.61-.22l8-6.92Z" style="fill:#8d98cf; fill-rule:evenodd; mix-blend-mode:multiply; opacity:.5; stroke-width:0px;"/><path d="M106.61,125.21l-2.64,5.55c-9.6-.43-18.72-.86-26.7-1.27l8.39-6.29,20.94,2.01Z" style="fill:#8d98cf; fill-rule:evenodd; mix-blend-mode:multiply; opacity:.5; stroke-width:0px;"/><polygon points="641.52 146.1 642.91 171.38 637.81 167.71 630.35 139.05 641.52 146.1" style="fill:url(#_횂횁_횕_횑횑_횊_횏횂횑횣_15-10); fill-rule:evenodd; stroke-width:0px;"/><polygon points="483.48 154.45 482.83 163.07 482.49 167.56 482.22 171.04 470.76 170.37 469.42 167.54 467.38 163.24 462.63 153.2 483.48 154.45" style="fill:url(#_횂횁_횕_횑횑_횊_횏횂횑횣_15-11); fill-rule:evenodd; stroke-width:0px;"/><path d="M832.42,172.56l-3.73.03-14.12.11-239.42,1.88c.05-.24.52-3.01,1.16-6.86.29-1.73.62-3.67.96-5.7,1.6-9.53,3.51-20.99,3.51-20.99h0l-33.66-3.11-29.82,2.63-3.18-2.37,60.02-6.66,37.64-4.18-5.84-3.21-.02-.24-.24-2.96-.47-5.93,20.15,6.49h0l57.39,18.47,12.73-3.83h0l6.23-1.87h0s6.63-1.99,6.63-1.99l25.66-7.72h0l47.91-14.4h0s0,0,0,0l-1.4,8.69h0l26.73,1.44.48.03h0l.03.05,3,6.36,15.36,32.55,4.2,8.9,2.08,4.41Z" style="fill:#8d98cf; fill-rule:evenodd; mix-blend-mode:multiply; opacity:.5; stroke-width:0px;"/><polygon points="435.1 160.38 426.61 163.7 425.77 164.02 417.27 167.35 416.33 167.35 341.75 167.83 338.99 167.85 108.62 169.33 0 170.03 16.83 165.3 16.83 165.3 17.04 165.24 34.06 160.46 34.34 160.38 34.32 160.36 34.11 160.13 20.14 145.23 54.34 144.32 54.35 144.32 55.45 144.29 55.56 144.59 60.97 159.25 62.71 159.08 63.74 144.1 63.75 144.02 63.75 143.91 64.16 143.91 64.16 143.91 237.37 140.81 237.02 147.27 197.09 152.87 197.08 152.87 196.31 152.98 281.55 150.57 278.28 153.86 279.73 153.8 279.73 153.8 292.82 153.29 295.28 153.2 385.2 149.72 396.56 149.28 401.04 146.44 401.27 146.53 401.71 146.71 408.55 149.51 408.55 149.51 434.29 160.04 435.1 160.38" style="fill:#8d98cf; fill-rule:evenodd; mix-blend-mode:multiply; opacity:.5; stroke-width:0px;"/><path d="M872.01,128.43l-43.48-1.23,21.9,40.98-20.08-.03,2.08,4.41-3.73.03c.16.3.25.49.25.55l-14.37-.43-239.42,1.88c.05-.24.52-3.01,1.16-6.86l-93.84-.16-.26,3.48-11.47-.67-1.34-2.83-50.88-.09h-2.11s-.09-.1-.09-.1l-74.58.48-4.58,1.86c0-.15.71-.84,1.81-1.84l-230.37,1.48-37.73-1.68-53.85-2.4h-.04s12.95-4.74,12.95-4.74l4.03-.13c-.07-.09-.14-.17-.21-.26l-10.28-.63-2.03-6.39-3.7-8.11,1.27-.12h.13s40.53-27.31,40.53-27.31l33.96,1.15,74.83,2.53,55.68,1.88.55,2.28,91.7,1.75,3.96,8.25h0s1.16.04,1.16.04l93.56,3.04.57-.33,7.81-4.55,163.32-19.94,2.34-5.98,59.79-9.61,34.66-41.18-.76.16,1.1-.56.28-.33.71-.17,28.38-14.46L838.27.53l45.73-.53-11.99,128.43Z" style="fill:url(#_횂횁_횕_횑횑_횊_횏횂횑횣_355); fill-rule:evenodd; mix-blend-mode:color; opacity:.2; stroke-width:0px;"/><polygon points="747 69.31 781 66.31 781 67.31 734 74.31 747 69.31" style="fill:#8d98cf; fill-rule:evenodd; mix-blend-mode:multiply; opacity:.5; stroke-width:0px;"/><polygon points="758 89.31 767 85.31 782 83.31 777 86.31 758 89.31" style="fill:#8d98cf; fill-rule:evenodd; mix-blend-mode:multiply; opacity:.5; stroke-width:0px;"/><polygon points="761 71.31 817 63.31 751 74.31 761 71.31" style="fill:#8d98cf; fill-rule:evenodd; mix-blend-mode:multiply; opacity:.5; stroke-width:0px;"/><polygon points="685.17 104.79 786 90.31 780.15 92.37 676 110.31 683 102.31 685.17 104.79" style="fill:#8d98cf; fill-rule:evenodd; mix-blend-mode:multiply; opacity:.5; stroke-width:0px;"/><polygon points="683 102.31 777 90.31 786 90.31 685.17 104.79 683 102.31" style="fill:#56452b; fill-rule:evenodd; stroke-width:0px;"/><polygon points="691.26 81.65 704.66 82.79 742 68.31 737.72 68.37 691.26 81.65" style="fill:#56452b; fill-rule:evenodd; stroke-width:0px;"/><polygon points="583 128.31 514 127.31 580 124.31 583 128.31" style="fill:#8d98cf; fill-rule:evenodd; mix-blend-mode:multiply; opacity:.5; stroke-width:0px;"/><polygon points="493 133.31 530 128.31 531 128.31 485 136.31 493 133.31" style="fill:#8d98cf; fill-rule:evenodd; mix-blend-mode:multiply; opacity:.5; stroke-width:0px;"/><polygon points="298.66 118.92 255.19 119.53 257.59 116.57 259.17 111.85 259.05 111.85 259.18 111.82 259.23 111.67 259.81 111.69 259.81 111.69 276.58 108.27 280.87 105.41 281.26 105.32 294.64 102.36 341.66 114.96 343.43 118.44 341.87 120.43 327.38 120.97 319.49 124.17 293.59 123.59 293.59 122.03 298.66 118.92" style="fill:url(#_횂횁_횕_횑횑_횊_횏횂횑횣_744); fill-rule:evenodd; mix-blend-mode:hue; opacity:.52; stroke-width:0px;"/><polygon points="345.44 122.58 350.63 118.64 356.18 117.93 366.57 121.83 366.73 121.86 366.73 122.76 364.41 124.01 345.44 122.58" style="fill:url(#_횂횁_횕_횑횑_횊_횏횂횑횣_744-2); fill-rule:evenodd; mix-blend-mode:hue; opacity:.52; stroke-width:0px;"/><polygon points="366.22 120.07 365.84 120.07 368.38 116.67 374.36 116.85 377.9 119.92 378.18 120.07 377.36 120.07 366.22 120.07" style="fill:url(#_횂횁_횕_횑횑_횊_횏횂횑횣_744-3); fill-rule:evenodd; mix-blend-mode:hue; opacity:.52; stroke-width:0px;"/><polygon points="298.66 118.92 255.19 119.53 257.59 116.57 259.17 111.85 259.05 111.85 259.18 111.82 259.23 111.67 259.81 111.69 259.81 111.69 276.58 108.27 280.87 105.41 281.26 105.32 294.64 102.36 341.66 114.96 343.43 118.44 341.87 120.43 327.38 120.97 319.49 124.17 293.59 123.59 293.59 122.03 298.66 118.92" style="fill:url(#_횂횁_횕_횑횑_횊_횏횂횑횣_749); fill-rule:evenodd; mix-blend-mode:overlay; opacity:.55; stroke-width:0px;"/><polygon points="345.44 122.58 350.63 118.64 356.18 117.93 366.57 121.83 366.73 121.86 366.73 122.76 364.41 124.01 345.44 122.58" style="fill:url(#_횂횁_횕_횑횑_횊_횏횂횑횣_749-2); fill-rule:evenodd; mix-blend-mode:overlay; opacity:.55; stroke-width:0px;"/><polygon points="366.22 120.07 365.84 120.07 368.38 116.67 374.36 116.85 377.9 119.92 378.18 120.07 377.36 120.07 366.22 120.07" style="fill:url(#_횂횁_횕_횑횑_횊_횏횂횑횣_749-3); fill-rule:evenodd; mix-blend-mode:overlay; opacity:.55; stroke-width:0px;"/><path d="M872.01,128.43l-43.48-1.23,21.9,40.98-20.08-.03,2.08,4.41-3.73.03c.16.3.25.49.25.55l-14.37-.43-239.42,1.88c.05-.24.52-3.01,1.16-6.86l-93.84-.16-.26,3.48-11.47-.67-1.34-2.83-50.88-.09h-2.11s-.09-.1-.09-.1l-74.58.48-4.58,1.86c0-.15.71-.84,1.81-1.84l-230.37,1.48-108.62.7,16.83-4.73h0l.17-.06,12.95-4.74,4.03-.13c-.07-.09-.14-.17-.21-.26l-10.28-.63-2.03-6.39-3.7-8.11,1.27-.12h.13s-11.44-30.04-11.44-30.04l110.61-3.12.19-3.7-28.34.12,7.76-26.48-.2-.07,45.64-1.1,59.44,11.89-.23,3.05,4.97.25,3.66,11.91-1.78,3.45,1.04.85.61.31-27.34.09,2.34-3.12-68.35,2.73-41.87,6.23,148.29,4.98.55,2.28,91.7,1.75,3.96,8.25,1.16.04,93.56,3.04.57-.33,7.81-4.55,163.32-19.94,2.34-5.98,59.79-9.61,34.66-41.18-.76.16,1.1-.56.28-.33.71-.17,28.38-14.46L838.27.53l45.73-.53-11.99,128.43Z" style="fill:url(#_횂횁_횕_횑횑_횊_횏횂횑횣_744-4); fill-rule:evenodd; mix-blend-mode:hue; opacity:.52; stroke-width:0px;"/><path d="M872.01,128.43l-43.48-1.23,21.9,40.98-20.08-.03,2.08,4.41-3.73.03c.16.3.25.49.25.55l-14.37-.43-239.42,1.88c.05-.24.52-3.01,1.16-6.86l-93.84-.16-.26,3.48-11.47-.67-1.34-2.83-50.88-.09h-2.11s-.09-.1-.09-.1l-74.58.48-4.58,1.86c0-.15.71-.84,1.81-1.84l-230.37,1.48-108.62.7,16.83-4.73h0l.17-.06,12.95-4.74,4.03-.13c-.07-.09-.14-.17-.21-.26l-10.28-.63-2.03-6.39-3.7-8.11,1.27-.12h.13s-11.44-30.04-11.44-30.04l110.61-3.12.19-3.7-28.34.12,7.76-26.48-.2-.07,45.64-1.1,59.44,11.89-.23,3.05,4.97.25,3.66,11.91-1.78,3.45,1.04.85.61.31-27.34.09,2.34-3.12-68.35,2.73-41.87,6.23,148.29,4.98.55,2.28,91.7,1.75,3.96,8.25,1.16.04,93.56,3.04.57-.33,7.81-4.55,163.32-19.94,2.34-5.98,59.79-9.61,34.66-41.18-.76.16,1.1-.56.28-.33.71-.17,28.38-14.46L838.27.53l45.73-.53-11.99,128.43Z" style="fill:url(#_횂횁_횕_횑횑_횊_횏횂횑횣_748); fill-rule:evenodd; mix-blend-mode:overlay; opacity:.55; stroke-width:0px;"/></g></g></g></svg>