<?xml version="1.0" encoding="UTF-8"?><svg xmlns="http://www.w3.org/2000/svg" xmlns:xlink="http://www.w3.org/1999/xlink" viewBox="0 0 829.43 59.99"><defs><linearGradient id="_횂횁_횕_횑횑_횊_횏횂횑횣_180" x1="379.23" y1="17.85" x2="379.23" y2="56.18" gradientTransform="translate(35.36 2.93) rotate(-.65)" gradientUnits="userSpaceOnUse"><stop offset="0" stop-color="#e7eae1"/><stop offset=".45" stop-color="#e5e8e1"/><stop offset=".6" stop-color="#dee3e2"/><stop offset=".72" stop-color="#d2d9e4"/><stop offset=".81" stop-color="#c1cbe7"/><stop offset=".89" stop-color="#abbaeb"/><stop offset=".96" stop-color="#91a4f0"/><stop offset="1" stop-color="#7b93f5"/></linearGradient><linearGradient id="_횂횁_횕_횑횑_횊_횏횂횑횣_13" x1="-35.48" y1="-6428.97" x2="-35.48" y2="-6428.96" gradientTransform="translate(-37.8 -6412.04) rotate(-.65) scale(1 -1)" gradientUnits="userSpaceOnUse"><stop offset="0" stop-color="#1919a2"/><stop offset="1" stop-color="#fff"/></linearGradient><linearGradient id="_횂횁_횕_횑횑_횊_횏횂횑횣_13-2" x1="539.35" y1="-6480.33" x2="537.94" y2="-6410.47" xlink:href="#_횂횁_횕_횑횑_횊_횏횂횑횣_13"/><linearGradient id="_횂횁_횕_횑횑_횊_횏횂횑횣_13-3" x1="627.3" y1="-6447.41" x2="626.61" y2="-6446.48" xlink:href="#_횂횁_횕_횑횑_횊_횏횂횑횣_13"/><linearGradient id="_횂횁_횕_횑횑_횊_횏횂횑횣_13-4" x1="528.97" y1="-6467.87" x2="514.45" y2="-6431.16" xlink:href="#_횂횁_횕_횑횑_횊_횏횂횑횣_13"/><linearGradient id="_횂횁_횕_횑횑_횊_횏횂횑횣_13-5" x1="544.92" y1="-6459.81" x2="531.41" y2="-6425.67" xlink:href="#_횂횁_횕_횑횑_횊_횏횂횑횣_13"/><linearGradient id="_횂횁_횕_횑횑_횊_횏횂횑횣_13-6" x1="626.73" y1="-6446.52" x2="626.72" y2="-6446.74" xlink:href="#_횂횁_횕_횑횑_횊_횏횂횑횣_13"/><linearGradient id="_횂횁_횕_횑횑_횊_횏횂횑횣_13-7" x1="670.49" y1="-56.98" x2="653.89" y2="83.5" gradientTransform="translate(35.36 2.93) rotate(-.65)" xlink:href="#_횂횁_횕_횑횑_횊_횏횂횑횣_13"/><linearGradient id="_횂횁_횕_횑횑_횊_횏횂횑횣_13-8" x1="213.93" y1="-6484.79" x2="220.67" y2="-6382.38" xlink:href="#_횂횁_횕_횑횑_횊_횏횂횑횣_13"/><linearGradient id="_횂횁_횕_횑횑_횊_횏횂횑횣_13-9" x1="338.84" y1="-31.71" x2="372.05" y2="91.57" gradientTransform="translate(35.36 2.93) rotate(-.65)" xlink:href="#_횂횁_횕_횑횑_횊_횏횂횑횣_13"/><linearGradient id="_횂횁_횕_횑횑_횊_횏횂횑횣_13-10" x1="458.53" y1="-6487.47" x2="458.21" y2="-6381.89" xlink:href="#_횂횁_횕_횑횑_횊_횏횂횑횣_13"/><linearGradient id="_횂횁_횕_횑횑_횊_횏횂횑횣_13-11" x1="527.33" y1="-6483.44" x2="529.44" y2="-6415.75" xlink:href="#_횂횁_횕_횑횑_횊_횏횂횑횣_13"/><linearGradient id="_횂횁_횕_횑횑_횊_횏횂횑횣_13-12" x1="612.91" y1="-6378.49" x2="634.32" y2="-6462.04" xlink:href="#_횂횁_횕_횑횑_횊_횏횂횑횣_13"/><linearGradient id="_횂횁_횕_횑횑_횊_횏횂횑횣_13-13" x1="465.34" y1="-6419.74" x2="465.36" y2="-6420.4" xlink:href="#_횂횁_횕_횑횑_횊_횏횂횑횣_13"/><linearGradient id="_횂횁_횕_횑횑_횊_횏횂횑횣_13-14" x1="428.72" y1="-6423.08" x2="452.39" y2="-6452.07" xlink:href="#_횂횁_횕_횑횑_횊_횏횂횑횣_13"/><linearGradient id="_횂횁_횕_횑횑_횊_횏횂횑횣_13-15" x1="455.65" y1="-6331.72" x2="595.65" y2="-6467.75" xlink:href="#_횂횁_횕_횑횑_횊_횏횂횑횣_13"/><linearGradient id="_횂횁_횕_횑횑_횊_횏횂횑횣_13-16" x1="344.12" y1="-6421.29" x2="397.21" y2="-6472.87" xlink:href="#_횂횁_횕_횑횑_횊_횏횂횑횣_13"/><linearGradient id="_횂횁_횕_횑횑_횊_횏횂횑횣_13-17" x1="298.2" y1="-6298.74" x2="348.46" y2="-6472.59" xlink:href="#_횂횁_횕_횑횑_횊_횏횂횑횣_13"/><linearGradient id="_횂횁_횕_횑횑_횊_횏횂횑횣_13-18" x1="295.88" y1="-6503.44" x2="311.97" y2="-6422.71" xlink:href="#_횂횁_횕_횑횑_횊_횏횂횑횣_13"/><linearGradient id="_횂횁_횕_횑횑_횊_횏횂횑횣_13-19" x1="409.68" y1="-6463.21" x2="407.3" y2="-6428.13" xlink:href="#_횂횁_횕_횑횑_횊_횏횂횑횣_13"/><linearGradient id="_횂횁_횕_횑횑_횊_횏횂횑횣_13-20" x1="150.37" y1="-6264.27" x2="215" y2="-6487.79" xlink:href="#_횂횁_횕_횑횑_횊_횏횂횑횣_13"/><linearGradient id="_횂횁_횕_횑횑_횊_횏횂횑횣_13-21" x1="654.93" y1="-6428.97" x2="323.24" y2="-6422.19" xlink:href="#_횂횁_횕_횑횑_횊_횏횂횑횣_13"/><linearGradient id="_횂횁_횕_횑횑_횊_횏횂횑횣_13-22" x1="216.37" y1="-6395.06" x2="307.37" y2="-6460.45" xlink:href="#_횂횁_횕_횑횑_횊_횏횂횑횣_13"/><linearGradient id="_횂횁_횕_횑횑_횊_횏횂횑횣_13-23" x1="514.69" y1="-6384.5" x2="621.94" y2="-6461.58" xlink:href="#_횂횁_횕_횑횑_횊_횏횂횑횣_13"/><linearGradient id="_횂횁_횕_횑횑_횊_횏횂횑횣_13-24" x1="538.49" y1="-6434.1" x2="541.86" y2="-6448.86" xlink:href="#_횂횁_횕_횑횑_횊_횏횂횑횣_13"/><linearGradient id="_횂횁_횕_횑횑_횊_횏횂횑횣_13-25" x1="560.3" y1="-6419.85" x2="566.97" y2="-6449.08" xlink:href="#_횂횁_횕_횑횑_횊_횏횂횑횣_13"/><linearGradient id="_횂횁_횕_횑횑_횊_횏횂횑횣_13-26" x1="247.74" y1="-6431.91" x2="379.89" y2="-6440.69" xlink:href="#_횂횁_횕_횑횑_횊_횏횂횑횣_13"/><linearGradient id="_횂횁_횕_횑횑_횊_횏횂횑횣_13-27" x1="556.13" y1="-6429.79" x2="798.8" y2="-6445.91" xlink:href="#_횂횁_횕_횑횑_횊_횏횂횑횣_13"/><linearGradient id="_횂횁_횕_횑횑_횊_횏횂횑횣_13-28" x1="587.52" y1="-6446.64" x2="736.41" y2="-6456.53" xlink:href="#_횂횁_횕_횑횑_횊_횏횂횑횣_13"/><linearGradient id="_횂횁_횕_횑횑_횊_횏횂횑횣_13-29" x1="692.26" y1="-6474.18" x2="682.65" y2="-6459.19" xlink:href="#_횂횁_횕_횑횑_횊_횏횂횑횣_13"/><linearGradient id="_횂횁_횕_횑횑_횊_횏횂횑횣_13-30" x1="671.24" y1="-86.68" x2="650.04" y2="40.5" gradientTransform="translate(35.36 2.93) rotate(-.65)" xlink:href="#_횂횁_횕_횑횑_횊_횏횂횑횣_13"/><linearGradient id="_횂횁_횕_횑횑_횊_횏횂횑횣_13-31" x1="-35.49" y1="-6428.98" x2="-35.48" y2="-6428.96" xlink:href="#_횂횁_횕_횑횑_횊_횏횂횑횣_13"/><linearGradient id="_횂횁_횕_횑횑_횊_횏횂횑횣_13-32" x1="41.43" y1="-6483.36" x2="71.08" y2="-6373.33" xlink:href="#_횂횁_횕_횑횑_횊_횏횂횑횣_13"/><linearGradient id="_횂횁_횕_횑횑_횊_횏횂횑횣_13-33" x1="210.65" y1="-6561.09" x2="129.25" y2="-6411.95" xlink:href="#_횂횁_횕_횑횑_횊_횏횂횑횣_13"/><linearGradient id="_횂횁_횕_횑횑_횊_횏횂횑횣_13-34" x1="250.5" y1="-6587.02" x2="152.11" y2="-6406.76" xlink:href="#_횂횁_횕_횑횑_횊_횏횂횑횣_13"/><linearGradient id="_횂횁_횕_횑횑_횊_횏횂횑횣_13-35" x1="631.55" y1="-6347.7" x2="653.76" y2="-6453.91" xlink:href="#_횂횁_횕_횑횑_횊_횏횂횑횣_13"/><linearGradient id="_횂횁_횕_횑횑_횊_횏횂횑횣_13-36" x1="689.15" y1="-6329.26" x2="717.83" y2="-6466.44" xlink:href="#_횂횁_횕_횑횑_횊_횏횂횑횣_13"/><linearGradient id="_횂횁_횕_횑횑_횊_횏횂횑횣_13-37" x1="650.28" y1="-6312.85" x2="683.06" y2="-6469.64" xlink:href="#_횂횁_횕_횑횑_횊_횏횂횑횣_13"/><linearGradient id="_횂횁_횕_횑횑_횊_횏횂횑횣_13-38" x1="652.37" y1="-6495.76" x2="644.77" y2="-6450.18" xlink:href="#_횂횁_횕_횑횑_횊_횏횂횑횣_13"/><linearGradient id="_횂횁_횕_횑횑_횊_횏횂횑횣_13-39" x1="747.09" y1="-6385.57" x2="770.9" y2="-6472.89" xlink:href="#_횂횁_횕_횑횑_횊_횏횂횑횣_13"/><linearGradient id="_횂횁_횕_횑횑_횊_횏횂횑횣_13-40" x1="640.53" y1="-6350.36" x2="666.1" y2="-6457.73" xlink:href="#_횂횁_횕_횑횑_횊_횏횂횑횣_13"/><linearGradient id="_횂횁_횕_횑횑_횊_횏횂횑횣_13-41" x1="339.48" y1="-6279.9" x2="525.99" y2="-6476.05" xlink:href="#_횂횁_횕_횑횑_횊_횏횂횑횣_13"/><linearGradient id="_횂횁_횕_횑횑_횊_횏횂횑횣_13-42" x1="37.72" y1="-6363.6" x2="122.38" y2="-6484.27" xlink:href="#_횂횁_횕_횑횑_횊_횏횂횑횣_13"/><linearGradient id="_횂횁_횕_횑횑_횊_횏횂횑횣_13-43" x1="151.18" y1="-6336.17" x2="180.1" y2="-6456.38" xlink:href="#_횂횁_횕_횑횑_횊_횏횂횑횣_13"/><linearGradient id="_횂횁_횕_횑횑_횊_횏횂횑횣_13-44" x1="250.91" y1="-6311.11" x2="310.63" y2="-6502.51" xlink:href="#_횂횁_횕_횑횑_횊_횏횂횑횣_13"/><linearGradient id="_횂횁_횕_횑횑_횊_횏횂횑횣_454" x1="414.72" y1="-1.75" x2="414.72" y2="34.44" gradientUnits="userSpaceOnUse"><stop offset="0" stop-color="#9fc0fc"/><stop offset=".06" stop-color="#90adee"/><stop offset=".26" stop-color="#5d6fc0"/><stop offset=".43" stop-color="#44528e"/><stop offset=".7" stop-color="#202642"/><stop offset=".9" stop-color="#080a12"/><stop offset="1" stop-color="#000"/></linearGradient><linearGradient id="_횂횁_횕_횑횑_횊_횏횂횑횣_318" x1="395.84" y1="-6392.51" x2="399.62" y2="-6451.02" gradientTransform="translate(-37.8 -6412.04) rotate(-.65) scale(1 -1)" gradientUnits="userSpaceOnUse"><stop offset="0" stop-color="#794993"/><stop offset="1" stop-color="#dbb719"/></linearGradient><linearGradient id="_횂횁_횕_횑횑_횊_횏횂횑횣_318-2" x1="588.93" y1="-6348.57" x2="620.67" y2="-6447.29" xlink:href="#_횂횁_횕_횑횑_횊_횏횂횑횣_318"/><linearGradient id="_횂횁_횕_횑횑_횊_횏횂횑횣_318-3" x1="556.56" y1="-6357.39" x2="584.57" y2="-6444.5" xlink:href="#_횂횁_횕_횑횑_횊_횏횂횑횣_318"/><linearGradient id="_횂횁_횕_횑횑_횊_횏횂횑횣_318-4" x1="569.57" y1="-6407.18" x2="581.14" y2="-6443.14" xlink:href="#_횂횁_횕_횑횑_횊_횏횂횑횣_318"/><linearGradient id="_횂횁_횕_횑횑_횊_횏횂횑횣_318-5" x1="379.34" y1="-6360.59" x2="413.18" y2="-6454.91" xlink:href="#_횂횁_횕_횑횑_횊_횏횂횑횣_318"/><linearGradient id="_횂횁_횕_횑횑_횊_횏횂횑횣_318-6" x1="311.18" y1="-6347.46" x2="364.72" y2="-6496.73" xlink:href="#_횂횁_횕_횑횑_횊_횏횂횑횣_318"/><linearGradient id="_횂횁_횕_횑횑_횊_횏횂횑횣_318-7" x1="364" y1="-6346.62" x2="409.74" y2="-6474.11" xlink:href="#_횂횁_횕_횑횑_횊_횏횂횑횣_318"/><linearGradient id="_횂횁_횕_횑횑_횊_횏횂횑횣_318-8" x1="177.4" y1="-6437.58" x2="177.62" y2="-6440.93" xlink:href="#_횂횁_횕_횑횑_횊_횏횂횑횣_318"/><linearGradient id="_횂횁_횕_횑횑_횊_횏횂횑횣_318-9" x1="309.3" y1="-6451.03" x2="309.83" y2="-6459.27" xlink:href="#_횂횁_횕_횑횑_횊_횏횂횑횣_318"/><linearGradient id="_횂횁_횕_횑횑_횊_횏횂횑횣_318-10" x1="323.06" y1="-6452.33" x2="323.29" y2="-6456.04" xlink:href="#_횂횁_횕_횑횑_횊_횏횂횑횣_318"/><linearGradient id="_횂횁_횕_횑횑_횊_횏횂횑횣_318-11" x1="153.1" y1="-6427.03" x2="153.4" y2="-6431.59" xlink:href="#_횂횁_횕_횑횑_횊_횏횂횑횣_318"/><linearGradient id="_횂횁_횕_횑횑_횊_횏횂횑횣_318-12" x1="693.49" y1="-6388.58" x2="712.05" y2="-6446.29" xlink:href="#_횂횁_횕_횑횑_횊_횏횂횑횣_318"/><linearGradient id="_횂횁_횕_횑횑_횊_횏횂횑횣_318-13" x1="667.89" y1="-6361.89" x2="699.72" y2="-6460.9" xlink:href="#_횂횁_횕_횑횑_횊_횏횂횑횣_318"/></defs><g style="isolation:isolate;"><g id="Layer_2"><g id="_횓횙횊_1"><g style="opacity:.2;"><path d="M788.88,19.17l1.98,5.01-73.2,19.59-98.94-13.69-3.19.42-37.23,4.88-37.04-4.71-.94-.12-15.75,2.17h0s-10.19-2.72-10.19-2.72h-.04s0-.01,0-.01l-21.82,2.99-17.33,2.37-2.19-.11-1.78-.09-3.2-.15c-1.11-.11-2.27-.23-3.45-.34h0l-.38.18-52.65,25.15-16-2.38-22.97-7.53-95.83-14.18-24.88.29-62.87-9.37-9.88,3.53L1.3,16.67c-.43,0-.86.01-1.28.02.11-.03.23-.07.37-.11.13-.04.26-.08.4-.11.07-.02.15-.04.22-.06.15-.04.31-.09.48-.14.09-.02.17-.05.27-.08.55-.16,1.19-.34,1.91-.55h0c.18-.06.37-.11.56-.16.48-.14.97-.28,1.5-.44.13-.04.26-.08.39-.11.28-.08.55-.16.82-.24.33-.1.66-.19,1.01-.29.23-.07.47-.14.72-.21.59-.18,1.22-.36,1.86-.55.3-.09.59-.18.9-.26.18-.06.37-.11.56-.17.32-.1.66-.2,1-.3.17-.05.33-.1.51-.15.33-.09.67-.2,1.02-.3.34-.1.69-.21,1.03-.31.35-.11.7-.21,1.06-.31.35-.1.71-.21,1.06-.32.36-.1.72-.21,1.08-.32.53-.16,1.07-.33,1.63-.49.36-.11.72-.22,1.09-.33.12-.04.25-.08.38-.11.24-.07.48-.15.72-.22.71-.21,1.4-.43,2.11-.65.39-.12.78-.24,1.16-.36.2-.06.41-.13.61-.19.34-.11.67-.21,1.01-.31.36-.11.71-.22,1.06-.33.31-.1.63-.2.94-.3.99-.31,1.95-.62,2.89-.92.24-.07.47-.15.71-.23.03-.01.06-.03.08-.03.32-.11.65-.21.97-.32.79-.26,1.55-.51,2.28-.75.17-.06.34-.12.51-.17,2.79-.95,5.13-1.81,6.73-2.49.12-.06.23-.11.36-.16.32-.14.61-.28.85-.4.55-.28.89-.51.99-.69,0-.02.02-.03.02-.05,0-.02,0-.04,0-.05,0-.03-.01-.04-.02-.07-.03-.06-.11-.1-.23-.13-.05-.02-.12-.03-.2-.04,0,0-.01,0-.01,0-.04,0-.04-.01,0-.02,0,0,.02,0,.04,0,.01,0,.03,0,.07,0,.02,0,.05,0,.08,0,.03,0,.07,0,.1,0,.02,0,.05,0,.07,0,.04,0,.09,0,.15,0h.09s.1,0,.16,0c.07,0,.14,0,.22,0,.13,0,.27,0,.43-.02.43,0,.94-.03,1.55-.04.21,0,.45-.02.7-.02.08,0,.17,0,.25,0,.19,0,.37,0,.57,0h.29c.12,0,.25-.01.38-.01h.07c.21,0,.43-.01.65-.01h.08c.14,0,.27,0,.42,0h.09c.14,0,.28-.01.42-.01h.1c.14,0,.29,0,.44-.01h.12c.8-.01,1.64-.03,2.54-.04h.15c.49-.01.98-.01,1.51-.02h.17c.46-.01,9.68.35,22.07.85.32.01.64.03.97.04,26.38,1.06,66.13,2.68,67.26,2.67.46,0,.92-.01,1.4-.02h.66c.35,0,.7-.01,1.06-.02h.67c.21,0,.43,0,.65-.02h.69c.22,0,.45,0,.68-.02h.93c.23,0,.47-.01.71-.02.71,0,1.44-.01,2.19-.02h.99c.24-.02.49-.02.74-.02h.8c.24,0,.49-.01.74-.02h1.57c.46-.02.93-.03,1.39-.03.44,0,.87-.01,1.31-.02h1.46c2.7-.04,5.55-.07,8.53-.1h.27c.79,0,1.57-.01,2.37-.03.16,0,.32,0,.49,0l2.87-.02c.55-.01,1.11-.01,1.65-.02h1.33c.33-.01.66-.02.98-.02l2.72-.02c.35,0,.69-.01,1.04-.01l2.79-.02c15.65-.15,33.75-.3,53.6-.46h1.78c5.62-.06,14.1-.1,24.51-.15,12.68-.05,28.2-.1,44.85-.15,30.39-.09,64.52-.18,91.86-.28h.16c9.24-.03,17.71-.07,24.99-.1,6.04-.03,11.25-.06,15.42-.09,1.45-.01,2.91-.02,4.36-.03,6.01-.05,12.05-.09,18.12-.14,2.8-.02,5.6-.04,8.4-.06h0c.95,0,1.91,0,2.86-.01l4.11-.03c3.62-.03,7.24-.05,10.87-.08h.09c2.08-.02,4.16-.03,6.23-.04,1.24,0,2.49-.02,3.74-.03.56,0,1.12,0,1.68-.01,4.91-.04,9.81-.07,14.71-.1h.32c4.18-.03,8.37-.06,12.54-.09h.04c12.69-.09,25.29-.18,37.68-.26.64,0,1.28,0,1.92-.01.64,0,1.28,0,1.92-.01,1.28,0,2.56-.02,3.82-.02l3.81-.03c2.85-.02,5.69-.04,8.52-.06.94,0,1.88-.01,2.82-.02,1.87-.01,3.75-.02,5.6-.04.63,0,1.25,0,1.87-.01.62,0,1.24,0,1.85-.01.46,0,.92,0,1.39,0,.46,0,.92,0,1.38,0h.02c.92,0,1.84-.01,2.76-.02.77,0,1.53-.01,2.29-.02.76,0,1.53-.01,2.29-.02,1.52-.01,3.04-.02,4.55-.03,1.21,0,2.42-.01,3.62-.02,1.2,0,2.4-.02,3.59-.02,1.8-.01,3.57-.03,5.34-.04h.01c5.04-.04,10.02-.07,14.9-.1,3.31-.02,6.58-.05,9.81-.07.56,0,1.12,0,1.68,0h1.37s1.37-.02,1.37-.02c.21,0,.41,0,.62,0l4.9-.04c.27,0,.53,0,.81,0l2.4-.02c.92,0,1.82-.01,2.73-.01l3.59-.03c.52,0,1.04,0,1.56,0l4.49-.04c.37,0,.74,0,1.11,0l2.83-.02c.25,0,.5,0,.75,0l4.48-.03c.3,0,.61,0,.91,0l3.69-.03c.42,0,.83,0,1.25,0l4.01-.03c.09,0,.18,0,.27,0l3.51-.03c.32,0,.63,0,.95,0l2.76-.02c.6,0,1.18,0,1.77,0l3.35-.03c.44,0,.88,0,1.32,0l3.89-.03c.48,0,.94,0,1.41,0h.82c1.38-.02,2.73-.03,4.06-.03l2.92-.02c.24,0,.49,0,.73,0l3.84-.03c.26,0,.51,0,.77,0l2.55-.02c.69,0,1.39-.01,2.06-.01l3.75-.03c.59,0,1.17,0,1.76,0l2.85-.02c.21,0,.41,0,.62,0l3.4-.03c.16,0,.33,0,.48,0l4.14-.03h.23c.07,0,.14,0,.22,0l3.8-.03c.1,0,.2,0,.3,0l4.44-.03c.19,0,.37,0,.55,0l3.02-.02c.09,0,.19,0,.28,0h.65c2.17-.02,4.1-.03,5.76-.04h.44c4.55-.03,51.46-.39,51.46-.39l.41,5.03,1.1,5.58-40.55,8.17Z" style="fill:url(#_횂횁_횕_횑횑_횊_횏횂횑횣_180); stroke-width:0px;"/><path d="M.02,16.69s-.02,0-.02,0h0s0,0,.02,0Z" style="fill:url(#_횂횁_횕_횑횑_횊_횏횂횑횣_13); mix-blend-mode:multiply; opacity:.7; stroke-width:0px;"/><path d="M633.54,1.7s-3.56.02-5.35.04c-1.2,0-2.39.02-3.6.02-1.2,0-2.41.02-3.61.03-1.51.01-3.03.02-4.55.03-.76,0-1.52.01-2.29.02-.77,0-1.53.01-2.3.01-.92,0-1.84.01-2.75.02h-.02c-.92,0-1.84.01-2.76.02-.62,0-1.24,0-1.86.01-.62,0-1.24,0-1.86.01-1.86.01-3.73.02-5.61.04-.94,0-1.88.01-2.82.02-2.82.02-5.66.04-8.52.06-1.27,0-2.54.02-3.81.03-1.27,0-2.55.02-3.82.03-1.28,0-2.56.02-3.84.03-1.64,1.17-3.25,2.32-4.86,3.43-1.61,1.12-3.21,2.2-4.8,3.25h0c-1.35.9-2.69,1.77-4.03,2.61h0c-6.65,4.21-13.16,7.82-19.75,10.75-7.57,3.37-15.23,5.86-23.32,7.33-1.02.19-2.05.36-3.08.51,0,0,0,0,0,0,0,0,0,0,0,0h.04s10.19,2.72,10.19,2.72c-4.06-1.27,3.99-4.53,20.3-9.17,5.8-1.65,12.64-3.48,20.37-5.45,1.23-.31,2.48-.63,3.76-.96.04,0,.08-.05.12-.11,0,0,.01-.02.02-.03.06-.09.11-.21.16-.35h0c.41-1.07.87-3.48.87-3.48,17.47-4.4,62.31-11.31,63.37-11.48.01,0,.02,0,.02,0Z" style="fill:url(#_횂횁_횕_횑횑_횊_횏횂횑횣_13-2); mix-blend-mode:multiply; opacity:.7; stroke-width:0px;"/><path d="M663.22,26.83c-.52,0-1.1-.01-1.75-.04l.72.13,1.03-.09Z" style="fill:url(#_횂횁_횕_횑횑_횊_횏횂횑횣_13-3); mix-blend-mode:multiply; opacity:.7; stroke-width:0px;"/><path d="M565.22,18.1c-.4-1.27-1.55-3.86-4.74-6.7-6.64,4.2-13.16,7.82-19.75,10.75,2,.44,3.37,1.02,4.13,1.4,5.8-1.65,12.64-3.48,20.36-5.45Z" style="fill:url(#_횂횁_횕_횑횑_횊_횏횂횑횣_13-4); mix-blend-mode:multiply; opacity:.7; stroke-width:0px;"/><path d="M569.3,5.53c-1.61,1.12-3.21,2.2-4.8,3.25,2.11,2.29,3.94,5.12,4.47,8.36.44-.11-.15-.08.29-.19.08-3.59.89-7.72.03-11.42Z" style="fill:url(#_횂횁_횕_횑횑_횊_횏횂횑횣_13-5); mix-blend-mode:multiply; opacity:.7; stroke-width:0px;"/><path d="M663.22,26.83c-.52,0-1.1-.01-1.75-.04l.72.13,1.03-.09Z" style="fill:url(#_횂횁_횕_횑횑_횊_횏횂횑횣_13-6); mix-blend-mode:multiply; opacity:.7; stroke-width:0px;"/><path d="M766.98,11.95l-28.25,7.92.97,1.41-23.88,11.09-.58.27-.11.05h-.02s-6.4,2.98-6.4,2.98l2.46,5.48,6.47,2.62-98.94-13.69,2.26-.44,15.36-3.03,9.73-1.92,2.79-2.69.99-.21,3.65-.78,3.66-.78,13.12-2.78,6.68-1.42,48.74-10.35,8.57-4.58.1-.05c.26,0,.51,0,.77,0l2.55-.02c.69,0,1.39-.01,2.06-.01l3.75-.03c.59,0,1.17,0,1.76,0l2.85-.02c.21,0,.41,0,.62,0l3.4-.03c.16,0,.33,0,.48,0l3.41-.03.7.38,17.33,9.37-7.08,1.31Z" style="fill:url(#_횂횁_횕_횑횑_횊_횏횂횑횣_13-7); fill-rule:evenodd; mix-blend-mode:multiply; opacity:.7; stroke-width:0px;"/><polygon points="317.1 2.68 271.81 2.91 271.12 3.6 270.88 3.83 268.47 6.22 261.58 13.05 260.83 13.16 224.29 18.79 215.33 20.17 211.57 21.92 206.58 23 204.26 23.51 196.78 25.12 188.94 26.82 251.81 36.19 257.49 33.06 264.74 29.08 276.48 23.96 285.94 23.57 297.18 16.04 315.71 3.62 315.96 3.45 317.1 2.68" style="fill:url(#_횂횁_횕_횑횑_횊_횏횂횑횣_13-8); fill-rule:evenodd; mix-blend-mode:multiply; opacity:.7; stroke-width:0px;"/><path d="M499.92,1.78l-56.9.28-9.82.99h0l-.21.02-80.06,8.03-20.16,10.69s.02,1.26,2.41,2.34c2.03.92-41.84,8.82-54.87,11.13h0c-.36.07-.69.12-1,.18h0c-1.64.3-2.59.46-2.59.46l95.83,14.18,22.97,7.53,16,2.38-4.91-10.02,2.34-1.27,1.85-2.69,28.34-2.89,20.43-22.47,8.99-.07-17.95-3.14h0l-.08-.02,46.68-14.78,2.74-.85ZM421.71,21.72l-48.7,2.11-10.41-.23,29.3-2.27,37.37-.76-7.55,1.16Z" style="fill:url(#_횂횁_횕_횑횑_횊_횏횂횑횣_13-9); fill-rule:evenodd; mix-blend-mode:multiply; opacity:.7; stroke-width:0px;"/><path d="M523.66,2.41l-14.27-.24-.51.37-17.13,12.62-1.98,1.46-24.26,14.32-.56.33-.79,3.55.38-.18h0c1.19.11,2.34.23,3.46.34l3.2.15,1.78.09-.95-4.48.23-.15h0s12.35-8.3,12.35-8.3l8-5.38.44-.2,11.77-5.24,11.37-5.47,7.4-3.56.07-.04Z" style="fill:url(#_횂횁_횕_횑횑_횊_횏횂횑횣_13-10); fill-rule:evenodd; mix-blend-mode:multiply; opacity:.7; stroke-width:0px;"/><polygon points="587.73 17.12 541.26 30.67 540.65 30.85 578.3 35.38 564.8 31.92 567.61 30.32 569.43 26.07 587.73 17.12" style="fill:url(#_횂횁_횕_횑횑_횊_횏횂횑횣_13-11); fill-rule:evenodd; mix-blend-mode:multiply; opacity:.7; stroke-width:0px;"/><polygon points="734.23 1.04 648.57 1.52 648.44 1.6 644.75 3.79 588.2 16.81 597.16 15.48 604.77 17.46 665.17 7.56 725.71 5.67 734.13 1.09 734.23 1.04" style="fill:url(#_횂횁_횕_횑횑_횊_횏횂횑횣_13-12); mix-blend-mode:multiply; opacity:.7; stroke-width:0px;"/><path d="M504.18,2.22l-4.27-.44-2.69.85c2.08-.01,4.15-.03,6.23-.04l.72-.37Z" style="fill:url(#_횂횁_횕_횑횑_횊_횏횂횑횣_13-13); mix-blend-mode:multiply; opacity:.7; stroke-width:0px;"/><polygon points="493.22 16.61 491.75 15.17 489.77 16.63 465.51 30.95 472.03 30.76 493.05 16.73 493.22 16.61" style="fill:url(#_횂횁_횕_횑횑_횊_횏횂횑횣_13-14); fill-rule:evenodd; mix-blend-mode:multiply; opacity:.7; stroke-width:0px;"/><polygon points="648.86 21.99 619.9 23.48 593.15 24.85 580.42 25.5 578.42 25.6 569.43 26.07 567.61 30.32 573.51 29.9 577.31 29.63 583.63 29.17 615.4 26.89 646.07 24.68 648.86 21.99" style="fill:url(#_횂횁_횕_횑횑_횊_횏횂횑횣_13-15); mix-blend-mode:multiply; opacity:.7; stroke-width:0px;"/><polygon points="408.94 48.69 438.7 46.1 439.64 45.78 410.78 46.01 408.94 48.69" style="fill:url(#_횂횁_횕_횑횑_횊_횏횂횑횣_13-16); mix-blend-mode:multiply; opacity:.7; stroke-width:0px;"/><polygon points="335.16 24.13 412.66 18.18 414.06 17.07 332.75 21.79 335.16 24.13" style="fill:url(#_횂횁_횕_횑횑_횊_횏횂횑횣_13-17); fill-rule:evenodd; mix-blend-mode:multiply; opacity:.7; stroke-width:0px;"/><polygon points="372.52 50.08 385.68 44.95 385.17 42.91 407.62 27.49 397.31 33.07 331 29.66 333.39 31.21 388.79 33.29 379.46 41.07 361.94 39.95 279.99 35.24 277.63 35.89 372.52 50.08" style="fill:url(#_횂횁_횕_횑횑_횊_횏횂횑횣_13-18); fill-rule:evenodd; mix-blend-mode:multiply; opacity:.7; stroke-width:0px;"/><polygon points="459.55 20.64 418.36 19.08 450.98 17.41 468.54 20.57 459.55 20.64" style="fill:url(#_횂횁_횕_횑횑_횊_횏횂횑횣_13-19); fill-rule:evenodd; mix-blend-mode:multiply; opacity:.7; stroke-width:0px;"/><polygon points="276.48 23.96 261.62 13.07 260.83 13.16 224.29 18.79 268.96 26.69 261.61 30.66 247.22 28.58 260.18 31.52 257.66 32.62 231.1 26.82 212.58 23.2 206.58 23 196.78 25.12 226.4 28.59 230.17 27.46 257.49 33.06 257.67 33.1 276.48 23.96" style="fill:url(#_횂횁_횕_횑횑_횊_횏횂횑횣_13-20); fill-rule:evenodd; mix-blend-mode:multiply; opacity:.7; stroke-width:0px;"/><polygon points="499.92 1.78 443.02 2.06 433.19 3.05 433.19 3.05 432.98 3.07 352.91 11.1 465.49 8.18 460.79 10.26 423.9 11.17 471.13 10.61 497.14 2.63 499.92 1.78" style="fill:url(#_횂횁_횕_횑횑_횊_횏횂횑횣_13-21); fill-rule:evenodd; mix-blend-mode:multiply; opacity:.7; stroke-width:0px;"/><polygon points="335.16 24.13 291.13 22.9 332.75 21.79 335.16 24.13" style="fill:url(#_횂횁_횕_횑횑_횊_횏횂횑횣_13-22); fill-rule:evenodd; mix-blend-mode:multiply; opacity:.7; stroke-width:0px;"/><polygon points="604.77 17.46 650.16 15.38 594.86 18.8 604.77 17.46" style="fill:url(#_횂횁_횕_횑횑_횊_횏횂횑횣_13-23); fill-rule:evenodd; mix-blend-mode:multiply; opacity:.7; stroke-width:0px;"/><polygon points="580.42 25.5 578.42 25.6 573.51 29.9 577.31 29.63 580.42 25.5" style="fill:url(#_횂횁_횕_횑횑_횊_횏횂횑횣_13-24); fill-rule:evenodd; mix-blend-mode:multiply; opacity:.7; stroke-width:0px;"/><polygon points="619.9 23.48 593.15 24.85 583.63 29.17 615.4 26.89 619.9 23.48" style="fill:url(#_횂횁_횕_횑횑_횊_횏횂횑횣_13-25); fill-rule:evenodd; mix-blend-mode:multiply; opacity:.7; stroke-width:0px;"/><polygon points="363.26 23.51 364.93 21.85 391.71 19.65 391.9 21.32 363.26 23.51" style="fill:url(#_횂횁_횕_횑횑_횊_횏횂횑횣_13-26); fill-rule:evenodd; mix-blend-mode:multiply; opacity:.7; stroke-width:0px;"/><polygon points="790.86 24.18 788.88 19.17 738.73 19.87 739.7 21.28 790.86 24.18" style="fill:url(#_횂횁_횕_횑횑_횊_횏횂횑횣_13-27); fill-rule:evenodd; mix-blend-mode:multiply; opacity:.7; stroke-width:0px;"/><polygon points="745.58 32.7 713.41 33.51 715.8 32.37 745.58 32.7" style="fill:url(#_횂횁_횕_횑횑_횊_횏횂횑횣_13-28); fill-rule:evenodd; mix-blend-mode:multiply; opacity:.7; stroke-width:0px;"/><polygon points="711.18 41.15 728.59 40.78 717.65 43.77 711.18 41.15" style="fill:url(#_횂횁_횕_횑횑_횊_횏횂횑횣_13-29); fill-rule:evenodd; mix-blend-mode:multiply; opacity:.7; stroke-width:0px;"/><path d="M756.45,4.8l-26.91,3.35-1.88.96-18.4,2.97-17.01,1.84h0s-3.29.36-3.29.36l-26.2,7.29h0s-1.11.31-1.11.31l.53,3.14-2.83.34-23.1,4.58-15.24-.31,15.36-3.03,9.73-1.92,2.79-2.69.99-.21,3.65-.78,3.66-.78,13.12-2.78,6.68-1.42,48.74-10.35,8.57-4.58h0s.1-.05.1-.05c.26,0,.51,0,.77,0l2.55-.02c.69,0,1.39-.01,2.06-.01l3.75-.03c.59,0,1.17,0,1.76,0l2.85-.02c.21,0,.41,0,.62,0l3.4-.03c.16,0,.33,0,.48,0l2.32-.02h0s1.51,3.9,1.51,3.9Z" style="fill:url(#_횂횁_횕_횑횑_횊_횏횂횑횣_13-30); fill-rule:evenodd; mix-blend-mode:multiply; opacity:.7; stroke-width:0px;"/><path d="M.02,16.69s-.02,0-.02,0h0s0,0,.02,0Z" style="fill:url(#_횂횁_횕_횑횑_횊_횏횂횑횣_13-31); fill-rule:evenodd; mix-blend-mode:multiply; opacity:.7; stroke-width:0px;"/><path d="M177.37,4.33h.08c-5.24-.13-59.91-1.34-98.09-2.38-12.39-.5-21.61-.86-22.07-.85h-.17c-.52.01-1.02.01-1.5.02h-.15c-.9.01-1.75.03-2.54.04-6.23-.22-10.15-.4-10.61-.52-1.48-.4.38.66,2.52,1.78-.24.12-.53.26-.85.4-.12.06-.24.11-.36.16-1.6.68-3.94,1.54-6.73,2.49-.17.06-.34.11-.51.18-.73.24-1.49.5-2.27.75-.32.11-.64.21-.97.32-.02,0-.06.02-.08.03-.24.08-.47.15-.71.23-.95.3-1.91.61-2.89.92-.31.1-.62.19-.94.29-.35.11-.71.23-1.06.33-.33.11-.66.21-1,.31-.2.06-.41.13-.61.19-.38.12-.77.24-1.16.36-.71.22-1.4.43-2.11.65-.24.08-.48.15-.72.22-.13.04-.26.08-.38.11-.37.11-.72.22-1.09.33-.56.16-1.09.33-1.63.49-.36.11-.72.22-1.08.32-.36.11-.72.22-1.06.32-.36.11-.71.21-1.06.31-.35.1-.7.21-1.04.31-.35.11-.69.21-1.02.3-.18.05-.34.1-.51.15-.34.1-.67.2-.99.3-.19.06-.38.11-.56.17-.3.08-.6.17-.89.26-.64.19-1.27.37-1.86.55-.25.07-.48.14-.72.21-.35.1-.68.2-1.01.29-.28.08-.55.16-.82.24-.13.04-.26.08-.39.11-.53.15-1.02.3-1.5.44-.2.06-.39.11-.57.16h0c-.72.21-1.36.39-1.91.55-.09.03-.18.05-.27.08-.17.05-.33.1-.48.14-.08.02-.15.04-.22.06-.14.04-.27.08-.4.11-.14.04-.26.08-.37.11.43,0,.85-.01,1.28-.02l177.77,13.68-46.43-5.74,4.7-2.08-10.46-2.37-.94-.21,16.41-8.77,35.03-6.84Z" style="fill:url(#_횂횁_횕_횑횑_횊_횏횂횑횣_13-32); fill-rule:evenodd; mix-blend-mode:multiply; opacity:.7; stroke-width:0px;"/><polygon points="211.57 21.92 143.44 19.97 145.81 20.26 204.58 23.52 211.57 21.92" style="fill:url(#_횂횁_횕_횑횑_횊_횏횂횑횣_13-33); fill-rule:evenodd; mix-blend-mode:multiply; opacity:.7; stroke-width:0px;"/><polygon points="215.33 20.17 163.28 18.08 170.36 17.08 138.63 15.76 260.83 13.16 215.33 20.17" style="fill:url(#_횂횁_횕_횑횑_횊_횏횂횑횣_13-34); fill-rule:evenodd; mix-blend-mode:multiply; opacity:.7; stroke-width:0px;"/><polygon points="713.31 27.46 662.16 25.03 661.63 21.89 713.3 26.83 713.31 27.46" style="fill:url(#_횂횁_횕_횑횑_횊_횏횂횑횣_13-35); fill-rule:evenodd; mix-blend-mode:multiply; opacity:.7; stroke-width:0px;"/><polygon points="727.66 9.12 763.63 9.31 729.53 8.16 727.66 9.12" style="fill:url(#_횂횁_횕_횑횑_횊_횏횂횑횣_13-36); fill-rule:evenodd; mix-blend-mode:multiply; opacity:.7; stroke-width:0px;"/><polygon points="688.47 13.98 761.86 13.07 759.94 13.73 675.77 18.64 674.36 19.12 725.43 16.83 724.01 17.16 661.97 21.64 688.47 13.98" style="fill:url(#_횂횁_횕_횑횑_횊_횏횂횑횣_13-37); fill-rule:evenodd; mix-blend-mode:multiply; opacity:.7; stroke-width:0px;"/><polygon points="711.18 41.15 652.38 34.22 653.79 33.58 708.72 35.66 711.18 41.15" style="fill:url(#_횂횁_횕_횑횑_횊_횏횂횑횣_13-38); fill-rule:evenodd; mix-blend-mode:multiply; opacity:.7; stroke-width:0px;"/><polygon points="829.43 10.99 827.92 .38 756.76 .89 774.06 10.64 829.43 10.99" style="fill:url(#_횂횁_횕_횑횑_횊_횏횂횑횣_13-39); fill-rule:evenodd; mix-blend-mode:multiply; opacity:.7; stroke-width:0px;"/><polygon points="774.06 10.64 763.95 .97 756.76 .89 756.03 .89 754.94 .9 734.28 1.09 734.13 1.09 733.02 1.1 664.35 1.49 662.67 1.5 661.3 1.51 658.25 1.53 665.17 7.56 725.71 5.67 676.96 16.02 670.28 17.44 657.16 20.23 653.5 21 649.85 21.78 648.86 21.99 646.07 24.68 636.34 26.6 620.98 29.64 636.22 29.94 660.02 25.21 662.16 25.03 661.63 21.89 662.75 21.58 688.95 14.29 692.48 13.93 708.93 12.25 727.66 9.12 729.53 8.16 748.72 9.23 774.06 10.64" style="fill:url(#_횂횁_횕_횑횑_횊_횏횂횑횣_13-40); fill-rule:evenodd; mix-blend-mode:multiply; opacity:.7; stroke-width:0px;"/><polygon points="573.75 2.3 536.49 2.36 536.45 2.36 524.06 2.38 523.91 2.45 516.19 6.01 493.22 16.61 493.05 16.73 484.61 22.3 472.2 30.5 472.26 30.6 472.26 30.6 475.17 35.34 514.37 30 518.38 29.45 517.4 29.48 474.4 30.58 488 23.56 529.59 20.88 490.8 21.65 543.27 18.41 573.75 2.3" style="fill:url(#_횂횁_횕_횑횑_횊_횏횂횑횣_13-41); fill-rule:evenodd; mix-blend-mode:multiply; opacity:.7; stroke-width:0px;"/><path d="M177.86,4.33s-.14,0-.41,0c-5.24-.11-59.91-1.33-98.09-2.36-10.52-.29-19.79-.56-26.43-.79-6.23-.22-10.15-.4-10.61-.52-1.48-.4.38.66,2.52,1.78,1.98,1.03,4.18,2.1,4.18,2.1l93.34,6.66-16.41,8.77-52.12-3.99,63.52,6.58-10.92-2.11.46-.26,16.44-9.1,34.54-6.73Z" style="fill:url(#_횂횁_횕_횑횑_횊_횏횂횑횣_13-42); fill-rule:evenodd; mix-blend-mode:multiply; opacity:.7; stroke-width:0px;"/><polygon points="271.12 3.6 191.59 4.22 177.86 4.33 143.31 11.06 260.83 13.16 268.31 6.21 270.86 3.84 271.12 3.6" style="fill:url(#_횂횁_횕_횑횑_횊_횏횂횑횣_13-43); fill-rule:evenodd; mix-blend-mode:multiply; opacity:.7; stroke-width:0px;"/><polygon points="452.76 2.95 433.19 3.05 433.19 3.05 407.99 3.17 407.83 3.17 315.71 3.62 270.88 3.83 270.86 3.84 191.59 4.22 187.41 4.24 187.8 4.25 268.07 6.18 268.31 6.21 268.47 6.22 305.12 10.7 297.95 14.85 267.72 9.88 296.88 16.06 297.18 16.04 352.91 11.1 452.76 2.95" style="fill:url(#_횂횁_횕_횑횑_횊_횏횂횑횣_13-44); fill-rule:evenodd; mix-blend-mode:multiply; opacity:.7; stroke-width:0px;"/><path d="M788.88,19.17l1.98,5.01-73.2,19.59-98.94-13.69-3.19.42-37.23,4.88-37.65-4.53.61-.18-.94-.12-15.75,2.17h0s-10.19-2.72-10.19-2.72l-39.19,5.34-2.19-.11-1.78-.09-3.2-.15c-1.11-.11-2.27-.23-3.45-.34h0l-.38.18-52.65,25.15-16-2.38-22.97-7.53-95.83-14.18-24.88.29-62.87-9.37-9.88,3.53L1.3,16.67c-.43,0-.86.01-1.28.02.11-.03.23-.07.37-.11.13-.04.26-.08.4-.11.07-.02.15-.04.22-.06.15-.04.31-.09.48-.14.09-.02.17-.05.27-.08.55-.16,1.19-.34,1.91-.55h0c.18-.06.37-.11.56-.16.48-.14.97-.28,1.5-.44.13-.04.26-.08.39-.11.28-.08.55-.16.82-.24.33-.1.66-.19,1.01-.29.23-.07.47-.14.72-.21.59-.18,1.22-.36,1.86-.55.3-.09.59-.18.9-.26.18-.06.37-.11.56-.17.32-.1.66-.2,1-.3.17-.05.33-.1.51-.15.33-.09.67-.2,1.02-.3.34-.1.69-.21,1.03-.31.35-.11.7-.21,1.06-.31.35-.1.71-.21,1.06-.32.36-.1.72-.21,1.08-.32.53-.16,1.07-.33,1.63-.49.36-.11.72-.22,1.09-.33.12-.04.25-.08.38-.11.24-.07.48-.15.72-.22.71-.21,1.4-.43,2.11-.65.39-.12.78-.24,1.16-.36.2-.06.41-.13.61-.19.34-.11.67-.21,1.01-.31.36-.11.71-.22,1.06-.33.31-.1.63-.2.94-.3.99-.31,1.95-.62,2.89-.92.24-.07.47-.15.71-.23.03-.01.06-.03.08-.03.32-.11.65-.21.97-.32.79-.26,1.55-.51,2.28-.75.17-.06.34-.12.51-.17,2.79-.95,5.13-1.81,6.73-2.49.12-.06.23-.11.36-.16.32-.14.61-.28.85-.4-2.13-1.11-4-2.18-2.51-1.78.47.13,4.38.31,10.62.52.8-.01,1.64-.02,2.54-.04h.15c.49-.01.98-.01,1.51-.02h.17c.46-.01,9.68.35,22.07.85,38.19,1.03,92.86,2.25,98.1,2.36.27,0,.41,0,.41,0l2.87-.02c.55-.01,1.11-.01,1.65-.02h1.33c.33-.01.66-.02.98-.02l2.72-.02c.35,0,.69-.01,1.04-.01l2.79-.02c15.65-.15,33.75-.3,53.6-.46h1.78c5.62-.06,14.1-.1,24.51-.15l.69-.69,45.29-.22-1.14.76c30.39-.09,64.52-.18,91.86-.28h.16s25.2-.12,25.2-.12h0l9.82-.99,56.9-.28,4.27.44-.72.37c1.24,0,2.49-.02,3.74-.03.56,0,1.12,0,1.68-.01l.51-.38,14.27.24-.07.04h.32s.15-.07.15-.07l12.39-.02h.04c12.69-.09,25.29-.18,37.68-.26.64,0,1.28,0,1.92-.01.64,0,1.28,0,1.92-.01,1.28,0,2.55-.02,3.82-.03,1.27,0,2.54-.02,3.81-.03,2.85-.02,5.69-.04,8.52-.06.94,0,1.88-.01,2.82-.02,1.87-.01,3.75-.02,5.6-.04.63,0,1.25,0,1.87-.01.62,0,1.24,0,1.86-.01.46,0,.92,0,1.38,0,.46,0,.92,0,1.38,0h.02c.92,0,1.83-.01,2.75-.02.77,0,1.53-.01,2.3-.01.76,0,1.53-.01,2.29-.02,1.52-.01,3.04-.02,4.55-.03,1.21,0,2.42-.01,3.62-.02,1.2,0,2.4-.02,3.6-.03,1.79-.01,5.34-.04,5.34-.04,0,0,0,0-.02,0h.01c5.04-.04,10.02-.07,14.9-.1l.14-.08,85.66-.48h.16c.26,0,.51,0,.77,0l2.55-.02c.69,0,1.39-.01,2.06-.01l3.75-.03c.59,0,1.17,0,1.76,0l2.85-.02c.21,0,.41,0,.62,0l3.4-.03c.16,0,.33,0,.48,0l4.14-.03,71.16-.51,1.51,10.61-40.55,8.17Z" style="fill:url(#_횂횁_횕_횑횑_횊_횏횂횑횣_454); fill-rule:evenodd; mix-blend-mode:screen; stroke-width:0px;"/><path d="M39.52,3.49c1.42.3,101,8.28,101,8.28l72.74.23-36.34,1.1,83.91.06-24.05,3.63-21.45,3.37,25.17,2.5-17.56-3.16,2.77-.38,30.05,5.06,4.17.05-31.32-5.1,26.41-4.92,15.61-.59,26.56,2.41-26.13-5.24,28.28,3.98,49.33-3.65-46.46,1.78-8.42-1.35,8.89.78,27.53-1.38-25.38.16-40.9-2.16,43.32.08,3.87-2.2,95.46-2.15-30.26,4.43-24.6,2.52s-13.48,7.37-13.41,7.09,76.31-9.5,76.31-9.5l11.15.21-26.45,2.88,19.86-.94,51.5-4.65,13.13-.21-21.54,6.24,16.52-2.64,12.25-2.77,9.47.24-4.67,3.34,8.63-4.69,11.74-.22-14.63,8.49,6.13-1.46,49.17-2.43-47.5.65,10.97-6.58,48.25.81,18.93,4.07,43.09-2.62-26.71,6.11,30.54-5.08,7.48,3.1,74.6-3.59,10.47-2.25,46.13,5.9-19.13,4.72,57.49-3.61-34.54.11,24.59-1.14-19.35-.77,47.12.11-.99-10.56L37.11,1.15l2.41,2.34Z" style="fill:url(#_횂횁_횕_횑횑_횊_횏횂횑횣_318); fill-rule:evenodd; mix-blend-mode:multiply; opacity:.76; stroke-width:0px;"/><polygon points="630.42 13.29 681.3 9.95 621.29 15.13 630.42 13.29" style="fill:url(#_횂횁_횕_횑횑_횊_횏횂횑횣_318-2); fill-rule:evenodd; mix-blend-mode:multiply; opacity:.76; stroke-width:0px;"/><polygon points="590.6 19.14 602.88 17.48 644.48 15.42 590.6 19.14" style="fill:url(#_횂횁_횕_횑횑_횊_횏횂횑횣_318-3); fill-rule:evenodd; mix-blend-mode:multiply; opacity:.76; stroke-width:0px;"/><polygon points="621.26 15.09 603.84 13.39 623.11 14.81 621.26 15.09" style="fill:url(#_횂횁_횕_횑횑_횊_횏횂횑횣_318-4); fill-rule:evenodd; mix-blend-mode:multiply; opacity:.76; stroke-width:0px;"/><polygon points="418.36 19.08 450.98 17.41 466.17 20.12 418.36 19.08" style="fill:url(#_횂횁_횕_횑횑_횊_횏횂횑횣_318-5); fill-rule:evenodd; mix-blend-mode:multiply; opacity:.76; stroke-width:0px;"/><polygon points="335.93 21.55 425.88 16.5 427.3 16.18 334.95 20.76 329.41 22.01 335.93 21.55" style="fill:url(#_횂횁_횕_횑횑_횊_횏횂횑횣_318-6); fill-rule:evenodd; mix-blend-mode:multiply; opacity:.76; stroke-width:0px;"/><polygon points="397.97 16.88 402.69 16.21 462.25 12.76 455.67 15.01 397.97 16.88" style="fill:url(#_횂횁_횕_횑횑_횊_횏횂횑횣_318-7); fill-rule:evenodd; mix-blend-mode:multiply; opacity:.76; stroke-width:0px;"/><polygon points="201.78 23.97 224.46 25.78 213.37 23.34 205.8 23.19 201.78 23.97" style="fill:url(#_횂횁_횕_횑횑_횊_횏횂횑횣_318-8); fill-rule:evenodd; mix-blend-mode:multiply; opacity:.76; stroke-width:0px;"/><polygon points="309.78 36.93 380.89 41.37 365.76 41.96 309.78 36.93" style="fill:url(#_횂횁_횕_횑횑_횊_횏횂횑횣_318-9); fill-rule:evenodd; mix-blend-mode:multiply; opacity:.76; stroke-width:0px;"/><polygon points="335.39 37.48 374.69 38.9 382.46 38.34 335.39 37.48" style="fill:url(#_횂횁_횕_횑횑_횊_횏횂횑횣_318-10); fill-rule:evenodd; mix-blend-mode:multiply; opacity:.76; stroke-width:0px;"/><path d="M160.39,15.3c.95.12,73.67-1.62,73.67-1.62l-58.99,2.26,41.16-.32-45.41.83,6.62-.37-34.08-.36,17.03-.42Z" style="fill:url(#_횂횁_횕_횑횑_횊_횏횂횑횣_318-11); fill-rule:evenodd; mix-blend-mode:multiply; opacity:.76; stroke-width:0px;"/><polygon points="727.66 9.12 761.01 9.97 723.88 9.77 727.66 9.12" style="fill:url(#_횂횁_횕_횑횑_횊_횏횂횑횣_318-12); fill-rule:evenodd; mix-blend-mode:multiply; opacity:.76; stroke-width:0px;"/><polygon points="693.2 13.78 707.89 12.31 759.91 13.11 759.44 13.27 693.2 13.78" style="fill:url(#_횂횁_횕_횑횑_횊_횏횂횑횣_318-13); fill-rule:evenodd; mix-blend-mode:multiply; opacity:.76; stroke-width:0px;"/></g></g></g></g></svg>