<?xml version="1.0" encoding="UTF-8"?><svg xmlns="http://www.w3.org/2000/svg" xmlns:xlink="http://www.w3.org/1999/xlink" viewBox="0 0 832.72 113.96"><defs><linearGradient id="_횂횁_횕_횑횑_횊_횏횂횑횣_588" x1="829.45" y1="37.18" x2="496.52" y2="65.22" gradientUnits="userSpaceOnUse"><stop offset="0" stop-color="#353683"/><stop offset=".65" stop-color="#6d3cd7"/><stop offset="1" stop-color="#883fff"/></linearGradient></defs><g style="isolation:isolate;"><g id="Layer_2"><g id="_횓횙횊_1"><path d="M19.21,54.78c-31.51-18.89-35.68,31.46,77.31,42.45,212.08,20.63,766.14,39,734.94-53.94-.6-1.79-448.11,34.06-446.16,31.04,1.94-3.02-77.01,7.78-76.62,7.61,9.3-3.85,100.59-16.06,131.38-22.95C601.38,22.89,767.36,6.57,767.36,6.57l37.67,1.49s-110.4,5.04-134.27,9.95c-16.26,3.34-22.93-21.64-44.49-17.55-24.96,4.73-46.89,29.1-54.86,30.41-3.56.59-6.72-10-20.02-7.26-7.37,1.52-16.17,12.13-22.9,15.36s-12.92.33-14.14.91c-3.31,1.57-3.01,5.07-12.58,6.15-9.57,1.08-3.72-2.56-19.24.1-15.53,2.66-17.93,11.96-69.79,16.75-5.53-5.98-27.29,5.14-28,6.54-.71,1.4-19.93-3.53-19.93-3.53,0,0-73.08-48.93-111.8-12.42-3.97,3.75-48.01,18.12-52.49,20.02-43.1,4.26-107.88-3.7-181.3-18.69Z" style="fill:url(#_횂횁_횕_횑횑_횊_횏횂횑횣_588); fill-rule:evenodd; mix-blend-mode:multiply; opacity:.4; stroke-width:0px;"/></g></g></g></svg>