<?xml version="1.0" encoding="UTF-8"?><svg xmlns="http://www.w3.org/2000/svg" xmlns:xlink="http://www.w3.org/1999/xlink" viewBox="0 0 1600.23 385.63"><defs><linearGradient id="_횂횁_횕_횑횑_횊_횏횂횑횣_119" x1="580.72" y1="367.62" x2="565.46" y2="178.87" gradientTransform="translate(760.05 63.51) rotate(-8.62)" gradientUnits="userSpaceOnUse"><stop offset="0" stop-color="#b62102"/><stop offset="1" stop-color="#ffb400"/></linearGradient><linearGradient id="linear-gradient" x1="389.7" y1="316.13" x2="382.8" y2="230.69" gradientTransform="translate(760.05 63.51) rotate(-8.62)" gradientUnits="userSpaceOnUse"><stop offset="0" stop-color="#645101"/><stop offset=".19" stop-color="#5f570a"/><stop offset="1" stop-color="#9e7703"/></linearGradient><linearGradient id="linear-gradient-2" x1="505.53" y1="311.32" x2="499.75" y2="239.92" xlink:href="#linear-gradient"/><linearGradient id="linear-gradient-3" x1="654.62" y1="345.13" x2="640.84" y2="174.71" xlink:href="#linear-gradient"/><linearGradient id="_횂횁_횕_횑횑_횊_횏횂횑횣_64" x1="463.63" y1="297.48" x2="456.83" y2="213.45" gradientTransform="translate(760.05 63.51) rotate(-8.62)" gradientUnits="userSpaceOnUse"><stop offset="0" stop-color="#d2132b"/><stop offset="1" stop-color="#ffb22a"/></linearGradient><linearGradient id="_횂횁_횕_횑횑_횊_횏횂횑횣_64-2" x1="481.58" y1="256.35" x2="479.25" y2="227.44" xlink:href="#_횂횁_횕_횑횑_횊_횏횂횑횣_64"/><linearGradient id="_횂횁_횕_횑횑_횊_횏횂횑횣_64-3" x1="560.87" y1="215.38" x2="557.75" y2="176.68" gradientTransform="translate(758.9 173.58) rotate(-12.23)" xlink:href="#_횂횁_횕_횑횑_횊_횏횂횑횣_64"/><linearGradient id="_횂횁_횕_횑횑_횊_횏횂횑횣_64-4" x1="573.99" y1="193.35" x2="572.67" y2="176.92" gradientTransform="translate(758.9 173.58) rotate(-12.23)" xlink:href="#_횂횁_횕_횑횑_횊_횏횂횑횣_64"/><linearGradient id="_횂횁_횕_횑횑_횊_횏횂횑횣_64-5" x1="463.82" y1="286.73" x2="461.36" y2="256.3" xlink:href="#_횂횁_횕_횑횑_횊_횏횂횑횣_64"/><linearGradient id="linear-gradient-4" x1="771.63" y1="519.67" x2="853.07" y2="-22.54" gradientTransform="translate(1600.23) rotate(-180) scale(1 -1)" gradientUnits="userSpaceOnUse"><stop offset="0" stop-color="#e63f2c"/><stop offset=".09" stop-color="#eb4c29"/><stop offset=".26" stop-color="#f46225"/><stop offset=".46" stop-color="#fa7123"/><stop offset=".68" stop-color="#fd7b21"/><stop offset="1" stop-color="#ff7e21"/></linearGradient><linearGradient id="_횂횁_횕_횑횑_횊_횏횂횑횣_12" x1="897.06" y1="295.63" x2="844.87" y2="463.57" gradientTransform="translate(1600.23) rotate(-180) scale(1 -1)" gradientUnits="userSpaceOnUse"><stop offset=".01" stop-color="#d18b2c"/><stop offset=".99" stop-color="#c53e2d"/></linearGradient><linearGradient id="_횂횁_횕_횑횑_횊_횏횂횑횣_149" x1="891.54" y1="246.26" x2="852.89" y2="374.29" gradientTransform="translate(1600.23) rotate(-180) scale(1 -1)" gradientUnits="userSpaceOnUse"><stop offset="0" stop-color="#c77cbd"/><stop offset="1" stop-color="#974577"/></linearGradient><linearGradient id="_횂횁_횕_횑횑_횊_횏횂횑횣_149-2" x1="953.02" y1="252.24" x2="913.92" y2="381.77" xlink:href="#_횂횁_횕_횑횑_횊_횏횂횑횣_149"/><linearGradient id="_횂횁_횕_횑횑_횊_횏횂횑횣_149-3" x1="872.56" y1="184.92" x2="810.75" y2="389.68" xlink:href="#_횂횁_횕_횑횑_횊_횏횂횑횣_149"/><linearGradient id="_횂횁_횕_횑횑_횊_횏횂횑횣_64-6" x1="600.13" y1="240.27" x2="815.22" y2="530.95" gradientTransform="translate(1575.98 -39.68) rotate(-175.1) scale(1 -1)" xlink:href="#_횂횁_횕_횑횑_횊_횏횂횑횣_64"/><linearGradient id="_횂횁_횕_횑횑_횊_횏횂횑횣_64-7" x1="269.46" y1="-144.93" x2="672.73" y2="400.08" gradientTransform="translate(1575.98 -39.68) rotate(-175.1) scale(1 -1)" xlink:href="#_횂횁_횕_횑횑_횊_횏횂횑횣_64"/><linearGradient id="_횂횁_횕_횑횑_횊_횏횂횑횣_64-8" x1="732.23" y1="221.16" x2="913.18" y2="465.71" gradientTransform="translate(1575.98 -39.68) rotate(-175.1) scale(1 -1)" xlink:href="#_횂횁_횕_횑횑_횊_횏횂횑횣_64"/><linearGradient id="_횂횁_횕_횑횑_횊_횏횂횑횣_64-9" x1="862.2" y1="110.17" x2="1057.87" y2="374.62" gradientTransform="translate(1575.98 -39.68) rotate(-175.1) scale(1 -1)" xlink:href="#_횂횁_횕_횑횑_횊_횏횂횑횣_64"/><linearGradient id="_횂횁_횕_횑횑_횊_횏횂횑횣_64-10" x1="741" y1="152.12" x2="966.26" y2="456.55" gradientTransform="translate(1575.98 -39.68) rotate(-175.1) scale(1 -1)" xlink:href="#_횂횁_횕_횑횑_횊_횏횂횑횣_64"/><linearGradient id="_횂횁_횕_횑횑_횊_횏횂횑횣_64-11" x1="841.74" y1="102.09" x2="1056.82" y2="392.78" gradientTransform="translate(1575.98 -39.68) rotate(-175.1) scale(1 -1)" xlink:href="#_횂횁_횕_횑횑_횊_횏횂횑횣_64"/><linearGradient id="_횂횁_횕_횑횑_횊_횏횂횑횣_64-12" x1="884.85" y1="24.44" x2="1110.11" y2="328.88" gradientTransform="translate(1575.98 -39.68) rotate(-175.1) scale(1 -1)" xlink:href="#_횂횁_횕_횑횑_횊_횏횂횑횣_64"/><linearGradient id="_횂횁_횕_횑횑_횊_횏횂횑횣_64-13" x1="706.02" y1="155.54" x2="921.11" y2="446.22" gradientTransform="translate(1575.98 -39.68) rotate(-175.1) scale(1 -1)" xlink:href="#_횂횁_횕_횑횑_횊_횏횂횑횣_64"/><linearGradient id="_횂횁_횕_횑횑_횊_횏횂횑횣_64-14" x1="716.06" y1="66.98" x2="941.32" y2="371.41" gradientTransform="translate(1575.98 -39.68) rotate(-175.1) scale(1 -1)" xlink:href="#_횂횁_횕_횑횑_횊_횏횂횑횣_64"/><linearGradient id="_횂횁_횕_횑횑_횊_횏횂횑횣_64-15" x1="687.11" y1="131.25" x2="869.83" y2="378.19" gradientTransform="translate(1592.07 -9.83) rotate(-178.45) scale(1 -1)" xlink:href="#_횂횁_횕_횑횑_횊_횏횂횑횣_64"/><linearGradient id="_횂횁_횕_횑횑_횊_횏횂횑횣_64-16" x1="221.7" y1="-417.19" x2="648.57" y2="159.71" gradientTransform="translate(1433.74 333.74) rotate(178.37) scale(.99 -.36) skewX(-7.25)" xlink:href="#_횂횁_횕_횑횑_횊_횏횂횑횣_64"/><linearGradient id="_횂횁_횕_횑횑_횊_횏횂횑횣_64-17" x1="358.67" y1="-300" x2="594.86" y2="19.2" gradientTransform="translate(1433.74 333.74) rotate(178.37) scale(.99 -.36) skewX(-7.25)" xlink:href="#_횂횁_횕_횑횑_횊_횏횂횑횣_64"/><linearGradient id="_횂횁_횕_횑횑_횊_횏횂횑횣_64-18" x1="363.45" y1="-621.95" x2="1036.08" y2="287.1" gradientTransform="translate(1433.74 333.74) rotate(178.37) scale(.99 -.36) skewX(-7.25)" xlink:href="#_횂횁_횕_횑횑_횊_횏횂횑횣_64"/><linearGradient id="_횂횁_횕_횑횑_횊_횏횂횑횣_64-19" x1="-376.14" y1="-768.75" x2="490.12" y2="401.99" gradientTransform="translate(1575.98 -39.68) rotate(-175.1) scale(1 -1)" xlink:href="#_횂횁_횕_횑횑_횊_횏횂횑횣_64"/><linearGradient id="_횂횁_횕_횑횑_횊_횏횂횑횣_64-20" x1="451.99" y1="-90.78" x2="865.42" y2="467.95" gradientTransform="translate(1592.07 -9.83) rotate(-178.45) scale(1 -1)" xlink:href="#_횂횁_횕_횑횑_횊_횏횂횑횣_64"/><linearGradient id="_횂횁_횕_횑횑_횊_횏횂횑횣_64-21" x1="837.23" y1="127.73" x2="1037.76" y2="398.74" gradientTransform="translate(1575.98 -39.68) rotate(-175.1) scale(1 -1)" xlink:href="#_횂횁_횕_횑횑_횊_횏횂횑횣_64"/><linearGradient id="_횂횁_횕_횑횑_횊_횏횂횑횣_64-22" x1="796.36" y1="102.46" x2="1015.86" y2="399.11" gradientTransform="translate(1575.98 -39.68) rotate(-175.1) scale(1 -1)" xlink:href="#_횂횁_횕_횑횑_횊_횏횂횑횣_64"/><linearGradient id="_횂횁_횕_횑횑_횊_횏횂횑횣_119-2" x1="785.14" y1="344.25" x2="778.4" y2="250.5" gradientTransform="translate(1621.05 30.21) rotate(-175.39) scale(1 -1)" xlink:href="#_횂횁_횕_횑횑_횊_횏횂횑횣_119"/><linearGradient id="linear-gradient-5" x1="811.27" y1="342.37" x2="804.52" y2="248.62" gradientTransform="translate(1621.05 30.21) rotate(-175.39) scale(1 -1)" xlink:href="#linear-gradient"/><linearGradient id="_횂횁_횕_횑횑_횊_횏횂횑횣_119-3" x1="668.76" y1="352.62" x2="662.01" y2="258.88" gradientTransform="translate(1621.05 30.21) rotate(-175.39) scale(1 -1)" xlink:href="#_횂횁_횕_횑횑_횊_횏횂횑횣_119"/><linearGradient id="linear-gradient-6" x1="702.58" y1="350.19" x2="695.84" y2="256.44" gradientTransform="translate(1621.05 30.21) rotate(-175.39) scale(1 -1)" xlink:href="#linear-gradient"/><linearGradient id="_횂횁_횕_횑횑_횊_횏횂횑횣_119-4" x1="1364.59" y1="356.73" x2="1348.75" y2="160.7" gradientTransform="translate(1600.23) rotate(-180) scale(1 -1)" xlink:href="#_횂횁_횕_횑횑_횊_횏횂횑횣_119"/><linearGradient id="linear-gradient-7" x1="1162.01" y1="299.64" x2="1155.1" y2="214.2" gradientTransform="translate(1600.23) rotate(-180) scale(1 -1)" xlink:href="#linear-gradient"/><linearGradient id="linear-gradient-8" x1="1277.83" y1="294.82" x2="1272.06" y2="223.43" gradientTransform="translate(1600.23) rotate(-180) scale(1 -1)" xlink:href="#linear-gradient"/><linearGradient id="linear-gradient-9" x1="1426.93" y1="328.63" x2="1413.15" y2="158.22" gradientTransform="translate(1600.23) rotate(-180) scale(1 -1)" xlink:href="#linear-gradient"/><linearGradient id="_횂횁_횕_횑횑_횊_횏횂횑횣_64-23" x1="1235.93" y1="280.99" x2="1229.14" y2="196.95" gradientTransform="translate(1600.23) rotate(-180) scale(1 -1)" xlink:href="#_횂횁_횕_횑횑_횊_횏횂횑횣_64"/><linearGradient id="_횂횁_횕_횑횑_횊_횏횂횑횣_64-24" x1="1253.89" y1="239.85" x2="1251.55" y2="210.94" gradientTransform="translate(1600.23) rotate(-180) scale(1 -1)" xlink:href="#_횂횁_횕_횑횑_횊_횏횂횑횣_64"/><linearGradient id="_횂횁_횕_횑횑_횊_횏횂횑횣_64-25" x1="1332.85" y1="247.5" x2="1329.72" y2="208.8" gradientTransform="translate(1618.01 108.66) rotate(-176.39) scale(1 -1)" xlink:href="#_횂횁_횕_횑횑_횊_횏횂횑횣_64"/><linearGradient id="_횂횁_횕_횑횑_횊_횏횂횑횣_64-26" x1="1345.97" y1="225.47" x2="1344.64" y2="209.04" gradientTransform="translate(1618.01 108.66) rotate(-176.39) scale(1 -1)" xlink:href="#_횂횁_횕_횑횑_횊_횏횂횑횣_64"/><linearGradient id="_횂횁_횕_횑횑_횊_횏횂횑횣_64-27" x1="1236.13" y1="270.24" x2="1233.67" y2="239.8" gradientTransform="translate(1600.23) rotate(-180) scale(1 -1)" xlink:href="#_횂횁_횕_횑횑_횊_횏횂횑횣_64"/><linearGradient id="_횂횁_횕_횑횑_횊_횏횂횑횣_28" x1="541.12" y1="100.68" x2="537.87" y2="220.76" gradientTransform="translate(1600.23) rotate(-180) scale(1 -1)" gradientUnits="userSpaceOnUse"><stop offset="0" stop-color="#9e7e20"/><stop offset=".36" stop-color="#9b7a21"/><stop offset=".64" stop-color="#947128"/><stop offset=".89" stop-color="#886132"/><stop offset="1" stop-color="#815739"/></linearGradient><linearGradient id="_횂횁_횕_횑횑_횊_횏횂횑횣_28-2" x1="1470.05" y1="86.37" x2="1484.82" y2="314.2" xlink:href="#_횂횁_횕_횑횑_횊_횏횂횑횣_28"/><linearGradient id="_횂횁_횕_횑횑_횊_횏횂횑횣_28-3" x1="538.23" y1="135.34" x2="589.19" y2="113.77" xlink:href="#_횂횁_횕_횑횑_횊_횏횂횑횣_28"/><linearGradient id="_횂횁_횕_횑횑_횊_횏횂횑횣_28-4" x1="522.02" y1="82.43" x2="518.76" y2="202.83" gradientTransform="translate(937.08)" xlink:href="#_횂횁_횕_횑횑_횊_횏횂횑횣_28"/><linearGradient id="_횂횁_횕_횑횑_횊_횏횂횑횣_28-5" x1="519.21" y1="117.71" x2="570.16" y2="96.14" gradientTransform="translate(937.08)" xlink:href="#_횂횁_횕_횑횑_횊_횏횂횑횣_28"/></defs><g style="isolation:isolate;"><g id="Layer_2"><g id="forest"><path d="M1578.84,237.84l-107.3,13.92-50.3,6.52h0s-108.82,14.12-108.82,14.12l-25.66,3.33-58.91,7.64-83.81,10.87s-3.01-28.12,4.62-35.83c7.62-7.71,32.27-2.51,36.14,2.26,3.87,4.77,7.48,24.47,7.48,24.47,0,0-.12-28.95,9.54-48.24,3.69-7.39,8.82-13.36,15.93-15.75,3.4-1.15,7.27-1.92,11.43-2.37,9.17-1.01,19.76-.5,29.97.81,1.98.25,3.95.54,5.88.85,2.77.44,5.48.93,8.1,1.46,14.15,2.86,25.48,6.75,27.79,9.27,5.27,5.75,1.71,40.23,1.71,40.23,0,0,4.9-17.41,8.22-20.3.07-.06.17-.14.3-.23,2.47-1.79,15.72-9.58,32.03-18.25,14.17-7.53,30.66-15.72,44.42-21.2h0c1.7-.68,3.36-1.32,4.96-1.9,5.31-1.95,10.07-3.37,13.92-4.05,1.53-.27,2.92-.42,4.14-.44,4.66-.07,8.58,1.07,11.85,2.92,5.76,3.26,9.52,8.7,11.87,13.51-4.99-16.6-10.99-50.25,14.26-69.09,4.66-3.48,47.01,80.16,46.46,73.2-4.17-52.36,40.59-72.09,51.59-71.83,67.42,1.64,32.22,84.12,32.22,84.12Z" style="fill:url(#_횂횁_횕_횑횑_횊_횏횂횑횣_119); fill-rule:evenodd; stroke-width:0px;"/><path d="M1227.85,283.37l-83.81,10.87s-3.01-28.12,4.62-35.83c.54-.55,1.17-1.03,1.87-1.45,2.08,19.57,27.49,27.46,31.87,25.21,2.5-1.28,4.58-7.96,5.44-14.93,2.52,7.51,4.43,17.9,4.43,17.9,0,0-.12-28.95,9.54-48.24,1.03,27.43,15.29,40.49,26.04,46.47Z" style="fill:url(#linear-gradient); fill-rule:evenodd; mix-blend-mode:multiply; opacity:.3; stroke-width:0px;"/><path d="M1310.82,251.09c.07-.06.17-.14.3-.23.04,1.62.05,2.56.05,2.56,0,0-1.5,12.78,1.25,18.98l-25.66,3.33c6.6-9.11,11.9-23.18,14.13-44.57,5.27,5.75,1.71,40.23,1.71,40.23,0,0,4.9-17.41,8.22-20.3Z" style="fill:url(#linear-gradient-2); fill-rule:evenodd; mix-blend-mode:multiply; opacity:.3; stroke-width:0px;"/><path d="M1471.54,251.76l-50.3,6.52c8.48-9.42,19.93-28.5,1.19-50.35,5.76,3.26,9.52,8.7,11.87,13.51-4.99-16.6-10.99-50.25,14.26-69.09.27-.12.44-.19.47-.2-.41.31-26.9,20.57-4.31,70.9,6.12,13.63,15.85,22.71,26.82,28.71Z" style="fill:url(#linear-gradient-3); fill-rule:evenodd; mix-blend-mode:multiply; opacity:.3; stroke-width:0px;"/><path d="M1259.13,219.58c6.29,14.97,17.66,40.41,13.07,40.79-4.79.4-13.14-26.02-43.03-41.59,9.17-1.01,19.76-.5,29.97.81Z" style="fill:url(#_횂횁_횕_횑횑_횊_횏횂횑횣_64); fill-rule:evenodd; mix-blend-mode:color-dodge; opacity:.3; stroke-width:0px;"/><path d="M1273.11,221.89l2.42,13.86s-5.32-8.04-10.52-15.32c2.77.44,5.48.93,8.1,1.46Z" style="fill:url(#_횂횁_횕_횑횑_횊_횏횂횑횣_64-2); fill-rule:evenodd; mix-blend-mode:color-dodge; opacity:.3; stroke-width:0px;"/><path d="M1347.15,230.72c3.91,7.25,35.01,12.78,24.38,16.82-9.09,3.45-46.26,3.1-51.79-1.64,8.71-5.33,18.87-11.17,27.41-15.18Z" style="fill:url(#_횂횁_횕_횑횑_횊_횏횂횑횣_64-3); fill-rule:evenodd; mix-blend-mode:color-dodge; opacity:.3; stroke-width:0px;"/><path d="M1365.1,234.52c-3.24,1.84-14.07-4.49-14.07-4.49l-.8-.71c3.3-1.44,6.27-2.53,8.7-3.11,3.71,3.01,8.17,7.17,6.17,8.31Z" style="fill:url(#_횂횁_횕_횑횑_횊_횏횂횑횣_64-4); fill-rule:evenodd; mix-blend-mode:color-dodge; opacity:.3; stroke-width:0px;"/><path d="M1250.91,251.99c8.65,2.71,11.89,13.16,12.71,13.92.82.77-6.87,5.95-8.88.45-2.01-5.5-3.83-14.38-3.83-14.38Z" style="fill:url(#_횂횁_횕_횑횑_횊_횏횂횑횣_64-5); fill-rule:evenodd; mix-blend-mode:color-dodge; opacity:.3; stroke-width:0px;"/><path d="M0,274.42l35.78,105.28,388.11-37.36,303.93,21.24,75.21,5.26,91.91,6.43,145.88,10.19,559.4.16-23.7-152.1s-344.09,40.66-433.03,49.02l-.53.04c-5.69.53-12.22.93-19.47,1.23-60.13,2.47-169.32-2.59-252.89-7.45-64.3-3.75-113.45-7.39-113.45-7.39L0,274.42Z" style="fill:url(#linear-gradient-4); fill-rule:evenodd; stroke-width:0px;"/><path d="M624.77,291.63s-.02.08-.11.12c-.41.21-1.98.51-4.52.89-8.77,1.31-29.13,3.52-53.69,6-14.52,1.47-30.51,3.04-46.43,4.57-2.18.21-4.36.42-6.53.63-19.39,1.86-38.36,3.64-54.14,5.1-23.56,2.19-39.98,3.68-39.98,3.68l31.19,2.27,195.19,14.19s3.36.12,9.35.3l-25.24,17.86,36.17,5.11s1.2-15.94,11.69-22.37c4.97.12,10.4.23,16.21.35,30.01.59,70.16,1.04,108.98.46,16.96-.25,42.22-2.45,71.23-5.72,18.6-2.09,38.75-4.63,59.24-7.37.86-.11,1.73-.23,2.6-.35,35.7-4.79,72.3-10.19,103.46-14.94,47.46-7.25,82.33-13.03,82.33-13.03,0,0-305.25-2.27-359.71-4.54-54.47-2.27-322.84.57-322.84.57l-43.88-.16-116.12-.41s52.94.7,117.39,1.68c99.91,1.53,227.46,3.74,228.15,5.12Z" style="fill:url(#_횂횁_횕_횑횑_횊_횏횂횑횣_12); fill-rule:evenodd; stroke-width:0px;"/><path d="M419.38,312.62l31.19,2.27c54.35-6.68,169.95-18.29,169.95-18.29l4.15-4.84c-5.39,2.75-205.29,20.87-205.29,20.87Z" style="fill:#bb9a63; fill-rule:evenodd; mix-blend-mode:multiply; stroke-width:0px;"/><polygon points="655.11 329.37 646.68 338.09 639.24 337.45 655.11 329.37" style="fill:#bb9a63; fill-rule:evenodd; mix-blend-mode:multiply; stroke-width:0px;"/><path d="M568.03,301.84l365.37,15.84c.86-.11,1.73-.23,2.6-.35l-369.54-18.69c-14.52,1.47-30.51,3.04-46.43,4.57l48-1.37Z" style="fill:url(#_횂횁_횕_횑횑_횊_횏횂횑횣_149); fill-rule:evenodd; mix-blend-mode:multiply; opacity:.2; stroke-width:0px;"/><path d="M513.5,303.84c-19.39,1.86-38.36,3.64-54.14,5.1,66.55,3.97,159.87,13.29,234.58,21.37,30.01.59,70.16,1.04,108.98.46,16.96-.25,42.22-2.45,71.23-5.72l-360.66-21.21Z" style="fill:url(#_횂횁_횕_횑횑_횊_횏횂횑횣_149-2); fill-rule:evenodd; mix-blend-mode:multiply; opacity:.2; stroke-width:0px;"/><path d="M395.36,285.24l1.26,1.27c99.91,1.53,227.46,3.74,228.15,5.12.02.04-.02.08-.11.12-.41.21-1.98.51-4.52.89l419.31,9.75c47.46-7.25,82.33-13.03,82.33-13.03,0,0-305.25-2.27-359.71-4.54-54.47-2.27-322.84.57-322.84.57l-43.88-.16Z" style="fill:url(#_횂횁_횕_횑횑_횊_횏횂횑횣_149-3); fill-rule:evenodd; mix-blend-mode:multiply; opacity:.2; stroke-width:0px;"/><g style="mix-blend-mode:screen; opacity:.5;"><path d="M810.56,293.38l.23.05,9.11,2.15s6.79.66,15.96.68c0,0,9.56-.83,11.75-1.55.79-.27.59-.51-1.48-.69-7.55-.65-35.58-.64-35.58-.64Z" style="fill:url(#_횂횁_횕_횑횑_횊_횏횂횑횣_64-6); fill-rule:evenodd; stroke-width:0px;"/><path d="M830.23,289.45s0,0,.03,0c.01,0,.04,0,.07,0,1.17.04,37.74,2.05,44.22,1.63,1.06-.07,1.95-.16,2.63-.27l5.57-1.4s52.73-1.5,52.71-1.5c-1.16-.05-91.17-.27-95.76.3-4.46.55-9.46,1.24-9.46,1.24Z" style="fill:url(#_횂횁_횕_횑횑_횊_횏횂횑횣_64-7); fill-rule:evenodd; stroke-width:0px;"/><path d="M675.64,303.28l-18.19-.75-5.05,1.52s1.92.26,8.26.31c6.6.05,14.98-1.08,14.98-1.08Z" style="fill:url(#_횂횁_횕_횑횑_횊_횏횂횑횣_64-8); fill-rule:evenodd; stroke-width:0px;"/><path d="M403.91,291.93c9.2-1.27,36.19-1.77,36.19-1.77l50.51,1.35s-12.26,1.99-29.74,2.63c-15.99.59-56.96-2.2-56.96-2.2Z" style="fill:url(#_횂횁_횕_횑횑_횊_횏횂횑횣_64-9); fill-rule:evenodd; stroke-width:0px;"/><path d="M609.18,307.06c-13.35,1.15-29.64-1.34-29.07-1.67.57-.33,18.86.32,18.86.32l16.37,1.09-6.16.26Z" style="fill:url(#_횂횁_횕_횑횑_횊_횏횂횑횣_64-10); fill-rule:evenodd; stroke-width:0px;"/><path d="M457.67,282.87l.15.04,6.12,1.45s4.56.44,10.73.46c0,0,6.43-.55,7.89-1.04.53-.18.39-.34-.99-.46-5.07-.44-23.91-.43-23.91-.43Z" style="fill:url(#_횂횁_횕_횑횑_횊_횏횂횑횣_64-11); fill-rule:evenodd; stroke-width:0px;"/><path d="M367.14,287.35c-8.97.77-19.91-.9-19.53-1.12.39-.22,12.67.22,12.67.22l11,.73-4.14.17Z" style="fill:url(#_횂횁_횕_횑횑_횊_횏횂횑횣_64-12); fill-rule:evenodd; stroke-width:0px;"/><path d="M628.73,301.88l.15.04,6.12,1.45s4.56.44,10.73.46c0,0,6.43-.55,7.89-1.04.53-.18.39-.34-.99-.46-5.07-.44-23.91-.43-23.91-.43Z" style="fill:url(#_횂횁_횕_횑횑_횊_횏횂횑횣_64-13); fill-rule:evenodd; stroke-width:0px;"/><path d="M574,296.14c-8.97.77-19.91-.9-19.53-1.12.39-.22,12.67.22,12.67.22l11,.73-4.14.17Z" style="fill:url(#_횂횁_횕_횑횑_횊_횏횂횑횣_64-14); fill-rule:evenodd; stroke-width:0px;"/><path d="M698.23,295.64l2.47.03h0s5.53.08,5.53.08h0s19.18.27,19.18.27h0s.9.01.9.01c0,0,.69-.03,1.93-.07.45-.02.99-.04,1.6-.06,4.97-.19,15.1-.61,26.94-1.19,11.02-.54,23.83-1.25,34.4-2.01.54-.04,1.06-.08,1.59-.12,4.38-.32,8.32-.66,11.51-.99.55-.06,1.08-.12,1.59-.17.28-.03.56-.06.83-.1t0,0c-.52,0-13.78.11-29.76.29-1.52.02-3.06.03-4.61.05-5.24.06-10.61.12-15.81.2-2.32.03-10.56,1-12.8,1.04,0,0,5.93-.94,5.92-.94t0,0c-1.42.02-2.82.04-4.19.07-2.29.04-4.51.08-6.63.12-.98.02-1.94.04-2.88.06-1.19.02-2.35.05-3.46.07-.55.01-1.1.03-1.64.04-.54.01-1.06.03-1.58.04-.07,0-.14,0-.21,0-.42.01-.84.02-1.25.03-.07,0-.15,0-.22,0-.23,0-.45.01-.67.02-.15,0-.29,0-.44.01-.72.02-1.42.04-2.09.06-.28,0-.55.02-.81.03-1.64.06-3.08.12-4.28.18-.04,0-.08,0-.13,0-.04,0-.08,0-.13,0-.04,0-.08,0-.11,0h-.19c-.77.05-1.53.1-2.27.16-.55.04-1.09.08-1.63.13-.4.03-.8.07-1.19.11-.67.06-1.33.13-1.97.2-4.52.5-8.1,1.14-10.41,1.62h0c-.12.02-.23.05-.33.07-.08.02-.16.03-.24.05-.15.03-.3.06-.44.1-.31.07-.58.13-.82.19-.76.18-1.19.29-1.23.3h0Z" style="fill:url(#_횂횁_횕_횑횑_횊_횏횂횑횣_64-15); fill-rule:evenodd; stroke-width:0px;"/><path d="M933.64,309.47l.54.08,21.26,3.16s14.65.48,33.39-.59c0,0,18.46-2.8,22-4.51,1.28-.62.56-1.08-3.87-1.19-16.2-.37-73.32,3.05-73.32,3.05Z" style="fill:url(#_횂횁_횕_횑횑_횊_횏횂횑횣_64-16); fill-rule:evenodd; stroke-width:0px;"/><path d="M913.87,302.45l.3.04,11.76,1.75s8.11.27,18.47-.33c0,0,10.21-1.55,12.18-2.49.71-.34.31-.6-2.14-.66-8.96-.2-40.57,1.69-40.57,1.69Z" style="fill:url(#_횂횁_횕_횑횑_횊_횏횂횑횣_64-17); fill-rule:evenodd; stroke-width:0px;"/><path d="M636.58,308.44l.84.12,33.5,4.98s23.09.76,52.61-.93c0,0,29.09-4.41,34.67-7.1,2.02-.98.88-1.7-6.09-1.87-25.52-.58-115.53,4.81-115.53,4.81Z" style="fill:url(#_횂횁_횕_횑횑_횊_횏횂횑횣_64-18); fill-rule:evenodd; stroke-width:0px;"/><path d="M967.6,295.84s.01,0,.06,0c.03,0,.09,0,.15,0,2.46.2,78.87,11.58,92.42,9.2,2.21-.38,4.08-.89,5.49-1.52l11.64-7.9s110.2-8.48,110.15-8.48c-2.43-.3-190.55-1.5-200.14,1.7-9.32,3.13-19.78,6.99-19.78,6.99Z" style="fill:url(#_횂횁_횕_횑횑_횊_횏횂횑횣_64-19); fill-rule:evenodd; stroke-width:0px;"/><path d="M691.72,330.83l5.16.2h.02s11.57.44,11.57.44h.02s40.08,1.54,40.08,1.54h.02s1.88.07,1.88.07c0,0,1.45-.15,4.04-.4.95-.1,2.07-.22,3.34-.36,10.39-1.1,31.57-3.43,56.31-6.73,23.02-3.08,49.81-7.07,71.9-11.37,1.12-.22,2.22-.43,3.32-.65,9.15-1.83,17.38-3.72,24.06-5.61,1.15-.33,2.26-.65,3.32-.98.59-.18,1.17-.37,1.74-.55t-.02,0c-1.09.02-28.81.63-62.21,1.62-3.18.1-6.41.19-9.63.3-10.95.33-22.17.7-33.03,1.12-4.85.18-22.07,5.66-26.74,5.86,0,0,12.38-5.3,12.38-5.3t-.02,0c-2.97.12-5.89.25-8.75.38-4.79.22-9.42.44-13.85.67-2.05.1-4.05.21-6.01.32-2.5.14-4.91.28-7.24.42-1.16.07-2.3.15-3.42.22-1.12.07-2.22.15-3.3.22-.15.01-.29.02-.44.04-.89.06-1.76.12-2.61.18-.16.01-.31.02-.47.04-.48.04-.94.08-1.41.11-.31.02-.61.05-.92.07-1.51.13-2.97.25-4.37.37-.58.05-1.14.11-1.69.16-3.42.33-6.43.67-8.94,1.02-.09,0-.18.02-.27.03-.09.01-.18.03-.27.05-.08,0-.17.02-.24.02l-.39.06c-1.61.24-3.19.53-4.74.84-1.15.23-2.29.48-3.41.74-.84.2-1.67.4-2.48.61-1.41.36-2.79.74-4.11,1.14-9.44,2.83-16.93,6.45-21.75,9.14h0c-.25.14-.48.27-.69.4-.18.1-.34.19-.5.28-.32.18-.63.36-.93.54-.65.38-1.22.74-1.72,1.05-1.59,1-2.48,1.64-2.57,1.71h-.01Z" style="fill:url(#_횂횁_횕_횑횑_횊_횏횂횑횣_64-20); fill-rule:evenodd; stroke-width:0px;"/><path d="M464.86,287.35s.13.03.39.08c.85.16,3.08.54,6.53.85.71.06,1.44.12,2.24.18,2.36.16,5.16.28,8.39.3,6.31.03,12.36-.14,16.82-.3,4.24-.16,6.94-.32,6.94-.32l12.41-.62s-.76-.04-2.19-.11c-.01,0-.03,0-.05,0-2.04-.1-5.4-.25-9.72-.39-5.77-.19-13.08-.35-21.14-.37-16.17-.03-20.62.71-20.62.71Z" style="fill:url(#_횂횁_횕_횑횑_횊_횏횂횑횣_64-21); fill-rule:evenodd; stroke-width:0px;"/><path d="M476.52,291.41h0c.17.05,2.9.82,6.9,1.67,3.06.65,32.1,1.53,36.16,1.97,9.6,1.04,18.94.51,20.17.44.08,0,.13,0,.13,0l-1.32-.45h-.01s-4.25-1.47-4.25-1.47l-.32-.11h.09s11.46.15,11.46.15h0c-1.76-.55-6.39-.96-11.95-1.25-.62-.03-1.26-.07-1.91-.1-.3-.01-.59-.03-.89-.04-1.5-.07-3.05-.13-4.6-.18-7.18-.25-39.66-.55-44.32-.59-3.26-.03-5.33-.03-5.33-.03Z" style="fill:url(#_횂횁_횕_횑횑_횊_횏횂횑횣_64-22); fill-rule:evenodd; stroke-width:0px;"/></g><path d="M863.28,277.76l-66.98-4.55-12.53-.86-13.9-.95s-.22-19.93,1.53-23.64c1.99-4.24,14.28-7.64,17.71-4.6.21.19.42.44.61.75,3.23,5.38,2.24,25.37,2.16,27.09.12-1.04.96-8.68,2.53-15.23,1.08-4.53,2.56-8.7,4.47-10.08,5.79-4.15,47.83-24.53,60.69-14.4,16.9,13.45,3.72,46.45,3.72,46.45Z" style="fill:url(#_횂횁_횕_횑횑_횊_횏횂횑횣_119-2); stroke-width:0px;"/><path d="M783.77,272.35c1.36-3.99,4.44-14.22,5.94-28.43,3.23,5.38,2.24,25.37,2.16,27.09.12-1.04.96-8.68,2.53-15.23-.42,7.41.7,13.3,1.91,17.43l-12.53-.86Z" style="fill:url(#linear-gradient-5); mix-blend-mode:multiply; opacity:.3; stroke-width:0px;"/><path d="M992.22,284.99l-85.12-4.34-15.93-.81-17.67-.9s-2.69-4.58-.94-5.35c2-.87,17.1-1.05,21.8-.18.29.05.59.12.86.2,4.73,1.39,5.91,5.93,6.01,6.32.02-.23.16-1.94,1.35-3.37.82-.98,2.17-1.87,4.43-2.09,6.8-.67,57.41-3.28,74.88-.32,22.97,3.92,10.33,10.84,10.33,10.84Z" style="fill:url(#_횂횁_횕_횑횑_횊_횏횂횑횣_119-3); stroke-width:0px;"/><path d="M891.17,279.84c1.23-.85,3.88-3.04,4.05-6.23,4.73,1.39,5.91,5.93,6.01,6.32.02-.23.16-1.94,1.35-3.37.37,1.68,2.49,3.08,4.52,4.09l-15.93-.81Z" style="fill:url(#linear-gradient-6); mix-blend-mode:multiply; opacity:.3; stroke-width:0px;"/><path d="M1.73,279.53l150.95-3.24,50.71-1.09h0l109.71-2.35,25.87-.56,59.39-1.28,84.49-1.82s-1.24-28.25-9.93-34.73c-8.69-6.48-32.28,2.35-35.39,7.65-3.11,5.3-3.73,25.31-3.73,25.31,0,0-4.22-28.64-16.66-46.27-4.76-6.75-10.72-11.89-18.11-13.19-3.54-.62-7.47-.8-11.65-.63-9.21.38-19.62,2.47-29.51,5.29-1.92.55-3.82,1.12-5.69,1.72-2.67.85-5.28,1.74-7.78,2.66-13.57,4.95-24.18,10.5-26.08,13.33-4.35,6.48,4.34,40.03,4.34,40.03,0,0-7.45-16.48-11.17-18.84-.08-.05-.19-.11-.33-.18-2.71-1.4-16.98-7.12-34.4-13.24-15.14-5.32-32.67-10.94-47.09-14.31h0c-1.78-.42-3.52-.8-5.19-1.14-5.54-1.13-10.46-1.83-14.37-1.92-1.55-.04-2.95.02-4.16.18-4.62.63-8.32,2.35-11.27,4.67-5.21,4.08-8.11,10.03-9.72,15.14,2.45-17.16,3.33-51.33-24.45-66.17-5.13-2.74-34.47,86.31-34.96,79.33-3.73-52.39-52.57-64.71-61.78-63.28C20.76,197.3,1.73,279.53,1.73,279.53Z" style="fill:url(#_횂횁_횕_횑횑_횊_횏횂횑횣_119-4); fill-rule:evenodd; stroke-width:0px;"/><path d="M398.36,271l84.49-1.82s-1.24-28.25-9.93-34.73c-.62-.46-1.31-.84-2.07-1.15.87,19.66-23.06,31.27-27.73,29.7-2.66-.89-5.72-7.18-7.62-13.95-1.37,7.81-1.7,18.36-1.7,18.36,0,0-4.22-28.64-16.66-46.27,3.09,27.28-9.05,42.33-18.78,49.85Z" style="fill:url(#linear-gradient-7); fill-rule:evenodd; mix-blend-mode:multiply; opacity:.3; stroke-width:0px;"/><path d="M311.49,251.53c-.08-.05-.19-.11-.33-.18.21,1.61.33,2.54.33,2.54,0,0,3.4,12.41,1.61,18.95l25.87-.56c-7.89-8.02-15.24-21.13-20.65-41.94-4.35,6.48,4.34,40.03,4.34,40.03,0,0-7.45-16.48-11.17-18.84Z" style="fill:url(#linear-gradient-8); fill-rule:evenodd; mix-blend-mode:multiply; opacity:.3; stroke-width:0px;"/><path d="M152.68,276.28l50.71-1.09c-9.8-8.04-23.98-25.18-8.73-49.61-5.21,4.08-8.11,10.03-9.72,15.14,2.45-17.16,3.33-51.33-24.45-66.17-.29-.08-.46-.12-.5-.13.46.25,29.68,16.31,14.89,69.46-4,14.4-12.27,24.83-22.21,32.41Z" style="fill:url(#linear-gradient-9); fill-rule:evenodd; mix-blend-mode:multiply; opacity:.3; stroke-width:0px;"/><path d="M357.88,212.63c-3.98,15.75-11.4,42.6-6.81,42.29,4.8-.33,9.09-27.7,36.31-47.57-9.21.38-19.62,2.47-29.51,5.29Z" style="fill:url(#_횂횁_횕_횑횑_횊_횏횂횑횣_64-23); fill-rule:evenodd; mix-blend-mode:color-dodge; opacity:.3; stroke-width:0px;"/><path d="M344.4,217l-.32,14.07s4.05-8.75,8.1-16.73c-2.67.85-5.28,1.74-7.78,2.66Z" style="fill:url(#_횂횁_횕_횑횑_횊_횏횂횑횣_64-24); fill-rule:evenodd; mix-blend-mode:color-dodge; opacity:.3; stroke-width:0px;"/><path d="M272.52,236.84c-2.78,7.76-32.7,17.88-21.58,20.28,9.51,2.05,46.2-3.87,50.96-9.38-9.41-3.96-20.34-8.21-29.38-10.9Z" style="fill:url(#_횂횁_횕_횑횑_횊_횏횂횑횣_64-25); fill-rule:evenodd; mix-blend-mode:color-dodge; opacity:.3; stroke-width:0px;"/><path d="M255.34,243.29c3.48,1.34,13.24-6.55,13.24-6.55l.69-.82c-3.48-.93-6.58-1.56-9.07-1.77-3.21,3.53-7.01,8.31-4.85,9.14Z" style="fill:url(#_횂횁_횕_횑횑_횊_횏횂횑횣_64-26); fill-rule:evenodd; mix-blend-mode:color-dodge; opacity:.3; stroke-width:0px;"/><path d="M370.86,243.44c-8.15,3.97-9.78,14.79-10.48,15.67-.7.88,7.68,4.86,8.85-.88,1.16-5.74,1.63-14.79,1.63-14.79Z" style="fill:url(#_횂횁_횕_횑횑_횊_횏횂횑횣_64-27); fill-rule:evenodd; mix-blend-mode:color-dodge; opacity:.3; stroke-width:0px;"/><path d="M1039.35,330.67l65.57,5.71s124.68-10.85,122.55-10.85-170.64-2.13-170.64-2.13l2.55-1.91,22.83-1,487.28-29.45,2.4-20.01-498.47,47.9,8.45,1.45-29.31,1.61-13.21,8.68Z" style="fill:#5b0a3e; fill-rule:evenodd; mix-blend-mode:multiply; opacity:.24; stroke-width:0px;"/><path d="M1049.51,332.19c-.35.59,11.47.7,11.47.7l17.28.97c-.79-5.56-2.38-18.11-3.89-37.73-.44-5.74-.86-12.08-1.26-19.02-.28-4.87-.55-10.03-.79-15.49-.41-9.23-.73-19.31-.98-30.24-.09-5.17-.18-10.53-.23-16.09-.03-1.59-.05-3.18-.05-4.79-.12-16.96,0-35.65.52-56.07.04-1.42.08-2.82.12-4.21.06-2.19.12-4.34.18-6.47,3.17-109.61,10.74-121,11.1-121.48l-.79.46-13.42,7.89-7.99,4.7s-2.36,46.45-5.67,102.67c-.14,2.35-.28,4.72-.43,7.1v.45s-.08,1.03-.08,1.03l-.19,3.12-.13,2.08-.12,2.09-.04.57c-2.18,36.33-4.73,75.13-7.23,107.26-.14,1.88-.3,3.74-.44,5.58-.03.26-.04.52-.06.79-1.17,14.5-2.32,27.43-3.43,37.86-1.29,11.99-2.51,20.69-3.61,24.72l10.16,1.56Z" style="fill:url(#_횂횁_횕_횑횑_횊_횏횂횑횣_28); fill-rule:evenodd; stroke-width:0px;"/><path d="M1051.21,284.59c8.34,24.32,2.68,40.1-1.7,47.6-.35.59,11.47.71,11.47.7-.53-8.25-1.71-23.81-2.2-27.43-.66-4.82-6.14-20.62-6.35-22.81-.22-2.19,6.79-24.79,10.53-23.47,3.72,1.31,7.01,31.81,7.01,33.12,0,1.13,1.5,32.82,1.89,41.19l6.41.36c-.79-5.56-2.38-18.11-3.89-37.73-.24-.7-.48-1.39-.72-2.08-6.96-19.68-9.85-55.4-8.96-55.4.86-.01.75-23.17,5.17-12.72.4.99.9,2.87,1.48,5.44-.09-5.17-.18-10.53-.23-16.09-4.67-23.11-8.73-45.15-9.42-48.1-1.66-7.08-.14-16.2-.14-16.2,0,0-3.13-23.12-.77-23.14,1.78,0,7.93,14.91,10.92,22.36.06-2.19.12-4.34.18-6.47-2.8-4.94-12.71-22.65-12.75-24.54,0-1.57,9.25-69.43,23.06-96.47l-13.42,7.89-7.99,4.7s-2.36,46.45-5.67,102.67c.27,5.26.5,10.75.75,16.5.88,20.4,6.84,25.65,8.76,34.57,2.4,6.88-1.88,24.21.12,30.1,3.25,9.47-15.11,38.32-17.84,42.53-.22.34-.34.52-.34.52-.05,1.98-.1,3.94-.17,5.85-.1,3.34-.22,6.56-.35,9.65.75,2.42,4.1,3.76,5.17,6.88Z" style="fill:#a65f49; fill-rule:evenodd; mix-blend-mode:multiply; opacity:.4; stroke-width:0px;"/><path d="M104.12,318.93l8.76,1.98h.06s-.01-.14-.04-.43l.09-1.93,13.08.54c-.03-.54-.05-1.13-.08-1.78h0c-.36-9.09-.93-27.47-.94-55.23,0-5.01.01-10.34.06-15.96.1-15.27.37-32.8.9-52.6.45-17.05,1.11-35.79,2-56.21.01-.46.04-.97.06-1.48C133.41,14.82,138.21.89,138.57,0l-8.13,8.4-4.59,4.77s-3.02,51.85-6.86,112.9l-.03.45-.06,1.07-.21,3.2-.13,2.14-.14,2.15-.04.58c-2.5,39.54-5.3,81.94-7.82,116.01-1.12,15.23-2.19,28.82-3.16,39.74-1.35,15.27-2.49,25.35-3.29,27.52Z" style="fill:url(#_횂횁_횕_횑횑_횊_횏횂횑횣_28-2); fill-rule:evenodd; stroke-width:0px;"/><path d="M115.18,279.42c-3.94,18.55-2.54,37.95-2.27,41.06l.09-1.93,13.08.54c-.03-.54-.05-1.13-.08-1.78h0c-3.48-8.02-7.45-23.37-2.63-46.71.67-3.21,1.22-6.03,1.69-8.52,0-5.01.01-10.34.06-15.96,0,0-6.01-19.29-3.85-29.83,1.25-6.06,2.73-56.62,4.21-63.7.45-17.03,1.61,3.17,2.54-15.29.01-.46.04-.97.06-1.48C133.41,14.82,138.21.89,138.57,0l-8.13,8.4c-.58,31.15-1.56,82.66-1.61,84.24-.06,2.27-9.83,33.42-9.83,33.42l-.03.45-.06,1.07-.21,3.2-.13,2.14-.14,2.15-.04.58s6.24-27.25,7.55-27.25c1.3.03,1.29,36.64,1.29,36.64,0,0-1.57-3.44-2.66,3.84-.85,5.75-9.95,82.21-14.01,102.78-1.12,15.23-2.19,28.82-3.16,39.74,3.87-17.41,10.56-47.34,12.43-54.83,2.67-10.75,2.1,13.08,2.59,13.1.49.01-2.95,9.51-7.24,29.75Z" style="fill:#a65f49; fill-rule:evenodd; mix-blend-mode:multiply; opacity:.4; stroke-width:0px;"/><path d="M1009.16,74.05s24.02,60.22,26.98,63.51c2.96,3.29,18.1,20.07,18.1,20.07l.33,13.49s-18.43-26.98-20.4-30.6c-1.97-3.62-16.45-37.84-16.45-37.84l-24.02-10.2,1.65-.66,21.72,8.23-7.9-26Z" style="fill:url(#_횂횁_횕_횑횑_횊_횏횂횑횣_28-3); fill-rule:evenodd; stroke-width:0px;"/><path d="M1468.71,313.71c.35.59.68,1.13,1.01,1.62l-6.06.67-6.32.7-.1-2.29-17.28.97c.79-5.56,2.38-18.11,3.89-37.73.44-5.74.86-12.08,1.26-19.02.28-4.87.55-10.03.79-15.49.41-9.23.73-19.31.98-30.24.09-5.17.18-10.53.23-16.09.03-1.59.05-3.18.05-4.79.12-16.96,0-35.65-.52-56.07-.04-1.42-.08-2.82-.12-4.21-.06-2.19-.12-4.34-.18-6.47-3.17-109.61-10.74-121-11.1-121.48l.79.46,13.42,7.89,7.99,4.7s2.36,46.45,5.67,102.67c.14,2.35.28,4.72.43,7.1v.45s.08,1.03.08,1.03l.19,3.12.13,2.08.12,2.09.04.57c2.18,36.33,4.73,75.13,7.23,107.26.14,1.88.3,3.74.44,5.58.03.26.04.52.06.79,1.17,14.5,2.32,27.43,3.43,37.86,1.29,11.99,2.51,20.69,3.61,24.72l-10.16,1.56Z" style="fill:url(#_횂횁_횕_횑횑_횊_횏횂횑횣_28-4); fill-rule:evenodd; stroke-width:0px;"/><path d="M1467.01,266.11c-8.34,24.32-2.68,40.1,1.7,47.6.35.59.68,1.13,1.01,1.62l-6.06.67-6.32.7-.04-.88v-.03c.53-8.25,1.65-25.2,2.14-28.82.66-4.82,6.14-20.62,6.35-22.81.22-2.19-6.79-24.79-10.53-23.47-3.72,1.31-7.01,31.81-7.01,33.12,0,1.13-1.5,32.82-1.89,41.19l-6.41.36c.79-5.56,2.38-18.11,3.89-37.73.24-.7.48-1.39.72-2.08,6.96-19.68,9.85-55.4,8.96-55.4-.86-.01-.75-23.17-5.17-12.72-.4.99-.9,2.87-1.48,5.44.09-5.17.18-10.53.23-16.09,4.67-23.11,8.73-45.15,9.42-48.1,1.66-7.08.14-16.2.14-16.2,0,0,3.13-23.12.77-23.14-1.78,0-7.93,14.91-10.92,22.36-.06-2.19-.12-4.34-.18-6.47,2.8-4.94,12.71-22.65,12.75-24.54,0-1.57-9.25-69.43-23.06-96.47l13.42,7.89,7.99,4.7s2.36,46.45,5.67,102.67c-.27,5.26-.5,10.75-.75,16.5-.88,20.4-6.84,25.65-8.76,34.57-2.4,6.88,1.88,24.21-.12,30.1-3.25,9.47,15.11,38.32,17.84,42.53.22.34.34.52.34.52.05,1.98.1,3.94.17,5.85.1,3.34.22,6.56.35,9.65-.75,2.42-4.1,3.76-5.17,6.88Z" style="fill:#a65f49; fill-rule:evenodd; mix-blend-mode:multiply; opacity:.4; stroke-width:0px;"/><path d="M1509.13,56.41s-24.02,60.22-26.98,63.51c-2.96,3.29-18.1,20.07-18.1,20.07l-.33,13.49s18.43-26.98,20.4-30.6c1.97-3.62,16.45-37.84,16.45-37.84l24.02-10.2-1.65-.66-21.72,8.23,7.9-26Z" style="fill:url(#_횂횁_횕_횑횑_횊_횏횂횑횣_28-5); fill-rule:evenodd; stroke-width:0px;"/></g></g></g></svg>