<?xml version="1.0" encoding="UTF-8"?><svg id="Layer_2" xmlns="http://www.w3.org/2000/svg" xmlns:xlink="http://www.w3.org/1999/xlink" viewBox="0 0 1450.98 504.86"><defs><linearGradient id="linear-gradient" x1="757" y1="452.66" x2="705.93" y2="145.14" gradientUnits="userSpaceOnUse"><stop offset="0" stop-color="#ffffd4"/><stop offset=".01" stop-color="#fcfed3"/><stop offset=".11" stop-color="#d5f0c5"/><stop offset=".21" stop-color="#b5e4ba"/><stop offset=".33" stop-color="#9adab1"/><stop offset=".45" stop-color="#85d3a9"/><stop offset=".59" stop-color="#76cea4"/><stop offset=".75" stop-color="#6dcaa1"/><stop offset="1" stop-color="#6bcaa1"/></linearGradient><linearGradient id="linear-gradient-2" x1="1305.64" y1="456.02" x2="1254.58" y2="148.51" xlink:href="#linear-gradient"/><linearGradient id="linear-gradient-3" x1="820.14" y1="442.17" x2="769.08" y2="134.66" xlink:href="#linear-gradient"/><linearGradient id="linear-gradient-4" x1="266.76" y1="442.17" x2="215.69" y2="134.66" xlink:href="#linear-gradient"/><linearGradient id="linear-gradient-5" x1="1038.32" y1="449.7" x2="987.25" y2="142.18" gradientTransform="translate(2418.89) rotate(-180) scale(1 -1)" xlink:href="#linear-gradient"/><linearGradient id="linear-gradient-6" x1="952.04" y1="420.27" x2="900.97" y2="112.76" xlink:href="#linear-gradient"/><linearGradient id="linear-gradient-7" x1="538.52" y1="459.68" x2="482.19" y2="120.44" xlink:href="#linear-gradient"/><linearGradient id="linear-gradient-8" x1="-1270.22" y1="528.47" x2="-1348.74" y2="55.62" gradientTransform="translate(327.78) rotate(-180) scale(.2 -1)" xlink:href="#linear-gradient"/><linearGradient id="linear-gradient-9" x1="-962.59" y1="475.56" x2="-1020.04" y2="129.53" gradientTransform="translate(306.5 3.44) rotate(176.18) scale(.29 -1) skewX(-.02)" xlink:href="#linear-gradient"/><linearGradient id="linear-gradient-10" x1="-5045.7" y1="541.09" x2="-5124.22" y2="68.23" gradientTransform="translate(327.78) rotate(-180) scale(.2 -1)" xlink:href="#linear-gradient"/><linearGradient id="linear-gradient-11" x1="-3488.67" y1="537.56" x2="-3546.13" y2="191.53" gradientTransform="translate(306.5 3.44) rotate(176.18) scale(.29 -1) skewX(-.02)" xlink:href="#linear-gradient"/><linearGradient id="linear-gradient-12" x1="1104.88" y1="500.9" x2="1026.36" y2="28.05" gradientTransform="translate(327.78) rotate(-180) scale(.2 -1)" xlink:href="#linear-gradient"/><linearGradient id="linear-gradient-13" x1="622.07" y1="416.96" x2="564.61" y2="70.93" gradientTransform="translate(306.5 3.44) rotate(176.18) scale(.29 -1) skewX(-.02)" xlink:href="#linear-gradient"/><linearGradient id="linear-gradient-14" x1="1085.21" y1="454.9" x2="1029.35" y2="118.46" xlink:href="#linear-gradient"/><linearGradient id="linear-gradient-15" x1="1119.97" y1="449.23" x2="1064.14" y2="113" xlink:href="#linear-gradient"/><linearGradient id="linear-gradient-16" x1="1172.97" y1="455.72" x2="1117.1" y2="119.29" xlink:href="#linear-gradient"/><linearGradient id="linear-gradient-17" x1="43.09" y1="448.89" x2="-12.77" y2="112.46" xlink:href="#linear-gradient"/><linearGradient id="linear-gradient-18" x1="403.95" y1="432.75" x2="352.89" y2="125.24" xlink:href="#linear-gradient"/><linearGradient id="linear-gradient-19" x1="340.41" y1="419.14" x2="289.34" y2="111.62" xlink:href="#linear-gradient"/><linearGradient id="linear-gradient-20" x1="308.7" y1="415.73" x2="257.64" y2="108.22" xlink:href="#linear-gradient"/></defs><g id="forest"><polygon points="714.94 79.19 716.45 391.62 736.87 390.11 723.26 66.33 714.94 79.19" style="fill:url(#linear-gradient); fill-rule:evenodd; stroke-width:0px;"/><polygon points="1263.58 82.55 1265.1 394.99 1285.52 393.47 1271.9 69.69 1263.58 82.55" style="fill:url(#linear-gradient-2); fill-rule:evenodd; stroke-width:0px;"/><path d="M758.81,60.28l5.3,208.79-14.37,118.77,23.45,1.51,8.32-118.77,47.66-143.74-6.05-3.03s-37.83,127.09-43.12,127.85c-5.3.76-.76-190.64-.76-190.64l-20.43-.76Z" style="fill:url(#linear-gradient-3); fill-rule:evenodd; stroke-width:0px;"/><path d="M205.43,60.28l5.3,208.79-14.37,118.77,23.45,1.51,8.32-118.77,47.66-143.74-6.05-3.03s-37.82,127.09-43.12,127.85c-5.3.76-.76-190.64-.76-190.64l-20.43-.76Z" style="fill:url(#linear-gradient-4); fill-rule:evenodd; stroke-width:0px;"/><path d="M1441.91,67.8l-5.3,208.79,14.37,118.77-23.45,1.51-8.32-118.77-47.66-143.74,6.05-3.03s37.83,127.09,43.12,127.85c5.3.76.76-190.64.76-190.64l20.43-.76Z" style="fill:url(#linear-gradient-5); fill-rule:evenodd; stroke-width:0px;"/><polygon points="911.63 396.16 916.34 98.49 934.32 94.32 953.99 392.38 911.63 396.16" style="fill:url(#linear-gradient-6); fill-rule:evenodd; stroke-width:0px;"/><polygon points="495.17 433.61 499.89 104.89 517.87 100.28 537.54 429.43 495.17 433.61" style="fill:url(#linear-gradient-7); fill-rule:evenodd; stroke-width:0px;"/><polygon points="589.33 492.25 588.06 33.99 583.21 27.57 577.91 486.42 589.33 492.25" style="fill:url(#linear-gradient-8); fill-rule:evenodd; stroke-width:0px;"/><polygon points="629.29 431.17 608.07 97.92 602.54 93.64 616.66 427.86 629.29 431.17" style="fill:url(#linear-gradient-9); fill-rule:evenodd; stroke-width:0px;"/><polygon points="1331.59 504.86 1330.32 46.6 1325.47 40.18 1320.17 499.04 1331.59 504.86" style="fill:url(#linear-gradient-10); fill-rule:evenodd; stroke-width:0px;"/><polygon points="1371.55 443.78 1350.33 110.53 1344.8 106.25 1358.92 440.48 1371.55 443.78" style="fill:url(#linear-gradient-11); fill-rule:evenodd; stroke-width:0px;"/><polygon points="122.38 464.68 121.11 6.42 116.27 0 110.96 458.86 122.38 464.68" style="fill:url(#linear-gradient-12); fill-rule:evenodd; stroke-width:0px;"/><polygon points="162.35 403.6 141.13 70.35 135.59 66.07 149.72 400.3 162.35 403.6" style="fill:url(#linear-gradient-13); fill-rule:evenodd; stroke-width:0px;"/><polygon points="1042.12 429 1046.84 103.03 1064.82 98.46 1084.49 424.86 1042.12 429" style="fill:url(#linear-gradient-14); fill-rule:evenodd; stroke-width:0px;"/><polygon points="1085.24 424.86 1086.59 98.89 1091.72 94.32 1097.34 420.71 1085.24 424.86" style="fill:url(#linear-gradient-15); fill-rule:evenodd; stroke-width:0px;"/><polygon points="1129.88 429.83 1134.59 103.86 1152.57 99.29 1172.24 425.68 1129.88 429.83" style="fill:url(#linear-gradient-16); fill-rule:evenodd; stroke-width:0px;"/><polygon points="0 422.99 4.72 97.02 22.7 92.45 42.36 418.85 0 422.99" style="fill:url(#linear-gradient-17); fill-rule:evenodd; stroke-width:0px;"/><polygon points="363.54 408.64 368.26 110.97 386.24 106.8 405.9 404.86 363.54 408.64" style="fill:url(#linear-gradient-18); fill-rule:evenodd; stroke-width:0px;"/><polygon points="299.99 395.03 304.71 97.35 322.69 93.18 342.36 391.24 299.99 395.03" style="fill:url(#linear-gradient-19); fill-rule:evenodd; stroke-width:0px;"/><polygon points="268.29 391.62 273.01 93.95 290.98 89.78 310.65 387.84 268.29 391.62" style="fill:url(#linear-gradient-20); fill-rule:evenodd; stroke-width:0px;"/></g></svg>