<?xml version="1.0" encoding="UTF-8"?><svg id="Layer_2" xmlns="http://www.w3.org/2000/svg" xmlns:xlink="http://www.w3.org/1999/xlink" viewBox="0 0 524.75 148.9"><defs><linearGradient id="_횂횁_횕_횑횑_횊_횏횂횑횣_290" x1="262.37" y1="148.9" x2="262.37" y2="0" gradientUnits="userSpaceOnUse"><stop offset="0" stop-color="#baae0e"/><stop offset="1" stop-color="#a7bd91"/></linearGradient></defs><g id="forest"><path d="M0,21.94s66.21-45.11,120.6-5.97c0,0,15.77,21.78,23.58,44.46h14.81s14.45-21.89,47-21.32c37.79.67,55.67,53.33,55.67,53.33l12.17-.98s-5.11-30.54,5.72-51.19c16.5-31.46,65.44-39.79,109.44-22.16,47.84,19.17,52.33,56.33,52.33,56.33l16.67-17.33s25.5-11.34,66.75,17.33v15.67s-151.75,58.26-310.75,58.63c-159,.37-214,0-214,0V21.94Z" style="fill:url(#_횂횁_횕_횑횑_횊_횏횂횑횣_290); stroke-width:0px;"/></g></svg>