<?xml version="1.0" encoding="UTF-8"?><svg xmlns="http://www.w3.org/2000/svg" xmlns:xlink="http://www.w3.org/1999/xlink" viewBox="0 0 1538 254.64"><defs><linearGradient id="linear-gradient" x1="769" y1="254.64" x2="769" y2="60.08" gradientUnits="userSpaceOnUse"><stop offset="0" stop-color="#612f23"/><stop offset=".5" stop-color="#672219"/><stop offset="1" stop-color="#6b1c14"/></linearGradient><linearGradient id="linear-gradient-2" x1="769" y1="233.5" x2="769" y2="107.94" gradientUnits="userSpaceOnUse"><stop offset="0" stop-color="#aead1f"/><stop offset=".99" stop-color="#ffdd1f"/></linearGradient><linearGradient id="linear-gradient-3" x1="769" y1="219.4" x2="769" y2="0" gradientUnits="userSpaceOnUse"><stop offset="0" stop-color="#ab6f00"/><stop offset="1" stop-color="#ffbd4a"/></linearGradient><linearGradient id="linear-gradient-4" x1="769" y1="222.54" x2="769" y2="34.54" gradientUnits="userSpaceOnUse"><stop offset="0" stop-color="#c4594d"/><stop offset=".14" stop-color="#d7713e"/><stop offset=".31" stop-color="#e98731"/><stop offset=".49" stop-color="#f59628"/><stop offset=".7" stop-color="#fca022"/><stop offset="1" stop-color="#ffa321"/></linearGradient><linearGradient id="linear-gradient-5" x1="769" y1="233.5" x2="769" y2="142.52" gradientUnits="userSpaceOnUse"><stop offset="0" stop-color="#573831"/><stop offset="1" stop-color="#8f713a"/></linearGradient><linearGradient id="_ÂÁ_Ï_ÌÌ_È_ËÂÌÚ_316" x1="1132.9" y1="183.44" x2="1132.9" y2="174.33" gradientTransform="translate(-460.08 -10.02) rotate(-7.13) scale(1.45 1.83)" gradientUnits="userSpaceOnUse"><stop offset=".01" stop-color="#a97736"/><stop offset=".99" stop-color="#af5b34"/></linearGradient><linearGradient id="_ÂÁ_Ï_ÌÌ_È_ËÂÌÚ_17" x1="1184.43" y1="212.39" x2="1184.43" y2="142.52" gradientUnits="userSpaceOnUse"><stop offset="0" stop-color="#691202"/><stop offset="1" stop-color="#994f00"/></linearGradient><linearGradient id="linear-gradient-6" x1="1040.07" y1="233.5" x2="1040.07" y2="201.17" xlink:href="#linear-gradient-4"/><linearGradient id="_ÂÁ_Ï_ÌÌ_È_ËÂÌÚ_305" x1="922.64" y1="187.29" x2="922.64" y2="149.85" gradientUnits="userSpaceOnUse"><stop offset=".01" stop-color="#a97736"/><stop offset=".99" stop-color="#9d4034"/></linearGradient><linearGradient id="_ÂÁ_Ï_ÌÌ_È_ËÂÌÚ_312" x1="835.81" y1="184.19" x2="941.06" y2="184.19" gradientUnits="userSpaceOnUse"><stop offset=".01" stop-color="#899036"/><stop offset=".99" stop-color="#8c5434"/></linearGradient></defs><g style="isolation:isolate;"><g id="Layer_2"><g id="forest"><path d="M0,231.44s464.69-28.63,523.88-29.69c11.82-.21,65.36,3.85,65.36,3.85,85.55,0,948.75-145.5,948.75-145.5v194.55L0,250.71v-19.27Z" style="fill:url(#linear-gradient); fill-rule:evenodd; stroke-width:0px;"/><path d="M0,195.02s286.11-10.61,689.22-37.43c351.66-23.39,664.67-53.2,848.78-49.32v125.22H0v-38.47Z" style="fill:url(#linear-gradient-2); stroke-width:0px;"/><path d="M1496.22,80.42s-39.11-87.11-141.33-32.89c0,0-55.65-46.53-85.26,19.12l-27.69,1.08s-44.11-33.19-92.3-13.86c0,0-41.79,8.05-45.16,54.81l-6.73.5s14.17-26.97,3.85-39.79c0,0-22.11-7.46-56.47-4.73l-4.09,8.95s-30.28,7.71-49.02,23.87c-18.74,16.17-9.61,23.38-9.61,23.38l-2.84,3.73s-28.04-25.22-50.15-25.22c0,0-30.16,7.56-36.89,25.22,0,0,.48,8.95,8.65,13.68l-8.65,1.77s1.74-9.3-10.52-16.07c0,0-95.06-6.26-93.64,37.71l-8.67,2.49s21.99-28.13,8.53-45.12c0,0-70.23-23.07-108.14,4.81,0,0-7.6,13.91-2.08,36.8l-8.97,2.16s7.05-7.4-3.84-22.77c0,0-17.94-4.09-41.65,9.17l-5.44,25.41-25,4.4s-58.03-32.08-116.01-35.67c-57.98-3.6-82.01,26.75-82.01,26.75l-8.65,26.86s-95.38-68.62-171.02-74.8C139.76,115.99,0,149.72,0,149.72v69.69l526.85-23.99,149.42-4.85,668.76-103.02,192.98-39.49V0l-41.78,80.42Z" style="fill:url(#linear-gradient-3); stroke-width:0px;"/><path d="M1538,34.54v158.38s-198.02,17.49-680.57,25.88c-482.55,8.4-857.43,0-857.43,0v-16.78s186.48,12.58,417.18,0c62.25-3.4,138.11-11.01,218.88-20.87,199.5-24.33,428.83-62.28,556.53-83.94,40.47-6.86,77.36-13.24,110.68-19.1,156.72-27.56,234.74-43.57,234.74-43.57Z" style="fill:url(#linear-gradient-4); stroke-width:0px;"/><path d="M1538,142.52s-132.81,13.43-355.66,37.01C988.5,200.03,588.93,244.14,0,209.74v23.76h1538v-90.98Z" style="fill:url(#linear-gradient-5); stroke-width:0px;"/><polygon points="1422.06 154.65 1413.16 207.11 1386.03 210 1382.7 158.51 1330.37 164.86 1330.37 204.98 1320.11 205.44 1320.11 165.73 1308.9 167.17 1301.89 216.35 1538 201.17 1538 142.52 1422.06 154.65" style="fill:#ccbdab; fill-rule:evenodd; mix-blend-mode:multiply; opacity:.8; stroke-width:0px;"/><polygon points="1186.82 224.05 1202.13 174.7 1022.13 197.68 907.42 207.88 830.85 210.26 661.33 218.41 830.85 213.93 827.64 231.47 901.17 231.47 916.07 212.39 1029.98 206.56 1018.45 230.11 1023.25 230.26 1036.04 201.73 1112.17 194.2 1101.35 229.52 1162.03 225.4 1186.82 224.05" style="fill:#ccbdab; fill-rule:evenodd; mix-blend-mode:multiply; opacity:.8; stroke-width:0px;"/><path d="M1320.11,102.01s-5.07,1.43-15.75,3.55h-.03c-18.25,3.64-52.95,9.34-106.79,13.56-4.88.37-9.92.73-15.14,1.09.08-.02.13-.04.2-.09.77-.29,3.85-1.48,8.54-3.06,2.02-.68,4-1.34,5.92-1.96,1.15-.37,2.24-.71,3.33-1.06.13-.05.29-.09.42-.14,1.36-.42,2.74-.84,4.18-1.26.53-.14,1.02-.29,1.52-.45.47-.14.95-.26,1.39-.4,5.48-1.56,9.58-2.6,11.52-3.05.26-.07.53-.13.79-.2.29-.07.45-.1.45-.1l-125.19,8.1.22-.03c4.84-.64,85.24-11.16,152.48-15.21l-5.43,1.8h-.03s-4.08,1.35-4.08,1.35c0,0,34.76-4.14,81.46-2.43Z" style="fill:url(#_ÂÁ_Ï_ÌÌ_È_ËÂÌÚ_316); stroke-width:0px;"/><path d="M1242.73,103.1c-33.9.42-94.43,10.03-94.43,10.03l-52.81,3.42.22-.03c4.84-.64,85.24-11.16,152.48-15.21l-5.43,1.8h-.03Z" style="fill:#ccbdab; mix-blend-mode:multiply; opacity:.8; stroke-width:0px;"/><path d="M1320.11,102.01s-5.07,1.43-15.75,3.55h-.03c-24.67-2.25-63.38,1.57-63.38,1.57l-2.3-2.69s34.76-4.14,81.46-2.43Z" style="fill:#ccbdab; mix-blend-mode:multiply; opacity:.8; stroke-width:0px;"/><path d="M1197.36,119.24s6.38-4.57,24.49-8.92l-1.16-1.89s-17.73,4.03-38.3,11.77l14.96-.97Z" style="fill:#ccbdab; mix-blend-mode:multiply; opacity:.8; stroke-width:0px;"/><path d="M1538,142.52l-28.99,9.37s-23.01,1.79-57.04,2.77l-20.19,2.49,5.23-4.27-47.53,5.63,10.09,1.99s-26.27.45-69.21,4.35l-75.94,6.47s-152.36,15.67-218.39,30.41l-7.5-.56s27.25-6.36,60-11.88l-48.47,6.41s-13.94,4.23-18.98,9.2l-6.97.41s6.07-6.2,15.01-8.55l-7,.93-77.54,11.56h-17.3s-53.38,6.35-96.43,1.02l707.15-67.74Z" style="fill:url(#_ÂÁ_Ï_ÌÌ_È_ËÂÌÚ_17); stroke-width:0px;"/><polygon points="1538 201.17 1177.26 224.36 1101.35 229.52 1025.16 226 542.15 233.5 1538 233.5 1538 201.17" style="fill:url(#linear-gradient-6); stroke-width:0px;"/><path d="M1146.6,152.88s-16.98,2.85-42.22,6.66c-33.86,5.08-82.57,11.84-125.04,15.61l6.11-2.19-275.63,13.78-.35.02-10.8.54s.58-.11,1.67-.3c12.71-2.29,95.55-17.05,165.89-26.03l-5.77,3.65s126.21-14.77,199.13-14.76l-11.63,4.55-7.42,2.89s68.56-4.41,106.05-4.41Z" style="fill:url(#_ÂÁ_Ï_ÌÌ_È_ËÂÌÚ_305); stroke-width:0px;"/><path d="M866.24,160.96l-5.77,3.65c-48.74,2.53-147.57,21.53-150.65,22.12-.06,0-.08,0-.08,0h-.27s-9.13.25-9.13.25c12.71-2.29,95.55-17.05,165.89-26.03Z" style="fill:#ccbdab; mix-blend-mode:multiply; opacity:.8; stroke-width:0px;"/><path d="M860.47,167.17v-2.57s126.21-14.77,199.13-14.76l-11.63,4.55c-56.14.43-187.5,12.78-187.5,12.78Z" style="fill:#ccbdab; mix-blend-mode:multiply; opacity:.8; stroke-width:0px;"/><path d="M1146.6,152.88s-16.98,2.85-42.22,6.66c-36.43-2.29-56.41.14-56.41.14l-7.42-2.39s68.56-4.41,106.05-4.41Z" style="fill:#ccbdab; mix-blend-mode:multiply; opacity:.8; stroke-width:0px;"/><path d="M835.81,187.99s42.55-6.59,56.71-7.28c27.56-1.34,48.54,2.06,48.54,2.06,0,0-42.14,5.5-105.26,5.22Z" style="fill:url(#_ÂÁ_Ï_ÌÌ_È_ËÂÌÚ_312); stroke-width:0px;"/><path d="M106.76,215.23l173.45,7.31,2.6,10.96h70.45l4.81-9.13h29.32v9.13h12.98l5.29-9.13h119.84v9.13h98.69l10.73-9.13,48.92-7.03s-319.71,11.13-577.07-2.1Z" style="fill:#ccbdab; fill-rule:evenodd; mix-blend-mode:multiply; opacity:.8; stroke-width:0px;"/><path d="M1315.66,83.95c-.52.05-1.04.09-1.56.13.44-.17.98-.23,1.56-.13Z" style="fill:#ccbdab; fill-rule:evenodd; mix-blend-mode:multiply; stroke-width:0px;"/><path d="M1462.31,98.5c.52-.13,1.04-.17,1.52-.14-.5.05-1.02.09-1.52.14Z" style="fill:#ccbdab; fill-rule:evenodd; mix-blend-mode:multiply; stroke-width:0px;"/><path d="M1487.32,148.79c-20.36,4.62-42.81,5.98-64.88,7.29-71.98,4.28-143.94,8.56-215.92,12.84,17.3-.33,34.61-.67,51.91-.99-94.64,21.4-202.61,14.99-305.89,14.88-72.29-.07-144.42,3.14-216.51,5.97-30.36,1.19-62.08,2.22-90.15-3.92-3.75-.83-7.75-2-9.82-3.71,199.5-24.33,428.83-62.28,556.53-83.94,40.47-6.86,77.36-13.24,110.68-19.1-2.46,1.73-4.59,3.58-6.38,5.51,5.61.75,11.5.91,17.23.46-1.21.41-1.73,1.56-.71,2.25,1.4.93,4,1.05,6.27,1.1,27.65.48,55.44-1.5,81.8-5.84-3.58-1.28-8.15-1.82-12.46-1.45,8.82-1.68,18.15-2.64,27.53-2.83-3.13,1.03-6.29,2.08-9.42,3.11,6.69.51,13.38,1.01,20.07,1.52-20.15,2.74-39.81,6.43-58.69,11,10.61,1.66,22.05,1.92,32.89.72-3.67.35-3.31,3.52-.02,4.44,3.31.92,7.34.32,10.88-.31-2.58,1.27-5.15,2.56-7.73,3.83,16.92,2.78,34.95,3.7,52.6,2.72,3.67-.21,7.79-.65,9.71-2.28,1.61-1.36-.35-3.55-3-3.7,4.54-.4,9.07-.81,13.61-1.2-1.4,1.32-2.83,2.65-4.23,3.97,8.52,1,17.03,2.02,25.55,3.02-39.87,2.71-79.73,5.4-119.6,8.11,5.48,2.17,12.52,3.24,19.38,2.96-8.96,1.28-17.92,2.56-26.88,3.84,37.7,1.29,75.57,1.21,113.25-.23-10.71,5.51-25.95,8.59-41.05,8.28,4.21.88,8.4,1.74,12.61,2.62-28.51,2.01-56.77,4.92-84.61,8.7,7.69,1.05,15.36,2.12,23.05,3.18-3.02,1.04-6.04,2.08-9.05,3.12,33.41,3.18,67.48,4.55,101.45,4.05Z" style="fill:#ccdbc2; fill-rule:evenodd; mix-blend-mode:multiply; stroke-width:0px;"/><path d="M806.36,204.29l-288.35,17.56s-74.15,13.23-186.83,11.65H0v-31.48l531.25-6.63,275.11,8.9Z" style="fill:#bb9a63; fill-rule:evenodd; mix-blend-mode:multiply; stroke-width:0px;"/><g style="mix-blend-mode:color-dodge; opacity:.57;"><path d="M1263.73,126.65c1.06-.2,2.23-.45,2.33-.74.1-.29-.93-.48-1.94-.59-5.01-.57-11.45-.37-17.54-.17-24.98.85-51.44,1.7-74.99,5.14-9.83,1.43-38.32,6.1-37.17,9.28,2.71,7.5,115.04-10.22,129.31-12.92Z" style="fill:#8c8b02; fill-rule:evenodd; stroke-width:0px;"/><path d="M1123.17,135.3c-9.21.93-17.48,2.69-22.5,4.79,5.92.93,14.88.34,22.6-.4,11.43-1.1,22.59-2.5,33.17-4.15,2.15-.34,4.52-.77,4.96-1.33.83-1.06-5.3-1.23-9.76-.99-15.76.88-31.36,2.63-45.13,5.07l16.66-2.99Z" style="fill:#8c8b02; fill-rule:evenodd; stroke-width:0px;"/><path d="M1097.02,145.04c7.53-2.12,21.2-2.8,28.93-1.46-8.7,3.2-26.34,5.09-39.75,4.24,1.77-1.2,6.46-2.25,11.56-2.6l-.75-.18Z" style="fill:#8c8b02; fill-rule:evenodd; stroke-width:0px;"/><path d="M1150.65,151.74c-3.97,1.04-7.7,2.58-4.76,3.5,2.24.7,7.07.57,11.19.35,21.54-1.14,42.96-3.34,62.39-6.42,3.29-.52,6.6-1.09,9.08-1.83,1.23-.37,2.28-.81,2.1-1.23-.24-.57-2.62-.84-4.84-1.01-23.8-1.75-56.17,1.65-75.17,6.63Z" style="fill:#8c8b02; fill-rule:evenodd; stroke-width:0px;"/><path d="M1112.21,158.15c-2.28.27-4.23.76-5.17,1.31,6.14-.17,12.43-.85,17.53-1.89-3.36-.61-8.86-.11-13.39.38l1.04.2Z" style="fill:#8c8b02; fill-rule:evenodd; stroke-width:0px;"/><path d="M999.87,179.87c-1.74.37-3.66.95-2.58,1.33.54.19,1.64.23,2.67.24,4.4.03,8.98-.36,13.43-.74,25.74-2.2,51.7-4.45,75.86-7.88,5-.71,10.04-1.5,13.77-2.58,1.03-.3,1.98-.65,1.98-.99,0-.69-3.49-.88-6.38-.87-19.15.03-37.7,2.3-55.46,4.68-15.04,2.02-30.08,4.03-43.29,6.83Z" style="fill:#8c8b02; fill-rule:evenodd; stroke-width:0px;"/><path d="M1099.13,168.86c1.49-.24,3-.51,4.07-.85,1.07-.35,1.62-.8.95-1.13-.63-.31-2.14-.43-3.61-.49-10.83-.44-35.55,1.21-38.51,4.75-2.84,3.39,31.56-1.38,37.1-2.28Z" style="fill:#8c8b02; fill-rule:evenodd; stroke-width:0px;"/><path d="M1152.9,136.71c-12.6,1.54-25.67,3.26-34.52,5.97-2.54.78-4.77,1.71-4.28,2.56.44.77,3.1,1.3,6.2,1.49s6.61.1,10.04-.05c11.83-.5,23.56-1.57,35.09-2.73,13.35-1.34,26.72-2.82,38.78-4.9,4.87-.84,10.06-2.04,9.84-3.31-.22-1.28-5.84-1.88-11.17-1.98-8.69-.17-17.99.47-26.87,1.27-11.97,1.09-23.67,2.5-34.74,4.2l11.62-2.52Z" style="fill:#8c8b02; fill-rule:evenodd; stroke-width:0px;"/><path d="M1205.13,123.93c6.78-.57,13.93-.91,20.26-.59,1.65.08,3.36.24,3.91.62.95.65-2.13,1.41-4.87,1.89-13.56,2.4-28.73,4.2-44.21,5.24-3.16.21-14.26,1.08-15.66.09-1.06-.75,7.99-2.47,10.48-2.99,8.94-1.88,19.31-3.35,30.1-4.26Z" style="fill:#8c8b02; fill-rule:evenodd; stroke-width:0px;"/><path d="M1224.22,117.69c-7.92.57-15.68,1.48-22.78,2.65-1.76.29-3.72.7-3.61,1.16.13.58,3.35.64,5.87.55,14.51-.51,29.2-1.99,41.92-4.22,1.21-.21,2.44-.44,3.28-.74.84-.3,1.22-.68.59-.93-.44-.18-1.26-.27-2.11-.33-4.42-.32-9.72.02-14.62.45-6.68.58-13.24,1.33-19.52,2.22l10.99-.8Z" style="fill:#8c8b02; fill-rule:evenodd; stroke-width:0px;"/><path d="M994.61,167.96c3.44-.27,7.28-.72,9.02-1.82.35-.22.6-.48.52-.72-.59-1.77-10.41-.65-13.35-.1-3.79.71-9.29,2.06-11.42,3.35,4.89.08,10.35-.33,15.23-.71Z" style="fill:#8c8b02; fill-rule:evenodd; stroke-width:0px;"/><path d="M1038.81,148.84c2.56-.52,5.72-.61,8.24-.23-2.08.73-4.93,1.18-7.75,1.23-.43,0-.91,0-1.19-.11-.37-.14-.22-.39.18-.54.39-.15.96-.24,1.5-.31l-.98-.03Z" style="fill:#8c8b02; fill-rule:evenodd; stroke-width:0px;"/><path d="M921.45,150.34c-6.94,1.28-13.73,2.64-20.32,4.07-1.02.22-2.13.49-2.26.82-.24.59,2.56.75,4.7.69,6.92-.19,13.84-.72,20.68-1.32,10.95-.95,21.8-2.08,32.48-3.36,5.2-.63,10.5-1.32,14.67-2.44.53-.14,1.06-.3,1.25-.49.57-.57-2.1-.8-4.15-.8-18.32.05-37.26,1.33-54.81,3.69l7.77-.86Z" style="fill:#8c8b02; fill-rule:evenodd; stroke-width:0px;"/><path d="M978.19,163.21c1.41-.04,3.23.08,3.31.57.06.38-1.05.69-2.05.89-4.38.87-9.36,1.31-14.18,1.26-1.08-.01-2.12-.2-2.9-.44,4.16-1.36,10.4-2.13,15.81-2.28Z" style="fill:#8c8b02; fill-rule:evenodd; stroke-width:0px;"/><path d="M996.32,144.91c-1.24-.11-2.66.19-3.76.47-.3.08-.63.17-.66.27-.07.22,1,.25,1.78.21,3.56-.16,7.62-.41,9.82-1.27-2.48-.23-5.5-.12-8.03.29l.85.03Z" style="fill:#8c8b02; fill-rule:evenodd; stroke-width:0px;"/><path d="M909.12,147.09c3.15-.34,6.62-.65,9.5-.36.6.06,1.18.15,1.45.31.48.28-.2.66-1.01.95-3.91,1.38-10.42,1.85-16.3,2.22-2.09.13-4.19.26-6.28.39-5.1.32-2.35-1.03-.29-1.59,3.34-.91,8.8-1.47,12.93-1.92Z" style="fill:#8c8b02; fill-rule:evenodd; stroke-width:0px;"/><path d="M935.26,146.39c-1.27.1-2.5.26-3.64.47-.63.12-1.3.37-.78.49.18.04.45.04.69.03,3.26-.05,6.63-.46,9.22-1.12-.92-.33-2.97-.34-4.3-.04l-1.2.16Z" style="fill:#8c8b02; fill-rule:evenodd; stroke-width:0px;"/><path d="M1014.89,185.37c3.24-.01,7.15.19,7.14.94,0,.33-.83.67-1.75.96-3.96,1.28-9.93,2.16-15.83,2.87-6.75.82-13.73,1.48-20.78,1.99-6.24.45-12.68.77-18.64.61-16.94-.46,4.96-4,11.41-4.84,12.25-1.58,25.67-2.48,38.46-2.53Z" style="fill:#8c8b02; fill-rule:evenodd; stroke-width:0px;"/><path d="M1015.18,188.9c-2.31.18-4.52.64-6.16,1.27-.25.1-.5.21-.56.33-.15.34,1.11.48,2.09.48,3.9-.01,7.88-.42,11.34-1.16.81-.17,1.68-.42,1.73-.74.06-.42-1.33-.63-2.53-.65-2.25-.04-4.61.23-6.48.74l.55-.26Z" style="fill:#8c8b02; fill-rule:evenodd; stroke-width:0px;"/><path d="M870.58,193.72c.35.59,2.61.65,4.36.58,9.63-.37,19.23-1.2,28.46-2.46,4.19-.57,8.32-1.23,12.05-2.15.61-.15,1.26-.33,1.41-.58.3-.51-1.62-.73-3.09-.74-8.67-.06-16.99.82-25.55,1.44-4.07.3-18.76,2.01-17.63,3.9Z" style="fill:#8c8b02; fill-rule:evenodd; stroke-width:0px;"/><path d="M1031.34,173.71c-.23.16-.42.34-.34.52.21.46,1.99.52,3.36.46,8.12-.32,16.22-.95,24.12-1.87,2.82-.33,5.65-.7,8.15-1.29,8.78-2.08-9.31-2.95-13.59-2.51-6.44.66-18.53,2.44-21.7,4.68Z" style="fill:#8c8b02; fill-rule:evenodd; stroke-width:0px;"/><path d="M1023.16,173.85c-1.56.1-3.03.48-3.79.98,4.88,0,9.86-.42,14.41-1.19.33-.06.69-.13.83-.25.3-.25-.63-.43-1.37-.46-3.62-.17-7.55.18-10.74.95l.65-.03Z" style="fill:#8c8b02; fill-rule:evenodd; stroke-width:0px;"/><path d="M1045.9,179.85c-.47.19-.9.41-.96.65-.1.43,1.05.73,2.18.86,2.91.36,6.25.17,9.43-.05,3.45-.24,7.01-.55,9.9-1.32,1.11-.29,2.17-.73,2.01-1.18-.2-.55-2-.77-3.56-.85-6.13-.31-14.39.02-18.99,1.89Z" style="fill:#8c8b02; fill-rule:evenodd; stroke-width:0px;"/><path d="M1071.38,177.27c1.98-.5,4.61-.66,6.75-.39.32.04.65.09.83.19.29.16.06.4-.37.55-.43.15-1.02.22-1.59.27-.83.08-1.67.13-2.52.15-.77.02-1.61,0-2.17-.16-.57-.16-.66-.53-.01-.7l-.92.09Z" style="fill:#8c8b02; fill-rule:evenodd; stroke-width:0px;"/><path d="M1170.25,156.92c-3.1.22-6.14.61-8.98,1.15-.27.05-.56.11-.69.21-.3.23.48.41,1.14.48,6.04.59,13.04.21,18.74-1.03,1.15-.25,2.42-.7,1.92-1.1-.32-.26-1.24-.34-2.07-.37-2.8-.09-5.69.14-8.51.37l-1.54.29Z" style="fill:#8c8b02; fill-rule:evenodd; stroke-width:0px;"/><path d="M1149.96,158.74c1.3-.18,2.68-.28,4.03-.29.94,0,2.08.08,2.26.39.15.27-.55.55-1.33.64-.78.09-1.59.05-2.36,0-.54-.03-1.08-.07-1.62-.1-.35-.02-.73-.05-.97-.14-.24-.09-.25-.26.07-.33l-.08-.17Z" style="fill:#8c8b02; fill-rule:evenodd; stroke-width:0px;"/><path d="M1080.82,144.38c2.88-.34,5.94-.72,7.89-1.56,4.39-1.88-7.23-1.77-9.69-1.67-3.9.16-7.02.53-10.33,1.35-2.59.64-10.99,2.29-6.2,3.07,4.49.74,13.77-.66,18.33-1.19Z" style="fill:#8c8b02; fill-rule:evenodd; stroke-width:0px;"/><path d="M1063.85,147.19c2.2-.52,5.02-.67,7.35-.39-1.91.64-4.61.97-7.09.88-.61-.02-1.33-.24-.85-.39l.6-.1Z" style="fill:#8c8b02; fill-rule:evenodd; stroke-width:0px;"/><path d="M865.19,177.94c-.66.19-1.39.43-1.39.71,0,.5,2.01.56,3.45.46,13.98-.93,27.82-2.33,41.26-4.18,1.96-.27,4.25-.69,4.5-1.41.32-.92-2.89-1.32-5.47-1.39-7.76-.2-17.42,0-24.93,1.21-6.3,1.02-12.04,3.04-17.43,4.59Z" style="fill:#8c8b02; fill-rule:evenodd; stroke-width:0px;"/><path d="M918.33,170.09c2.5-.35,5.16-.52,7.75-.49.78,0,1.8.15,1.56.42-.1.11-.37.18-.64.25-2.39.57-5.45.75-8.02.47l-.64-.64Z" style="fill:#8c8b02; fill-rule:evenodd; stroke-width:0px;"/><path d="M822.96,171.2c-7.18,1.06-14.1,2.37-20.62,3.91-2.16.51-4.43,1.12-5.21,1.97,2.16.29,4.69.08,7.05-.13,12.11-1.1,24.28-2.2,35.91-3.94,3.4-.51,7.08-1.19,8.49-2.39.2-.17.35-.37.13-.53-.19-.14-.6-.21-1-.26-2.64-.38-5.67-.4-8.63-.33-8.17.2-16.38,1.12-23.65,2.65l7.53-.94Z" style="fill:#8c8b02; fill-rule:evenodd; stroke-width:0px;"/><path d="M850.19,167.28c3.12-.65,6.88-.87,10.19-.58-2.38.92-6.33,1.29-9.4.89l-.79-.3Z" style="fill:#8c8b02; fill-rule:evenodd; stroke-width:0px;"/><path d="M1300.49,113.3c-1.4.43-2.9.95-2.94,1.57-.07,1.04,3.65,1.39,6.61,1.42,8.79.09,17.72-.26,26.47-1.02,9.68-.84,19.13-2.17,27.92-3.96,2.61-.53,5.35-1.18,6.47-2.15,6.64-5.69-12.43-7.02-23.16-5.68-15.13,1.89-29.27,6.11-41.38,9.8Z" style="fill:#8c8b02; fill-rule:evenodd; stroke-width:0px;"/><path d="M1321.38,101.6c5.99-1.45,13.29-2.18,20.2-2.01,1.72.04,3.68.21,4.25.76.73.71-1.29,1.47-3.25,1.91-6.69,1.48-15.31,1.67-21.77.48l.56-1.14Z" style="fill:#8c8b02; fill-rule:evenodd; stroke-width:0px;"/><path d="M1298.46,95.88c-7.98.51-15.74,1.83-22.06,3.75-1.41.43-2.88,1.12-1.95,1.62.54.29,1.66.36,2.68.4,9.73.37,19.91-.03,29.55-1.17,5.04-.59,10.4-1.54,12.65-3.24.46-.35.77-.74.41-1.08-.33-.3-1.14-.5-1.96-.65-5.07-.95-11.43-.99-17.38-.51-5.95.47-11.63,1.41-17.24,2.34l15.3-1.46Z" style="fill:#8c8b02; fill-rule:evenodd; stroke-width:0px;"/><path d="M1309.71,125.26c-7.9.37-15.72,1.41-22.59,3-1.39.32-2.95.85-2.45,1.36.37.37,1.66.5,2.79.56,12.26.68,25.71-.44,36.59-3.03,1.18-.28,2.45-.65,2.56-1.13.18-.81-2.83-1.07-5.14-1.03-5.86.09-11.76.49-17.44,1.18l5.67-.91Z" style="fill:#8c8b02; fill-rule:evenodd; stroke-width:0px;"/></g><polygon points="1358.25 162.75 1378.35 211.43 1101.35 229.52 1424.65 218.56 1538 229.52 1538 133.1 1437.01 152.88 1358.25 162.75" style="fill:#bb9a63; fill-rule:evenodd; mix-blend-mode:multiply; stroke-width:0px;"/></g></g></g></svg>