<?xml version="1.0" encoding="UTF-8"?><svg id="Layer_2" xmlns="http://www.w3.org/2000/svg" viewBox="0 0 945.09 142.69"><g id="forest"><polygon points="719.77 142.69 717.85 138.06 711.11 132.77 701.05 129.9 709.49 139.53 713.48 142.38 719.77 142.69" style="fill:#e47500; fill-rule:evenodd; stroke-width:0px;"/><polygon points="687.31 139.23 686.05 134.95 682.96 131.29 671.99 127.34 677.23 133.32 687.31 139.23" style="fill:#957500; fill-rule:evenodd; stroke-width:0px;"/><polygon points="11.31 105.74 10.38 102.58 8.1 99.88 0 96.96 3.87 101.37 11.31 105.74" style="fill:#957500; fill-rule:evenodd; stroke-width:0px;"/><polygon points="430.25 37.88 429.32 34.72 427.04 32.02 418.94 29.11 422.81 33.51 430.25 37.88" style="fill:#957500; fill-rule:evenodd; stroke-width:0px;"/><polygon points="703.03 54.56 697.39 47.96 685.07 41.15 678.78 38.62 690.9 52.44 703.03 54.56" style="fill:#ffc700; fill-rule:evenodd; stroke-width:0px;"/><polygon points="116.03 112.61 113.92 108.46 108.36 103.35 105.4 101.24 109.98 109.97 116.03 112.61" style="fill:#ffc700; fill-rule:evenodd; stroke-width:0px;"/><polygon points="24.36 119.43 18.73 112.83 6.41 106.02 .11 103.5 12.24 117.31 24.36 119.43" style="fill:#ffc700; fill-rule:evenodd; stroke-width:0px;"/><polygon points="322.86 105.62 317.22 99.02 304.9 92.21 298.61 89.68 310.73 103.5 322.86 105.62" style="fill:#ffc700; fill-rule:evenodd; stroke-width:0px;"/><polygon points="533.61 27.78 527.98 21.18 515.66 14.37 509.36 11.84 521.49 25.66 533.61 27.78" style="fill:#ffc700; fill-rule:evenodd; stroke-width:0px;"/><polygon points="705.56 67.03 703.03 65.16 699.16 65.16 694.64 65.76 703.03 69.62 705.56 67.03" style="fill:#957500; fill-rule:evenodd; stroke-width:0px;"/><polygon points="277.97 43.86 273.22 31.53 258.12 23.63 240.17 19.81 256.63 31.83 267.87 38.17 277.97 43.86" style="fill:#975c00; fill-rule:evenodd; stroke-width:0px;"/><polygon points="468.09 25.09 468.91 16.5 462.4 7.47 453.01 0 459.13 11.83 463.85 18.82 468.09 25.09" style="fill:#957500; stroke-width:0px;"/><polygon points="234.9 49.38 219.01 47.34 211.38 48.46 224.69 51.07 234.9 49.38" style="fill:#e47500; fill-rule:evenodd; stroke-width:0px;"/><polygon points="945.09 110.29 939.45 103.7 927.14 96.89 920.84 94.36 932.97 108.18 945.09 110.29" style="fill:#ffc700; fill-rule:evenodd; stroke-width:0px;"/><polygon points="900.2 48.53 895.46 36.21 880.36 28.31 862.4 24.49 878.87 36.51 890.11 42.84 900.2 48.53" style="fill:#975c00; fill-rule:evenodd; stroke-width:0px;"/><polygon points="857.13 54.05 841.24 52.02 833.61 53.13 846.92 55.75 857.13 54.05" style="fill:#e47500; fill-rule:evenodd; stroke-width:0px;"/><polygon points="378.31 46.76 362.42 44.73 354.8 45.84 368.1 48.46 378.31 46.76" style="fill:#e47500; fill-rule:evenodd; stroke-width:0px;"/></g></svg>